G04 #@! TF.GenerationSoftware,KiCad,Pcbnew,8.0.1*
G04 #@! TF.CreationDate,2024-03-31T20:51:02-03:00*
G04 #@! TF.ProjectId,Shield STM32 Bluepill,53686965-6c64-4205-9354-4d333220426c,2.0*
G04 #@! TF.SameCoordinates,Original*
G04 #@! TF.FileFunction,Paste,Top*
G04 #@! TF.FilePolarity,Positive*
%FSLAX46Y46*%
G04 Gerber Fmt 4.6, Leading zero omitted, Abs format (unit mm)*
G04 Created by KiCad (PCBNEW 8.0.1) date 2024-03-31 20:51:02*
%MOMM*%
%LPD*%
G01*
G04 APERTURE LIST*
G04 Aperture macros list*
%AMRoundRect*
0 Rectangle with rounded corners*
0 $1 Rounding radius*
0 $2 $3 $4 $5 $6 $7 $8 $9 X,Y pos of 4 corners*
0 Add a 4 corners polygon primitive as box body*
4,1,4,$2,$3,$4,$5,$6,$7,$8,$9,$2,$3,0*
0 Add four circle primitives for the rounded corners*
1,1,$1+$1,$2,$3*
1,1,$1+$1,$4,$5*
1,1,$1+$1,$6,$7*
1,1,$1+$1,$8,$9*
0 Add four rect primitives between the rounded corners*
20,1,$1+$1,$2,$3,$4,$5,0*
20,1,$1+$1,$4,$5,$6,$7,0*
20,1,$1+$1,$6,$7,$8,$9,0*
20,1,$1+$1,$8,$9,$2,$3,0*%
G04 Aperture macros list end*
%ADD10RoundRect,0.250000X0.625000X-0.312500X0.625000X0.312500X-0.625000X0.312500X-0.625000X-0.312500X0*%
%ADD11RoundRect,0.150000X-0.587500X-0.150000X0.587500X-0.150000X0.587500X0.150000X-0.587500X0.150000X0*%
%ADD12RoundRect,0.250000X0.625000X-0.375000X0.625000X0.375000X-0.625000X0.375000X-0.625000X-0.375000X0*%
%ADD13RoundRect,0.250000X-0.625000X0.312500X-0.625000X-0.312500X0.625000X-0.312500X0.625000X0.312500X0*%
%ADD14RoundRect,0.150000X-0.150000X0.587500X-0.150000X-0.587500X0.150000X-0.587500X0.150000X0.587500X0*%
%ADD15RoundRect,0.250000X-0.650000X0.325000X-0.650000X-0.325000X0.650000X-0.325000X0.650000X0.325000X0*%
%ADD16RoundRect,0.250000X0.312500X0.625000X-0.312500X0.625000X-0.312500X-0.625000X0.312500X-0.625000X0*%
%ADD17R,1.500000X0.900000*%
%ADD18RoundRect,0.250000X1.750000X1.000000X-1.750000X1.000000X-1.750000X-1.000000X1.750000X-1.000000X0*%
%ADD19RoundRect,0.150000X0.587500X0.150000X-0.587500X0.150000X-0.587500X-0.150000X0.587500X-0.150000X0*%
G04 APERTURE END LIST*
D10*
X146900000Y-105475000D03*
X146900000Y-102550000D03*
D11*
X172417500Y-53980000D03*
X172417500Y-55880000D03*
X174292500Y-54930000D03*
D10*
X155981400Y-79806800D03*
X155981400Y-76881800D03*
D11*
X135257300Y-58290700D03*
X135257300Y-60190700D03*
X137132300Y-59240700D03*
D12*
X171704000Y-89154000D03*
X171704000Y-86354000D03*
X148312500Y-74221800D03*
X148312500Y-71421800D03*
X136875000Y-74221800D03*
X136875000Y-71421800D03*
X159750000Y-74221800D03*
X159750000Y-71421800D03*
D13*
X159791400Y-76881800D03*
X159791400Y-79806800D03*
D12*
X144500000Y-74221800D03*
X144500000Y-71421800D03*
X152125000Y-74221800D03*
X152125000Y-71421800D03*
D10*
X136931400Y-79806800D03*
X136931400Y-76881800D03*
D14*
X174764500Y-66692500D03*
X172864500Y-66692500D03*
X173814500Y-68567500D03*
D12*
X140687500Y-74221800D03*
X140687500Y-71421800D03*
D15*
X186182000Y-31418000D03*
X186182000Y-34368000D03*
D11*
X135290000Y-53050000D03*
X135290000Y-54950000D03*
X137165000Y-54000000D03*
D10*
X140741400Y-79806800D03*
X140741400Y-76881800D03*
D16*
X179070000Y-64135000D03*
X176145000Y-64135000D03*
D13*
X188976000Y-49784000D03*
X188976000Y-52709000D03*
D10*
X171450000Y-62230000D03*
X171450000Y-59305000D03*
X131025000Y-102475000D03*
X131025000Y-99550000D03*
D17*
X171392000Y-110050000D03*
X171392000Y-113350000D03*
X176292000Y-113350000D03*
X176292000Y-110050000D03*
D10*
X148361400Y-79806800D03*
X148361400Y-76881800D03*
X152171400Y-79806800D03*
X152171400Y-76881800D03*
X177800000Y-60837000D03*
X177800000Y-57912000D03*
D18*
X199834000Y-33020000D03*
X191834000Y-33020000D03*
D19*
X175562500Y-81595000D03*
X175562500Y-79695000D03*
X173687500Y-80645000D03*
D12*
X155937500Y-74221800D03*
X155937500Y-71421800D03*
D13*
X179450000Y-110050000D03*
X179450000Y-112975000D03*
D15*
X167350000Y-110000000D03*
X167350000Y-112950000D03*
D10*
X144551400Y-79806800D03*
X144551400Y-76881800D03*
X178308000Y-76454000D03*
X178308000Y-73529000D03*
D16*
X171196000Y-50292000D03*
X168271000Y-50292000D03*
D12*
X175514000Y-89154000D03*
X175514000Y-86354000D03*
M02*
