M48
; DRILL file {KiCad 8.0.1} date 2024-03-31T20:52:49-0300
; FORMAT={-:-/ absolute / metric / decimal}
; #@! TF.CreationDate,2024-03-31T20:52:49-03:00
; #@! TF.GenerationSoftware,Kicad,Pcbnew,8.0.1
; #@! TF.FileFunction,Plated,1,2,PTH
FMAT,2
METRIC
; #@! TA.AperFunction,Plated,PTH,ViaDrill
T1C0.400
; #@! TA.AperFunction,Plated,PTH,ComponentDrill
T2C0.400
; #@! TA.AperFunction,Plated,PTH,ComponentDrill
T3C0.700
; #@! TA.AperFunction,Plated,PTH,ComponentDrill
T4C0.800
; #@! TA.AperFunction,Plated,PTH,ComponentDrill
T5C1.000
; #@! TA.AperFunction,Plated,PTH,ComponentDrill
T6C1.100
; #@! TA.AperFunction,Plated,PTH,ComponentDrill
T7C1.190
; #@! TA.AperFunction,Plated,PTH,ComponentDrill
T8C1.200
; #@! TA.AperFunction,Plated,PTH,ComponentDrill
T9C1.300
; #@! TA.AperFunction,Plated,PTH,ComponentDrill
T10C2.200
%
G90
G05
T1
X117.221Y-100.076
X119.253Y-101.981
X119.634Y-59.69
X120.1Y-51.3
X120.12Y-106.02
X121.031Y-101.854
X121.793Y-70.866
X121.92Y-72.771
X123.21Y-57.61
X123.34Y-67.27
X123.825Y-32.639
X124.079Y-106.934
X124.079Y-108.712
X124.079Y-110.49
X125.73Y-106.934
X125.73Y-110.617
X125.857Y-30.734
X125.857Y-34.544
X125.857Y-108.712
X127.635Y-107.95
X127.762Y-32.639
X127.889Y-88.011
X129.31Y-53.03
X130.429Y-110.871
X130.683Y-109.474
X131.58Y-51.75
X131.63Y-47.15
X131.85Y-80.875
X131.86Y-77.4
X132.461Y-37.592
X132.95Y-86.2
X133.223Y-29.718
X133.223Y-107.442
X133.35Y-77.39
X133.35Y-80.8
X133.604Y-97.282
X134.61Y-47.14
X134.62Y-56.51
X134.874Y-107.442
X134.874Y-111.125
X135.001Y-109.22
X135.509Y-94.869
X135.58Y-67.27
X135.636Y-99.822
X138.1Y-107.35
X138.825Y-74.2
X140.6Y-86.2
X141.732Y-41.021
X141.732Y-44.958
X142.6Y-74.2
X145.35Y-37.55
X145.796Y-111.76
X146.55Y-74.2
X147.05Y-107.3
X147.075Y-94.4
X147.701Y-111.633
X149.1Y-61.75
X149.479Y-32.004
X150.175Y-43.25
X150.175Y-74.3
X151.384Y-87.122
X151.765Y-34.798
X151.892Y-29.718
X152.171Y-81.846
X154.062Y-74.162
X154.305Y-32.258
X156.8Y-61.725
X157.125Y-102.625
X157.8Y-74.2
X158.75Y-105.1
X162.56Y-114.046
X162.687Y-108.966
X164.846Y-100.838
X164.973Y-111.379
X165.227Y-98.806
X165.481Y-41.91
X165.608Y-112.776
X167.35Y-114.3
X167.767Y-43.815
X167.8Y-106.45
X167.894Y-98.679
X167.894Y-101.346
X169.418Y-106.426
X169.418Y-109.35
X170.942Y-66.548
X171.8Y-35.575
X172.339Y-57.277
X173.482Y-56.896
X174.498Y-113.411
X175.514Y-60.706
X175.768Y-28.702
X176.3Y-114.959
X176.325Y-78.1
X177.927Y-33.909
X177.927Y-114.554
X178.525Y-94.925
X178.6Y-83.35
X179.451Y-33.401
X179.8Y-102.825
X179.8Y-108.59
X180.594Y-55.88
X180.721Y-58.166
X181.991Y-52.451
X183.769Y-57.15
X183.896Y-54.356
X184.326Y-34.465
X185.05Y-44.1
X185.725Y-89.175
X186.182Y-35.941
X186.436Y-29.972
X186.563Y-75.184
X188.214Y-34.417
X188.341Y-31.115
X188.595Y-57.277
X189.6Y-100.75
X190.373Y-55.372
X190.5Y-75.311
X191.897Y-35.687
X192.405Y-30.607
X193.04Y-89.154
X193.4Y-65.4
X194.8Y-72.35
X195.453Y-32.893
X195.961Y-46.863
X196.1Y-56.1
X200.66Y-46.736
X201.041Y-58.801
X201.041Y-65.278
X201.041Y-78.613
X201.168Y-72.009
X202.438Y-97.79
X202.692Y-81.788
X202.692Y-85.471
X202.819Y-87.249
X202.946Y-69.85
X202.946Y-76.581
X203.0Y-28.75
X203.073Y-56.642
X203.2Y-60.833
X203.2Y-74.295
X203.327Y-63.246
X203.327Y-67.564
X204.216Y-99.314
X204.47Y-83.82
X204.5Y-93.3
X204.597Y-89.027
X205.232Y-58.801
X205.232Y-78.486
X205.359Y-72.644
X205.74Y-82.804
X206.502Y-48.26
X206.883Y-36.703
X206.883Y-74.93
X207.01Y-86.995
X208.788Y-76.708
X208.915Y-84.836
X208.915Y-93.091
X209.042Y-45.72
X209.042Y-50.673
X209.169Y-34.29
X211.455Y-36.703
X211.582Y-48.26
X211.582Y-48.26
X212.65Y-60.775
X213.125Y-78.25
X213.2Y-107.85
T2
X117.96Y-113.514
X118.183Y-30.933
X118.444Y-112.348
X118.444Y-114.681
X118.667Y-29.767
X118.667Y-32.1
X119.61Y-111.864
X119.61Y-115.164
X119.833Y-29.283
X119.833Y-32.583
X120.777Y-112.348
X120.777Y-114.681
X121.0Y-29.767
X121.0Y-32.1
X121.26Y-113.514
X121.483Y-30.933
X209.25Y-30.9
X209.25Y-113.0
X209.733Y-29.733
X209.733Y-32.067
X209.733Y-111.833
X209.733Y-114.167
X210.9Y-29.25
X210.9Y-32.55
X210.9Y-111.35
X210.9Y-114.65
X212.067Y-29.733
X212.067Y-32.067
X212.067Y-111.833
X212.067Y-114.167
X212.55Y-30.9
X212.55Y-113.0
T3
X197.358Y-99.314
X199.898Y-96.774
X202.438Y-99.314
T4
X145.186Y-53.972
X145.186Y-66.472
X147.726Y-53.972
X147.726Y-66.472
X150.266Y-53.972
X150.266Y-66.472
X152.806Y-53.972
X152.806Y-66.472
X155.346Y-53.972
X155.346Y-66.472
X190.35Y-57.13
X190.35Y-59.67
X190.35Y-62.21
X190.35Y-64.75
X197.702Y-83.66
X197.702Y-89.06
X200.202Y-83.66
X200.202Y-89.06
X202.702Y-83.66
X202.702Y-89.06
T5
X125.86Y-32.52
X125.86Y-45.22
X126.17Y-70.11
X126.17Y-72.65
X126.17Y-75.19
X126.17Y-77.73
X126.17Y-80.27
X126.17Y-82.81
X126.17Y-85.35
X126.17Y-87.89
X128.4Y-37.6
X135.128Y-29.718
X135.128Y-32.258
X136.652Y-43.18
X137.668Y-29.718
X137.668Y-32.258
X139.192Y-43.18
X140.208Y-29.718
X140.208Y-32.258
X141.702Y-113.538
X141.732Y-43.18
X142.748Y-29.718
X142.748Y-32.258
X144.242Y-113.538
X144.272Y-43.18
X146.782Y-113.538
X149.322Y-113.538
X152.258Y-92.456
X152.4Y-97.028
X154.798Y-92.456
X154.94Y-97.028
X157.338Y-92.456
X157.48Y-97.028
X166.735Y-54.345
X166.735Y-56.885
X166.735Y-59.425
X166.735Y-61.965
X166.735Y-64.505
X166.735Y-67.045
X166.735Y-69.585
X166.735Y-72.125
X166.735Y-74.665
X166.735Y-77.205
X166.735Y-79.745
X166.735Y-82.285
X166.735Y-84.825
X166.735Y-87.365
X166.735Y-89.905
X166.735Y-92.445
X166.735Y-94.985
X166.735Y-97.525
X166.735Y-100.065
X166.735Y-102.605
X181.483Y-43.053
X181.975Y-54.345
X181.975Y-56.885
X181.975Y-59.425
X181.975Y-61.965
X181.975Y-64.505
X181.975Y-67.045
X181.975Y-69.585
X181.975Y-72.125
X181.975Y-74.665
X181.975Y-77.205
X181.975Y-79.745
X181.975Y-82.285
X181.975Y-84.825
X181.975Y-87.365
X181.975Y-89.905
X181.975Y-92.445
X181.975Y-94.985
X181.975Y-97.525
X181.975Y-100.065
X181.975Y-102.605
X188.468Y-75.184
X188.468Y-77.724
X188.468Y-80.264
X188.468Y-82.804
X188.468Y-85.344
X188.468Y-87.884
X189.083Y-43.053
X208.788Y-67.056
X208.788Y-69.596
X208.788Y-72.136
X208.788Y-74.676
X208.788Y-86.741
X208.788Y-89.281
X208.788Y-95.04
X208.788Y-97.58
X208.788Y-100.12
T6
X176.911Y-31.242
X179.451Y-31.242
X181.991Y-31.242
X198.628Y-58.726
X198.628Y-65.226
X198.628Y-71.934
X198.628Y-78.434
X203.128Y-58.726
X203.128Y-65.226
X203.128Y-71.934
X203.128Y-78.434
T7
X135.636Y-97.262
X138.176Y-97.262
X140.716Y-97.262
X143.256Y-97.262
X153.162Y-43.688
X155.702Y-43.688
X158.242Y-43.688
X160.782Y-43.688
X163.322Y-43.688
X165.862Y-43.688
X198.1Y-44.15
X198.1Y-46.69
X198.1Y-49.23
X198.1Y-51.77
T8
X119.786Y-61.722
X119.786Y-64.262
X119.786Y-66.802
X119.786Y-69.342
X119.786Y-71.882
X119.786Y-74.422
X119.786Y-87.122
X119.786Y-89.662
X119.786Y-92.202
X119.786Y-94.742
X119.786Y-97.282
X119.786Y-99.822
T9
X151.892Y-32.258
X156.972Y-32.258
X157.475Y-111.557
X162.052Y-32.258
X162.555Y-111.557
X167.132Y-32.258
X186.436Y-111.57
X191.516Y-111.57
X198.628Y-111.506
X203.708Y-111.506
X209.042Y-48.26
X209.042Y-53.34
X209.093Y-36.581
X209.093Y-41.661
T10
X119.61Y-113.514
X119.833Y-30.933
X210.9Y-30.9
X210.9Y-113.0
M30
