%TF.GenerationSoftware,KiCad,Pcbnew,8.0.1*%
%TF.CreationDate,2024-03-31T20:53:12-03:00*%
%TF.ProjectId,Shield STM32 Bluepill,53686965-6c64-4205-9354-4d333220426c,2.0*%
%TF.SameCoordinates,Original*%
%TF.FileFunction,Drillmap*%
%TF.FilePolarity,Positive*%
%FSLAX45Y45*%
G04 Gerber Fmt 4.5, Leading zero omitted, Abs format (unit mm)*
G04 Created by KiCad (PCBNEW 8.0.1) date 2024-03-31 20:53:12*
%MOMM*%
%LPD*%
G01*
G04 APERTURE LIST*
%ADD10C,0.100000*%
%ADD11C,0.200000*%
%ADD12C,0.110000*%
%ADD13C,0.119000*%
%ADD14C,0.120000*%
%ADD15C,0.130000*%
%ADD16C,0.220000*%
G04 APERTURE END LIST*
D10*
X21080000Y-2670000D02*
G75*
G02*
X21460000Y-3050000I0J-380000D01*
G01*
X21460000Y-11300000D02*
G75*
G02*
X21080000Y-11680000I-380000J0D01*
G01*
X11940000Y-11680000D02*
G75*
G02*
X11560000Y-11300000I0J380000D01*
G01*
X11940000Y-11680000D02*
X21080000Y-11680000D01*
X11560000Y-3050000D02*
X11560000Y-11300000D01*
X11560000Y-3050000D02*
G75*
G02*
X11940000Y-2670000I380000J0D01*
G01*
X21080000Y-2670000D02*
X11940000Y-2670000D01*
X21460000Y-11300000D02*
X21460000Y-3050000D01*
D11*
D10*
X11702100Y-9987600D02*
X11742100Y-10027600D01*
X11742100Y-9987600D02*
X11702100Y-10027600D01*
X11905300Y-10178100D02*
X11945300Y-10218100D01*
X11945300Y-10178100D02*
X11905300Y-10218100D01*
X11943400Y-5949000D02*
X11983400Y-5989000D01*
X11983400Y-5949000D02*
X11943400Y-5989000D01*
X11990000Y-5110000D02*
X12030000Y-5150000D01*
X12030000Y-5110000D02*
X11990000Y-5150000D01*
X11992000Y-10582000D02*
X12032000Y-10622000D01*
X12032000Y-10582000D02*
X11992000Y-10622000D01*
X12083100Y-10165400D02*
X12123100Y-10205400D01*
X12123100Y-10165400D02*
X12083100Y-10205400D01*
X12159300Y-7066600D02*
X12199300Y-7106600D01*
X12199300Y-7066600D02*
X12159300Y-7106600D01*
X12172000Y-7257100D02*
X12212000Y-7297100D01*
X12212000Y-7257100D02*
X12172000Y-7297100D01*
X12301000Y-5741000D02*
X12341000Y-5781000D01*
X12341000Y-5741000D02*
X12301000Y-5781000D01*
X12314000Y-6707000D02*
X12354000Y-6747000D01*
X12354000Y-6707000D02*
X12314000Y-6747000D01*
X12362500Y-3243900D02*
X12402500Y-3283900D01*
X12402500Y-3243900D02*
X12362500Y-3283900D01*
X12387900Y-10673400D02*
X12427900Y-10713400D01*
X12427900Y-10673400D02*
X12387900Y-10713400D01*
X12387900Y-10851200D02*
X12427900Y-10891200D01*
X12427900Y-10851200D02*
X12387900Y-10891200D01*
X12387900Y-11029000D02*
X12427900Y-11069000D01*
X12427900Y-11029000D02*
X12387900Y-11069000D01*
X12553000Y-10673400D02*
X12593000Y-10713400D01*
X12593000Y-10673400D02*
X12553000Y-10713400D01*
X12553000Y-11041700D02*
X12593000Y-11081700D01*
X12593000Y-11041700D02*
X12553000Y-11081700D01*
X12565700Y-3053400D02*
X12605700Y-3093400D01*
X12605700Y-3053400D02*
X12565700Y-3093400D01*
X12565700Y-3434400D02*
X12605700Y-3474400D01*
X12605700Y-3434400D02*
X12565700Y-3474400D01*
X12565700Y-10851200D02*
X12605700Y-10891200D01*
X12605700Y-10851200D02*
X12565700Y-10891200D01*
X12743500Y-10775000D02*
X12783500Y-10815000D01*
X12783500Y-10775000D02*
X12743500Y-10815000D01*
X12756200Y-3243900D02*
X12796200Y-3283900D01*
X12796200Y-3243900D02*
X12756200Y-3283900D01*
X12768900Y-8781100D02*
X12808900Y-8821100D01*
X12808900Y-8781100D02*
X12768900Y-8821100D01*
X12911000Y-5283000D02*
X12951000Y-5323000D01*
X12951000Y-5283000D02*
X12911000Y-5323000D01*
X13022900Y-11067100D02*
X13062900Y-11107100D01*
X13062900Y-11067100D02*
X13022900Y-11107100D01*
X13048300Y-10927400D02*
X13088300Y-10967400D01*
X13088300Y-10927400D02*
X13048300Y-10967400D01*
X13138000Y-5155000D02*
X13178000Y-5195000D01*
X13178000Y-5155000D02*
X13138000Y-5195000D01*
X13143000Y-4695000D02*
X13183000Y-4735000D01*
X13183000Y-4695000D02*
X13143000Y-4735000D01*
X13165000Y-8067500D02*
X13205000Y-8107500D01*
X13205000Y-8067500D02*
X13165000Y-8107500D01*
X13166000Y-7720000D02*
X13206000Y-7760000D01*
X13206000Y-7720000D02*
X13166000Y-7760000D01*
X13226100Y-3739200D02*
X13266100Y-3779200D01*
X13266100Y-3739200D02*
X13226100Y-3779200D01*
X13275000Y-8600000D02*
X13315000Y-8640000D01*
X13315000Y-8600000D02*
X13275000Y-8640000D01*
X13302300Y-2951800D02*
X13342300Y-2991800D01*
X13342300Y-2951800D02*
X13302300Y-2991800D01*
X13302300Y-10724200D02*
X13342300Y-10764200D01*
X13342300Y-10724200D02*
X13302300Y-10764200D01*
X13315000Y-7719000D02*
X13355000Y-7759000D01*
X13355000Y-7719000D02*
X13315000Y-7759000D01*
X13315000Y-8060000D02*
X13355000Y-8100000D01*
X13355000Y-8060000D02*
X13315000Y-8100000D01*
X13340400Y-9708200D02*
X13380400Y-9748200D01*
X13380400Y-9708200D02*
X13340400Y-9748200D01*
X13441000Y-4694000D02*
X13481000Y-4734000D01*
X13481000Y-4694000D02*
X13441000Y-4734000D01*
X13442000Y-5631000D02*
X13482000Y-5671000D01*
X13482000Y-5631000D02*
X13442000Y-5671000D01*
X13467400Y-10724200D02*
X13507400Y-10764200D01*
X13507400Y-10724200D02*
X13467400Y-10764200D01*
X13467400Y-11092500D02*
X13507400Y-11132500D01*
X13507400Y-11092500D02*
X13467400Y-11132500D01*
X13480100Y-10902000D02*
X13520100Y-10942000D01*
X13520100Y-10902000D02*
X13480100Y-10942000D01*
X13530900Y-9466900D02*
X13570900Y-9506900D01*
X13570900Y-9466900D02*
X13530900Y-9506900D01*
X13538000Y-6707000D02*
X13578000Y-6747000D01*
X13578000Y-6707000D02*
X13538000Y-6747000D01*
X13543600Y-9962200D02*
X13583600Y-10002200D01*
X13583600Y-9962200D02*
X13543600Y-10002200D01*
X13790000Y-10715000D02*
X13830000Y-10755000D01*
X13830000Y-10715000D02*
X13790000Y-10755000D01*
X13862500Y-7400000D02*
X13902500Y-7440000D01*
X13902500Y-7400000D02*
X13862500Y-7440000D01*
X14040000Y-8600000D02*
X14080000Y-8640000D01*
X14080000Y-8600000D02*
X14040000Y-8640000D01*
X14153200Y-4082100D02*
X14193200Y-4122100D01*
X14193200Y-4082100D02*
X14153200Y-4122100D01*
X14153200Y-4475800D02*
X14193200Y-4515800D01*
X14193200Y-4475800D02*
X14153200Y-4515800D01*
X14240000Y-7400000D02*
X14280000Y-7440000D01*
X14280000Y-7400000D02*
X14240000Y-7440000D01*
X14515000Y-3735000D02*
X14555000Y-3775000D01*
X14555000Y-3735000D02*
X14515000Y-3775000D01*
X14559600Y-11156000D02*
X14599600Y-11196000D01*
X14599600Y-11156000D02*
X14559600Y-11196000D01*
X14635000Y-7400000D02*
X14675000Y-7440000D01*
X14675000Y-7400000D02*
X14635000Y-7440000D01*
X14685000Y-10710000D02*
X14725000Y-10750000D01*
X14725000Y-10710000D02*
X14685000Y-10750000D01*
X14687500Y-9420000D02*
X14727500Y-9460000D01*
X14727500Y-9420000D02*
X14687500Y-9460000D01*
X14750100Y-11143300D02*
X14790100Y-11183300D01*
X14790100Y-11143300D02*
X14750100Y-11183300D01*
X14890000Y-6155000D02*
X14930000Y-6195000D01*
X14930000Y-6155000D02*
X14890000Y-6195000D01*
X14927900Y-3180400D02*
X14967900Y-3220400D01*
X14967900Y-3180400D02*
X14927900Y-3220400D01*
X14997500Y-4305000D02*
X15037500Y-4345000D01*
X15037500Y-4305000D02*
X14997500Y-4345000D01*
X14997500Y-7410000D02*
X15037500Y-7450000D01*
X15037500Y-7410000D02*
X14997500Y-7450000D01*
X15118400Y-8692200D02*
X15158400Y-8732200D01*
X15158400Y-8692200D02*
X15118400Y-8732200D01*
X15156500Y-3459800D02*
X15196500Y-3499800D01*
X15196500Y-3459800D02*
X15156500Y-3499800D01*
X15169200Y-2951800D02*
X15209200Y-2991800D01*
X15209200Y-2951800D02*
X15169200Y-2991800D01*
X15197140Y-8164640D02*
X15237140Y-8204640D01*
X15237140Y-8164640D02*
X15197140Y-8204640D01*
X15386250Y-7396250D02*
X15426250Y-7436250D01*
X15426250Y-7396250D02*
X15386250Y-7436250D01*
X15410500Y-3205800D02*
X15450500Y-3245800D01*
X15450500Y-3205800D02*
X15410500Y-3245800D01*
X15660000Y-6152500D02*
X15700000Y-6192500D01*
X15700000Y-6152500D02*
X15660000Y-6192500D01*
X15692500Y-10242500D02*
X15732500Y-10282500D01*
X15732500Y-10242500D02*
X15692500Y-10282500D01*
X15760000Y-7400000D02*
X15800000Y-7440000D01*
X15800000Y-7400000D02*
X15760000Y-7440000D01*
X15855000Y-10490000D02*
X15895000Y-10530000D01*
X15895000Y-10490000D02*
X15855000Y-10530000D01*
X16236000Y-11384600D02*
X16276000Y-11424600D01*
X16276000Y-11384600D02*
X16236000Y-11424600D01*
X16248700Y-10876600D02*
X16288700Y-10916600D01*
X16288700Y-10876600D02*
X16248700Y-10916600D01*
X16464600Y-10063800D02*
X16504600Y-10103800D01*
X16504600Y-10063800D02*
X16464600Y-10103800D01*
X16477300Y-11117900D02*
X16517300Y-11157900D01*
X16517300Y-11117900D02*
X16477300Y-11157900D01*
X16502700Y-9860600D02*
X16542700Y-9900600D01*
X16542700Y-9860600D02*
X16502700Y-9900600D01*
X16528100Y-4171000D02*
X16568100Y-4211000D01*
X16568100Y-4171000D02*
X16528100Y-4211000D01*
X16540800Y-11257600D02*
X16580800Y-11297600D01*
X16580800Y-11257600D02*
X16540800Y-11297600D01*
X16715000Y-11410000D02*
X16755000Y-11450000D01*
X16755000Y-11410000D02*
X16715000Y-11450000D01*
X16756700Y-4361500D02*
X16796700Y-4401500D01*
X16796700Y-4361500D02*
X16756700Y-4401500D01*
X16760000Y-10625000D02*
X16800000Y-10665000D01*
X16800000Y-10625000D02*
X16760000Y-10665000D01*
X16769400Y-9847900D02*
X16809400Y-9887900D01*
X16809400Y-9847900D02*
X16769400Y-9887900D01*
X16769400Y-10114600D02*
X16809400Y-10154600D01*
X16809400Y-10114600D02*
X16769400Y-10154600D01*
X16921800Y-10622600D02*
X16961800Y-10662600D01*
X16961800Y-10622600D02*
X16921800Y-10662600D01*
X16921800Y-10915000D02*
X16961800Y-10955000D01*
X16961800Y-10915000D02*
X16921800Y-10955000D01*
X17074200Y-6634800D02*
X17114200Y-6674800D01*
X17114200Y-6634800D02*
X17074200Y-6674800D01*
X17160000Y-3537500D02*
X17200000Y-3577500D01*
X17200000Y-3537500D02*
X17160000Y-3577500D01*
X17213900Y-5707700D02*
X17253900Y-5747700D01*
X17253900Y-5707700D02*
X17213900Y-5747700D01*
X17328200Y-5669600D02*
X17368200Y-5709600D01*
X17368200Y-5669600D02*
X17328200Y-5709600D01*
X17429800Y-11321100D02*
X17469800Y-11361100D01*
X17469800Y-11321100D02*
X17429800Y-11361100D01*
X17531400Y-6050600D02*
X17571400Y-6090600D01*
X17571400Y-6050600D02*
X17531400Y-6090600D01*
X17556800Y-2850200D02*
X17596800Y-2890200D01*
X17596800Y-2850200D02*
X17556800Y-2890200D01*
X17610000Y-11475950D02*
X17650000Y-11515950D01*
X17650000Y-11475950D02*
X17610000Y-11515950D01*
X17612500Y-7790000D02*
X17652500Y-7830000D01*
X17652500Y-7790000D02*
X17612500Y-7830000D01*
X17772700Y-3370900D02*
X17812700Y-3410900D01*
X17812700Y-3370900D02*
X17772700Y-3410900D01*
X17772700Y-11435400D02*
X17812700Y-11475400D01*
X17812700Y-11435400D02*
X17772700Y-11475400D01*
X17832500Y-9472500D02*
X17872500Y-9512500D01*
X17872500Y-9472500D02*
X17832500Y-9512500D01*
X17840000Y-8315000D02*
X17880000Y-8355000D01*
X17880000Y-8315000D02*
X17840000Y-8355000D01*
X17925100Y-3320100D02*
X17965100Y-3360100D01*
X17965100Y-3320100D02*
X17925100Y-3360100D01*
X17960000Y-10262500D02*
X18000000Y-10302500D01*
X18000000Y-10262500D02*
X17960000Y-10302500D01*
X17960000Y-10839050D02*
X18000000Y-10879050D01*
X18000000Y-10839050D02*
X17960000Y-10879050D01*
X18039400Y-5568000D02*
X18079400Y-5608000D01*
X18079400Y-5568000D02*
X18039400Y-5608000D01*
X18052100Y-5796600D02*
X18092100Y-5836600D01*
X18092100Y-5796600D02*
X18052100Y-5836600D01*
X18179100Y-5225100D02*
X18219100Y-5265100D01*
X18219100Y-5225100D02*
X18179100Y-5265100D01*
X18356900Y-5695000D02*
X18396900Y-5735000D01*
X18396900Y-5695000D02*
X18356900Y-5735000D01*
X18369600Y-5415600D02*
X18409600Y-5455600D01*
X18409600Y-5415600D02*
X18369600Y-5455600D01*
X18412550Y-3426550D02*
X18452550Y-3466550D01*
X18452550Y-3426550D02*
X18412550Y-3466550D01*
X18485000Y-4390000D02*
X18525000Y-4430000D01*
X18525000Y-4390000D02*
X18485000Y-4430000D01*
X18552500Y-8897500D02*
X18592500Y-8937500D01*
X18592500Y-8897500D02*
X18552500Y-8937500D01*
X18598200Y-3574100D02*
X18638200Y-3614100D01*
X18638200Y-3574100D02*
X18598200Y-3614100D01*
X18623600Y-2977200D02*
X18663600Y-3017200D01*
X18663600Y-2977200D02*
X18623600Y-3017200D01*
X18636300Y-7498400D02*
X18676300Y-7538400D01*
X18676300Y-7498400D02*
X18636300Y-7538400D01*
X18801400Y-3421700D02*
X18841400Y-3461700D01*
X18841400Y-3421700D02*
X18801400Y-3461700D01*
X18814100Y-3091500D02*
X18854100Y-3131500D01*
X18854100Y-3091500D02*
X18814100Y-3131500D01*
X18839500Y-5707700D02*
X18879500Y-5747700D01*
X18879500Y-5707700D02*
X18839500Y-5747700D01*
X18940000Y-10055000D02*
X18980000Y-10095000D01*
X18980000Y-10055000D02*
X18940000Y-10095000D01*
X19017300Y-5517200D02*
X19057300Y-5557200D01*
X19057300Y-5517200D02*
X19017300Y-5557200D01*
X19030000Y-7511100D02*
X19070000Y-7551100D01*
X19070000Y-7511100D02*
X19030000Y-7551100D01*
X19169700Y-3548700D02*
X19209700Y-3588700D01*
X19209700Y-3548700D02*
X19169700Y-3588700D01*
X19220500Y-3040700D02*
X19260500Y-3080700D01*
X19260500Y-3040700D02*
X19220500Y-3080700D01*
X19284000Y-8895400D02*
X19324000Y-8935400D01*
X19324000Y-8895400D02*
X19284000Y-8935400D01*
X19320000Y-6520000D02*
X19360000Y-6560000D01*
X19360000Y-6520000D02*
X19320000Y-6560000D01*
X19460000Y-7215000D02*
X19500000Y-7255000D01*
X19500000Y-7215000D02*
X19460000Y-7255000D01*
X19525300Y-3269300D02*
X19565300Y-3309300D01*
X19565300Y-3269300D02*
X19525300Y-3309300D01*
X19576100Y-4666300D02*
X19616100Y-4706300D01*
X19616100Y-4666300D02*
X19576100Y-4706300D01*
X19590000Y-5590000D02*
X19630000Y-5630000D01*
X19630000Y-5590000D02*
X19590000Y-5630000D01*
X20046000Y-4653600D02*
X20086000Y-4693600D01*
X20086000Y-4653600D02*
X20046000Y-4693600D01*
X20084100Y-5860100D02*
X20124100Y-5900100D01*
X20124100Y-5860100D02*
X20084100Y-5900100D01*
X20084100Y-6507800D02*
X20124100Y-6547800D01*
X20124100Y-6507800D02*
X20084100Y-6547800D01*
X20084100Y-7841300D02*
X20124100Y-7881300D01*
X20124100Y-7841300D02*
X20084100Y-7881300D01*
X20096800Y-7180900D02*
X20136800Y-7220900D01*
X20136800Y-7180900D02*
X20096800Y-7220900D01*
X20223800Y-9759000D02*
X20263800Y-9799000D01*
X20263800Y-9759000D02*
X20223800Y-9799000D01*
X20249200Y-8158800D02*
X20289200Y-8198800D01*
X20289200Y-8158800D02*
X20249200Y-8198800D01*
X20249200Y-8527100D02*
X20289200Y-8567100D01*
X20289200Y-8527100D02*
X20249200Y-8567100D01*
X20261900Y-8704900D02*
X20301900Y-8744900D01*
X20301900Y-8704900D02*
X20261900Y-8744900D01*
X20274600Y-6965000D02*
X20314600Y-7005000D01*
X20314600Y-6965000D02*
X20274600Y-7005000D01*
X20274600Y-7638100D02*
X20314600Y-7678100D01*
X20314600Y-7638100D02*
X20274600Y-7678100D01*
X20280000Y-2855000D02*
X20320000Y-2895000D01*
X20320000Y-2855000D02*
X20280000Y-2895000D01*
X20287300Y-5644200D02*
X20327300Y-5684200D01*
X20327300Y-5644200D02*
X20287300Y-5684200D01*
X20300000Y-6063300D02*
X20340000Y-6103300D01*
X20340000Y-6063300D02*
X20300000Y-6103300D01*
X20300000Y-7409500D02*
X20340000Y-7449500D01*
X20340000Y-7409500D02*
X20300000Y-7449500D01*
X20312700Y-6304600D02*
X20352700Y-6344600D01*
X20352700Y-6304600D02*
X20312700Y-6344600D01*
X20312700Y-6736400D02*
X20352700Y-6776400D01*
X20352700Y-6736400D02*
X20312700Y-6776400D01*
X20401600Y-9911400D02*
X20441600Y-9951400D01*
X20441600Y-9911400D02*
X20401600Y-9951400D01*
X20427000Y-8362000D02*
X20467000Y-8402000D01*
X20467000Y-8362000D02*
X20427000Y-8402000D01*
X20430000Y-9310000D02*
X20470000Y-9350000D01*
X20470000Y-9310000D02*
X20430000Y-9350000D01*
X20439700Y-8882700D02*
X20479700Y-8922700D01*
X20479700Y-8882700D02*
X20439700Y-8922700D01*
X20503200Y-5860100D02*
X20543200Y-5900100D01*
X20543200Y-5860100D02*
X20503200Y-5900100D01*
X20503200Y-7828600D02*
X20543200Y-7868600D01*
X20543200Y-7828600D02*
X20503200Y-7868600D01*
X20515900Y-7244400D02*
X20555900Y-7284400D01*
X20555900Y-7244400D02*
X20515900Y-7284400D01*
X20554000Y-8260400D02*
X20594000Y-8300400D01*
X20594000Y-8260400D02*
X20554000Y-8300400D01*
X20630200Y-4806000D02*
X20670200Y-4846000D01*
X20670200Y-4806000D02*
X20630200Y-4846000D01*
X20668300Y-3650300D02*
X20708300Y-3690300D01*
X20708300Y-3650300D02*
X20668300Y-3690300D01*
X20668300Y-7473000D02*
X20708300Y-7513000D01*
X20708300Y-7473000D02*
X20668300Y-7513000D01*
X20681000Y-8679500D02*
X20721000Y-8719500D01*
X20721000Y-8679500D02*
X20681000Y-8719500D01*
X20858800Y-7650800D02*
X20898800Y-7690800D01*
X20898800Y-7650800D02*
X20858800Y-7690800D01*
X20871500Y-8463600D02*
X20911500Y-8503600D01*
X20911500Y-8463600D02*
X20871500Y-8503600D01*
X20871500Y-9289100D02*
X20911500Y-9329100D01*
X20911500Y-9289100D02*
X20871500Y-9329100D01*
X20884200Y-4552000D02*
X20924200Y-4592000D01*
X20924200Y-4552000D02*
X20884200Y-4592000D01*
X20884200Y-5047300D02*
X20924200Y-5087300D01*
X20924200Y-5047300D02*
X20884200Y-5087300D01*
X20896900Y-3409000D02*
X20936900Y-3449000D01*
X20936900Y-3409000D02*
X20896900Y-3449000D01*
X21125500Y-3650300D02*
X21165500Y-3690300D01*
X21165500Y-3650300D02*
X21125500Y-3690300D01*
X21138200Y-4806000D02*
X21178200Y-4846000D01*
X21178200Y-4806000D02*
X21138200Y-4846000D01*
X21138200Y-4806000D02*
X21178200Y-4846000D01*
X21178200Y-4806000D02*
X21138200Y-4846000D01*
X21245000Y-6057500D02*
X21285000Y-6097500D01*
X21285000Y-6057500D02*
X21245000Y-6097500D01*
X21292500Y-7805000D02*
X21332500Y-7845000D01*
X21332500Y-7805000D02*
X21292500Y-7845000D01*
X21300000Y-10765000D02*
X21340000Y-10805000D01*
X21340000Y-10765000D02*
X21300000Y-10805000D01*
X11816027Y-11351427D02*
G75*
G02*
X11776027Y-11351427I-20000J0D01*
G01*
X11776027Y-11351427D02*
G75*
G02*
X11816027Y-11351427I20000J0D01*
G01*
X11838327Y-3093327D02*
G75*
G02*
X11798327Y-3093327I-20000J0D01*
G01*
X11798327Y-3093327D02*
G75*
G02*
X11838327Y-3093327I20000J0D01*
G01*
X11864355Y-11234755D02*
G75*
G02*
X11824355Y-11234755I-20000J0D01*
G01*
X11824355Y-11234755D02*
G75*
G02*
X11864355Y-11234755I20000J0D01*
G01*
X11864355Y-11468100D02*
G75*
G02*
X11824355Y-11468100I-20000J0D01*
G01*
X11824355Y-11468100D02*
G75*
G02*
X11864355Y-11468100I20000J0D01*
G01*
X11886655Y-2976655D02*
G75*
G02*
X11846655Y-2976655I-20000J0D01*
G01*
X11846655Y-2976655D02*
G75*
G02*
X11886655Y-2976655I20000J0D01*
G01*
X11886655Y-3210000D02*
G75*
G02*
X11846655Y-3210000I-20000J0D01*
G01*
X11846655Y-3210000D02*
G75*
G02*
X11886655Y-3210000I20000J0D01*
G01*
X11981027Y-11186427D02*
G75*
G02*
X11941027Y-11186427I-20000J0D01*
G01*
X11941027Y-11186427D02*
G75*
G02*
X11981027Y-11186427I20000J0D01*
G01*
X11981027Y-11516427D02*
G75*
G02*
X11941027Y-11516427I-20000J0D01*
G01*
X11941027Y-11516427D02*
G75*
G02*
X11981027Y-11516427I20000J0D01*
G01*
X12003327Y-2928327D02*
G75*
G02*
X11963327Y-2928327I-20000J0D01*
G01*
X11963327Y-2928327D02*
G75*
G02*
X12003327Y-2928327I20000J0D01*
G01*
X12003327Y-3258327D02*
G75*
G02*
X11963327Y-3258327I-20000J0D01*
G01*
X11963327Y-3258327D02*
G75*
G02*
X12003327Y-3258327I20000J0D01*
G01*
X12097700Y-11234755D02*
G75*
G02*
X12057700Y-11234755I-20000J0D01*
G01*
X12057700Y-11234755D02*
G75*
G02*
X12097700Y-11234755I20000J0D01*
G01*
X12097700Y-11468100D02*
G75*
G02*
X12057700Y-11468100I-20000J0D01*
G01*
X12057700Y-11468100D02*
G75*
G02*
X12097700Y-11468100I20000J0D01*
G01*
X12120000Y-2976655D02*
G75*
G02*
X12080000Y-2976655I-20000J0D01*
G01*
X12080000Y-2976655D02*
G75*
G02*
X12120000Y-2976655I20000J0D01*
G01*
X12120000Y-3210000D02*
G75*
G02*
X12080000Y-3210000I-20000J0D01*
G01*
X12080000Y-3210000D02*
G75*
G02*
X12120000Y-3210000I20000J0D01*
G01*
X12146027Y-11351427D02*
G75*
G02*
X12106027Y-11351427I-20000J0D01*
G01*
X12106027Y-11351427D02*
G75*
G02*
X12146027Y-11351427I20000J0D01*
G01*
X12168327Y-3093327D02*
G75*
G02*
X12128327Y-3093327I-20000J0D01*
G01*
X12128327Y-3093327D02*
G75*
G02*
X12168327Y-3093327I20000J0D01*
G01*
X20945000Y-3090000D02*
G75*
G02*
X20905000Y-3090000I-20000J0D01*
G01*
X20905000Y-3090000D02*
G75*
G02*
X20945000Y-3090000I20000J0D01*
G01*
X20945000Y-11300000D02*
G75*
G02*
X20905000Y-11300000I-20000J0D01*
G01*
X20905000Y-11300000D02*
G75*
G02*
X20945000Y-11300000I20000J0D01*
G01*
X20993327Y-2973327D02*
G75*
G02*
X20953327Y-2973327I-20000J0D01*
G01*
X20953327Y-2973327D02*
G75*
G02*
X20993327Y-2973327I20000J0D01*
G01*
X20993327Y-3206673D02*
G75*
G02*
X20953327Y-3206673I-20000J0D01*
G01*
X20953327Y-3206673D02*
G75*
G02*
X20993327Y-3206673I20000J0D01*
G01*
X20993327Y-11183327D02*
G75*
G02*
X20953327Y-11183327I-20000J0D01*
G01*
X20953327Y-11183327D02*
G75*
G02*
X20993327Y-11183327I20000J0D01*
G01*
X20993327Y-11416673D02*
G75*
G02*
X20953327Y-11416673I-20000J0D01*
G01*
X20953327Y-11416673D02*
G75*
G02*
X20993327Y-11416673I20000J0D01*
G01*
X21110000Y-2925000D02*
G75*
G02*
X21070000Y-2925000I-20000J0D01*
G01*
X21070000Y-2925000D02*
G75*
G02*
X21110000Y-2925000I20000J0D01*
G01*
X21110000Y-3255000D02*
G75*
G02*
X21070000Y-3255000I-20000J0D01*
G01*
X21070000Y-3255000D02*
G75*
G02*
X21110000Y-3255000I20000J0D01*
G01*
X21110000Y-11135000D02*
G75*
G02*
X21070000Y-11135000I-20000J0D01*
G01*
X21070000Y-11135000D02*
G75*
G02*
X21110000Y-11135000I20000J0D01*
G01*
X21110000Y-11465000D02*
G75*
G02*
X21070000Y-11465000I-20000J0D01*
G01*
X21070000Y-11465000D02*
G75*
G02*
X21110000Y-11465000I20000J0D01*
G01*
X21226673Y-2973327D02*
G75*
G02*
X21186673Y-2973327I-20000J0D01*
G01*
X21186673Y-2973327D02*
G75*
G02*
X21226673Y-2973327I20000J0D01*
G01*
X21226673Y-3206673D02*
G75*
G02*
X21186673Y-3206673I-20000J0D01*
G01*
X21186673Y-3206673D02*
G75*
G02*
X21226673Y-3206673I20000J0D01*
G01*
X21226673Y-11183327D02*
G75*
G02*
X21186673Y-11183327I-20000J0D01*
G01*
X21186673Y-11183327D02*
G75*
G02*
X21226673Y-11183327I20000J0D01*
G01*
X21226673Y-11416673D02*
G75*
G02*
X21186673Y-11416673I-20000J0D01*
G01*
X21186673Y-11416673D02*
G75*
G02*
X21226673Y-11416673I20000J0D01*
G01*
X21275000Y-3090000D02*
G75*
G02*
X21235000Y-3090000I-20000J0D01*
G01*
X21235000Y-3090000D02*
G75*
G02*
X21275000Y-3090000I20000J0D01*
G01*
X21275000Y-11300000D02*
G75*
G02*
X21235000Y-11300000I-20000J0D01*
G01*
X21235000Y-11300000D02*
G75*
G02*
X21275000Y-11300000I20000J0D01*
G01*
X19735800Y-9896400D02*
X19735800Y-9966400D01*
X19700800Y-9931400D02*
X19770800Y-9931400D01*
X19989800Y-9642400D02*
X19989800Y-9712400D01*
X19954800Y-9677400D02*
X20024800Y-9677400D01*
X20243800Y-9896400D02*
X20243800Y-9966400D01*
X20208800Y-9931400D02*
X20278800Y-9931400D01*
X14546924Y-5425465D02*
X14546924Y-5368896D01*
X14490355Y-5368896D01*
X14490355Y-5425465D01*
X14546924Y-5425465D01*
X14546924Y-6675464D02*
X14546924Y-6618895D01*
X14490355Y-6618895D01*
X14490355Y-6675464D01*
X14546924Y-6675464D01*
X14800924Y-5425465D02*
X14800924Y-5368896D01*
X14744355Y-5368896D01*
X14744355Y-5425465D01*
X14800924Y-5425465D01*
X14800924Y-6675464D02*
X14800924Y-6618895D01*
X14744355Y-6618895D01*
X14744355Y-6675464D01*
X14800924Y-6675464D01*
X15054924Y-5425465D02*
X15054924Y-5368896D01*
X14998355Y-5368896D01*
X14998355Y-5425465D01*
X15054924Y-5425465D01*
X15054924Y-6675464D02*
X15054924Y-6618895D01*
X14998355Y-6618895D01*
X14998355Y-6675464D01*
X15054924Y-6675464D01*
X15308924Y-5425465D02*
X15308924Y-5368896D01*
X15252355Y-5368896D01*
X15252355Y-5425465D01*
X15308924Y-5425465D01*
X15308924Y-6675464D02*
X15308924Y-6618895D01*
X15252355Y-6618895D01*
X15252355Y-6675464D01*
X15308924Y-6675464D01*
X15562924Y-5425465D02*
X15562924Y-5368896D01*
X15506355Y-5368896D01*
X15506355Y-5425465D01*
X15562924Y-5425465D01*
X15562924Y-6675464D02*
X15562924Y-6618895D01*
X15506355Y-6618895D01*
X15506355Y-6675464D01*
X15562924Y-6675464D01*
X19063285Y-5741284D02*
X19063285Y-5684715D01*
X19006716Y-5684715D01*
X19006716Y-5741284D01*
X19063285Y-5741284D01*
X19063285Y-5995284D02*
X19063285Y-5938715D01*
X19006716Y-5938715D01*
X19006716Y-5995284D01*
X19063285Y-5995284D01*
X19063285Y-6249284D02*
X19063285Y-6192715D01*
X19006716Y-6192715D01*
X19006716Y-6249284D01*
X19063285Y-6249284D01*
X19063285Y-6503284D02*
X19063285Y-6446715D01*
X19006716Y-6446715D01*
X19006716Y-6503284D01*
X19063285Y-6503284D01*
X19798485Y-8394285D02*
X19798485Y-8337715D01*
X19741916Y-8337715D01*
X19741916Y-8394285D01*
X19798485Y-8394285D01*
X19798485Y-8934285D02*
X19798485Y-8877716D01*
X19741916Y-8877716D01*
X19741916Y-8934285D01*
X19798485Y-8934285D01*
X20048485Y-8394285D02*
X20048485Y-8337715D01*
X19991916Y-8337715D01*
X19991916Y-8394285D01*
X20048485Y-8394285D01*
X20048485Y-8934285D02*
X20048485Y-8877716D01*
X19991916Y-8877716D01*
X19991916Y-8934285D01*
X20048485Y-8934285D01*
X20298485Y-8394285D02*
X20298485Y-8337715D01*
X20241916Y-8337715D01*
X20241916Y-8394285D01*
X20298485Y-8394285D01*
X20298485Y-8934285D02*
X20298485Y-8877716D01*
X20241916Y-8877716D01*
X20241916Y-8934285D01*
X20298485Y-8934285D01*
X12586000Y-3302000D02*
X12636000Y-3252000D01*
X12586000Y-3202000D01*
X12536000Y-3252000D01*
X12586000Y-3302000D01*
X12586000Y-4572000D02*
X12636000Y-4522000D01*
X12586000Y-4472000D01*
X12536000Y-4522000D01*
X12586000Y-4572000D01*
X12617000Y-7061000D02*
X12667000Y-7011000D01*
X12617000Y-6961000D01*
X12567000Y-7011000D01*
X12617000Y-7061000D01*
X12617000Y-7315000D02*
X12667000Y-7265000D01*
X12617000Y-7215000D01*
X12567000Y-7265000D01*
X12617000Y-7315000D01*
X12617000Y-7569000D02*
X12667000Y-7519000D01*
X12617000Y-7469000D01*
X12567000Y-7519000D01*
X12617000Y-7569000D01*
X12617000Y-7823000D02*
X12667000Y-7773000D01*
X12617000Y-7723000D01*
X12567000Y-7773000D01*
X12617000Y-7823000D01*
X12617000Y-8077000D02*
X12667000Y-8027000D01*
X12617000Y-7977000D01*
X12567000Y-8027000D01*
X12617000Y-8077000D01*
X12617000Y-8331000D02*
X12667000Y-8281000D01*
X12617000Y-8231000D01*
X12567000Y-8281000D01*
X12617000Y-8331000D01*
X12617000Y-8585000D02*
X12667000Y-8535000D01*
X12617000Y-8485000D01*
X12567000Y-8535000D01*
X12617000Y-8585000D01*
X12617000Y-8839000D02*
X12667000Y-8789000D01*
X12617000Y-8739000D01*
X12567000Y-8789000D01*
X12617000Y-8839000D01*
X12840000Y-3810000D02*
X12890000Y-3760000D01*
X12840000Y-3710000D01*
X12790000Y-3760000D01*
X12840000Y-3810000D01*
X13512800Y-3021800D02*
X13562800Y-2971800D01*
X13512800Y-2921800D01*
X13462800Y-2971800D01*
X13512800Y-3021800D01*
X13512800Y-3275800D02*
X13562800Y-3225800D01*
X13512800Y-3175800D01*
X13462800Y-3225800D01*
X13512800Y-3275800D01*
X13665200Y-4368000D02*
X13715200Y-4318000D01*
X13665200Y-4268000D01*
X13615200Y-4318000D01*
X13665200Y-4368000D01*
X13766800Y-3021800D02*
X13816800Y-2971800D01*
X13766800Y-2921800D01*
X13716800Y-2971800D01*
X13766800Y-3021800D01*
X13766800Y-3275800D02*
X13816800Y-3225800D01*
X13766800Y-3175800D01*
X13716800Y-3225800D01*
X13766800Y-3275800D01*
X13919200Y-4368000D02*
X13969200Y-4318000D01*
X13919200Y-4268000D01*
X13869200Y-4318000D01*
X13919200Y-4368000D01*
X14020800Y-3021800D02*
X14070800Y-2971800D01*
X14020800Y-2921800D01*
X13970800Y-2971800D01*
X14020800Y-3021800D01*
X14020800Y-3275800D02*
X14070800Y-3225800D01*
X14020800Y-3175800D01*
X13970800Y-3225800D01*
X14020800Y-3275800D01*
X14170200Y-11403800D02*
X14220200Y-11353800D01*
X14170200Y-11303800D01*
X14120200Y-11353800D01*
X14170200Y-11403800D01*
X14173200Y-4368000D02*
X14223200Y-4318000D01*
X14173200Y-4268000D01*
X14123200Y-4318000D01*
X14173200Y-4368000D01*
X14274800Y-3021800D02*
X14324800Y-2971800D01*
X14274800Y-2921800D01*
X14224800Y-2971800D01*
X14274800Y-3021800D01*
X14274800Y-3275800D02*
X14324800Y-3225800D01*
X14274800Y-3175800D01*
X14224800Y-3225800D01*
X14274800Y-3275800D01*
X14424200Y-11403800D02*
X14474200Y-11353800D01*
X14424200Y-11303800D01*
X14374200Y-11353800D01*
X14424200Y-11403800D01*
X14427200Y-4368000D02*
X14477200Y-4318000D01*
X14427200Y-4268000D01*
X14377200Y-4318000D01*
X14427200Y-4368000D01*
X14678200Y-11403800D02*
X14728200Y-11353800D01*
X14678200Y-11303800D01*
X14628200Y-11353800D01*
X14678200Y-11403800D01*
X14932200Y-11403800D02*
X14982200Y-11353800D01*
X14932200Y-11303800D01*
X14882200Y-11353800D01*
X14932200Y-11403800D01*
X15225800Y-9295600D02*
X15275800Y-9245600D01*
X15225800Y-9195600D01*
X15175800Y-9245600D01*
X15225800Y-9295600D01*
X15240000Y-9752800D02*
X15290000Y-9702800D01*
X15240000Y-9652800D01*
X15190000Y-9702800D01*
X15240000Y-9752800D01*
X15479800Y-9295600D02*
X15529800Y-9245600D01*
X15479800Y-9195600D01*
X15429800Y-9245600D01*
X15479800Y-9295600D01*
X15494000Y-9752800D02*
X15544000Y-9702800D01*
X15494000Y-9652800D01*
X15444000Y-9702800D01*
X15494000Y-9752800D01*
X15733800Y-9295600D02*
X15783800Y-9245600D01*
X15733800Y-9195600D01*
X15683800Y-9245600D01*
X15733800Y-9295600D01*
X15748000Y-9752800D02*
X15798000Y-9702800D01*
X15748000Y-9652800D01*
X15698000Y-9702800D01*
X15748000Y-9752800D01*
X16673500Y-5484500D02*
X16723500Y-5434500D01*
X16673500Y-5384500D01*
X16623500Y-5434500D01*
X16673500Y-5484500D01*
X16673500Y-5738500D02*
X16723500Y-5688500D01*
X16673500Y-5638500D01*
X16623500Y-5688500D01*
X16673500Y-5738500D01*
X16673500Y-5992500D02*
X16723500Y-5942500D01*
X16673500Y-5892500D01*
X16623500Y-5942500D01*
X16673500Y-5992500D01*
X16673500Y-6246500D02*
X16723500Y-6196500D01*
X16673500Y-6146500D01*
X16623500Y-6196500D01*
X16673500Y-6246500D01*
X16673500Y-6500500D02*
X16723500Y-6450500D01*
X16673500Y-6400500D01*
X16623500Y-6450500D01*
X16673500Y-6500500D01*
X16673500Y-6754500D02*
X16723500Y-6704500D01*
X16673500Y-6654500D01*
X16623500Y-6704500D01*
X16673500Y-6754500D01*
X16673500Y-7008500D02*
X16723500Y-6958500D01*
X16673500Y-6908500D01*
X16623500Y-6958500D01*
X16673500Y-7008500D01*
X16673500Y-7262500D02*
X16723500Y-7212500D01*
X16673500Y-7162500D01*
X16623500Y-7212500D01*
X16673500Y-7262500D01*
X16673500Y-7516500D02*
X16723500Y-7466500D01*
X16673500Y-7416500D01*
X16623500Y-7466500D01*
X16673500Y-7516500D01*
X16673500Y-7770500D02*
X16723500Y-7720500D01*
X16673500Y-7670500D01*
X16623500Y-7720500D01*
X16673500Y-7770500D01*
X16673500Y-8024500D02*
X16723500Y-7974500D01*
X16673500Y-7924500D01*
X16623500Y-7974500D01*
X16673500Y-8024500D01*
X16673500Y-8278500D02*
X16723500Y-8228500D01*
X16673500Y-8178500D01*
X16623500Y-8228500D01*
X16673500Y-8278500D01*
X16673500Y-8532500D02*
X16723500Y-8482500D01*
X16673500Y-8432500D01*
X16623500Y-8482500D01*
X16673500Y-8532500D01*
X16673500Y-8786500D02*
X16723500Y-8736500D01*
X16673500Y-8686500D01*
X16623500Y-8736500D01*
X16673500Y-8786500D01*
X16673500Y-9040500D02*
X16723500Y-8990500D01*
X16673500Y-8940500D01*
X16623500Y-8990500D01*
X16673500Y-9040500D01*
X16673500Y-9294500D02*
X16723500Y-9244500D01*
X16673500Y-9194500D01*
X16623500Y-9244500D01*
X16673500Y-9294500D01*
X16673500Y-9548500D02*
X16723500Y-9498500D01*
X16673500Y-9448500D01*
X16623500Y-9498500D01*
X16673500Y-9548500D01*
X16673500Y-9802500D02*
X16723500Y-9752500D01*
X16673500Y-9702500D01*
X16623500Y-9752500D01*
X16673500Y-9802500D01*
X16673500Y-10056500D02*
X16723500Y-10006500D01*
X16673500Y-9956500D01*
X16623500Y-10006500D01*
X16673500Y-10056500D01*
X16673500Y-10310500D02*
X16723500Y-10260500D01*
X16673500Y-10210500D01*
X16623500Y-10260500D01*
X16673500Y-10310500D01*
X18148300Y-4355300D02*
X18198300Y-4305300D01*
X18148300Y-4255300D01*
X18098300Y-4305300D01*
X18148300Y-4355300D01*
X18197500Y-5484500D02*
X18247500Y-5434500D01*
X18197500Y-5384500D01*
X18147500Y-5434500D01*
X18197500Y-5484500D01*
X18197500Y-5738500D02*
X18247500Y-5688500D01*
X18197500Y-5638500D01*
X18147500Y-5688500D01*
X18197500Y-5738500D01*
X18197500Y-5992500D02*
X18247500Y-5942500D01*
X18197500Y-5892500D01*
X18147500Y-5942500D01*
X18197500Y-5992500D01*
X18197500Y-6246500D02*
X18247500Y-6196500D01*
X18197500Y-6146500D01*
X18147500Y-6196500D01*
X18197500Y-6246500D01*
X18197500Y-6500500D02*
X18247500Y-6450500D01*
X18197500Y-6400500D01*
X18147500Y-6450500D01*
X18197500Y-6500500D01*
X18197500Y-6754500D02*
X18247500Y-6704500D01*
X18197500Y-6654500D01*
X18147500Y-6704500D01*
X18197500Y-6754500D01*
X18197500Y-7008500D02*
X18247500Y-6958500D01*
X18197500Y-6908500D01*
X18147500Y-6958500D01*
X18197500Y-7008500D01*
X18197500Y-7262500D02*
X18247500Y-7212500D01*
X18197500Y-7162500D01*
X18147500Y-7212500D01*
X18197500Y-7262500D01*
X18197500Y-7516500D02*
X18247500Y-7466500D01*
X18197500Y-7416500D01*
X18147500Y-7466500D01*
X18197500Y-7516500D01*
X18197500Y-7770500D02*
X18247500Y-7720500D01*
X18197500Y-7670500D01*
X18147500Y-7720500D01*
X18197500Y-7770500D01*
X18197500Y-8024500D02*
X18247500Y-7974500D01*
X18197500Y-7924500D01*
X18147500Y-7974500D01*
X18197500Y-8024500D01*
X18197500Y-8278500D02*
X18247500Y-8228500D01*
X18197500Y-8178500D01*
X18147500Y-8228500D01*
X18197500Y-8278500D01*
X18197500Y-8532500D02*
X18247500Y-8482500D01*
X18197500Y-8432500D01*
X18147500Y-8482500D01*
X18197500Y-8532500D01*
X18197500Y-8786500D02*
X18247500Y-8736500D01*
X18197500Y-8686500D01*
X18147500Y-8736500D01*
X18197500Y-8786500D01*
X18197500Y-9040500D02*
X18247500Y-8990500D01*
X18197500Y-8940500D01*
X18147500Y-8990500D01*
X18197500Y-9040500D01*
X18197500Y-9294500D02*
X18247500Y-9244500D01*
X18197500Y-9194500D01*
X18147500Y-9244500D01*
X18197500Y-9294500D01*
X18197500Y-9548500D02*
X18247500Y-9498500D01*
X18197500Y-9448500D01*
X18147500Y-9498500D01*
X18197500Y-9548500D01*
X18197500Y-9802500D02*
X18247500Y-9752500D01*
X18197500Y-9702500D01*
X18147500Y-9752500D01*
X18197500Y-9802500D01*
X18197500Y-10056500D02*
X18247500Y-10006500D01*
X18197500Y-9956500D01*
X18147500Y-10006500D01*
X18197500Y-10056500D01*
X18197500Y-10310500D02*
X18247500Y-10260500D01*
X18197500Y-10210500D01*
X18147500Y-10260500D01*
X18197500Y-10310500D01*
X18846800Y-7568400D02*
X18896800Y-7518400D01*
X18846800Y-7468400D01*
X18796800Y-7518400D01*
X18846800Y-7568400D01*
X18846800Y-7822400D02*
X18896800Y-7772400D01*
X18846800Y-7722400D01*
X18796800Y-7772400D01*
X18846800Y-7822400D01*
X18846800Y-8076400D02*
X18896800Y-8026400D01*
X18846800Y-7976400D01*
X18796800Y-8026400D01*
X18846800Y-8076400D01*
X18846800Y-8330400D02*
X18896800Y-8280400D01*
X18846800Y-8230400D01*
X18796800Y-8280400D01*
X18846800Y-8330400D01*
X18846800Y-8584400D02*
X18896800Y-8534400D01*
X18846800Y-8484400D01*
X18796800Y-8534400D01*
X18846800Y-8584400D01*
X18846800Y-8838400D02*
X18896800Y-8788400D01*
X18846800Y-8738400D01*
X18796800Y-8788400D01*
X18846800Y-8838400D01*
X18908300Y-4355300D02*
X18958300Y-4305300D01*
X18908300Y-4255300D01*
X18858300Y-4305300D01*
X18908300Y-4355300D01*
X20878800Y-6755600D02*
X20928800Y-6705600D01*
X20878800Y-6655600D01*
X20828800Y-6705600D01*
X20878800Y-6755600D01*
X20878800Y-7009600D02*
X20928800Y-6959600D01*
X20878800Y-6909600D01*
X20828800Y-6959600D01*
X20878800Y-7009600D01*
X20878800Y-7263600D02*
X20928800Y-7213600D01*
X20878800Y-7163600D01*
X20828800Y-7213600D01*
X20878800Y-7263600D01*
X20878800Y-7517600D02*
X20928800Y-7467600D01*
X20878800Y-7417600D01*
X20828800Y-7467600D01*
X20878800Y-7517600D01*
X20878800Y-8724100D02*
X20928800Y-8674100D01*
X20878800Y-8624100D01*
X20828800Y-8674100D01*
X20878800Y-8724100D01*
X20878800Y-8978100D02*
X20928800Y-8928100D01*
X20878800Y-8878100D01*
X20828800Y-8928100D01*
X20878800Y-8978100D01*
X20878800Y-9554000D02*
X20928800Y-9504000D01*
X20878800Y-9454000D01*
X20828800Y-9504000D01*
X20878800Y-9554000D01*
X20878800Y-9808000D02*
X20928800Y-9758000D01*
X20878800Y-9708000D01*
X20828800Y-9758000D01*
X20878800Y-9808000D01*
X20878800Y-10062000D02*
X20928800Y-10012000D01*
X20878800Y-9962000D01*
X20828800Y-10012000D01*
X20878800Y-10062000D01*
D12*
X17636100Y-3069200D02*
X17746100Y-3179200D01*
X17746100Y-3069200D02*
X17636100Y-3179200D01*
X17746100Y-3124200D02*
G75*
G02*
X17636100Y-3124200I-55000J0D01*
G01*
X17636100Y-3124200D02*
G75*
G02*
X17746100Y-3124200I55000J0D01*
G01*
X17890100Y-3069200D02*
X18000100Y-3179200D01*
X18000100Y-3069200D02*
X17890100Y-3179200D01*
X18000100Y-3124200D02*
G75*
G02*
X17890100Y-3124200I-55000J0D01*
G01*
X17890100Y-3124200D02*
G75*
G02*
X18000100Y-3124200I55000J0D01*
G01*
X18144100Y-3069200D02*
X18254100Y-3179200D01*
X18254100Y-3069200D02*
X18144100Y-3179200D01*
X18254100Y-3124200D02*
G75*
G02*
X18144100Y-3124200I-55000J0D01*
G01*
X18144100Y-3124200D02*
G75*
G02*
X18254100Y-3124200I55000J0D01*
G01*
X19807800Y-5817600D02*
X19917800Y-5927600D01*
X19917800Y-5817600D02*
X19807800Y-5927600D01*
X19917800Y-5872600D02*
G75*
G02*
X19807800Y-5872600I-55000J0D01*
G01*
X19807800Y-5872600D02*
G75*
G02*
X19917800Y-5872600I55000J0D01*
G01*
X19807800Y-6467600D02*
X19917800Y-6577600D01*
X19917800Y-6467600D02*
X19807800Y-6577600D01*
X19917800Y-6522600D02*
G75*
G02*
X19807800Y-6522600I-55000J0D01*
G01*
X19807800Y-6522600D02*
G75*
G02*
X19917800Y-6522600I55000J0D01*
G01*
X19807800Y-7138400D02*
X19917800Y-7248400D01*
X19917800Y-7138400D02*
X19807800Y-7248400D01*
X19917800Y-7193400D02*
G75*
G02*
X19807800Y-7193400I-55000J0D01*
G01*
X19807800Y-7193400D02*
G75*
G02*
X19917800Y-7193400I55000J0D01*
G01*
X19807800Y-7788400D02*
X19917800Y-7898400D01*
X19917800Y-7788400D02*
X19807800Y-7898400D01*
X19917800Y-7843400D02*
G75*
G02*
X19807800Y-7843400I-55000J0D01*
G01*
X19807800Y-7843400D02*
G75*
G02*
X19917800Y-7843400I55000J0D01*
G01*
X20257800Y-5817600D02*
X20367800Y-5927600D01*
X20367800Y-5817600D02*
X20257800Y-5927600D01*
X20367800Y-5872600D02*
G75*
G02*
X20257800Y-5872600I-55000J0D01*
G01*
X20257800Y-5872600D02*
G75*
G02*
X20367800Y-5872600I55000J0D01*
G01*
X20257800Y-6467600D02*
X20367800Y-6577600D01*
X20367800Y-6467600D02*
X20257800Y-6577600D01*
X20367800Y-6522600D02*
G75*
G02*
X20257800Y-6522600I-55000J0D01*
G01*
X20257800Y-6522600D02*
G75*
G02*
X20367800Y-6522600I55000J0D01*
G01*
X20257800Y-7138400D02*
X20367800Y-7248400D01*
X20367800Y-7138400D02*
X20257800Y-7248400D01*
X20367800Y-7193400D02*
G75*
G02*
X20257800Y-7193400I-55000J0D01*
G01*
X20257800Y-7193400D02*
G75*
G02*
X20367800Y-7193400I55000J0D01*
G01*
X20257800Y-7788400D02*
X20367800Y-7898400D01*
X20367800Y-7788400D02*
X20257800Y-7898400D01*
X20367800Y-7843400D02*
G75*
G02*
X20257800Y-7843400I-55000J0D01*
G01*
X20257800Y-7843400D02*
G75*
G02*
X20367800Y-7843400I55000J0D01*
G01*
D13*
X13504100Y-9666700D02*
X13623100Y-9785700D01*
X13623100Y-9666700D02*
X13504100Y-9785700D01*
X13563600Y-9666700D02*
X13563600Y-9785700D01*
X13504100Y-9726200D02*
X13623100Y-9726200D01*
X13758100Y-9666700D02*
X13877100Y-9785700D01*
X13877100Y-9666700D02*
X13758100Y-9785700D01*
X13817600Y-9666700D02*
X13817600Y-9785700D01*
X13758100Y-9726200D02*
X13877100Y-9726200D01*
X14012100Y-9666700D02*
X14131100Y-9785700D01*
X14131100Y-9666700D02*
X14012100Y-9785700D01*
X14071600Y-9666700D02*
X14071600Y-9785700D01*
X14012100Y-9726200D02*
X14131100Y-9726200D01*
X14266100Y-9666700D02*
X14385100Y-9785700D01*
X14385100Y-9666700D02*
X14266100Y-9785700D01*
X14325600Y-9666700D02*
X14325600Y-9785700D01*
X14266100Y-9726200D02*
X14385100Y-9726200D01*
X15256700Y-4309300D02*
X15375700Y-4428300D01*
X15375700Y-4309300D02*
X15256700Y-4428300D01*
X15316200Y-4309300D02*
X15316200Y-4428300D01*
X15256700Y-4368800D02*
X15375700Y-4368800D01*
X15510700Y-4309300D02*
X15629700Y-4428300D01*
X15629700Y-4309300D02*
X15510700Y-4428300D01*
X15570200Y-4309300D02*
X15570200Y-4428300D01*
X15510700Y-4368800D02*
X15629700Y-4368800D01*
X15764700Y-4309300D02*
X15883700Y-4428300D01*
X15883700Y-4309300D02*
X15764700Y-4428300D01*
X15824200Y-4309300D02*
X15824200Y-4428300D01*
X15764700Y-4368800D02*
X15883700Y-4368800D01*
X16018700Y-4309300D02*
X16137700Y-4428300D01*
X16137700Y-4309300D02*
X16018700Y-4428300D01*
X16078200Y-4309300D02*
X16078200Y-4428300D01*
X16018700Y-4368800D02*
X16137700Y-4368800D01*
X16272700Y-4309300D02*
X16391700Y-4428300D01*
X16391700Y-4309300D02*
X16272700Y-4428300D01*
X16332200Y-4309300D02*
X16332200Y-4428300D01*
X16272700Y-4368800D02*
X16391700Y-4368800D01*
X16526700Y-4309300D02*
X16645700Y-4428300D01*
X16645700Y-4309300D02*
X16526700Y-4428300D01*
X16586200Y-4309300D02*
X16586200Y-4428300D01*
X16526700Y-4368800D02*
X16645700Y-4368800D01*
X19750500Y-4355500D02*
X19869500Y-4474500D01*
X19869500Y-4355500D02*
X19750500Y-4474500D01*
X19810000Y-4355500D02*
X19810000Y-4474500D01*
X19750500Y-4415000D02*
X19869500Y-4415000D01*
X19750500Y-4609500D02*
X19869500Y-4728500D01*
X19869500Y-4609500D02*
X19750500Y-4728500D01*
X19810000Y-4609500D02*
X19810000Y-4728500D01*
X19750500Y-4669000D02*
X19869500Y-4669000D01*
X19750500Y-4863500D02*
X19869500Y-4982500D01*
X19869500Y-4863500D02*
X19750500Y-4982500D01*
X19810000Y-4863500D02*
X19810000Y-4982500D01*
X19750500Y-4923000D02*
X19869500Y-4923000D01*
X19750500Y-5117500D02*
X19869500Y-5236500D01*
X19869500Y-5117500D02*
X19750500Y-5236500D01*
X19810000Y-5117500D02*
X19810000Y-5236500D01*
X19750500Y-5177000D02*
X19869500Y-5177000D01*
D14*
X11918640Y-6112200D02*
X12038640Y-6232200D01*
X12038640Y-6112200D02*
X11918640Y-6232200D01*
X12021067Y-6214627D02*
X12021067Y-6129773D01*
X11936213Y-6129773D01*
X11936213Y-6214627D01*
X12021067Y-6214627D01*
X11918640Y-6366200D02*
X12038640Y-6486200D01*
X12038640Y-6366200D02*
X11918640Y-6486200D01*
X12021067Y-6468627D02*
X12021067Y-6383773D01*
X11936213Y-6383773D01*
X11936213Y-6468627D01*
X12021067Y-6468627D01*
X11918640Y-6620200D02*
X12038640Y-6740200D01*
X12038640Y-6620200D02*
X11918640Y-6740200D01*
X12021067Y-6722627D02*
X12021067Y-6637773D01*
X11936213Y-6637773D01*
X11936213Y-6722627D01*
X12021067Y-6722627D01*
X11918640Y-6874200D02*
X12038640Y-6994200D01*
X12038640Y-6874200D02*
X11918640Y-6994200D01*
X12021067Y-6976627D02*
X12021067Y-6891773D01*
X11936213Y-6891773D01*
X11936213Y-6976627D01*
X12021067Y-6976627D01*
X11918640Y-7128200D02*
X12038640Y-7248200D01*
X12038640Y-7128200D02*
X11918640Y-7248200D01*
X12021067Y-7230627D02*
X12021067Y-7145773D01*
X11936213Y-7145773D01*
X11936213Y-7230627D01*
X12021067Y-7230627D01*
X11918640Y-7382200D02*
X12038640Y-7502200D01*
X12038640Y-7382200D02*
X11918640Y-7502200D01*
X12021067Y-7484627D02*
X12021067Y-7399773D01*
X11936213Y-7399773D01*
X11936213Y-7484627D01*
X12021067Y-7484627D01*
X11918640Y-8652200D02*
X12038640Y-8772200D01*
X12038640Y-8652200D02*
X11918640Y-8772200D01*
X12021067Y-8754627D02*
X12021067Y-8669773D01*
X11936213Y-8669773D01*
X11936213Y-8754627D01*
X12021067Y-8754627D01*
X11918640Y-8906200D02*
X12038640Y-9026200D01*
X12038640Y-8906200D02*
X11918640Y-9026200D01*
X12021067Y-9008627D02*
X12021067Y-8923773D01*
X11936213Y-8923773D01*
X11936213Y-9008627D01*
X12021067Y-9008627D01*
X11918640Y-9160200D02*
X12038640Y-9280200D01*
X12038640Y-9160200D02*
X11918640Y-9280200D01*
X12021067Y-9262627D02*
X12021067Y-9177773D01*
X11936213Y-9177773D01*
X11936213Y-9262627D01*
X12021067Y-9262627D01*
X11918640Y-9414200D02*
X12038640Y-9534200D01*
X12038640Y-9414200D02*
X11918640Y-9534200D01*
X12021067Y-9516627D02*
X12021067Y-9431773D01*
X11936213Y-9431773D01*
X11936213Y-9516627D01*
X12021067Y-9516627D01*
X11918640Y-9668200D02*
X12038640Y-9788200D01*
X12038640Y-9668200D02*
X11918640Y-9788200D01*
X12021067Y-9770627D02*
X12021067Y-9685773D01*
X11936213Y-9685773D01*
X11936213Y-9770627D01*
X12021067Y-9770627D01*
X11918640Y-9922200D02*
X12038640Y-10042200D01*
X12038640Y-9922200D02*
X11918640Y-10042200D01*
X12021067Y-10024627D02*
X12021067Y-9939773D01*
X11936213Y-9939773D01*
X11936213Y-10024627D01*
X12021067Y-10024627D01*
D15*
X15124200Y-3160800D02*
X15254200Y-3290800D01*
X15254200Y-3160800D02*
X15124200Y-3290800D01*
X15189200Y-3290800D02*
X15254200Y-3225800D01*
X15189200Y-3160800D01*
X15124200Y-3225800D01*
X15189200Y-3290800D01*
X15632200Y-3160800D02*
X15762200Y-3290800D01*
X15762200Y-3160800D02*
X15632200Y-3290800D01*
X15697200Y-3290800D02*
X15762200Y-3225800D01*
X15697200Y-3160800D01*
X15632200Y-3225800D01*
X15697200Y-3290800D01*
X15682500Y-11090700D02*
X15812500Y-11220700D01*
X15812500Y-11090700D02*
X15682500Y-11220700D01*
X15747500Y-11220700D02*
X15812500Y-11155700D01*
X15747500Y-11090700D01*
X15682500Y-11155700D01*
X15747500Y-11220700D01*
X16140200Y-3160800D02*
X16270200Y-3290800D01*
X16270200Y-3160800D02*
X16140200Y-3290800D01*
X16205200Y-3290800D02*
X16270200Y-3225800D01*
X16205200Y-3160800D01*
X16140200Y-3225800D01*
X16205200Y-3290800D01*
X16190500Y-11090700D02*
X16320500Y-11220700D01*
X16320500Y-11090700D02*
X16190500Y-11220700D01*
X16255500Y-11220700D02*
X16320500Y-11155700D01*
X16255500Y-11090700D01*
X16190500Y-11155700D01*
X16255500Y-11220700D01*
X16648200Y-3160800D02*
X16778200Y-3290800D01*
X16778200Y-3160800D02*
X16648200Y-3290800D01*
X16713200Y-3290800D02*
X16778200Y-3225800D01*
X16713200Y-3160800D01*
X16648200Y-3225800D01*
X16713200Y-3290800D01*
X18578600Y-11092000D02*
X18708600Y-11222000D01*
X18708600Y-11092000D02*
X18578600Y-11222000D01*
X18643600Y-11222000D02*
X18708600Y-11157000D01*
X18643600Y-11092000D01*
X18578600Y-11157000D01*
X18643600Y-11222000D01*
X19086600Y-11092000D02*
X19216600Y-11222000D01*
X19216600Y-11092000D02*
X19086600Y-11222000D01*
X19151600Y-11222000D02*
X19216600Y-11157000D01*
X19151600Y-11092000D01*
X19086600Y-11157000D01*
X19151600Y-11222000D01*
X19797800Y-11085600D02*
X19927800Y-11215600D01*
X19927800Y-11085600D02*
X19797800Y-11215600D01*
X19862800Y-11215600D02*
X19927800Y-11150600D01*
X19862800Y-11085600D01*
X19797800Y-11150600D01*
X19862800Y-11215600D01*
X20305800Y-11085600D02*
X20435800Y-11215600D01*
X20435800Y-11085600D02*
X20305800Y-11215600D01*
X20370800Y-11215600D02*
X20435800Y-11150600D01*
X20370800Y-11085600D01*
X20305800Y-11150600D01*
X20370800Y-11215600D01*
X20839200Y-4761000D02*
X20969200Y-4891000D01*
X20969200Y-4761000D02*
X20839200Y-4891000D01*
X20904200Y-4891000D02*
X20969200Y-4826000D01*
X20904200Y-4761000D01*
X20839200Y-4826000D01*
X20904200Y-4891000D01*
X20839200Y-5269000D02*
X20969200Y-5399000D01*
X20969200Y-5269000D02*
X20839200Y-5399000D01*
X20904200Y-5399000D02*
X20969200Y-5334000D01*
X20904200Y-5269000D01*
X20839200Y-5334000D01*
X20904200Y-5399000D01*
X20844300Y-3593100D02*
X20974300Y-3723100D01*
X20974300Y-3593100D02*
X20844300Y-3723100D01*
X20909300Y-3723100D02*
X20974300Y-3658100D01*
X20909300Y-3593100D01*
X20844300Y-3658100D01*
X20909300Y-3723100D01*
X20844300Y-4101100D02*
X20974300Y-4231100D01*
X20974300Y-4101100D02*
X20844300Y-4231100D01*
X20909300Y-4231100D02*
X20974300Y-4166100D01*
X20909300Y-4101100D01*
X20844300Y-4166100D01*
X20909300Y-4231100D01*
D16*
X11961027Y-11241427D02*
X11961027Y-11461427D01*
X11851027Y-11351427D02*
X12071027Y-11351427D01*
X12071027Y-11351427D02*
G75*
G02*
X11851027Y-11351427I-110000J0D01*
G01*
X11851027Y-11351427D02*
G75*
G02*
X12071027Y-11351427I110000J0D01*
G01*
X11983327Y-2983327D02*
X11983327Y-3203327D01*
X11873327Y-3093327D02*
X12093327Y-3093327D01*
X12093327Y-3093327D02*
G75*
G02*
X11873327Y-3093327I-110000J0D01*
G01*
X11873327Y-3093327D02*
G75*
G02*
X12093327Y-3093327I110000J0D01*
G01*
X21090000Y-2980000D02*
X21090000Y-3200000D01*
X20980000Y-3090000D02*
X21200000Y-3090000D01*
X21200000Y-3090000D02*
G75*
G02*
X20980000Y-3090000I-110000J0D01*
G01*
X20980000Y-3090000D02*
G75*
G02*
X21200000Y-3090000I110000J0D01*
G01*
X21090000Y-11190000D02*
X21090000Y-11410000D01*
X20980000Y-11300000D02*
X21200000Y-11300000D01*
X21200000Y-11300000D02*
G75*
G02*
X20980000Y-11300000I-110000J0D01*
G01*
X20980000Y-11300000D02*
G75*
G02*
X21200000Y-11300000I110000J0D01*
G01*
D11*
X11815777Y-11996484D02*
X11815777Y-11796484D01*
X11815777Y-11796484D02*
X11863396Y-11796484D01*
X11863396Y-11796484D02*
X11891967Y-11806008D01*
X11891967Y-11806008D02*
X11911015Y-11825055D01*
X11911015Y-11825055D02*
X11920539Y-11844103D01*
X11920539Y-11844103D02*
X11930062Y-11882198D01*
X11930062Y-11882198D02*
X11930062Y-11910769D01*
X11930062Y-11910769D02*
X11920539Y-11948865D01*
X11920539Y-11948865D02*
X11911015Y-11967912D01*
X11911015Y-11967912D02*
X11891967Y-11986960D01*
X11891967Y-11986960D02*
X11863396Y-11996484D01*
X11863396Y-11996484D02*
X11815777Y-11996484D01*
X12015777Y-11996484D02*
X12015777Y-11863150D01*
X12015777Y-11901246D02*
X12025301Y-11882198D01*
X12025301Y-11882198D02*
X12034824Y-11872674D01*
X12034824Y-11872674D02*
X12053872Y-11863150D01*
X12053872Y-11863150D02*
X12072920Y-11863150D01*
X12139586Y-11996484D02*
X12139586Y-11863150D01*
X12139586Y-11796484D02*
X12130062Y-11806008D01*
X12130062Y-11806008D02*
X12139586Y-11815531D01*
X12139586Y-11815531D02*
X12149110Y-11806008D01*
X12149110Y-11806008D02*
X12139586Y-11796484D01*
X12139586Y-11796484D02*
X12139586Y-11815531D01*
X12263396Y-11996484D02*
X12244348Y-11986960D01*
X12244348Y-11986960D02*
X12234824Y-11967912D01*
X12234824Y-11967912D02*
X12234824Y-11796484D01*
X12368158Y-11996484D02*
X12349110Y-11986960D01*
X12349110Y-11986960D02*
X12339586Y-11967912D01*
X12339586Y-11967912D02*
X12339586Y-11796484D01*
X12596729Y-11996484D02*
X12596729Y-11796484D01*
X12596729Y-11796484D02*
X12663396Y-11939341D01*
X12663396Y-11939341D02*
X12730062Y-11796484D01*
X12730062Y-11796484D02*
X12730062Y-11996484D01*
X12911015Y-11996484D02*
X12911015Y-11891722D01*
X12911015Y-11891722D02*
X12901491Y-11872674D01*
X12901491Y-11872674D02*
X12882443Y-11863150D01*
X12882443Y-11863150D02*
X12844348Y-11863150D01*
X12844348Y-11863150D02*
X12825301Y-11872674D01*
X12911015Y-11986960D02*
X12891967Y-11996484D01*
X12891967Y-11996484D02*
X12844348Y-11996484D01*
X12844348Y-11996484D02*
X12825301Y-11986960D01*
X12825301Y-11986960D02*
X12815777Y-11967912D01*
X12815777Y-11967912D02*
X12815777Y-11948865D01*
X12815777Y-11948865D02*
X12825301Y-11929817D01*
X12825301Y-11929817D02*
X12844348Y-11920293D01*
X12844348Y-11920293D02*
X12891967Y-11920293D01*
X12891967Y-11920293D02*
X12911015Y-11910769D01*
X13006253Y-11863150D02*
X13006253Y-12063150D01*
X13006253Y-11872674D02*
X13025301Y-11863150D01*
X13025301Y-11863150D02*
X13063396Y-11863150D01*
X13063396Y-11863150D02*
X13082443Y-11872674D01*
X13082443Y-11872674D02*
X13091967Y-11882198D01*
X13091967Y-11882198D02*
X13101491Y-11901246D01*
X13101491Y-11901246D02*
X13101491Y-11958388D01*
X13101491Y-11958388D02*
X13091967Y-11977436D01*
X13091967Y-11977436D02*
X13082443Y-11986960D01*
X13082443Y-11986960D02*
X13063396Y-11996484D01*
X13063396Y-11996484D02*
X13025301Y-11996484D01*
X13025301Y-11996484D02*
X13006253Y-11986960D01*
X13187205Y-11977436D02*
X13196729Y-11986960D01*
X13196729Y-11986960D02*
X13187205Y-11996484D01*
X13187205Y-11996484D02*
X13177682Y-11986960D01*
X13177682Y-11986960D02*
X13187205Y-11977436D01*
X13187205Y-11977436D02*
X13187205Y-11996484D01*
X13187205Y-11872674D02*
X13196729Y-11882198D01*
X13196729Y-11882198D02*
X13187205Y-11891722D01*
X13187205Y-11891722D02*
X13177682Y-11882198D01*
X13177682Y-11882198D02*
X13187205Y-11872674D01*
X13187205Y-11872674D02*
X13187205Y-11891722D01*
D10*
X11515000Y-12305000D02*
X11555000Y-12345000D01*
X11555000Y-12305000D02*
X11515000Y-12345000D01*
D11*
X11853872Y-12216484D02*
X11872920Y-12216484D01*
X11872920Y-12216484D02*
X11891967Y-12226008D01*
X11891967Y-12226008D02*
X11901491Y-12235531D01*
X11901491Y-12235531D02*
X11911015Y-12254579D01*
X11911015Y-12254579D02*
X11920539Y-12292674D01*
X11920539Y-12292674D02*
X11920539Y-12340293D01*
X11920539Y-12340293D02*
X11911015Y-12378388D01*
X11911015Y-12378388D02*
X11901491Y-12397436D01*
X11901491Y-12397436D02*
X11891967Y-12406960D01*
X11891967Y-12406960D02*
X11872920Y-12416484D01*
X11872920Y-12416484D02*
X11853872Y-12416484D01*
X11853872Y-12416484D02*
X11834824Y-12406960D01*
X11834824Y-12406960D02*
X11825301Y-12397436D01*
X11825301Y-12397436D02*
X11815777Y-12378388D01*
X11815777Y-12378388D02*
X11806253Y-12340293D01*
X11806253Y-12340293D02*
X11806253Y-12292674D01*
X11806253Y-12292674D02*
X11815777Y-12254579D01*
X11815777Y-12254579D02*
X11825301Y-12235531D01*
X11825301Y-12235531D02*
X11834824Y-12226008D01*
X11834824Y-12226008D02*
X11853872Y-12216484D01*
X12006253Y-12397436D02*
X12015777Y-12406960D01*
X12015777Y-12406960D02*
X12006253Y-12416484D01*
X12006253Y-12416484D02*
X11996729Y-12406960D01*
X11996729Y-12406960D02*
X12006253Y-12397436D01*
X12006253Y-12397436D02*
X12006253Y-12416484D01*
X12187205Y-12283150D02*
X12187205Y-12416484D01*
X12139586Y-12206960D02*
X12091967Y-12349817D01*
X12091967Y-12349817D02*
X12215777Y-12349817D01*
X12330062Y-12216484D02*
X12349110Y-12216484D01*
X12349110Y-12216484D02*
X12368158Y-12226008D01*
X12368158Y-12226008D02*
X12377682Y-12235531D01*
X12377682Y-12235531D02*
X12387205Y-12254579D01*
X12387205Y-12254579D02*
X12396729Y-12292674D01*
X12396729Y-12292674D02*
X12396729Y-12340293D01*
X12396729Y-12340293D02*
X12387205Y-12378388D01*
X12387205Y-12378388D02*
X12377682Y-12397436D01*
X12377682Y-12397436D02*
X12368158Y-12406960D01*
X12368158Y-12406960D02*
X12349110Y-12416484D01*
X12349110Y-12416484D02*
X12330062Y-12416484D01*
X12330062Y-12416484D02*
X12311015Y-12406960D01*
X12311015Y-12406960D02*
X12301491Y-12397436D01*
X12301491Y-12397436D02*
X12291967Y-12378388D01*
X12291967Y-12378388D02*
X12282443Y-12340293D01*
X12282443Y-12340293D02*
X12282443Y-12292674D01*
X12282443Y-12292674D02*
X12291967Y-12254579D01*
X12291967Y-12254579D02*
X12301491Y-12235531D01*
X12301491Y-12235531D02*
X12311015Y-12226008D01*
X12311015Y-12226008D02*
X12330062Y-12216484D01*
X12520539Y-12216484D02*
X12539586Y-12216484D01*
X12539586Y-12216484D02*
X12558634Y-12226008D01*
X12558634Y-12226008D02*
X12568158Y-12235531D01*
X12568158Y-12235531D02*
X12577682Y-12254579D01*
X12577682Y-12254579D02*
X12587205Y-12292674D01*
X12587205Y-12292674D02*
X12587205Y-12340293D01*
X12587205Y-12340293D02*
X12577682Y-12378388D01*
X12577682Y-12378388D02*
X12568158Y-12397436D01*
X12568158Y-12397436D02*
X12558634Y-12406960D01*
X12558634Y-12406960D02*
X12539586Y-12416484D01*
X12539586Y-12416484D02*
X12520539Y-12416484D01*
X12520539Y-12416484D02*
X12501491Y-12406960D01*
X12501491Y-12406960D02*
X12491967Y-12397436D01*
X12491967Y-12397436D02*
X12482443Y-12378388D01*
X12482443Y-12378388D02*
X12472920Y-12340293D01*
X12472920Y-12340293D02*
X12472920Y-12292674D01*
X12472920Y-12292674D02*
X12482443Y-12254579D01*
X12482443Y-12254579D02*
X12491967Y-12235531D01*
X12491967Y-12235531D02*
X12501491Y-12226008D01*
X12501491Y-12226008D02*
X12520539Y-12216484D01*
X12672920Y-12416484D02*
X12672920Y-12283150D01*
X12672920Y-12302198D02*
X12682443Y-12292674D01*
X12682443Y-12292674D02*
X12701491Y-12283150D01*
X12701491Y-12283150D02*
X12730063Y-12283150D01*
X12730063Y-12283150D02*
X12749110Y-12292674D01*
X12749110Y-12292674D02*
X12758634Y-12311722D01*
X12758634Y-12311722D02*
X12758634Y-12416484D01*
X12758634Y-12311722D02*
X12768158Y-12292674D01*
X12768158Y-12292674D02*
X12787205Y-12283150D01*
X12787205Y-12283150D02*
X12815777Y-12283150D01*
X12815777Y-12283150D02*
X12834824Y-12292674D01*
X12834824Y-12292674D02*
X12844348Y-12311722D01*
X12844348Y-12311722D02*
X12844348Y-12416484D01*
X12939586Y-12416484D02*
X12939586Y-12283150D01*
X12939586Y-12302198D02*
X12949110Y-12292674D01*
X12949110Y-12292674D02*
X12968158Y-12283150D01*
X12968158Y-12283150D02*
X12996729Y-12283150D01*
X12996729Y-12283150D02*
X13015777Y-12292674D01*
X13015777Y-12292674D02*
X13025301Y-12311722D01*
X13025301Y-12311722D02*
X13025301Y-12416484D01*
X13025301Y-12311722D02*
X13034824Y-12292674D01*
X13034824Y-12292674D02*
X13053872Y-12283150D01*
X13053872Y-12283150D02*
X13082443Y-12283150D01*
X13082443Y-12283150D02*
X13101491Y-12292674D01*
X13101491Y-12292674D02*
X13111015Y-12311722D01*
X13111015Y-12311722D02*
X13111015Y-12416484D01*
X13501491Y-12206960D02*
X13330063Y-12464103D01*
X13758634Y-12216484D02*
X13777682Y-12216484D01*
X13777682Y-12216484D02*
X13796729Y-12226008D01*
X13796729Y-12226008D02*
X13806253Y-12235531D01*
X13806253Y-12235531D02*
X13815777Y-12254579D01*
X13815777Y-12254579D02*
X13825301Y-12292674D01*
X13825301Y-12292674D02*
X13825301Y-12340293D01*
X13825301Y-12340293D02*
X13815777Y-12378388D01*
X13815777Y-12378388D02*
X13806253Y-12397436D01*
X13806253Y-12397436D02*
X13796729Y-12406960D01*
X13796729Y-12406960D02*
X13777682Y-12416484D01*
X13777682Y-12416484D02*
X13758634Y-12416484D01*
X13758634Y-12416484D02*
X13739586Y-12406960D01*
X13739586Y-12406960D02*
X13730063Y-12397436D01*
X13730063Y-12397436D02*
X13720539Y-12378388D01*
X13720539Y-12378388D02*
X13711015Y-12340293D01*
X13711015Y-12340293D02*
X13711015Y-12292674D01*
X13711015Y-12292674D02*
X13720539Y-12254579D01*
X13720539Y-12254579D02*
X13730063Y-12235531D01*
X13730063Y-12235531D02*
X13739586Y-12226008D01*
X13739586Y-12226008D02*
X13758634Y-12216484D01*
X13911015Y-12397436D02*
X13920539Y-12406960D01*
X13920539Y-12406960D02*
X13911015Y-12416484D01*
X13911015Y-12416484D02*
X13901491Y-12406960D01*
X13901491Y-12406960D02*
X13911015Y-12397436D01*
X13911015Y-12397436D02*
X13911015Y-12416484D01*
X14044348Y-12216484D02*
X14063396Y-12216484D01*
X14063396Y-12216484D02*
X14082444Y-12226008D01*
X14082444Y-12226008D02*
X14091967Y-12235531D01*
X14091967Y-12235531D02*
X14101491Y-12254579D01*
X14101491Y-12254579D02*
X14111015Y-12292674D01*
X14111015Y-12292674D02*
X14111015Y-12340293D01*
X14111015Y-12340293D02*
X14101491Y-12378388D01*
X14101491Y-12378388D02*
X14091967Y-12397436D01*
X14091967Y-12397436D02*
X14082444Y-12406960D01*
X14082444Y-12406960D02*
X14063396Y-12416484D01*
X14063396Y-12416484D02*
X14044348Y-12416484D01*
X14044348Y-12416484D02*
X14025301Y-12406960D01*
X14025301Y-12406960D02*
X14015777Y-12397436D01*
X14015777Y-12397436D02*
X14006253Y-12378388D01*
X14006253Y-12378388D02*
X13996729Y-12340293D01*
X13996729Y-12340293D02*
X13996729Y-12292674D01*
X13996729Y-12292674D02*
X14006253Y-12254579D01*
X14006253Y-12254579D02*
X14015777Y-12235531D01*
X14015777Y-12235531D02*
X14025301Y-12226008D01*
X14025301Y-12226008D02*
X14044348Y-12216484D01*
X14301491Y-12416484D02*
X14187206Y-12416484D01*
X14244348Y-12416484D02*
X14244348Y-12216484D01*
X14244348Y-12216484D02*
X14225301Y-12245055D01*
X14225301Y-12245055D02*
X14206253Y-12264103D01*
X14206253Y-12264103D02*
X14187206Y-12273627D01*
X14482444Y-12216484D02*
X14387206Y-12216484D01*
X14387206Y-12216484D02*
X14377682Y-12311722D01*
X14377682Y-12311722D02*
X14387206Y-12302198D01*
X14387206Y-12302198D02*
X14406253Y-12292674D01*
X14406253Y-12292674D02*
X14453872Y-12292674D01*
X14453872Y-12292674D02*
X14472920Y-12302198D01*
X14472920Y-12302198D02*
X14482444Y-12311722D01*
X14482444Y-12311722D02*
X14491967Y-12330769D01*
X14491967Y-12330769D02*
X14491967Y-12378388D01*
X14491967Y-12378388D02*
X14482444Y-12397436D01*
X14482444Y-12397436D02*
X14472920Y-12406960D01*
X14472920Y-12406960D02*
X14453872Y-12416484D01*
X14453872Y-12416484D02*
X14406253Y-12416484D01*
X14406253Y-12416484D02*
X14387206Y-12406960D01*
X14387206Y-12406960D02*
X14377682Y-12397436D01*
X14558634Y-12216484D02*
X14691967Y-12216484D01*
X14691967Y-12216484D02*
X14606253Y-12416484D01*
X14758634Y-12216484D02*
X14758634Y-12254579D01*
X14834825Y-12216484D02*
X14834825Y-12254579D01*
X15130063Y-12492674D02*
X15120539Y-12483150D01*
X15120539Y-12483150D02*
X15101491Y-12454579D01*
X15101491Y-12454579D02*
X15091968Y-12435531D01*
X15091968Y-12435531D02*
X15082444Y-12406960D01*
X15082444Y-12406960D02*
X15072920Y-12359341D01*
X15072920Y-12359341D02*
X15072920Y-12321246D01*
X15072920Y-12321246D02*
X15082444Y-12273627D01*
X15082444Y-12273627D02*
X15091968Y-12245055D01*
X15091968Y-12245055D02*
X15101491Y-12226008D01*
X15101491Y-12226008D02*
X15120539Y-12197436D01*
X15120539Y-12197436D02*
X15130063Y-12187912D01*
X15311015Y-12416484D02*
X15196729Y-12416484D01*
X15253872Y-12416484D02*
X15253872Y-12216484D01*
X15253872Y-12216484D02*
X15234825Y-12245055D01*
X15234825Y-12245055D02*
X15215777Y-12264103D01*
X15215777Y-12264103D02*
X15196729Y-12273627D01*
X15482444Y-12216484D02*
X15444348Y-12216484D01*
X15444348Y-12216484D02*
X15425301Y-12226008D01*
X15425301Y-12226008D02*
X15415777Y-12235531D01*
X15415777Y-12235531D02*
X15396729Y-12264103D01*
X15396729Y-12264103D02*
X15387206Y-12302198D01*
X15387206Y-12302198D02*
X15387206Y-12378388D01*
X15387206Y-12378388D02*
X15396729Y-12397436D01*
X15396729Y-12397436D02*
X15406253Y-12406960D01*
X15406253Y-12406960D02*
X15425301Y-12416484D01*
X15425301Y-12416484D02*
X15463396Y-12416484D01*
X15463396Y-12416484D02*
X15482444Y-12406960D01*
X15482444Y-12406960D02*
X15491968Y-12397436D01*
X15491968Y-12397436D02*
X15501491Y-12378388D01*
X15501491Y-12378388D02*
X15501491Y-12330769D01*
X15501491Y-12330769D02*
X15491968Y-12311722D01*
X15491968Y-12311722D02*
X15482444Y-12302198D01*
X15482444Y-12302198D02*
X15463396Y-12292674D01*
X15463396Y-12292674D02*
X15425301Y-12292674D01*
X15425301Y-12292674D02*
X15406253Y-12302198D01*
X15406253Y-12302198D02*
X15396729Y-12311722D01*
X15396729Y-12311722D02*
X15387206Y-12330769D01*
X15672920Y-12216484D02*
X15634825Y-12216484D01*
X15634825Y-12216484D02*
X15615777Y-12226008D01*
X15615777Y-12226008D02*
X15606253Y-12235531D01*
X15606253Y-12235531D02*
X15587206Y-12264103D01*
X15587206Y-12264103D02*
X15577682Y-12302198D01*
X15577682Y-12302198D02*
X15577682Y-12378388D01*
X15577682Y-12378388D02*
X15587206Y-12397436D01*
X15587206Y-12397436D02*
X15596729Y-12406960D01*
X15596729Y-12406960D02*
X15615777Y-12416484D01*
X15615777Y-12416484D02*
X15653872Y-12416484D01*
X15653872Y-12416484D02*
X15672920Y-12406960D01*
X15672920Y-12406960D02*
X15682444Y-12397436D01*
X15682444Y-12397436D02*
X15691968Y-12378388D01*
X15691968Y-12378388D02*
X15691968Y-12330769D01*
X15691968Y-12330769D02*
X15682444Y-12311722D01*
X15682444Y-12311722D02*
X15672920Y-12302198D01*
X15672920Y-12302198D02*
X15653872Y-12292674D01*
X15653872Y-12292674D02*
X15615777Y-12292674D01*
X15615777Y-12292674D02*
X15596729Y-12302198D01*
X15596729Y-12302198D02*
X15587206Y-12311722D01*
X15587206Y-12311722D02*
X15577682Y-12330769D01*
X15930063Y-12416484D02*
X15930063Y-12216484D01*
X16015777Y-12416484D02*
X16015777Y-12311722D01*
X16015777Y-12311722D02*
X16006253Y-12292674D01*
X16006253Y-12292674D02*
X15987206Y-12283150D01*
X15987206Y-12283150D02*
X15958634Y-12283150D01*
X15958634Y-12283150D02*
X15939587Y-12292674D01*
X15939587Y-12292674D02*
X15930063Y-12302198D01*
X16139587Y-12416484D02*
X16120539Y-12406960D01*
X16120539Y-12406960D02*
X16111015Y-12397436D01*
X16111015Y-12397436D02*
X16101491Y-12378388D01*
X16101491Y-12378388D02*
X16101491Y-12321246D01*
X16101491Y-12321246D02*
X16111015Y-12302198D01*
X16111015Y-12302198D02*
X16120539Y-12292674D01*
X16120539Y-12292674D02*
X16139587Y-12283150D01*
X16139587Y-12283150D02*
X16168158Y-12283150D01*
X16168158Y-12283150D02*
X16187206Y-12292674D01*
X16187206Y-12292674D02*
X16196730Y-12302198D01*
X16196730Y-12302198D02*
X16206253Y-12321246D01*
X16206253Y-12321246D02*
X16206253Y-12378388D01*
X16206253Y-12378388D02*
X16196730Y-12397436D01*
X16196730Y-12397436D02*
X16187206Y-12406960D01*
X16187206Y-12406960D02*
X16168158Y-12416484D01*
X16168158Y-12416484D02*
X16139587Y-12416484D01*
X16320539Y-12416484D02*
X16301491Y-12406960D01*
X16301491Y-12406960D02*
X16291968Y-12387912D01*
X16291968Y-12387912D02*
X16291968Y-12216484D01*
X16472920Y-12406960D02*
X16453872Y-12416484D01*
X16453872Y-12416484D02*
X16415777Y-12416484D01*
X16415777Y-12416484D02*
X16396730Y-12406960D01*
X16396730Y-12406960D02*
X16387206Y-12387912D01*
X16387206Y-12387912D02*
X16387206Y-12311722D01*
X16387206Y-12311722D02*
X16396730Y-12292674D01*
X16396730Y-12292674D02*
X16415777Y-12283150D01*
X16415777Y-12283150D02*
X16453872Y-12283150D01*
X16453872Y-12283150D02*
X16472920Y-12292674D01*
X16472920Y-12292674D02*
X16482444Y-12311722D01*
X16482444Y-12311722D02*
X16482444Y-12330769D01*
X16482444Y-12330769D02*
X16387206Y-12349817D01*
X16558634Y-12406960D02*
X16577682Y-12416484D01*
X16577682Y-12416484D02*
X16615777Y-12416484D01*
X16615777Y-12416484D02*
X16634825Y-12406960D01*
X16634825Y-12406960D02*
X16644349Y-12387912D01*
X16644349Y-12387912D02*
X16644349Y-12378388D01*
X16644349Y-12378388D02*
X16634825Y-12359341D01*
X16634825Y-12359341D02*
X16615777Y-12349817D01*
X16615777Y-12349817D02*
X16587206Y-12349817D01*
X16587206Y-12349817D02*
X16568158Y-12340293D01*
X16568158Y-12340293D02*
X16558634Y-12321246D01*
X16558634Y-12321246D02*
X16558634Y-12311722D01*
X16558634Y-12311722D02*
X16568158Y-12292674D01*
X16568158Y-12292674D02*
X16587206Y-12283150D01*
X16587206Y-12283150D02*
X16615777Y-12283150D01*
X16615777Y-12283150D02*
X16634825Y-12292674D01*
X16711015Y-12492674D02*
X16720539Y-12483150D01*
X16720539Y-12483150D02*
X16739587Y-12454579D01*
X16739587Y-12454579D02*
X16749111Y-12435531D01*
X16749111Y-12435531D02*
X16758634Y-12406960D01*
X16758634Y-12406960D02*
X16768158Y-12359341D01*
X16768158Y-12359341D02*
X16768158Y-12321246D01*
X16768158Y-12321246D02*
X16758634Y-12273627D01*
X16758634Y-12273627D02*
X16749111Y-12245055D01*
X16749111Y-12245055D02*
X16739587Y-12226008D01*
X16739587Y-12226008D02*
X16720539Y-12197436D01*
X16720539Y-12197436D02*
X16711015Y-12187912D01*
D10*
X11555000Y-12589000D02*
G75*
G02*
X11515000Y-12589000I-20000J0D01*
G01*
X11515000Y-12589000D02*
G75*
G02*
X11555000Y-12589000I20000J0D01*
G01*
D11*
X11853872Y-12480484D02*
X11872920Y-12480484D01*
X11872920Y-12480484D02*
X11891967Y-12490008D01*
X11891967Y-12490008D02*
X11901491Y-12499531D01*
X11901491Y-12499531D02*
X11911015Y-12518579D01*
X11911015Y-12518579D02*
X11920539Y-12556674D01*
X11920539Y-12556674D02*
X11920539Y-12604293D01*
X11920539Y-12604293D02*
X11911015Y-12642388D01*
X11911015Y-12642388D02*
X11901491Y-12661436D01*
X11901491Y-12661436D02*
X11891967Y-12670960D01*
X11891967Y-12670960D02*
X11872920Y-12680484D01*
X11872920Y-12680484D02*
X11853872Y-12680484D01*
X11853872Y-12680484D02*
X11834824Y-12670960D01*
X11834824Y-12670960D02*
X11825301Y-12661436D01*
X11825301Y-12661436D02*
X11815777Y-12642388D01*
X11815777Y-12642388D02*
X11806253Y-12604293D01*
X11806253Y-12604293D02*
X11806253Y-12556674D01*
X11806253Y-12556674D02*
X11815777Y-12518579D01*
X11815777Y-12518579D02*
X11825301Y-12499531D01*
X11825301Y-12499531D02*
X11834824Y-12490008D01*
X11834824Y-12490008D02*
X11853872Y-12480484D01*
X12006253Y-12661436D02*
X12015777Y-12670960D01*
X12015777Y-12670960D02*
X12006253Y-12680484D01*
X12006253Y-12680484D02*
X11996729Y-12670960D01*
X11996729Y-12670960D02*
X12006253Y-12661436D01*
X12006253Y-12661436D02*
X12006253Y-12680484D01*
X12187205Y-12547150D02*
X12187205Y-12680484D01*
X12139586Y-12470960D02*
X12091967Y-12613817D01*
X12091967Y-12613817D02*
X12215777Y-12613817D01*
X12330062Y-12480484D02*
X12349110Y-12480484D01*
X12349110Y-12480484D02*
X12368158Y-12490008D01*
X12368158Y-12490008D02*
X12377682Y-12499531D01*
X12377682Y-12499531D02*
X12387205Y-12518579D01*
X12387205Y-12518579D02*
X12396729Y-12556674D01*
X12396729Y-12556674D02*
X12396729Y-12604293D01*
X12396729Y-12604293D02*
X12387205Y-12642388D01*
X12387205Y-12642388D02*
X12377682Y-12661436D01*
X12377682Y-12661436D02*
X12368158Y-12670960D01*
X12368158Y-12670960D02*
X12349110Y-12680484D01*
X12349110Y-12680484D02*
X12330062Y-12680484D01*
X12330062Y-12680484D02*
X12311015Y-12670960D01*
X12311015Y-12670960D02*
X12301491Y-12661436D01*
X12301491Y-12661436D02*
X12291967Y-12642388D01*
X12291967Y-12642388D02*
X12282443Y-12604293D01*
X12282443Y-12604293D02*
X12282443Y-12556674D01*
X12282443Y-12556674D02*
X12291967Y-12518579D01*
X12291967Y-12518579D02*
X12301491Y-12499531D01*
X12301491Y-12499531D02*
X12311015Y-12490008D01*
X12311015Y-12490008D02*
X12330062Y-12480484D01*
X12520539Y-12480484D02*
X12539586Y-12480484D01*
X12539586Y-12480484D02*
X12558634Y-12490008D01*
X12558634Y-12490008D02*
X12568158Y-12499531D01*
X12568158Y-12499531D02*
X12577682Y-12518579D01*
X12577682Y-12518579D02*
X12587205Y-12556674D01*
X12587205Y-12556674D02*
X12587205Y-12604293D01*
X12587205Y-12604293D02*
X12577682Y-12642388D01*
X12577682Y-12642388D02*
X12568158Y-12661436D01*
X12568158Y-12661436D02*
X12558634Y-12670960D01*
X12558634Y-12670960D02*
X12539586Y-12680484D01*
X12539586Y-12680484D02*
X12520539Y-12680484D01*
X12520539Y-12680484D02*
X12501491Y-12670960D01*
X12501491Y-12670960D02*
X12491967Y-12661436D01*
X12491967Y-12661436D02*
X12482443Y-12642388D01*
X12482443Y-12642388D02*
X12472920Y-12604293D01*
X12472920Y-12604293D02*
X12472920Y-12556674D01*
X12472920Y-12556674D02*
X12482443Y-12518579D01*
X12482443Y-12518579D02*
X12491967Y-12499531D01*
X12491967Y-12499531D02*
X12501491Y-12490008D01*
X12501491Y-12490008D02*
X12520539Y-12480484D01*
X12672920Y-12680484D02*
X12672920Y-12547150D01*
X12672920Y-12566198D02*
X12682443Y-12556674D01*
X12682443Y-12556674D02*
X12701491Y-12547150D01*
X12701491Y-12547150D02*
X12730063Y-12547150D01*
X12730063Y-12547150D02*
X12749110Y-12556674D01*
X12749110Y-12556674D02*
X12758634Y-12575722D01*
X12758634Y-12575722D02*
X12758634Y-12680484D01*
X12758634Y-12575722D02*
X12768158Y-12556674D01*
X12768158Y-12556674D02*
X12787205Y-12547150D01*
X12787205Y-12547150D02*
X12815777Y-12547150D01*
X12815777Y-12547150D02*
X12834824Y-12556674D01*
X12834824Y-12556674D02*
X12844348Y-12575722D01*
X12844348Y-12575722D02*
X12844348Y-12680484D01*
X12939586Y-12680484D02*
X12939586Y-12547150D01*
X12939586Y-12566198D02*
X12949110Y-12556674D01*
X12949110Y-12556674D02*
X12968158Y-12547150D01*
X12968158Y-12547150D02*
X12996729Y-12547150D01*
X12996729Y-12547150D02*
X13015777Y-12556674D01*
X13015777Y-12556674D02*
X13025301Y-12575722D01*
X13025301Y-12575722D02*
X13025301Y-12680484D01*
X13025301Y-12575722D02*
X13034824Y-12556674D01*
X13034824Y-12556674D02*
X13053872Y-12547150D01*
X13053872Y-12547150D02*
X13082443Y-12547150D01*
X13082443Y-12547150D02*
X13101491Y-12556674D01*
X13101491Y-12556674D02*
X13111015Y-12575722D01*
X13111015Y-12575722D02*
X13111015Y-12680484D01*
X13501491Y-12470960D02*
X13330063Y-12728103D01*
X13758634Y-12480484D02*
X13777682Y-12480484D01*
X13777682Y-12480484D02*
X13796729Y-12490008D01*
X13796729Y-12490008D02*
X13806253Y-12499531D01*
X13806253Y-12499531D02*
X13815777Y-12518579D01*
X13815777Y-12518579D02*
X13825301Y-12556674D01*
X13825301Y-12556674D02*
X13825301Y-12604293D01*
X13825301Y-12604293D02*
X13815777Y-12642388D01*
X13815777Y-12642388D02*
X13806253Y-12661436D01*
X13806253Y-12661436D02*
X13796729Y-12670960D01*
X13796729Y-12670960D02*
X13777682Y-12680484D01*
X13777682Y-12680484D02*
X13758634Y-12680484D01*
X13758634Y-12680484D02*
X13739586Y-12670960D01*
X13739586Y-12670960D02*
X13730063Y-12661436D01*
X13730063Y-12661436D02*
X13720539Y-12642388D01*
X13720539Y-12642388D02*
X13711015Y-12604293D01*
X13711015Y-12604293D02*
X13711015Y-12556674D01*
X13711015Y-12556674D02*
X13720539Y-12518579D01*
X13720539Y-12518579D02*
X13730063Y-12499531D01*
X13730063Y-12499531D02*
X13739586Y-12490008D01*
X13739586Y-12490008D02*
X13758634Y-12480484D01*
X13911015Y-12661436D02*
X13920539Y-12670960D01*
X13920539Y-12670960D02*
X13911015Y-12680484D01*
X13911015Y-12680484D02*
X13901491Y-12670960D01*
X13901491Y-12670960D02*
X13911015Y-12661436D01*
X13911015Y-12661436D02*
X13911015Y-12680484D01*
X14044348Y-12480484D02*
X14063396Y-12480484D01*
X14063396Y-12480484D02*
X14082444Y-12490008D01*
X14082444Y-12490008D02*
X14091967Y-12499531D01*
X14091967Y-12499531D02*
X14101491Y-12518579D01*
X14101491Y-12518579D02*
X14111015Y-12556674D01*
X14111015Y-12556674D02*
X14111015Y-12604293D01*
X14111015Y-12604293D02*
X14101491Y-12642388D01*
X14101491Y-12642388D02*
X14091967Y-12661436D01*
X14091967Y-12661436D02*
X14082444Y-12670960D01*
X14082444Y-12670960D02*
X14063396Y-12680484D01*
X14063396Y-12680484D02*
X14044348Y-12680484D01*
X14044348Y-12680484D02*
X14025301Y-12670960D01*
X14025301Y-12670960D02*
X14015777Y-12661436D01*
X14015777Y-12661436D02*
X14006253Y-12642388D01*
X14006253Y-12642388D02*
X13996729Y-12604293D01*
X13996729Y-12604293D02*
X13996729Y-12556674D01*
X13996729Y-12556674D02*
X14006253Y-12518579D01*
X14006253Y-12518579D02*
X14015777Y-12499531D01*
X14015777Y-12499531D02*
X14025301Y-12490008D01*
X14025301Y-12490008D02*
X14044348Y-12480484D01*
X14301491Y-12680484D02*
X14187206Y-12680484D01*
X14244348Y-12680484D02*
X14244348Y-12480484D01*
X14244348Y-12480484D02*
X14225301Y-12509055D01*
X14225301Y-12509055D02*
X14206253Y-12528103D01*
X14206253Y-12528103D02*
X14187206Y-12537627D01*
X14482444Y-12480484D02*
X14387206Y-12480484D01*
X14387206Y-12480484D02*
X14377682Y-12575722D01*
X14377682Y-12575722D02*
X14387206Y-12566198D01*
X14387206Y-12566198D02*
X14406253Y-12556674D01*
X14406253Y-12556674D02*
X14453872Y-12556674D01*
X14453872Y-12556674D02*
X14472920Y-12566198D01*
X14472920Y-12566198D02*
X14482444Y-12575722D01*
X14482444Y-12575722D02*
X14491967Y-12594769D01*
X14491967Y-12594769D02*
X14491967Y-12642388D01*
X14491967Y-12642388D02*
X14482444Y-12661436D01*
X14482444Y-12661436D02*
X14472920Y-12670960D01*
X14472920Y-12670960D02*
X14453872Y-12680484D01*
X14453872Y-12680484D02*
X14406253Y-12680484D01*
X14406253Y-12680484D02*
X14387206Y-12670960D01*
X14387206Y-12670960D02*
X14377682Y-12661436D01*
X14558634Y-12480484D02*
X14691967Y-12480484D01*
X14691967Y-12480484D02*
X14606253Y-12680484D01*
X14758634Y-12480484D02*
X14758634Y-12518579D01*
X14834825Y-12480484D02*
X14834825Y-12518579D01*
X15130063Y-12756674D02*
X15120539Y-12747150D01*
X15120539Y-12747150D02*
X15101491Y-12718579D01*
X15101491Y-12718579D02*
X15091968Y-12699531D01*
X15091968Y-12699531D02*
X15082444Y-12670960D01*
X15082444Y-12670960D02*
X15072920Y-12623341D01*
X15072920Y-12623341D02*
X15072920Y-12585246D01*
X15072920Y-12585246D02*
X15082444Y-12537627D01*
X15082444Y-12537627D02*
X15091968Y-12509055D01*
X15091968Y-12509055D02*
X15101491Y-12490008D01*
X15101491Y-12490008D02*
X15120539Y-12461436D01*
X15120539Y-12461436D02*
X15130063Y-12451912D01*
X15187206Y-12480484D02*
X15311015Y-12480484D01*
X15311015Y-12480484D02*
X15244348Y-12556674D01*
X15244348Y-12556674D02*
X15272920Y-12556674D01*
X15272920Y-12556674D02*
X15291968Y-12566198D01*
X15291968Y-12566198D02*
X15301491Y-12575722D01*
X15301491Y-12575722D02*
X15311015Y-12594769D01*
X15311015Y-12594769D02*
X15311015Y-12642388D01*
X15311015Y-12642388D02*
X15301491Y-12661436D01*
X15301491Y-12661436D02*
X15291968Y-12670960D01*
X15291968Y-12670960D02*
X15272920Y-12680484D01*
X15272920Y-12680484D02*
X15215777Y-12680484D01*
X15215777Y-12680484D02*
X15196729Y-12670960D01*
X15196729Y-12670960D02*
X15187206Y-12661436D01*
X15387206Y-12499531D02*
X15396729Y-12490008D01*
X15396729Y-12490008D02*
X15415777Y-12480484D01*
X15415777Y-12480484D02*
X15463396Y-12480484D01*
X15463396Y-12480484D02*
X15482444Y-12490008D01*
X15482444Y-12490008D02*
X15491968Y-12499531D01*
X15491968Y-12499531D02*
X15501491Y-12518579D01*
X15501491Y-12518579D02*
X15501491Y-12537627D01*
X15501491Y-12537627D02*
X15491968Y-12566198D01*
X15491968Y-12566198D02*
X15377682Y-12680484D01*
X15377682Y-12680484D02*
X15501491Y-12680484D01*
X15739587Y-12680484D02*
X15739587Y-12480484D01*
X15825301Y-12680484D02*
X15825301Y-12575722D01*
X15825301Y-12575722D02*
X15815777Y-12556674D01*
X15815777Y-12556674D02*
X15796730Y-12547150D01*
X15796730Y-12547150D02*
X15768158Y-12547150D01*
X15768158Y-12547150D02*
X15749110Y-12556674D01*
X15749110Y-12556674D02*
X15739587Y-12566198D01*
X15949110Y-12680484D02*
X15930063Y-12670960D01*
X15930063Y-12670960D02*
X15920539Y-12661436D01*
X15920539Y-12661436D02*
X15911015Y-12642388D01*
X15911015Y-12642388D02*
X15911015Y-12585246D01*
X15911015Y-12585246D02*
X15920539Y-12566198D01*
X15920539Y-12566198D02*
X15930063Y-12556674D01*
X15930063Y-12556674D02*
X15949110Y-12547150D01*
X15949110Y-12547150D02*
X15977682Y-12547150D01*
X15977682Y-12547150D02*
X15996730Y-12556674D01*
X15996730Y-12556674D02*
X16006253Y-12566198D01*
X16006253Y-12566198D02*
X16015777Y-12585246D01*
X16015777Y-12585246D02*
X16015777Y-12642388D01*
X16015777Y-12642388D02*
X16006253Y-12661436D01*
X16006253Y-12661436D02*
X15996730Y-12670960D01*
X15996730Y-12670960D02*
X15977682Y-12680484D01*
X15977682Y-12680484D02*
X15949110Y-12680484D01*
X16130063Y-12680484D02*
X16111015Y-12670960D01*
X16111015Y-12670960D02*
X16101491Y-12651912D01*
X16101491Y-12651912D02*
X16101491Y-12480484D01*
X16282444Y-12670960D02*
X16263396Y-12680484D01*
X16263396Y-12680484D02*
X16225301Y-12680484D01*
X16225301Y-12680484D02*
X16206253Y-12670960D01*
X16206253Y-12670960D02*
X16196730Y-12651912D01*
X16196730Y-12651912D02*
X16196730Y-12575722D01*
X16196730Y-12575722D02*
X16206253Y-12556674D01*
X16206253Y-12556674D02*
X16225301Y-12547150D01*
X16225301Y-12547150D02*
X16263396Y-12547150D01*
X16263396Y-12547150D02*
X16282444Y-12556674D01*
X16282444Y-12556674D02*
X16291968Y-12575722D01*
X16291968Y-12575722D02*
X16291968Y-12594769D01*
X16291968Y-12594769D02*
X16196730Y-12613817D01*
X16368158Y-12670960D02*
X16387206Y-12680484D01*
X16387206Y-12680484D02*
X16425301Y-12680484D01*
X16425301Y-12680484D02*
X16444349Y-12670960D01*
X16444349Y-12670960D02*
X16453872Y-12651912D01*
X16453872Y-12651912D02*
X16453872Y-12642388D01*
X16453872Y-12642388D02*
X16444349Y-12623341D01*
X16444349Y-12623341D02*
X16425301Y-12613817D01*
X16425301Y-12613817D02*
X16396730Y-12613817D01*
X16396730Y-12613817D02*
X16377682Y-12604293D01*
X16377682Y-12604293D02*
X16368158Y-12585246D01*
X16368158Y-12585246D02*
X16368158Y-12575722D01*
X16368158Y-12575722D02*
X16377682Y-12556674D01*
X16377682Y-12556674D02*
X16396730Y-12547150D01*
X16396730Y-12547150D02*
X16425301Y-12547150D01*
X16425301Y-12547150D02*
X16444349Y-12556674D01*
X16520539Y-12756674D02*
X16530063Y-12747150D01*
X16530063Y-12747150D02*
X16549111Y-12718579D01*
X16549111Y-12718579D02*
X16558634Y-12699531D01*
X16558634Y-12699531D02*
X16568158Y-12670960D01*
X16568158Y-12670960D02*
X16577682Y-12623341D01*
X16577682Y-12623341D02*
X16577682Y-12585246D01*
X16577682Y-12585246D02*
X16568158Y-12537627D01*
X16568158Y-12537627D02*
X16558634Y-12509055D01*
X16558634Y-12509055D02*
X16549111Y-12490008D01*
X16549111Y-12490008D02*
X16530063Y-12461436D01*
X16530063Y-12461436D02*
X16520539Y-12451912D01*
D10*
X11520000Y-12818000D02*
X11520000Y-12888000D01*
X11485000Y-12853000D02*
X11555000Y-12853000D01*
D11*
X11853872Y-12744484D02*
X11872920Y-12744484D01*
X11872920Y-12744484D02*
X11891967Y-12754008D01*
X11891967Y-12754008D02*
X11901491Y-12763531D01*
X11901491Y-12763531D02*
X11911015Y-12782579D01*
X11911015Y-12782579D02*
X11920539Y-12820674D01*
X11920539Y-12820674D02*
X11920539Y-12868293D01*
X11920539Y-12868293D02*
X11911015Y-12906388D01*
X11911015Y-12906388D02*
X11901491Y-12925436D01*
X11901491Y-12925436D02*
X11891967Y-12934960D01*
X11891967Y-12934960D02*
X11872920Y-12944484D01*
X11872920Y-12944484D02*
X11853872Y-12944484D01*
X11853872Y-12944484D02*
X11834824Y-12934960D01*
X11834824Y-12934960D02*
X11825301Y-12925436D01*
X11825301Y-12925436D02*
X11815777Y-12906388D01*
X11815777Y-12906388D02*
X11806253Y-12868293D01*
X11806253Y-12868293D02*
X11806253Y-12820674D01*
X11806253Y-12820674D02*
X11815777Y-12782579D01*
X11815777Y-12782579D02*
X11825301Y-12763531D01*
X11825301Y-12763531D02*
X11834824Y-12754008D01*
X11834824Y-12754008D02*
X11853872Y-12744484D01*
X12006253Y-12925436D02*
X12015777Y-12934960D01*
X12015777Y-12934960D02*
X12006253Y-12944484D01*
X12006253Y-12944484D02*
X11996729Y-12934960D01*
X11996729Y-12934960D02*
X12006253Y-12925436D01*
X12006253Y-12925436D02*
X12006253Y-12944484D01*
X12082443Y-12744484D02*
X12215777Y-12744484D01*
X12215777Y-12744484D02*
X12130062Y-12944484D01*
X12330062Y-12744484D02*
X12349110Y-12744484D01*
X12349110Y-12744484D02*
X12368158Y-12754008D01*
X12368158Y-12754008D02*
X12377682Y-12763531D01*
X12377682Y-12763531D02*
X12387205Y-12782579D01*
X12387205Y-12782579D02*
X12396729Y-12820674D01*
X12396729Y-12820674D02*
X12396729Y-12868293D01*
X12396729Y-12868293D02*
X12387205Y-12906388D01*
X12387205Y-12906388D02*
X12377682Y-12925436D01*
X12377682Y-12925436D02*
X12368158Y-12934960D01*
X12368158Y-12934960D02*
X12349110Y-12944484D01*
X12349110Y-12944484D02*
X12330062Y-12944484D01*
X12330062Y-12944484D02*
X12311015Y-12934960D01*
X12311015Y-12934960D02*
X12301491Y-12925436D01*
X12301491Y-12925436D02*
X12291967Y-12906388D01*
X12291967Y-12906388D02*
X12282443Y-12868293D01*
X12282443Y-12868293D02*
X12282443Y-12820674D01*
X12282443Y-12820674D02*
X12291967Y-12782579D01*
X12291967Y-12782579D02*
X12301491Y-12763531D01*
X12301491Y-12763531D02*
X12311015Y-12754008D01*
X12311015Y-12754008D02*
X12330062Y-12744484D01*
X12520539Y-12744484D02*
X12539586Y-12744484D01*
X12539586Y-12744484D02*
X12558634Y-12754008D01*
X12558634Y-12754008D02*
X12568158Y-12763531D01*
X12568158Y-12763531D02*
X12577682Y-12782579D01*
X12577682Y-12782579D02*
X12587205Y-12820674D01*
X12587205Y-12820674D02*
X12587205Y-12868293D01*
X12587205Y-12868293D02*
X12577682Y-12906388D01*
X12577682Y-12906388D02*
X12568158Y-12925436D01*
X12568158Y-12925436D02*
X12558634Y-12934960D01*
X12558634Y-12934960D02*
X12539586Y-12944484D01*
X12539586Y-12944484D02*
X12520539Y-12944484D01*
X12520539Y-12944484D02*
X12501491Y-12934960D01*
X12501491Y-12934960D02*
X12491967Y-12925436D01*
X12491967Y-12925436D02*
X12482443Y-12906388D01*
X12482443Y-12906388D02*
X12472920Y-12868293D01*
X12472920Y-12868293D02*
X12472920Y-12820674D01*
X12472920Y-12820674D02*
X12482443Y-12782579D01*
X12482443Y-12782579D02*
X12491967Y-12763531D01*
X12491967Y-12763531D02*
X12501491Y-12754008D01*
X12501491Y-12754008D02*
X12520539Y-12744484D01*
X12672920Y-12944484D02*
X12672920Y-12811150D01*
X12672920Y-12830198D02*
X12682443Y-12820674D01*
X12682443Y-12820674D02*
X12701491Y-12811150D01*
X12701491Y-12811150D02*
X12730063Y-12811150D01*
X12730063Y-12811150D02*
X12749110Y-12820674D01*
X12749110Y-12820674D02*
X12758634Y-12839722D01*
X12758634Y-12839722D02*
X12758634Y-12944484D01*
X12758634Y-12839722D02*
X12768158Y-12820674D01*
X12768158Y-12820674D02*
X12787205Y-12811150D01*
X12787205Y-12811150D02*
X12815777Y-12811150D01*
X12815777Y-12811150D02*
X12834824Y-12820674D01*
X12834824Y-12820674D02*
X12844348Y-12839722D01*
X12844348Y-12839722D02*
X12844348Y-12944484D01*
X12939586Y-12944484D02*
X12939586Y-12811150D01*
X12939586Y-12830198D02*
X12949110Y-12820674D01*
X12949110Y-12820674D02*
X12968158Y-12811150D01*
X12968158Y-12811150D02*
X12996729Y-12811150D01*
X12996729Y-12811150D02*
X13015777Y-12820674D01*
X13015777Y-12820674D02*
X13025301Y-12839722D01*
X13025301Y-12839722D02*
X13025301Y-12944484D01*
X13025301Y-12839722D02*
X13034824Y-12820674D01*
X13034824Y-12820674D02*
X13053872Y-12811150D01*
X13053872Y-12811150D02*
X13082443Y-12811150D01*
X13082443Y-12811150D02*
X13101491Y-12820674D01*
X13101491Y-12820674D02*
X13111015Y-12839722D01*
X13111015Y-12839722D02*
X13111015Y-12944484D01*
X13501491Y-12734960D02*
X13330063Y-12992103D01*
X13758634Y-12744484D02*
X13777682Y-12744484D01*
X13777682Y-12744484D02*
X13796729Y-12754008D01*
X13796729Y-12754008D02*
X13806253Y-12763531D01*
X13806253Y-12763531D02*
X13815777Y-12782579D01*
X13815777Y-12782579D02*
X13825301Y-12820674D01*
X13825301Y-12820674D02*
X13825301Y-12868293D01*
X13825301Y-12868293D02*
X13815777Y-12906388D01*
X13815777Y-12906388D02*
X13806253Y-12925436D01*
X13806253Y-12925436D02*
X13796729Y-12934960D01*
X13796729Y-12934960D02*
X13777682Y-12944484D01*
X13777682Y-12944484D02*
X13758634Y-12944484D01*
X13758634Y-12944484D02*
X13739586Y-12934960D01*
X13739586Y-12934960D02*
X13730063Y-12925436D01*
X13730063Y-12925436D02*
X13720539Y-12906388D01*
X13720539Y-12906388D02*
X13711015Y-12868293D01*
X13711015Y-12868293D02*
X13711015Y-12820674D01*
X13711015Y-12820674D02*
X13720539Y-12782579D01*
X13720539Y-12782579D02*
X13730063Y-12763531D01*
X13730063Y-12763531D02*
X13739586Y-12754008D01*
X13739586Y-12754008D02*
X13758634Y-12744484D01*
X13911015Y-12925436D02*
X13920539Y-12934960D01*
X13920539Y-12934960D02*
X13911015Y-12944484D01*
X13911015Y-12944484D02*
X13901491Y-12934960D01*
X13901491Y-12934960D02*
X13911015Y-12925436D01*
X13911015Y-12925436D02*
X13911015Y-12944484D01*
X14044348Y-12744484D02*
X14063396Y-12744484D01*
X14063396Y-12744484D02*
X14082444Y-12754008D01*
X14082444Y-12754008D02*
X14091967Y-12763531D01*
X14091967Y-12763531D02*
X14101491Y-12782579D01*
X14101491Y-12782579D02*
X14111015Y-12820674D01*
X14111015Y-12820674D02*
X14111015Y-12868293D01*
X14111015Y-12868293D02*
X14101491Y-12906388D01*
X14101491Y-12906388D02*
X14091967Y-12925436D01*
X14091967Y-12925436D02*
X14082444Y-12934960D01*
X14082444Y-12934960D02*
X14063396Y-12944484D01*
X14063396Y-12944484D02*
X14044348Y-12944484D01*
X14044348Y-12944484D02*
X14025301Y-12934960D01*
X14025301Y-12934960D02*
X14015777Y-12925436D01*
X14015777Y-12925436D02*
X14006253Y-12906388D01*
X14006253Y-12906388D02*
X13996729Y-12868293D01*
X13996729Y-12868293D02*
X13996729Y-12820674D01*
X13996729Y-12820674D02*
X14006253Y-12782579D01*
X14006253Y-12782579D02*
X14015777Y-12763531D01*
X14015777Y-12763531D02*
X14025301Y-12754008D01*
X14025301Y-12754008D02*
X14044348Y-12744484D01*
X14187206Y-12763531D02*
X14196729Y-12754008D01*
X14196729Y-12754008D02*
X14215777Y-12744484D01*
X14215777Y-12744484D02*
X14263396Y-12744484D01*
X14263396Y-12744484D02*
X14282444Y-12754008D01*
X14282444Y-12754008D02*
X14291967Y-12763531D01*
X14291967Y-12763531D02*
X14301491Y-12782579D01*
X14301491Y-12782579D02*
X14301491Y-12801627D01*
X14301491Y-12801627D02*
X14291967Y-12830198D01*
X14291967Y-12830198D02*
X14177682Y-12944484D01*
X14177682Y-12944484D02*
X14301491Y-12944484D01*
X14368158Y-12744484D02*
X14501491Y-12744484D01*
X14501491Y-12744484D02*
X14415777Y-12944484D01*
X14663396Y-12744484D02*
X14625301Y-12744484D01*
X14625301Y-12744484D02*
X14606253Y-12754008D01*
X14606253Y-12754008D02*
X14596729Y-12763531D01*
X14596729Y-12763531D02*
X14577682Y-12792103D01*
X14577682Y-12792103D02*
X14568158Y-12830198D01*
X14568158Y-12830198D02*
X14568158Y-12906388D01*
X14568158Y-12906388D02*
X14577682Y-12925436D01*
X14577682Y-12925436D02*
X14587206Y-12934960D01*
X14587206Y-12934960D02*
X14606253Y-12944484D01*
X14606253Y-12944484D02*
X14644348Y-12944484D01*
X14644348Y-12944484D02*
X14663396Y-12934960D01*
X14663396Y-12934960D02*
X14672920Y-12925436D01*
X14672920Y-12925436D02*
X14682444Y-12906388D01*
X14682444Y-12906388D02*
X14682444Y-12858769D01*
X14682444Y-12858769D02*
X14672920Y-12839722D01*
X14672920Y-12839722D02*
X14663396Y-12830198D01*
X14663396Y-12830198D02*
X14644348Y-12820674D01*
X14644348Y-12820674D02*
X14606253Y-12820674D01*
X14606253Y-12820674D02*
X14587206Y-12830198D01*
X14587206Y-12830198D02*
X14577682Y-12839722D01*
X14577682Y-12839722D02*
X14568158Y-12858769D01*
X14758634Y-12744484D02*
X14758634Y-12782579D01*
X14834825Y-12744484D02*
X14834825Y-12782579D01*
X15130063Y-13020674D02*
X15120539Y-13011150D01*
X15120539Y-13011150D02*
X15101491Y-12982579D01*
X15101491Y-12982579D02*
X15091968Y-12963531D01*
X15091968Y-12963531D02*
X15082444Y-12934960D01*
X15082444Y-12934960D02*
X15072920Y-12887341D01*
X15072920Y-12887341D02*
X15072920Y-12849246D01*
X15072920Y-12849246D02*
X15082444Y-12801627D01*
X15082444Y-12801627D02*
X15091968Y-12773055D01*
X15091968Y-12773055D02*
X15101491Y-12754008D01*
X15101491Y-12754008D02*
X15120539Y-12725436D01*
X15120539Y-12725436D02*
X15130063Y-12715912D01*
X15187206Y-12744484D02*
X15311015Y-12744484D01*
X15311015Y-12744484D02*
X15244348Y-12820674D01*
X15244348Y-12820674D02*
X15272920Y-12820674D01*
X15272920Y-12820674D02*
X15291968Y-12830198D01*
X15291968Y-12830198D02*
X15301491Y-12839722D01*
X15301491Y-12839722D02*
X15311015Y-12858769D01*
X15311015Y-12858769D02*
X15311015Y-12906388D01*
X15311015Y-12906388D02*
X15301491Y-12925436D01*
X15301491Y-12925436D02*
X15291968Y-12934960D01*
X15291968Y-12934960D02*
X15272920Y-12944484D01*
X15272920Y-12944484D02*
X15215777Y-12944484D01*
X15215777Y-12944484D02*
X15196729Y-12934960D01*
X15196729Y-12934960D02*
X15187206Y-12925436D01*
X15549110Y-12944484D02*
X15549110Y-12744484D01*
X15634825Y-12944484D02*
X15634825Y-12839722D01*
X15634825Y-12839722D02*
X15625301Y-12820674D01*
X15625301Y-12820674D02*
X15606253Y-12811150D01*
X15606253Y-12811150D02*
X15577682Y-12811150D01*
X15577682Y-12811150D02*
X15558634Y-12820674D01*
X15558634Y-12820674D02*
X15549110Y-12830198D01*
X15758634Y-12944484D02*
X15739587Y-12934960D01*
X15739587Y-12934960D02*
X15730063Y-12925436D01*
X15730063Y-12925436D02*
X15720539Y-12906388D01*
X15720539Y-12906388D02*
X15720539Y-12849246D01*
X15720539Y-12849246D02*
X15730063Y-12830198D01*
X15730063Y-12830198D02*
X15739587Y-12820674D01*
X15739587Y-12820674D02*
X15758634Y-12811150D01*
X15758634Y-12811150D02*
X15787206Y-12811150D01*
X15787206Y-12811150D02*
X15806253Y-12820674D01*
X15806253Y-12820674D02*
X15815777Y-12830198D01*
X15815777Y-12830198D02*
X15825301Y-12849246D01*
X15825301Y-12849246D02*
X15825301Y-12906388D01*
X15825301Y-12906388D02*
X15815777Y-12925436D01*
X15815777Y-12925436D02*
X15806253Y-12934960D01*
X15806253Y-12934960D02*
X15787206Y-12944484D01*
X15787206Y-12944484D02*
X15758634Y-12944484D01*
X15939587Y-12944484D02*
X15920539Y-12934960D01*
X15920539Y-12934960D02*
X15911015Y-12915912D01*
X15911015Y-12915912D02*
X15911015Y-12744484D01*
X16091968Y-12934960D02*
X16072920Y-12944484D01*
X16072920Y-12944484D02*
X16034825Y-12944484D01*
X16034825Y-12944484D02*
X16015777Y-12934960D01*
X16015777Y-12934960D02*
X16006253Y-12915912D01*
X16006253Y-12915912D02*
X16006253Y-12839722D01*
X16006253Y-12839722D02*
X16015777Y-12820674D01*
X16015777Y-12820674D02*
X16034825Y-12811150D01*
X16034825Y-12811150D02*
X16072920Y-12811150D01*
X16072920Y-12811150D02*
X16091968Y-12820674D01*
X16091968Y-12820674D02*
X16101491Y-12839722D01*
X16101491Y-12839722D02*
X16101491Y-12858769D01*
X16101491Y-12858769D02*
X16006253Y-12877817D01*
X16177682Y-12934960D02*
X16196730Y-12944484D01*
X16196730Y-12944484D02*
X16234825Y-12944484D01*
X16234825Y-12944484D02*
X16253872Y-12934960D01*
X16253872Y-12934960D02*
X16263396Y-12915912D01*
X16263396Y-12915912D02*
X16263396Y-12906388D01*
X16263396Y-12906388D02*
X16253872Y-12887341D01*
X16253872Y-12887341D02*
X16234825Y-12877817D01*
X16234825Y-12877817D02*
X16206253Y-12877817D01*
X16206253Y-12877817D02*
X16187206Y-12868293D01*
X16187206Y-12868293D02*
X16177682Y-12849246D01*
X16177682Y-12849246D02*
X16177682Y-12839722D01*
X16177682Y-12839722D02*
X16187206Y-12820674D01*
X16187206Y-12820674D02*
X16206253Y-12811150D01*
X16206253Y-12811150D02*
X16234825Y-12811150D01*
X16234825Y-12811150D02*
X16253872Y-12820674D01*
X16330063Y-13020674D02*
X16339587Y-13011150D01*
X16339587Y-13011150D02*
X16358634Y-12982579D01*
X16358634Y-12982579D02*
X16368158Y-12963531D01*
X16368158Y-12963531D02*
X16377682Y-12934960D01*
X16377682Y-12934960D02*
X16387206Y-12887341D01*
X16387206Y-12887341D02*
X16387206Y-12849246D01*
X16387206Y-12849246D02*
X16377682Y-12801627D01*
X16377682Y-12801627D02*
X16368158Y-12773055D01*
X16368158Y-12773055D02*
X16358634Y-12754008D01*
X16358634Y-12754008D02*
X16339587Y-12725436D01*
X16339587Y-12725436D02*
X16330063Y-12715912D01*
D10*
X11543284Y-13145284D02*
X11543284Y-13088715D01*
X11486715Y-13088715D01*
X11486715Y-13145284D01*
X11543284Y-13145284D01*
D11*
X11853872Y-13008484D02*
X11872920Y-13008484D01*
X11872920Y-13008484D02*
X11891967Y-13018008D01*
X11891967Y-13018008D02*
X11901491Y-13027531D01*
X11901491Y-13027531D02*
X11911015Y-13046579D01*
X11911015Y-13046579D02*
X11920539Y-13084674D01*
X11920539Y-13084674D02*
X11920539Y-13132293D01*
X11920539Y-13132293D02*
X11911015Y-13170388D01*
X11911015Y-13170388D02*
X11901491Y-13189436D01*
X11901491Y-13189436D02*
X11891967Y-13198960D01*
X11891967Y-13198960D02*
X11872920Y-13208484D01*
X11872920Y-13208484D02*
X11853872Y-13208484D01*
X11853872Y-13208484D02*
X11834824Y-13198960D01*
X11834824Y-13198960D02*
X11825301Y-13189436D01*
X11825301Y-13189436D02*
X11815777Y-13170388D01*
X11815777Y-13170388D02*
X11806253Y-13132293D01*
X11806253Y-13132293D02*
X11806253Y-13084674D01*
X11806253Y-13084674D02*
X11815777Y-13046579D01*
X11815777Y-13046579D02*
X11825301Y-13027531D01*
X11825301Y-13027531D02*
X11834824Y-13018008D01*
X11834824Y-13018008D02*
X11853872Y-13008484D01*
X12006253Y-13189436D02*
X12015777Y-13198960D01*
X12015777Y-13198960D02*
X12006253Y-13208484D01*
X12006253Y-13208484D02*
X11996729Y-13198960D01*
X11996729Y-13198960D02*
X12006253Y-13189436D01*
X12006253Y-13189436D02*
X12006253Y-13208484D01*
X12130062Y-13094198D02*
X12111015Y-13084674D01*
X12111015Y-13084674D02*
X12101491Y-13075150D01*
X12101491Y-13075150D02*
X12091967Y-13056103D01*
X12091967Y-13056103D02*
X12091967Y-13046579D01*
X12091967Y-13046579D02*
X12101491Y-13027531D01*
X12101491Y-13027531D02*
X12111015Y-13018008D01*
X12111015Y-13018008D02*
X12130062Y-13008484D01*
X12130062Y-13008484D02*
X12168158Y-13008484D01*
X12168158Y-13008484D02*
X12187205Y-13018008D01*
X12187205Y-13018008D02*
X12196729Y-13027531D01*
X12196729Y-13027531D02*
X12206253Y-13046579D01*
X12206253Y-13046579D02*
X12206253Y-13056103D01*
X12206253Y-13056103D02*
X12196729Y-13075150D01*
X12196729Y-13075150D02*
X12187205Y-13084674D01*
X12187205Y-13084674D02*
X12168158Y-13094198D01*
X12168158Y-13094198D02*
X12130062Y-13094198D01*
X12130062Y-13094198D02*
X12111015Y-13103722D01*
X12111015Y-13103722D02*
X12101491Y-13113246D01*
X12101491Y-13113246D02*
X12091967Y-13132293D01*
X12091967Y-13132293D02*
X12091967Y-13170388D01*
X12091967Y-13170388D02*
X12101491Y-13189436D01*
X12101491Y-13189436D02*
X12111015Y-13198960D01*
X12111015Y-13198960D02*
X12130062Y-13208484D01*
X12130062Y-13208484D02*
X12168158Y-13208484D01*
X12168158Y-13208484D02*
X12187205Y-13198960D01*
X12187205Y-13198960D02*
X12196729Y-13189436D01*
X12196729Y-13189436D02*
X12206253Y-13170388D01*
X12206253Y-13170388D02*
X12206253Y-13132293D01*
X12206253Y-13132293D02*
X12196729Y-13113246D01*
X12196729Y-13113246D02*
X12187205Y-13103722D01*
X12187205Y-13103722D02*
X12168158Y-13094198D01*
X12330062Y-13008484D02*
X12349110Y-13008484D01*
X12349110Y-13008484D02*
X12368158Y-13018008D01*
X12368158Y-13018008D02*
X12377682Y-13027531D01*
X12377682Y-13027531D02*
X12387205Y-13046579D01*
X12387205Y-13046579D02*
X12396729Y-13084674D01*
X12396729Y-13084674D02*
X12396729Y-13132293D01*
X12396729Y-13132293D02*
X12387205Y-13170388D01*
X12387205Y-13170388D02*
X12377682Y-13189436D01*
X12377682Y-13189436D02*
X12368158Y-13198960D01*
X12368158Y-13198960D02*
X12349110Y-13208484D01*
X12349110Y-13208484D02*
X12330062Y-13208484D01*
X12330062Y-13208484D02*
X12311015Y-13198960D01*
X12311015Y-13198960D02*
X12301491Y-13189436D01*
X12301491Y-13189436D02*
X12291967Y-13170388D01*
X12291967Y-13170388D02*
X12282443Y-13132293D01*
X12282443Y-13132293D02*
X12282443Y-13084674D01*
X12282443Y-13084674D02*
X12291967Y-13046579D01*
X12291967Y-13046579D02*
X12301491Y-13027531D01*
X12301491Y-13027531D02*
X12311015Y-13018008D01*
X12311015Y-13018008D02*
X12330062Y-13008484D01*
X12520539Y-13008484D02*
X12539586Y-13008484D01*
X12539586Y-13008484D02*
X12558634Y-13018008D01*
X12558634Y-13018008D02*
X12568158Y-13027531D01*
X12568158Y-13027531D02*
X12577682Y-13046579D01*
X12577682Y-13046579D02*
X12587205Y-13084674D01*
X12587205Y-13084674D02*
X12587205Y-13132293D01*
X12587205Y-13132293D02*
X12577682Y-13170388D01*
X12577682Y-13170388D02*
X12568158Y-13189436D01*
X12568158Y-13189436D02*
X12558634Y-13198960D01*
X12558634Y-13198960D02*
X12539586Y-13208484D01*
X12539586Y-13208484D02*
X12520539Y-13208484D01*
X12520539Y-13208484D02*
X12501491Y-13198960D01*
X12501491Y-13198960D02*
X12491967Y-13189436D01*
X12491967Y-13189436D02*
X12482443Y-13170388D01*
X12482443Y-13170388D02*
X12472920Y-13132293D01*
X12472920Y-13132293D02*
X12472920Y-13084674D01*
X12472920Y-13084674D02*
X12482443Y-13046579D01*
X12482443Y-13046579D02*
X12491967Y-13027531D01*
X12491967Y-13027531D02*
X12501491Y-13018008D01*
X12501491Y-13018008D02*
X12520539Y-13008484D01*
X12672920Y-13208484D02*
X12672920Y-13075150D01*
X12672920Y-13094198D02*
X12682443Y-13084674D01*
X12682443Y-13084674D02*
X12701491Y-13075150D01*
X12701491Y-13075150D02*
X12730063Y-13075150D01*
X12730063Y-13075150D02*
X12749110Y-13084674D01*
X12749110Y-13084674D02*
X12758634Y-13103722D01*
X12758634Y-13103722D02*
X12758634Y-13208484D01*
X12758634Y-13103722D02*
X12768158Y-13084674D01*
X12768158Y-13084674D02*
X12787205Y-13075150D01*
X12787205Y-13075150D02*
X12815777Y-13075150D01*
X12815777Y-13075150D02*
X12834824Y-13084674D01*
X12834824Y-13084674D02*
X12844348Y-13103722D01*
X12844348Y-13103722D02*
X12844348Y-13208484D01*
X12939586Y-13208484D02*
X12939586Y-13075150D01*
X12939586Y-13094198D02*
X12949110Y-13084674D01*
X12949110Y-13084674D02*
X12968158Y-13075150D01*
X12968158Y-13075150D02*
X12996729Y-13075150D01*
X12996729Y-13075150D02*
X13015777Y-13084674D01*
X13015777Y-13084674D02*
X13025301Y-13103722D01*
X13025301Y-13103722D02*
X13025301Y-13208484D01*
X13025301Y-13103722D02*
X13034824Y-13084674D01*
X13034824Y-13084674D02*
X13053872Y-13075150D01*
X13053872Y-13075150D02*
X13082443Y-13075150D01*
X13082443Y-13075150D02*
X13101491Y-13084674D01*
X13101491Y-13084674D02*
X13111015Y-13103722D01*
X13111015Y-13103722D02*
X13111015Y-13208484D01*
X13501491Y-12998960D02*
X13330063Y-13256103D01*
X13758634Y-13008484D02*
X13777682Y-13008484D01*
X13777682Y-13008484D02*
X13796729Y-13018008D01*
X13796729Y-13018008D02*
X13806253Y-13027531D01*
X13806253Y-13027531D02*
X13815777Y-13046579D01*
X13815777Y-13046579D02*
X13825301Y-13084674D01*
X13825301Y-13084674D02*
X13825301Y-13132293D01*
X13825301Y-13132293D02*
X13815777Y-13170388D01*
X13815777Y-13170388D02*
X13806253Y-13189436D01*
X13806253Y-13189436D02*
X13796729Y-13198960D01*
X13796729Y-13198960D02*
X13777682Y-13208484D01*
X13777682Y-13208484D02*
X13758634Y-13208484D01*
X13758634Y-13208484D02*
X13739586Y-13198960D01*
X13739586Y-13198960D02*
X13730063Y-13189436D01*
X13730063Y-13189436D02*
X13720539Y-13170388D01*
X13720539Y-13170388D02*
X13711015Y-13132293D01*
X13711015Y-13132293D02*
X13711015Y-13084674D01*
X13711015Y-13084674D02*
X13720539Y-13046579D01*
X13720539Y-13046579D02*
X13730063Y-13027531D01*
X13730063Y-13027531D02*
X13739586Y-13018008D01*
X13739586Y-13018008D02*
X13758634Y-13008484D01*
X13911015Y-13189436D02*
X13920539Y-13198960D01*
X13920539Y-13198960D02*
X13911015Y-13208484D01*
X13911015Y-13208484D02*
X13901491Y-13198960D01*
X13901491Y-13198960D02*
X13911015Y-13189436D01*
X13911015Y-13189436D02*
X13911015Y-13208484D01*
X14044348Y-13008484D02*
X14063396Y-13008484D01*
X14063396Y-13008484D02*
X14082444Y-13018008D01*
X14082444Y-13018008D02*
X14091967Y-13027531D01*
X14091967Y-13027531D02*
X14101491Y-13046579D01*
X14101491Y-13046579D02*
X14111015Y-13084674D01*
X14111015Y-13084674D02*
X14111015Y-13132293D01*
X14111015Y-13132293D02*
X14101491Y-13170388D01*
X14101491Y-13170388D02*
X14091967Y-13189436D01*
X14091967Y-13189436D02*
X14082444Y-13198960D01*
X14082444Y-13198960D02*
X14063396Y-13208484D01*
X14063396Y-13208484D02*
X14044348Y-13208484D01*
X14044348Y-13208484D02*
X14025301Y-13198960D01*
X14025301Y-13198960D02*
X14015777Y-13189436D01*
X14015777Y-13189436D02*
X14006253Y-13170388D01*
X14006253Y-13170388D02*
X13996729Y-13132293D01*
X13996729Y-13132293D02*
X13996729Y-13084674D01*
X13996729Y-13084674D02*
X14006253Y-13046579D01*
X14006253Y-13046579D02*
X14015777Y-13027531D01*
X14015777Y-13027531D02*
X14025301Y-13018008D01*
X14025301Y-13018008D02*
X14044348Y-13008484D01*
X14177682Y-13008484D02*
X14301491Y-13008484D01*
X14301491Y-13008484D02*
X14234825Y-13084674D01*
X14234825Y-13084674D02*
X14263396Y-13084674D01*
X14263396Y-13084674D02*
X14282444Y-13094198D01*
X14282444Y-13094198D02*
X14291967Y-13103722D01*
X14291967Y-13103722D02*
X14301491Y-13122769D01*
X14301491Y-13122769D02*
X14301491Y-13170388D01*
X14301491Y-13170388D02*
X14291967Y-13189436D01*
X14291967Y-13189436D02*
X14282444Y-13198960D01*
X14282444Y-13198960D02*
X14263396Y-13208484D01*
X14263396Y-13208484D02*
X14206253Y-13208484D01*
X14206253Y-13208484D02*
X14187206Y-13198960D01*
X14187206Y-13198960D02*
X14177682Y-13189436D01*
X14491967Y-13208484D02*
X14377682Y-13208484D01*
X14434825Y-13208484D02*
X14434825Y-13008484D01*
X14434825Y-13008484D02*
X14415777Y-13037055D01*
X14415777Y-13037055D02*
X14396729Y-13056103D01*
X14396729Y-13056103D02*
X14377682Y-13065627D01*
X14672920Y-13008484D02*
X14577682Y-13008484D01*
X14577682Y-13008484D02*
X14568158Y-13103722D01*
X14568158Y-13103722D02*
X14577682Y-13094198D01*
X14577682Y-13094198D02*
X14596729Y-13084674D01*
X14596729Y-13084674D02*
X14644348Y-13084674D01*
X14644348Y-13084674D02*
X14663396Y-13094198D01*
X14663396Y-13094198D02*
X14672920Y-13103722D01*
X14672920Y-13103722D02*
X14682444Y-13122769D01*
X14682444Y-13122769D02*
X14682444Y-13170388D01*
X14682444Y-13170388D02*
X14672920Y-13189436D01*
X14672920Y-13189436D02*
X14663396Y-13198960D01*
X14663396Y-13198960D02*
X14644348Y-13208484D01*
X14644348Y-13208484D02*
X14596729Y-13208484D01*
X14596729Y-13208484D02*
X14577682Y-13198960D01*
X14577682Y-13198960D02*
X14568158Y-13189436D01*
X14758634Y-13008484D02*
X14758634Y-13046579D01*
X14834825Y-13008484D02*
X14834825Y-13046579D01*
X15130063Y-13284674D02*
X15120539Y-13275150D01*
X15120539Y-13275150D02*
X15101491Y-13246579D01*
X15101491Y-13246579D02*
X15091968Y-13227531D01*
X15091968Y-13227531D02*
X15082444Y-13198960D01*
X15082444Y-13198960D02*
X15072920Y-13151341D01*
X15072920Y-13151341D02*
X15072920Y-13113246D01*
X15072920Y-13113246D02*
X15082444Y-13065627D01*
X15082444Y-13065627D02*
X15091968Y-13037055D01*
X15091968Y-13037055D02*
X15101491Y-13018008D01*
X15101491Y-13018008D02*
X15120539Y-12989436D01*
X15120539Y-12989436D02*
X15130063Y-12979912D01*
X15196729Y-13027531D02*
X15206253Y-13018008D01*
X15206253Y-13018008D02*
X15225301Y-13008484D01*
X15225301Y-13008484D02*
X15272920Y-13008484D01*
X15272920Y-13008484D02*
X15291968Y-13018008D01*
X15291968Y-13018008D02*
X15301491Y-13027531D01*
X15301491Y-13027531D02*
X15311015Y-13046579D01*
X15311015Y-13046579D02*
X15311015Y-13065627D01*
X15311015Y-13065627D02*
X15301491Y-13094198D01*
X15301491Y-13094198D02*
X15187206Y-13208484D01*
X15187206Y-13208484D02*
X15311015Y-13208484D01*
X15434825Y-13008484D02*
X15453872Y-13008484D01*
X15453872Y-13008484D02*
X15472920Y-13018008D01*
X15472920Y-13018008D02*
X15482444Y-13027531D01*
X15482444Y-13027531D02*
X15491968Y-13046579D01*
X15491968Y-13046579D02*
X15501491Y-13084674D01*
X15501491Y-13084674D02*
X15501491Y-13132293D01*
X15501491Y-13132293D02*
X15491968Y-13170388D01*
X15491968Y-13170388D02*
X15482444Y-13189436D01*
X15482444Y-13189436D02*
X15472920Y-13198960D01*
X15472920Y-13198960D02*
X15453872Y-13208484D01*
X15453872Y-13208484D02*
X15434825Y-13208484D01*
X15434825Y-13208484D02*
X15415777Y-13198960D01*
X15415777Y-13198960D02*
X15406253Y-13189436D01*
X15406253Y-13189436D02*
X15396729Y-13170388D01*
X15396729Y-13170388D02*
X15387206Y-13132293D01*
X15387206Y-13132293D02*
X15387206Y-13084674D01*
X15387206Y-13084674D02*
X15396729Y-13046579D01*
X15396729Y-13046579D02*
X15406253Y-13027531D01*
X15406253Y-13027531D02*
X15415777Y-13018008D01*
X15415777Y-13018008D02*
X15434825Y-13008484D01*
X15739587Y-13208484D02*
X15739587Y-13008484D01*
X15825301Y-13208484D02*
X15825301Y-13103722D01*
X15825301Y-13103722D02*
X15815777Y-13084674D01*
X15815777Y-13084674D02*
X15796730Y-13075150D01*
X15796730Y-13075150D02*
X15768158Y-13075150D01*
X15768158Y-13075150D02*
X15749110Y-13084674D01*
X15749110Y-13084674D02*
X15739587Y-13094198D01*
X15949110Y-13208484D02*
X15930063Y-13198960D01*
X15930063Y-13198960D02*
X15920539Y-13189436D01*
X15920539Y-13189436D02*
X15911015Y-13170388D01*
X15911015Y-13170388D02*
X15911015Y-13113246D01*
X15911015Y-13113246D02*
X15920539Y-13094198D01*
X15920539Y-13094198D02*
X15930063Y-13084674D01*
X15930063Y-13084674D02*
X15949110Y-13075150D01*
X15949110Y-13075150D02*
X15977682Y-13075150D01*
X15977682Y-13075150D02*
X15996730Y-13084674D01*
X15996730Y-13084674D02*
X16006253Y-13094198D01*
X16006253Y-13094198D02*
X16015777Y-13113246D01*
X16015777Y-13113246D02*
X16015777Y-13170388D01*
X16015777Y-13170388D02*
X16006253Y-13189436D01*
X16006253Y-13189436D02*
X15996730Y-13198960D01*
X15996730Y-13198960D02*
X15977682Y-13208484D01*
X15977682Y-13208484D02*
X15949110Y-13208484D01*
X16130063Y-13208484D02*
X16111015Y-13198960D01*
X16111015Y-13198960D02*
X16101491Y-13179912D01*
X16101491Y-13179912D02*
X16101491Y-13008484D01*
X16282444Y-13198960D02*
X16263396Y-13208484D01*
X16263396Y-13208484D02*
X16225301Y-13208484D01*
X16225301Y-13208484D02*
X16206253Y-13198960D01*
X16206253Y-13198960D02*
X16196730Y-13179912D01*
X16196730Y-13179912D02*
X16196730Y-13103722D01*
X16196730Y-13103722D02*
X16206253Y-13084674D01*
X16206253Y-13084674D02*
X16225301Y-13075150D01*
X16225301Y-13075150D02*
X16263396Y-13075150D01*
X16263396Y-13075150D02*
X16282444Y-13084674D01*
X16282444Y-13084674D02*
X16291968Y-13103722D01*
X16291968Y-13103722D02*
X16291968Y-13122769D01*
X16291968Y-13122769D02*
X16196730Y-13141817D01*
X16368158Y-13198960D02*
X16387206Y-13208484D01*
X16387206Y-13208484D02*
X16425301Y-13208484D01*
X16425301Y-13208484D02*
X16444349Y-13198960D01*
X16444349Y-13198960D02*
X16453872Y-13179912D01*
X16453872Y-13179912D02*
X16453872Y-13170388D01*
X16453872Y-13170388D02*
X16444349Y-13151341D01*
X16444349Y-13151341D02*
X16425301Y-13141817D01*
X16425301Y-13141817D02*
X16396730Y-13141817D01*
X16396730Y-13141817D02*
X16377682Y-13132293D01*
X16377682Y-13132293D02*
X16368158Y-13113246D01*
X16368158Y-13113246D02*
X16368158Y-13103722D01*
X16368158Y-13103722D02*
X16377682Y-13084674D01*
X16377682Y-13084674D02*
X16396730Y-13075150D01*
X16396730Y-13075150D02*
X16425301Y-13075150D01*
X16425301Y-13075150D02*
X16444349Y-13084674D01*
X16520539Y-13284674D02*
X16530063Y-13275150D01*
X16530063Y-13275150D02*
X16549111Y-13246579D01*
X16549111Y-13246579D02*
X16558634Y-13227531D01*
X16558634Y-13227531D02*
X16568158Y-13198960D01*
X16568158Y-13198960D02*
X16577682Y-13151341D01*
X16577682Y-13151341D02*
X16577682Y-13113246D01*
X16577682Y-13113246D02*
X16568158Y-13065627D01*
X16568158Y-13065627D02*
X16558634Y-13037055D01*
X16558634Y-13037055D02*
X16549111Y-13018008D01*
X16549111Y-13018008D02*
X16530063Y-12989436D01*
X16530063Y-12989436D02*
X16520539Y-12979912D01*
D10*
X11505000Y-13431000D02*
X11555000Y-13381000D01*
X11505000Y-13331000D01*
X11455000Y-13381000D01*
X11505000Y-13431000D01*
D11*
X11920539Y-13472484D02*
X11806253Y-13472484D01*
X11863396Y-13472484D02*
X11863396Y-13272484D01*
X11863396Y-13272484D02*
X11844348Y-13301055D01*
X11844348Y-13301055D02*
X11825301Y-13320103D01*
X11825301Y-13320103D02*
X11806253Y-13329627D01*
X12006253Y-13453436D02*
X12015777Y-13462960D01*
X12015777Y-13462960D02*
X12006253Y-13472484D01*
X12006253Y-13472484D02*
X11996729Y-13462960D01*
X11996729Y-13462960D02*
X12006253Y-13453436D01*
X12006253Y-13453436D02*
X12006253Y-13472484D01*
X12139586Y-13272484D02*
X12158634Y-13272484D01*
X12158634Y-13272484D02*
X12177682Y-13282008D01*
X12177682Y-13282008D02*
X12187205Y-13291531D01*
X12187205Y-13291531D02*
X12196729Y-13310579D01*
X12196729Y-13310579D02*
X12206253Y-13348674D01*
X12206253Y-13348674D02*
X12206253Y-13396293D01*
X12206253Y-13396293D02*
X12196729Y-13434388D01*
X12196729Y-13434388D02*
X12187205Y-13453436D01*
X12187205Y-13453436D02*
X12177682Y-13462960D01*
X12177682Y-13462960D02*
X12158634Y-13472484D01*
X12158634Y-13472484D02*
X12139586Y-13472484D01*
X12139586Y-13472484D02*
X12120539Y-13462960D01*
X12120539Y-13462960D02*
X12111015Y-13453436D01*
X12111015Y-13453436D02*
X12101491Y-13434388D01*
X12101491Y-13434388D02*
X12091967Y-13396293D01*
X12091967Y-13396293D02*
X12091967Y-13348674D01*
X12091967Y-13348674D02*
X12101491Y-13310579D01*
X12101491Y-13310579D02*
X12111015Y-13291531D01*
X12111015Y-13291531D02*
X12120539Y-13282008D01*
X12120539Y-13282008D02*
X12139586Y-13272484D01*
X12330062Y-13272484D02*
X12349110Y-13272484D01*
X12349110Y-13272484D02*
X12368158Y-13282008D01*
X12368158Y-13282008D02*
X12377682Y-13291531D01*
X12377682Y-13291531D02*
X12387205Y-13310579D01*
X12387205Y-13310579D02*
X12396729Y-13348674D01*
X12396729Y-13348674D02*
X12396729Y-13396293D01*
X12396729Y-13396293D02*
X12387205Y-13434388D01*
X12387205Y-13434388D02*
X12377682Y-13453436D01*
X12377682Y-13453436D02*
X12368158Y-13462960D01*
X12368158Y-13462960D02*
X12349110Y-13472484D01*
X12349110Y-13472484D02*
X12330062Y-13472484D01*
X12330062Y-13472484D02*
X12311015Y-13462960D01*
X12311015Y-13462960D02*
X12301491Y-13453436D01*
X12301491Y-13453436D02*
X12291967Y-13434388D01*
X12291967Y-13434388D02*
X12282443Y-13396293D01*
X12282443Y-13396293D02*
X12282443Y-13348674D01*
X12282443Y-13348674D02*
X12291967Y-13310579D01*
X12291967Y-13310579D02*
X12301491Y-13291531D01*
X12301491Y-13291531D02*
X12311015Y-13282008D01*
X12311015Y-13282008D02*
X12330062Y-13272484D01*
X12520539Y-13272484D02*
X12539586Y-13272484D01*
X12539586Y-13272484D02*
X12558634Y-13282008D01*
X12558634Y-13282008D02*
X12568158Y-13291531D01*
X12568158Y-13291531D02*
X12577682Y-13310579D01*
X12577682Y-13310579D02*
X12587205Y-13348674D01*
X12587205Y-13348674D02*
X12587205Y-13396293D01*
X12587205Y-13396293D02*
X12577682Y-13434388D01*
X12577682Y-13434388D02*
X12568158Y-13453436D01*
X12568158Y-13453436D02*
X12558634Y-13462960D01*
X12558634Y-13462960D02*
X12539586Y-13472484D01*
X12539586Y-13472484D02*
X12520539Y-13472484D01*
X12520539Y-13472484D02*
X12501491Y-13462960D01*
X12501491Y-13462960D02*
X12491967Y-13453436D01*
X12491967Y-13453436D02*
X12482443Y-13434388D01*
X12482443Y-13434388D02*
X12472920Y-13396293D01*
X12472920Y-13396293D02*
X12472920Y-13348674D01*
X12472920Y-13348674D02*
X12482443Y-13310579D01*
X12482443Y-13310579D02*
X12491967Y-13291531D01*
X12491967Y-13291531D02*
X12501491Y-13282008D01*
X12501491Y-13282008D02*
X12520539Y-13272484D01*
X12672920Y-13472484D02*
X12672920Y-13339150D01*
X12672920Y-13358198D02*
X12682443Y-13348674D01*
X12682443Y-13348674D02*
X12701491Y-13339150D01*
X12701491Y-13339150D02*
X12730063Y-13339150D01*
X12730063Y-13339150D02*
X12749110Y-13348674D01*
X12749110Y-13348674D02*
X12758634Y-13367722D01*
X12758634Y-13367722D02*
X12758634Y-13472484D01*
X12758634Y-13367722D02*
X12768158Y-13348674D01*
X12768158Y-13348674D02*
X12787205Y-13339150D01*
X12787205Y-13339150D02*
X12815777Y-13339150D01*
X12815777Y-13339150D02*
X12834824Y-13348674D01*
X12834824Y-13348674D02*
X12844348Y-13367722D01*
X12844348Y-13367722D02*
X12844348Y-13472484D01*
X12939586Y-13472484D02*
X12939586Y-13339150D01*
X12939586Y-13358198D02*
X12949110Y-13348674D01*
X12949110Y-13348674D02*
X12968158Y-13339150D01*
X12968158Y-13339150D02*
X12996729Y-13339150D01*
X12996729Y-13339150D02*
X13015777Y-13348674D01*
X13015777Y-13348674D02*
X13025301Y-13367722D01*
X13025301Y-13367722D02*
X13025301Y-13472484D01*
X13025301Y-13367722D02*
X13034824Y-13348674D01*
X13034824Y-13348674D02*
X13053872Y-13339150D01*
X13053872Y-13339150D02*
X13082443Y-13339150D01*
X13082443Y-13339150D02*
X13101491Y-13348674D01*
X13101491Y-13348674D02*
X13111015Y-13367722D01*
X13111015Y-13367722D02*
X13111015Y-13472484D01*
X13501491Y-13262960D02*
X13330063Y-13520103D01*
X13758634Y-13272484D02*
X13777682Y-13272484D01*
X13777682Y-13272484D02*
X13796729Y-13282008D01*
X13796729Y-13282008D02*
X13806253Y-13291531D01*
X13806253Y-13291531D02*
X13815777Y-13310579D01*
X13815777Y-13310579D02*
X13825301Y-13348674D01*
X13825301Y-13348674D02*
X13825301Y-13396293D01*
X13825301Y-13396293D02*
X13815777Y-13434388D01*
X13815777Y-13434388D02*
X13806253Y-13453436D01*
X13806253Y-13453436D02*
X13796729Y-13462960D01*
X13796729Y-13462960D02*
X13777682Y-13472484D01*
X13777682Y-13472484D02*
X13758634Y-13472484D01*
X13758634Y-13472484D02*
X13739586Y-13462960D01*
X13739586Y-13462960D02*
X13730063Y-13453436D01*
X13730063Y-13453436D02*
X13720539Y-13434388D01*
X13720539Y-13434388D02*
X13711015Y-13396293D01*
X13711015Y-13396293D02*
X13711015Y-13348674D01*
X13711015Y-13348674D02*
X13720539Y-13310579D01*
X13720539Y-13310579D02*
X13730063Y-13291531D01*
X13730063Y-13291531D02*
X13739586Y-13282008D01*
X13739586Y-13282008D02*
X13758634Y-13272484D01*
X13911015Y-13453436D02*
X13920539Y-13462960D01*
X13920539Y-13462960D02*
X13911015Y-13472484D01*
X13911015Y-13472484D02*
X13901491Y-13462960D01*
X13901491Y-13462960D02*
X13911015Y-13453436D01*
X13911015Y-13453436D02*
X13911015Y-13472484D01*
X14044348Y-13272484D02*
X14063396Y-13272484D01*
X14063396Y-13272484D02*
X14082444Y-13282008D01*
X14082444Y-13282008D02*
X14091967Y-13291531D01*
X14091967Y-13291531D02*
X14101491Y-13310579D01*
X14101491Y-13310579D02*
X14111015Y-13348674D01*
X14111015Y-13348674D02*
X14111015Y-13396293D01*
X14111015Y-13396293D02*
X14101491Y-13434388D01*
X14101491Y-13434388D02*
X14091967Y-13453436D01*
X14091967Y-13453436D02*
X14082444Y-13462960D01*
X14082444Y-13462960D02*
X14063396Y-13472484D01*
X14063396Y-13472484D02*
X14044348Y-13472484D01*
X14044348Y-13472484D02*
X14025301Y-13462960D01*
X14025301Y-13462960D02*
X14015777Y-13453436D01*
X14015777Y-13453436D02*
X14006253Y-13434388D01*
X14006253Y-13434388D02*
X13996729Y-13396293D01*
X13996729Y-13396293D02*
X13996729Y-13348674D01*
X13996729Y-13348674D02*
X14006253Y-13310579D01*
X14006253Y-13310579D02*
X14015777Y-13291531D01*
X14015777Y-13291531D02*
X14025301Y-13282008D01*
X14025301Y-13282008D02*
X14044348Y-13272484D01*
X14177682Y-13272484D02*
X14301491Y-13272484D01*
X14301491Y-13272484D02*
X14234825Y-13348674D01*
X14234825Y-13348674D02*
X14263396Y-13348674D01*
X14263396Y-13348674D02*
X14282444Y-13358198D01*
X14282444Y-13358198D02*
X14291967Y-13367722D01*
X14291967Y-13367722D02*
X14301491Y-13386769D01*
X14301491Y-13386769D02*
X14301491Y-13434388D01*
X14301491Y-13434388D02*
X14291967Y-13453436D01*
X14291967Y-13453436D02*
X14282444Y-13462960D01*
X14282444Y-13462960D02*
X14263396Y-13472484D01*
X14263396Y-13472484D02*
X14206253Y-13472484D01*
X14206253Y-13472484D02*
X14187206Y-13462960D01*
X14187206Y-13462960D02*
X14177682Y-13453436D01*
X14396729Y-13472484D02*
X14434825Y-13472484D01*
X14434825Y-13472484D02*
X14453872Y-13462960D01*
X14453872Y-13462960D02*
X14463396Y-13453436D01*
X14463396Y-13453436D02*
X14482444Y-13424865D01*
X14482444Y-13424865D02*
X14491967Y-13386769D01*
X14491967Y-13386769D02*
X14491967Y-13310579D01*
X14491967Y-13310579D02*
X14482444Y-13291531D01*
X14482444Y-13291531D02*
X14472920Y-13282008D01*
X14472920Y-13282008D02*
X14453872Y-13272484D01*
X14453872Y-13272484D02*
X14415777Y-13272484D01*
X14415777Y-13272484D02*
X14396729Y-13282008D01*
X14396729Y-13282008D02*
X14387206Y-13291531D01*
X14387206Y-13291531D02*
X14377682Y-13310579D01*
X14377682Y-13310579D02*
X14377682Y-13358198D01*
X14377682Y-13358198D02*
X14387206Y-13377246D01*
X14387206Y-13377246D02*
X14396729Y-13386769D01*
X14396729Y-13386769D02*
X14415777Y-13396293D01*
X14415777Y-13396293D02*
X14453872Y-13396293D01*
X14453872Y-13396293D02*
X14472920Y-13386769D01*
X14472920Y-13386769D02*
X14482444Y-13377246D01*
X14482444Y-13377246D02*
X14491967Y-13358198D01*
X14663396Y-13339150D02*
X14663396Y-13472484D01*
X14615777Y-13262960D02*
X14568158Y-13405817D01*
X14568158Y-13405817D02*
X14691967Y-13405817D01*
X14758634Y-13272484D02*
X14758634Y-13310579D01*
X14834825Y-13272484D02*
X14834825Y-13310579D01*
X15130063Y-13548674D02*
X15120539Y-13539150D01*
X15120539Y-13539150D02*
X15101491Y-13510579D01*
X15101491Y-13510579D02*
X15091968Y-13491531D01*
X15091968Y-13491531D02*
X15082444Y-13462960D01*
X15082444Y-13462960D02*
X15072920Y-13415341D01*
X15072920Y-13415341D02*
X15072920Y-13377246D01*
X15072920Y-13377246D02*
X15082444Y-13329627D01*
X15082444Y-13329627D02*
X15091968Y-13301055D01*
X15091968Y-13301055D02*
X15101491Y-13282008D01*
X15101491Y-13282008D02*
X15120539Y-13253436D01*
X15120539Y-13253436D02*
X15130063Y-13243912D01*
X15215777Y-13472484D02*
X15253872Y-13472484D01*
X15253872Y-13472484D02*
X15272920Y-13462960D01*
X15272920Y-13462960D02*
X15282444Y-13453436D01*
X15282444Y-13453436D02*
X15301491Y-13424865D01*
X15301491Y-13424865D02*
X15311015Y-13386769D01*
X15311015Y-13386769D02*
X15311015Y-13310579D01*
X15311015Y-13310579D02*
X15301491Y-13291531D01*
X15301491Y-13291531D02*
X15291968Y-13282008D01*
X15291968Y-13282008D02*
X15272920Y-13272484D01*
X15272920Y-13272484D02*
X15234825Y-13272484D01*
X15234825Y-13272484D02*
X15215777Y-13282008D01*
X15215777Y-13282008D02*
X15206253Y-13291531D01*
X15206253Y-13291531D02*
X15196729Y-13310579D01*
X15196729Y-13310579D02*
X15196729Y-13358198D01*
X15196729Y-13358198D02*
X15206253Y-13377246D01*
X15206253Y-13377246D02*
X15215777Y-13386769D01*
X15215777Y-13386769D02*
X15234825Y-13396293D01*
X15234825Y-13396293D02*
X15272920Y-13396293D01*
X15272920Y-13396293D02*
X15291968Y-13386769D01*
X15291968Y-13386769D02*
X15301491Y-13377246D01*
X15301491Y-13377246D02*
X15311015Y-13358198D01*
X15434825Y-13272484D02*
X15453872Y-13272484D01*
X15453872Y-13272484D02*
X15472920Y-13282008D01*
X15472920Y-13282008D02*
X15482444Y-13291531D01*
X15482444Y-13291531D02*
X15491968Y-13310579D01*
X15491968Y-13310579D02*
X15501491Y-13348674D01*
X15501491Y-13348674D02*
X15501491Y-13396293D01*
X15501491Y-13396293D02*
X15491968Y-13434388D01*
X15491968Y-13434388D02*
X15482444Y-13453436D01*
X15482444Y-13453436D02*
X15472920Y-13462960D01*
X15472920Y-13462960D02*
X15453872Y-13472484D01*
X15453872Y-13472484D02*
X15434825Y-13472484D01*
X15434825Y-13472484D02*
X15415777Y-13462960D01*
X15415777Y-13462960D02*
X15406253Y-13453436D01*
X15406253Y-13453436D02*
X15396729Y-13434388D01*
X15396729Y-13434388D02*
X15387206Y-13396293D01*
X15387206Y-13396293D02*
X15387206Y-13348674D01*
X15387206Y-13348674D02*
X15396729Y-13310579D01*
X15396729Y-13310579D02*
X15406253Y-13291531D01*
X15406253Y-13291531D02*
X15415777Y-13282008D01*
X15415777Y-13282008D02*
X15434825Y-13272484D01*
X15739587Y-13472484D02*
X15739587Y-13272484D01*
X15825301Y-13472484D02*
X15825301Y-13367722D01*
X15825301Y-13367722D02*
X15815777Y-13348674D01*
X15815777Y-13348674D02*
X15796730Y-13339150D01*
X15796730Y-13339150D02*
X15768158Y-13339150D01*
X15768158Y-13339150D02*
X15749110Y-13348674D01*
X15749110Y-13348674D02*
X15739587Y-13358198D01*
X15949110Y-13472484D02*
X15930063Y-13462960D01*
X15930063Y-13462960D02*
X15920539Y-13453436D01*
X15920539Y-13453436D02*
X15911015Y-13434388D01*
X15911015Y-13434388D02*
X15911015Y-13377246D01*
X15911015Y-13377246D02*
X15920539Y-13358198D01*
X15920539Y-13358198D02*
X15930063Y-13348674D01*
X15930063Y-13348674D02*
X15949110Y-13339150D01*
X15949110Y-13339150D02*
X15977682Y-13339150D01*
X15977682Y-13339150D02*
X15996730Y-13348674D01*
X15996730Y-13348674D02*
X16006253Y-13358198D01*
X16006253Y-13358198D02*
X16015777Y-13377246D01*
X16015777Y-13377246D02*
X16015777Y-13434388D01*
X16015777Y-13434388D02*
X16006253Y-13453436D01*
X16006253Y-13453436D02*
X15996730Y-13462960D01*
X15996730Y-13462960D02*
X15977682Y-13472484D01*
X15977682Y-13472484D02*
X15949110Y-13472484D01*
X16130063Y-13472484D02*
X16111015Y-13462960D01*
X16111015Y-13462960D02*
X16101491Y-13443912D01*
X16101491Y-13443912D02*
X16101491Y-13272484D01*
X16282444Y-13462960D02*
X16263396Y-13472484D01*
X16263396Y-13472484D02*
X16225301Y-13472484D01*
X16225301Y-13472484D02*
X16206253Y-13462960D01*
X16206253Y-13462960D02*
X16196730Y-13443912D01*
X16196730Y-13443912D02*
X16196730Y-13367722D01*
X16196730Y-13367722D02*
X16206253Y-13348674D01*
X16206253Y-13348674D02*
X16225301Y-13339150D01*
X16225301Y-13339150D02*
X16263396Y-13339150D01*
X16263396Y-13339150D02*
X16282444Y-13348674D01*
X16282444Y-13348674D02*
X16291968Y-13367722D01*
X16291968Y-13367722D02*
X16291968Y-13386769D01*
X16291968Y-13386769D02*
X16196730Y-13405817D01*
X16368158Y-13462960D02*
X16387206Y-13472484D01*
X16387206Y-13472484D02*
X16425301Y-13472484D01*
X16425301Y-13472484D02*
X16444349Y-13462960D01*
X16444349Y-13462960D02*
X16453872Y-13443912D01*
X16453872Y-13443912D02*
X16453872Y-13434388D01*
X16453872Y-13434388D02*
X16444349Y-13415341D01*
X16444349Y-13415341D02*
X16425301Y-13405817D01*
X16425301Y-13405817D02*
X16396730Y-13405817D01*
X16396730Y-13405817D02*
X16377682Y-13396293D01*
X16377682Y-13396293D02*
X16368158Y-13377246D01*
X16368158Y-13377246D02*
X16368158Y-13367722D01*
X16368158Y-13367722D02*
X16377682Y-13348674D01*
X16377682Y-13348674D02*
X16396730Y-13339150D01*
X16396730Y-13339150D02*
X16425301Y-13339150D01*
X16425301Y-13339150D02*
X16444349Y-13348674D01*
X16520539Y-13548674D02*
X16530063Y-13539150D01*
X16530063Y-13539150D02*
X16549111Y-13510579D01*
X16549111Y-13510579D02*
X16558634Y-13491531D01*
X16558634Y-13491531D02*
X16568158Y-13462960D01*
X16568158Y-13462960D02*
X16577682Y-13415341D01*
X16577682Y-13415341D02*
X16577682Y-13377246D01*
X16577682Y-13377246D02*
X16568158Y-13329627D01*
X16568158Y-13329627D02*
X16558634Y-13301055D01*
X16558634Y-13301055D02*
X16549111Y-13282008D01*
X16549111Y-13282008D02*
X16530063Y-13253436D01*
X16530063Y-13253436D02*
X16520539Y-13243912D01*
D12*
X11445000Y-13590000D02*
X11555000Y-13700000D01*
X11555000Y-13590000D02*
X11445000Y-13700000D01*
X11555000Y-13645000D02*
G75*
G02*
X11445000Y-13645000I-55000J0D01*
G01*
X11445000Y-13645000D02*
G75*
G02*
X11555000Y-13645000I55000J0D01*
G01*
D11*
X11920539Y-13736484D02*
X11806253Y-13736484D01*
X11863396Y-13736484D02*
X11863396Y-13536484D01*
X11863396Y-13536484D02*
X11844348Y-13565055D01*
X11844348Y-13565055D02*
X11825301Y-13584103D01*
X11825301Y-13584103D02*
X11806253Y-13593627D01*
X12006253Y-13717436D02*
X12015777Y-13726960D01*
X12015777Y-13726960D02*
X12006253Y-13736484D01*
X12006253Y-13736484D02*
X11996729Y-13726960D01*
X11996729Y-13726960D02*
X12006253Y-13717436D01*
X12006253Y-13717436D02*
X12006253Y-13736484D01*
X12206253Y-13736484D02*
X12091967Y-13736484D01*
X12149110Y-13736484D02*
X12149110Y-13536484D01*
X12149110Y-13536484D02*
X12130062Y-13565055D01*
X12130062Y-13565055D02*
X12111015Y-13584103D01*
X12111015Y-13584103D02*
X12091967Y-13593627D01*
X12330062Y-13536484D02*
X12349110Y-13536484D01*
X12349110Y-13536484D02*
X12368158Y-13546008D01*
X12368158Y-13546008D02*
X12377682Y-13555531D01*
X12377682Y-13555531D02*
X12387205Y-13574579D01*
X12387205Y-13574579D02*
X12396729Y-13612674D01*
X12396729Y-13612674D02*
X12396729Y-13660293D01*
X12396729Y-13660293D02*
X12387205Y-13698388D01*
X12387205Y-13698388D02*
X12377682Y-13717436D01*
X12377682Y-13717436D02*
X12368158Y-13726960D01*
X12368158Y-13726960D02*
X12349110Y-13736484D01*
X12349110Y-13736484D02*
X12330062Y-13736484D01*
X12330062Y-13736484D02*
X12311015Y-13726960D01*
X12311015Y-13726960D02*
X12301491Y-13717436D01*
X12301491Y-13717436D02*
X12291967Y-13698388D01*
X12291967Y-13698388D02*
X12282443Y-13660293D01*
X12282443Y-13660293D02*
X12282443Y-13612674D01*
X12282443Y-13612674D02*
X12291967Y-13574579D01*
X12291967Y-13574579D02*
X12301491Y-13555531D01*
X12301491Y-13555531D02*
X12311015Y-13546008D01*
X12311015Y-13546008D02*
X12330062Y-13536484D01*
X12520539Y-13536484D02*
X12539586Y-13536484D01*
X12539586Y-13536484D02*
X12558634Y-13546008D01*
X12558634Y-13546008D02*
X12568158Y-13555531D01*
X12568158Y-13555531D02*
X12577682Y-13574579D01*
X12577682Y-13574579D02*
X12587205Y-13612674D01*
X12587205Y-13612674D02*
X12587205Y-13660293D01*
X12587205Y-13660293D02*
X12577682Y-13698388D01*
X12577682Y-13698388D02*
X12568158Y-13717436D01*
X12568158Y-13717436D02*
X12558634Y-13726960D01*
X12558634Y-13726960D02*
X12539586Y-13736484D01*
X12539586Y-13736484D02*
X12520539Y-13736484D01*
X12520539Y-13736484D02*
X12501491Y-13726960D01*
X12501491Y-13726960D02*
X12491967Y-13717436D01*
X12491967Y-13717436D02*
X12482443Y-13698388D01*
X12482443Y-13698388D02*
X12472920Y-13660293D01*
X12472920Y-13660293D02*
X12472920Y-13612674D01*
X12472920Y-13612674D02*
X12482443Y-13574579D01*
X12482443Y-13574579D02*
X12491967Y-13555531D01*
X12491967Y-13555531D02*
X12501491Y-13546008D01*
X12501491Y-13546008D02*
X12520539Y-13536484D01*
X12672920Y-13736484D02*
X12672920Y-13603150D01*
X12672920Y-13622198D02*
X12682443Y-13612674D01*
X12682443Y-13612674D02*
X12701491Y-13603150D01*
X12701491Y-13603150D02*
X12730063Y-13603150D01*
X12730063Y-13603150D02*
X12749110Y-13612674D01*
X12749110Y-13612674D02*
X12758634Y-13631722D01*
X12758634Y-13631722D02*
X12758634Y-13736484D01*
X12758634Y-13631722D02*
X12768158Y-13612674D01*
X12768158Y-13612674D02*
X12787205Y-13603150D01*
X12787205Y-13603150D02*
X12815777Y-13603150D01*
X12815777Y-13603150D02*
X12834824Y-13612674D01*
X12834824Y-13612674D02*
X12844348Y-13631722D01*
X12844348Y-13631722D02*
X12844348Y-13736484D01*
X12939586Y-13736484D02*
X12939586Y-13603150D01*
X12939586Y-13622198D02*
X12949110Y-13612674D01*
X12949110Y-13612674D02*
X12968158Y-13603150D01*
X12968158Y-13603150D02*
X12996729Y-13603150D01*
X12996729Y-13603150D02*
X13015777Y-13612674D01*
X13015777Y-13612674D02*
X13025301Y-13631722D01*
X13025301Y-13631722D02*
X13025301Y-13736484D01*
X13025301Y-13631722D02*
X13034824Y-13612674D01*
X13034824Y-13612674D02*
X13053872Y-13603150D01*
X13053872Y-13603150D02*
X13082443Y-13603150D01*
X13082443Y-13603150D02*
X13101491Y-13612674D01*
X13101491Y-13612674D02*
X13111015Y-13631722D01*
X13111015Y-13631722D02*
X13111015Y-13736484D01*
X13501491Y-13526960D02*
X13330063Y-13784103D01*
X13758634Y-13536484D02*
X13777682Y-13536484D01*
X13777682Y-13536484D02*
X13796729Y-13546008D01*
X13796729Y-13546008D02*
X13806253Y-13555531D01*
X13806253Y-13555531D02*
X13815777Y-13574579D01*
X13815777Y-13574579D02*
X13825301Y-13612674D01*
X13825301Y-13612674D02*
X13825301Y-13660293D01*
X13825301Y-13660293D02*
X13815777Y-13698388D01*
X13815777Y-13698388D02*
X13806253Y-13717436D01*
X13806253Y-13717436D02*
X13796729Y-13726960D01*
X13796729Y-13726960D02*
X13777682Y-13736484D01*
X13777682Y-13736484D02*
X13758634Y-13736484D01*
X13758634Y-13736484D02*
X13739586Y-13726960D01*
X13739586Y-13726960D02*
X13730063Y-13717436D01*
X13730063Y-13717436D02*
X13720539Y-13698388D01*
X13720539Y-13698388D02*
X13711015Y-13660293D01*
X13711015Y-13660293D02*
X13711015Y-13612674D01*
X13711015Y-13612674D02*
X13720539Y-13574579D01*
X13720539Y-13574579D02*
X13730063Y-13555531D01*
X13730063Y-13555531D02*
X13739586Y-13546008D01*
X13739586Y-13546008D02*
X13758634Y-13536484D01*
X13911015Y-13717436D02*
X13920539Y-13726960D01*
X13920539Y-13726960D02*
X13911015Y-13736484D01*
X13911015Y-13736484D02*
X13901491Y-13726960D01*
X13901491Y-13726960D02*
X13911015Y-13717436D01*
X13911015Y-13717436D02*
X13911015Y-13736484D01*
X14044348Y-13536484D02*
X14063396Y-13536484D01*
X14063396Y-13536484D02*
X14082444Y-13546008D01*
X14082444Y-13546008D02*
X14091967Y-13555531D01*
X14091967Y-13555531D02*
X14101491Y-13574579D01*
X14101491Y-13574579D02*
X14111015Y-13612674D01*
X14111015Y-13612674D02*
X14111015Y-13660293D01*
X14111015Y-13660293D02*
X14101491Y-13698388D01*
X14101491Y-13698388D02*
X14091967Y-13717436D01*
X14091967Y-13717436D02*
X14082444Y-13726960D01*
X14082444Y-13726960D02*
X14063396Y-13736484D01*
X14063396Y-13736484D02*
X14044348Y-13736484D01*
X14044348Y-13736484D02*
X14025301Y-13726960D01*
X14025301Y-13726960D02*
X14015777Y-13717436D01*
X14015777Y-13717436D02*
X14006253Y-13698388D01*
X14006253Y-13698388D02*
X13996729Y-13660293D01*
X13996729Y-13660293D02*
X13996729Y-13612674D01*
X13996729Y-13612674D02*
X14006253Y-13574579D01*
X14006253Y-13574579D02*
X14015777Y-13555531D01*
X14015777Y-13555531D02*
X14025301Y-13546008D01*
X14025301Y-13546008D02*
X14044348Y-13536484D01*
X14282444Y-13603150D02*
X14282444Y-13736484D01*
X14234825Y-13526960D02*
X14187206Y-13669817D01*
X14187206Y-13669817D02*
X14311015Y-13669817D01*
X14368158Y-13536484D02*
X14491967Y-13536484D01*
X14491967Y-13536484D02*
X14425301Y-13612674D01*
X14425301Y-13612674D02*
X14453872Y-13612674D01*
X14453872Y-13612674D02*
X14472920Y-13622198D01*
X14472920Y-13622198D02*
X14482444Y-13631722D01*
X14482444Y-13631722D02*
X14491967Y-13650769D01*
X14491967Y-13650769D02*
X14491967Y-13698388D01*
X14491967Y-13698388D02*
X14482444Y-13717436D01*
X14482444Y-13717436D02*
X14472920Y-13726960D01*
X14472920Y-13726960D02*
X14453872Y-13736484D01*
X14453872Y-13736484D02*
X14396729Y-13736484D01*
X14396729Y-13736484D02*
X14377682Y-13726960D01*
X14377682Y-13726960D02*
X14368158Y-13717436D01*
X14558634Y-13536484D02*
X14682444Y-13536484D01*
X14682444Y-13536484D02*
X14615777Y-13612674D01*
X14615777Y-13612674D02*
X14644348Y-13612674D01*
X14644348Y-13612674D02*
X14663396Y-13622198D01*
X14663396Y-13622198D02*
X14672920Y-13631722D01*
X14672920Y-13631722D02*
X14682444Y-13650769D01*
X14682444Y-13650769D02*
X14682444Y-13698388D01*
X14682444Y-13698388D02*
X14672920Y-13717436D01*
X14672920Y-13717436D02*
X14663396Y-13726960D01*
X14663396Y-13726960D02*
X14644348Y-13736484D01*
X14644348Y-13736484D02*
X14587206Y-13736484D01*
X14587206Y-13736484D02*
X14568158Y-13726960D01*
X14568158Y-13726960D02*
X14558634Y-13717436D01*
X14758634Y-13536484D02*
X14758634Y-13574579D01*
X14834825Y-13536484D02*
X14834825Y-13574579D01*
X15130063Y-13812674D02*
X15120539Y-13803150D01*
X15120539Y-13803150D02*
X15101491Y-13774579D01*
X15101491Y-13774579D02*
X15091968Y-13755531D01*
X15091968Y-13755531D02*
X15082444Y-13726960D01*
X15082444Y-13726960D02*
X15072920Y-13679341D01*
X15072920Y-13679341D02*
X15072920Y-13641246D01*
X15072920Y-13641246D02*
X15082444Y-13593627D01*
X15082444Y-13593627D02*
X15091968Y-13565055D01*
X15091968Y-13565055D02*
X15101491Y-13546008D01*
X15101491Y-13546008D02*
X15120539Y-13517436D01*
X15120539Y-13517436D02*
X15130063Y-13507912D01*
X15311015Y-13736484D02*
X15196729Y-13736484D01*
X15253872Y-13736484D02*
X15253872Y-13536484D01*
X15253872Y-13536484D02*
X15234825Y-13565055D01*
X15234825Y-13565055D02*
X15215777Y-13584103D01*
X15215777Y-13584103D02*
X15196729Y-13593627D01*
X15501491Y-13736484D02*
X15387206Y-13736484D01*
X15444348Y-13736484D02*
X15444348Y-13536484D01*
X15444348Y-13536484D02*
X15425301Y-13565055D01*
X15425301Y-13565055D02*
X15406253Y-13584103D01*
X15406253Y-13584103D02*
X15387206Y-13593627D01*
X15739587Y-13736484D02*
X15739587Y-13536484D01*
X15825301Y-13736484D02*
X15825301Y-13631722D01*
X15825301Y-13631722D02*
X15815777Y-13612674D01*
X15815777Y-13612674D02*
X15796730Y-13603150D01*
X15796730Y-13603150D02*
X15768158Y-13603150D01*
X15768158Y-13603150D02*
X15749110Y-13612674D01*
X15749110Y-13612674D02*
X15739587Y-13622198D01*
X15949110Y-13736484D02*
X15930063Y-13726960D01*
X15930063Y-13726960D02*
X15920539Y-13717436D01*
X15920539Y-13717436D02*
X15911015Y-13698388D01*
X15911015Y-13698388D02*
X15911015Y-13641246D01*
X15911015Y-13641246D02*
X15920539Y-13622198D01*
X15920539Y-13622198D02*
X15930063Y-13612674D01*
X15930063Y-13612674D02*
X15949110Y-13603150D01*
X15949110Y-13603150D02*
X15977682Y-13603150D01*
X15977682Y-13603150D02*
X15996730Y-13612674D01*
X15996730Y-13612674D02*
X16006253Y-13622198D01*
X16006253Y-13622198D02*
X16015777Y-13641246D01*
X16015777Y-13641246D02*
X16015777Y-13698388D01*
X16015777Y-13698388D02*
X16006253Y-13717436D01*
X16006253Y-13717436D02*
X15996730Y-13726960D01*
X15996730Y-13726960D02*
X15977682Y-13736484D01*
X15977682Y-13736484D02*
X15949110Y-13736484D01*
X16130063Y-13736484D02*
X16111015Y-13726960D01*
X16111015Y-13726960D02*
X16101491Y-13707912D01*
X16101491Y-13707912D02*
X16101491Y-13536484D01*
X16282444Y-13726960D02*
X16263396Y-13736484D01*
X16263396Y-13736484D02*
X16225301Y-13736484D01*
X16225301Y-13736484D02*
X16206253Y-13726960D01*
X16206253Y-13726960D02*
X16196730Y-13707912D01*
X16196730Y-13707912D02*
X16196730Y-13631722D01*
X16196730Y-13631722D02*
X16206253Y-13612674D01*
X16206253Y-13612674D02*
X16225301Y-13603150D01*
X16225301Y-13603150D02*
X16263396Y-13603150D01*
X16263396Y-13603150D02*
X16282444Y-13612674D01*
X16282444Y-13612674D02*
X16291968Y-13631722D01*
X16291968Y-13631722D02*
X16291968Y-13650769D01*
X16291968Y-13650769D02*
X16196730Y-13669817D01*
X16368158Y-13726960D02*
X16387206Y-13736484D01*
X16387206Y-13736484D02*
X16425301Y-13736484D01*
X16425301Y-13736484D02*
X16444349Y-13726960D01*
X16444349Y-13726960D02*
X16453872Y-13707912D01*
X16453872Y-13707912D02*
X16453872Y-13698388D01*
X16453872Y-13698388D02*
X16444349Y-13679341D01*
X16444349Y-13679341D02*
X16425301Y-13669817D01*
X16425301Y-13669817D02*
X16396730Y-13669817D01*
X16396730Y-13669817D02*
X16377682Y-13660293D01*
X16377682Y-13660293D02*
X16368158Y-13641246D01*
X16368158Y-13641246D02*
X16368158Y-13631722D01*
X16368158Y-13631722D02*
X16377682Y-13612674D01*
X16377682Y-13612674D02*
X16396730Y-13603150D01*
X16396730Y-13603150D02*
X16425301Y-13603150D01*
X16425301Y-13603150D02*
X16444349Y-13612674D01*
X16520539Y-13812674D02*
X16530063Y-13803150D01*
X16530063Y-13803150D02*
X16549111Y-13774579D01*
X16549111Y-13774579D02*
X16558634Y-13755531D01*
X16558634Y-13755531D02*
X16568158Y-13726960D01*
X16568158Y-13726960D02*
X16577682Y-13679341D01*
X16577682Y-13679341D02*
X16577682Y-13641246D01*
X16577682Y-13641246D02*
X16568158Y-13593627D01*
X16568158Y-13593627D02*
X16558634Y-13565055D01*
X16558634Y-13565055D02*
X16549111Y-13546008D01*
X16549111Y-13546008D02*
X16530063Y-13517436D01*
X16530063Y-13517436D02*
X16520539Y-13507912D01*
D13*
X11436000Y-13849500D02*
X11555000Y-13968500D01*
X11555000Y-13849500D02*
X11436000Y-13968500D01*
X11495500Y-13849500D02*
X11495500Y-13968500D01*
X11436000Y-13909000D02*
X11555000Y-13909000D01*
D11*
X11920539Y-14000484D02*
X11806253Y-14000484D01*
X11863396Y-14000484D02*
X11863396Y-13800484D01*
X11863396Y-13800484D02*
X11844348Y-13829055D01*
X11844348Y-13829055D02*
X11825301Y-13848103D01*
X11825301Y-13848103D02*
X11806253Y-13857627D01*
X12006253Y-13981436D02*
X12015777Y-13990960D01*
X12015777Y-13990960D02*
X12006253Y-14000484D01*
X12006253Y-14000484D02*
X11996729Y-13990960D01*
X11996729Y-13990960D02*
X12006253Y-13981436D01*
X12006253Y-13981436D02*
X12006253Y-14000484D01*
X12206253Y-14000484D02*
X12091967Y-14000484D01*
X12149110Y-14000484D02*
X12149110Y-13800484D01*
X12149110Y-13800484D02*
X12130062Y-13829055D01*
X12130062Y-13829055D02*
X12111015Y-13848103D01*
X12111015Y-13848103D02*
X12091967Y-13857627D01*
X12301491Y-14000484D02*
X12339586Y-14000484D01*
X12339586Y-14000484D02*
X12358634Y-13990960D01*
X12358634Y-13990960D02*
X12368158Y-13981436D01*
X12368158Y-13981436D02*
X12387205Y-13952865D01*
X12387205Y-13952865D02*
X12396729Y-13914769D01*
X12396729Y-13914769D02*
X12396729Y-13838579D01*
X12396729Y-13838579D02*
X12387205Y-13819531D01*
X12387205Y-13819531D02*
X12377682Y-13810008D01*
X12377682Y-13810008D02*
X12358634Y-13800484D01*
X12358634Y-13800484D02*
X12320539Y-13800484D01*
X12320539Y-13800484D02*
X12301491Y-13810008D01*
X12301491Y-13810008D02*
X12291967Y-13819531D01*
X12291967Y-13819531D02*
X12282443Y-13838579D01*
X12282443Y-13838579D02*
X12282443Y-13886198D01*
X12282443Y-13886198D02*
X12291967Y-13905246D01*
X12291967Y-13905246D02*
X12301491Y-13914769D01*
X12301491Y-13914769D02*
X12320539Y-13924293D01*
X12320539Y-13924293D02*
X12358634Y-13924293D01*
X12358634Y-13924293D02*
X12377682Y-13914769D01*
X12377682Y-13914769D02*
X12387205Y-13905246D01*
X12387205Y-13905246D02*
X12396729Y-13886198D01*
X12520539Y-13800484D02*
X12539586Y-13800484D01*
X12539586Y-13800484D02*
X12558634Y-13810008D01*
X12558634Y-13810008D02*
X12568158Y-13819531D01*
X12568158Y-13819531D02*
X12577682Y-13838579D01*
X12577682Y-13838579D02*
X12587205Y-13876674D01*
X12587205Y-13876674D02*
X12587205Y-13924293D01*
X12587205Y-13924293D02*
X12577682Y-13962388D01*
X12577682Y-13962388D02*
X12568158Y-13981436D01*
X12568158Y-13981436D02*
X12558634Y-13990960D01*
X12558634Y-13990960D02*
X12539586Y-14000484D01*
X12539586Y-14000484D02*
X12520539Y-14000484D01*
X12520539Y-14000484D02*
X12501491Y-13990960D01*
X12501491Y-13990960D02*
X12491967Y-13981436D01*
X12491967Y-13981436D02*
X12482443Y-13962388D01*
X12482443Y-13962388D02*
X12472920Y-13924293D01*
X12472920Y-13924293D02*
X12472920Y-13876674D01*
X12472920Y-13876674D02*
X12482443Y-13838579D01*
X12482443Y-13838579D02*
X12491967Y-13819531D01*
X12491967Y-13819531D02*
X12501491Y-13810008D01*
X12501491Y-13810008D02*
X12520539Y-13800484D01*
X12672920Y-14000484D02*
X12672920Y-13867150D01*
X12672920Y-13886198D02*
X12682443Y-13876674D01*
X12682443Y-13876674D02*
X12701491Y-13867150D01*
X12701491Y-13867150D02*
X12730063Y-13867150D01*
X12730063Y-13867150D02*
X12749110Y-13876674D01*
X12749110Y-13876674D02*
X12758634Y-13895722D01*
X12758634Y-13895722D02*
X12758634Y-14000484D01*
X12758634Y-13895722D02*
X12768158Y-13876674D01*
X12768158Y-13876674D02*
X12787205Y-13867150D01*
X12787205Y-13867150D02*
X12815777Y-13867150D01*
X12815777Y-13867150D02*
X12834824Y-13876674D01*
X12834824Y-13876674D02*
X12844348Y-13895722D01*
X12844348Y-13895722D02*
X12844348Y-14000484D01*
X12939586Y-14000484D02*
X12939586Y-13867150D01*
X12939586Y-13886198D02*
X12949110Y-13876674D01*
X12949110Y-13876674D02*
X12968158Y-13867150D01*
X12968158Y-13867150D02*
X12996729Y-13867150D01*
X12996729Y-13867150D02*
X13015777Y-13876674D01*
X13015777Y-13876674D02*
X13025301Y-13895722D01*
X13025301Y-13895722D02*
X13025301Y-14000484D01*
X13025301Y-13895722D02*
X13034824Y-13876674D01*
X13034824Y-13876674D02*
X13053872Y-13867150D01*
X13053872Y-13867150D02*
X13082443Y-13867150D01*
X13082443Y-13867150D02*
X13101491Y-13876674D01*
X13101491Y-13876674D02*
X13111015Y-13895722D01*
X13111015Y-13895722D02*
X13111015Y-14000484D01*
X13501491Y-13790960D02*
X13330063Y-14048103D01*
X13758634Y-13800484D02*
X13777682Y-13800484D01*
X13777682Y-13800484D02*
X13796729Y-13810008D01*
X13796729Y-13810008D02*
X13806253Y-13819531D01*
X13806253Y-13819531D02*
X13815777Y-13838579D01*
X13815777Y-13838579D02*
X13825301Y-13876674D01*
X13825301Y-13876674D02*
X13825301Y-13924293D01*
X13825301Y-13924293D02*
X13815777Y-13962388D01*
X13815777Y-13962388D02*
X13806253Y-13981436D01*
X13806253Y-13981436D02*
X13796729Y-13990960D01*
X13796729Y-13990960D02*
X13777682Y-14000484D01*
X13777682Y-14000484D02*
X13758634Y-14000484D01*
X13758634Y-14000484D02*
X13739586Y-13990960D01*
X13739586Y-13990960D02*
X13730063Y-13981436D01*
X13730063Y-13981436D02*
X13720539Y-13962388D01*
X13720539Y-13962388D02*
X13711015Y-13924293D01*
X13711015Y-13924293D02*
X13711015Y-13876674D01*
X13711015Y-13876674D02*
X13720539Y-13838579D01*
X13720539Y-13838579D02*
X13730063Y-13819531D01*
X13730063Y-13819531D02*
X13739586Y-13810008D01*
X13739586Y-13810008D02*
X13758634Y-13800484D01*
X13911015Y-13981436D02*
X13920539Y-13990960D01*
X13920539Y-13990960D02*
X13911015Y-14000484D01*
X13911015Y-14000484D02*
X13901491Y-13990960D01*
X13901491Y-13990960D02*
X13911015Y-13981436D01*
X13911015Y-13981436D02*
X13911015Y-14000484D01*
X14044348Y-13800484D02*
X14063396Y-13800484D01*
X14063396Y-13800484D02*
X14082444Y-13810008D01*
X14082444Y-13810008D02*
X14091967Y-13819531D01*
X14091967Y-13819531D02*
X14101491Y-13838579D01*
X14101491Y-13838579D02*
X14111015Y-13876674D01*
X14111015Y-13876674D02*
X14111015Y-13924293D01*
X14111015Y-13924293D02*
X14101491Y-13962388D01*
X14101491Y-13962388D02*
X14091967Y-13981436D01*
X14091967Y-13981436D02*
X14082444Y-13990960D01*
X14082444Y-13990960D02*
X14063396Y-14000484D01*
X14063396Y-14000484D02*
X14044348Y-14000484D01*
X14044348Y-14000484D02*
X14025301Y-13990960D01*
X14025301Y-13990960D02*
X14015777Y-13981436D01*
X14015777Y-13981436D02*
X14006253Y-13962388D01*
X14006253Y-13962388D02*
X13996729Y-13924293D01*
X13996729Y-13924293D02*
X13996729Y-13876674D01*
X13996729Y-13876674D02*
X14006253Y-13838579D01*
X14006253Y-13838579D02*
X14015777Y-13819531D01*
X14015777Y-13819531D02*
X14025301Y-13810008D01*
X14025301Y-13810008D02*
X14044348Y-13800484D01*
X14282444Y-13867150D02*
X14282444Y-14000484D01*
X14234825Y-13790960D02*
X14187206Y-13933817D01*
X14187206Y-13933817D02*
X14311015Y-13933817D01*
X14472920Y-13800484D02*
X14434825Y-13800484D01*
X14434825Y-13800484D02*
X14415777Y-13810008D01*
X14415777Y-13810008D02*
X14406253Y-13819531D01*
X14406253Y-13819531D02*
X14387206Y-13848103D01*
X14387206Y-13848103D02*
X14377682Y-13886198D01*
X14377682Y-13886198D02*
X14377682Y-13962388D01*
X14377682Y-13962388D02*
X14387206Y-13981436D01*
X14387206Y-13981436D02*
X14396729Y-13990960D01*
X14396729Y-13990960D02*
X14415777Y-14000484D01*
X14415777Y-14000484D02*
X14453872Y-14000484D01*
X14453872Y-14000484D02*
X14472920Y-13990960D01*
X14472920Y-13990960D02*
X14482444Y-13981436D01*
X14482444Y-13981436D02*
X14491967Y-13962388D01*
X14491967Y-13962388D02*
X14491967Y-13914769D01*
X14491967Y-13914769D02*
X14482444Y-13895722D01*
X14482444Y-13895722D02*
X14472920Y-13886198D01*
X14472920Y-13886198D02*
X14453872Y-13876674D01*
X14453872Y-13876674D02*
X14415777Y-13876674D01*
X14415777Y-13876674D02*
X14396729Y-13886198D01*
X14396729Y-13886198D02*
X14387206Y-13895722D01*
X14387206Y-13895722D02*
X14377682Y-13914769D01*
X14587206Y-14000484D02*
X14625301Y-14000484D01*
X14625301Y-14000484D02*
X14644348Y-13990960D01*
X14644348Y-13990960D02*
X14653872Y-13981436D01*
X14653872Y-13981436D02*
X14672920Y-13952865D01*
X14672920Y-13952865D02*
X14682444Y-13914769D01*
X14682444Y-13914769D02*
X14682444Y-13838579D01*
X14682444Y-13838579D02*
X14672920Y-13819531D01*
X14672920Y-13819531D02*
X14663396Y-13810008D01*
X14663396Y-13810008D02*
X14644348Y-13800484D01*
X14644348Y-13800484D02*
X14606253Y-13800484D01*
X14606253Y-13800484D02*
X14587206Y-13810008D01*
X14587206Y-13810008D02*
X14577682Y-13819531D01*
X14577682Y-13819531D02*
X14568158Y-13838579D01*
X14568158Y-13838579D02*
X14568158Y-13886198D01*
X14568158Y-13886198D02*
X14577682Y-13905246D01*
X14577682Y-13905246D02*
X14587206Y-13914769D01*
X14587206Y-13914769D02*
X14606253Y-13924293D01*
X14606253Y-13924293D02*
X14644348Y-13924293D01*
X14644348Y-13924293D02*
X14663396Y-13914769D01*
X14663396Y-13914769D02*
X14672920Y-13905246D01*
X14672920Y-13905246D02*
X14682444Y-13886198D01*
X14758634Y-13800484D02*
X14758634Y-13838579D01*
X14834825Y-13800484D02*
X14834825Y-13838579D01*
X15130063Y-14076674D02*
X15120539Y-14067150D01*
X15120539Y-14067150D02*
X15101491Y-14038579D01*
X15101491Y-14038579D02*
X15091968Y-14019531D01*
X15091968Y-14019531D02*
X15082444Y-13990960D01*
X15082444Y-13990960D02*
X15072920Y-13943341D01*
X15072920Y-13943341D02*
X15072920Y-13905246D01*
X15072920Y-13905246D02*
X15082444Y-13857627D01*
X15082444Y-13857627D02*
X15091968Y-13829055D01*
X15091968Y-13829055D02*
X15101491Y-13810008D01*
X15101491Y-13810008D02*
X15120539Y-13781436D01*
X15120539Y-13781436D02*
X15130063Y-13771912D01*
X15311015Y-14000484D02*
X15196729Y-14000484D01*
X15253872Y-14000484D02*
X15253872Y-13800484D01*
X15253872Y-13800484D02*
X15234825Y-13829055D01*
X15234825Y-13829055D02*
X15215777Y-13848103D01*
X15215777Y-13848103D02*
X15196729Y-13857627D01*
X15482444Y-13867150D02*
X15482444Y-14000484D01*
X15434825Y-13790960D02*
X15387206Y-13933817D01*
X15387206Y-13933817D02*
X15511015Y-13933817D01*
X15739587Y-14000484D02*
X15739587Y-13800484D01*
X15825301Y-14000484D02*
X15825301Y-13895722D01*
X15825301Y-13895722D02*
X15815777Y-13876674D01*
X15815777Y-13876674D02*
X15796730Y-13867150D01*
X15796730Y-13867150D02*
X15768158Y-13867150D01*
X15768158Y-13867150D02*
X15749110Y-13876674D01*
X15749110Y-13876674D02*
X15739587Y-13886198D01*
X15949110Y-14000484D02*
X15930063Y-13990960D01*
X15930063Y-13990960D02*
X15920539Y-13981436D01*
X15920539Y-13981436D02*
X15911015Y-13962388D01*
X15911015Y-13962388D02*
X15911015Y-13905246D01*
X15911015Y-13905246D02*
X15920539Y-13886198D01*
X15920539Y-13886198D02*
X15930063Y-13876674D01*
X15930063Y-13876674D02*
X15949110Y-13867150D01*
X15949110Y-13867150D02*
X15977682Y-13867150D01*
X15977682Y-13867150D02*
X15996730Y-13876674D01*
X15996730Y-13876674D02*
X16006253Y-13886198D01*
X16006253Y-13886198D02*
X16015777Y-13905246D01*
X16015777Y-13905246D02*
X16015777Y-13962388D01*
X16015777Y-13962388D02*
X16006253Y-13981436D01*
X16006253Y-13981436D02*
X15996730Y-13990960D01*
X15996730Y-13990960D02*
X15977682Y-14000484D01*
X15977682Y-14000484D02*
X15949110Y-14000484D01*
X16130063Y-14000484D02*
X16111015Y-13990960D01*
X16111015Y-13990960D02*
X16101491Y-13971912D01*
X16101491Y-13971912D02*
X16101491Y-13800484D01*
X16282444Y-13990960D02*
X16263396Y-14000484D01*
X16263396Y-14000484D02*
X16225301Y-14000484D01*
X16225301Y-14000484D02*
X16206253Y-13990960D01*
X16206253Y-13990960D02*
X16196730Y-13971912D01*
X16196730Y-13971912D02*
X16196730Y-13895722D01*
X16196730Y-13895722D02*
X16206253Y-13876674D01*
X16206253Y-13876674D02*
X16225301Y-13867150D01*
X16225301Y-13867150D02*
X16263396Y-13867150D01*
X16263396Y-13867150D02*
X16282444Y-13876674D01*
X16282444Y-13876674D02*
X16291968Y-13895722D01*
X16291968Y-13895722D02*
X16291968Y-13914769D01*
X16291968Y-13914769D02*
X16196730Y-13933817D01*
X16368158Y-13990960D02*
X16387206Y-14000484D01*
X16387206Y-14000484D02*
X16425301Y-14000484D01*
X16425301Y-14000484D02*
X16444349Y-13990960D01*
X16444349Y-13990960D02*
X16453872Y-13971912D01*
X16453872Y-13971912D02*
X16453872Y-13962388D01*
X16453872Y-13962388D02*
X16444349Y-13943341D01*
X16444349Y-13943341D02*
X16425301Y-13933817D01*
X16425301Y-13933817D02*
X16396730Y-13933817D01*
X16396730Y-13933817D02*
X16377682Y-13924293D01*
X16377682Y-13924293D02*
X16368158Y-13905246D01*
X16368158Y-13905246D02*
X16368158Y-13895722D01*
X16368158Y-13895722D02*
X16377682Y-13876674D01*
X16377682Y-13876674D02*
X16396730Y-13867150D01*
X16396730Y-13867150D02*
X16425301Y-13867150D01*
X16425301Y-13867150D02*
X16444349Y-13876674D01*
X16520539Y-14076674D02*
X16530063Y-14067150D01*
X16530063Y-14067150D02*
X16549111Y-14038579D01*
X16549111Y-14038579D02*
X16558634Y-14019531D01*
X16558634Y-14019531D02*
X16568158Y-13990960D01*
X16568158Y-13990960D02*
X16577682Y-13943341D01*
X16577682Y-13943341D02*
X16577682Y-13905246D01*
X16577682Y-13905246D02*
X16568158Y-13857627D01*
X16568158Y-13857627D02*
X16558634Y-13829055D01*
X16558634Y-13829055D02*
X16549111Y-13810008D01*
X16549111Y-13810008D02*
X16530063Y-13781436D01*
X16530063Y-13781436D02*
X16520539Y-13771912D01*
D14*
X11435000Y-14113000D02*
X11555000Y-14233000D01*
X11555000Y-14113000D02*
X11435000Y-14233000D01*
X11537427Y-14215427D02*
X11537427Y-14130573D01*
X11452573Y-14130573D01*
X11452573Y-14215427D01*
X11537427Y-14215427D01*
D11*
X11920539Y-14264484D02*
X11806253Y-14264484D01*
X11863396Y-14264484D02*
X11863396Y-14064484D01*
X11863396Y-14064484D02*
X11844348Y-14093055D01*
X11844348Y-14093055D02*
X11825301Y-14112103D01*
X11825301Y-14112103D02*
X11806253Y-14121627D01*
X12006253Y-14245436D02*
X12015777Y-14254960D01*
X12015777Y-14254960D02*
X12006253Y-14264484D01*
X12006253Y-14264484D02*
X11996729Y-14254960D01*
X11996729Y-14254960D02*
X12006253Y-14245436D01*
X12006253Y-14245436D02*
X12006253Y-14264484D01*
X12091967Y-14083531D02*
X12101491Y-14074008D01*
X12101491Y-14074008D02*
X12120539Y-14064484D01*
X12120539Y-14064484D02*
X12168158Y-14064484D01*
X12168158Y-14064484D02*
X12187205Y-14074008D01*
X12187205Y-14074008D02*
X12196729Y-14083531D01*
X12196729Y-14083531D02*
X12206253Y-14102579D01*
X12206253Y-14102579D02*
X12206253Y-14121627D01*
X12206253Y-14121627D02*
X12196729Y-14150198D01*
X12196729Y-14150198D02*
X12082443Y-14264484D01*
X12082443Y-14264484D02*
X12206253Y-14264484D01*
X12330062Y-14064484D02*
X12349110Y-14064484D01*
X12349110Y-14064484D02*
X12368158Y-14074008D01*
X12368158Y-14074008D02*
X12377682Y-14083531D01*
X12377682Y-14083531D02*
X12387205Y-14102579D01*
X12387205Y-14102579D02*
X12396729Y-14140674D01*
X12396729Y-14140674D02*
X12396729Y-14188293D01*
X12396729Y-14188293D02*
X12387205Y-14226388D01*
X12387205Y-14226388D02*
X12377682Y-14245436D01*
X12377682Y-14245436D02*
X12368158Y-14254960D01*
X12368158Y-14254960D02*
X12349110Y-14264484D01*
X12349110Y-14264484D02*
X12330062Y-14264484D01*
X12330062Y-14264484D02*
X12311015Y-14254960D01*
X12311015Y-14254960D02*
X12301491Y-14245436D01*
X12301491Y-14245436D02*
X12291967Y-14226388D01*
X12291967Y-14226388D02*
X12282443Y-14188293D01*
X12282443Y-14188293D02*
X12282443Y-14140674D01*
X12282443Y-14140674D02*
X12291967Y-14102579D01*
X12291967Y-14102579D02*
X12301491Y-14083531D01*
X12301491Y-14083531D02*
X12311015Y-14074008D01*
X12311015Y-14074008D02*
X12330062Y-14064484D01*
X12520539Y-14064484D02*
X12539586Y-14064484D01*
X12539586Y-14064484D02*
X12558634Y-14074008D01*
X12558634Y-14074008D02*
X12568158Y-14083531D01*
X12568158Y-14083531D02*
X12577682Y-14102579D01*
X12577682Y-14102579D02*
X12587205Y-14140674D01*
X12587205Y-14140674D02*
X12587205Y-14188293D01*
X12587205Y-14188293D02*
X12577682Y-14226388D01*
X12577682Y-14226388D02*
X12568158Y-14245436D01*
X12568158Y-14245436D02*
X12558634Y-14254960D01*
X12558634Y-14254960D02*
X12539586Y-14264484D01*
X12539586Y-14264484D02*
X12520539Y-14264484D01*
X12520539Y-14264484D02*
X12501491Y-14254960D01*
X12501491Y-14254960D02*
X12491967Y-14245436D01*
X12491967Y-14245436D02*
X12482443Y-14226388D01*
X12482443Y-14226388D02*
X12472920Y-14188293D01*
X12472920Y-14188293D02*
X12472920Y-14140674D01*
X12472920Y-14140674D02*
X12482443Y-14102579D01*
X12482443Y-14102579D02*
X12491967Y-14083531D01*
X12491967Y-14083531D02*
X12501491Y-14074008D01*
X12501491Y-14074008D02*
X12520539Y-14064484D01*
X12672920Y-14264484D02*
X12672920Y-14131150D01*
X12672920Y-14150198D02*
X12682443Y-14140674D01*
X12682443Y-14140674D02*
X12701491Y-14131150D01*
X12701491Y-14131150D02*
X12730063Y-14131150D01*
X12730063Y-14131150D02*
X12749110Y-14140674D01*
X12749110Y-14140674D02*
X12758634Y-14159722D01*
X12758634Y-14159722D02*
X12758634Y-14264484D01*
X12758634Y-14159722D02*
X12768158Y-14140674D01*
X12768158Y-14140674D02*
X12787205Y-14131150D01*
X12787205Y-14131150D02*
X12815777Y-14131150D01*
X12815777Y-14131150D02*
X12834824Y-14140674D01*
X12834824Y-14140674D02*
X12844348Y-14159722D01*
X12844348Y-14159722D02*
X12844348Y-14264484D01*
X12939586Y-14264484D02*
X12939586Y-14131150D01*
X12939586Y-14150198D02*
X12949110Y-14140674D01*
X12949110Y-14140674D02*
X12968158Y-14131150D01*
X12968158Y-14131150D02*
X12996729Y-14131150D01*
X12996729Y-14131150D02*
X13015777Y-14140674D01*
X13015777Y-14140674D02*
X13025301Y-14159722D01*
X13025301Y-14159722D02*
X13025301Y-14264484D01*
X13025301Y-14159722D02*
X13034824Y-14140674D01*
X13034824Y-14140674D02*
X13053872Y-14131150D01*
X13053872Y-14131150D02*
X13082443Y-14131150D01*
X13082443Y-14131150D02*
X13101491Y-14140674D01*
X13101491Y-14140674D02*
X13111015Y-14159722D01*
X13111015Y-14159722D02*
X13111015Y-14264484D01*
X13501491Y-14054960D02*
X13330063Y-14312103D01*
X13758634Y-14064484D02*
X13777682Y-14064484D01*
X13777682Y-14064484D02*
X13796729Y-14074008D01*
X13796729Y-14074008D02*
X13806253Y-14083531D01*
X13806253Y-14083531D02*
X13815777Y-14102579D01*
X13815777Y-14102579D02*
X13825301Y-14140674D01*
X13825301Y-14140674D02*
X13825301Y-14188293D01*
X13825301Y-14188293D02*
X13815777Y-14226388D01*
X13815777Y-14226388D02*
X13806253Y-14245436D01*
X13806253Y-14245436D02*
X13796729Y-14254960D01*
X13796729Y-14254960D02*
X13777682Y-14264484D01*
X13777682Y-14264484D02*
X13758634Y-14264484D01*
X13758634Y-14264484D02*
X13739586Y-14254960D01*
X13739586Y-14254960D02*
X13730063Y-14245436D01*
X13730063Y-14245436D02*
X13720539Y-14226388D01*
X13720539Y-14226388D02*
X13711015Y-14188293D01*
X13711015Y-14188293D02*
X13711015Y-14140674D01*
X13711015Y-14140674D02*
X13720539Y-14102579D01*
X13720539Y-14102579D02*
X13730063Y-14083531D01*
X13730063Y-14083531D02*
X13739586Y-14074008D01*
X13739586Y-14074008D02*
X13758634Y-14064484D01*
X13911015Y-14245436D02*
X13920539Y-14254960D01*
X13920539Y-14254960D02*
X13911015Y-14264484D01*
X13911015Y-14264484D02*
X13901491Y-14254960D01*
X13901491Y-14254960D02*
X13911015Y-14245436D01*
X13911015Y-14245436D02*
X13911015Y-14264484D01*
X14044348Y-14064484D02*
X14063396Y-14064484D01*
X14063396Y-14064484D02*
X14082444Y-14074008D01*
X14082444Y-14074008D02*
X14091967Y-14083531D01*
X14091967Y-14083531D02*
X14101491Y-14102579D01*
X14101491Y-14102579D02*
X14111015Y-14140674D01*
X14111015Y-14140674D02*
X14111015Y-14188293D01*
X14111015Y-14188293D02*
X14101491Y-14226388D01*
X14101491Y-14226388D02*
X14091967Y-14245436D01*
X14091967Y-14245436D02*
X14082444Y-14254960D01*
X14082444Y-14254960D02*
X14063396Y-14264484D01*
X14063396Y-14264484D02*
X14044348Y-14264484D01*
X14044348Y-14264484D02*
X14025301Y-14254960D01*
X14025301Y-14254960D02*
X14015777Y-14245436D01*
X14015777Y-14245436D02*
X14006253Y-14226388D01*
X14006253Y-14226388D02*
X13996729Y-14188293D01*
X13996729Y-14188293D02*
X13996729Y-14140674D01*
X13996729Y-14140674D02*
X14006253Y-14102579D01*
X14006253Y-14102579D02*
X14015777Y-14083531D01*
X14015777Y-14083531D02*
X14025301Y-14074008D01*
X14025301Y-14074008D02*
X14044348Y-14064484D01*
X14282444Y-14131150D02*
X14282444Y-14264484D01*
X14234825Y-14054960D02*
X14187206Y-14197817D01*
X14187206Y-14197817D02*
X14311015Y-14197817D01*
X14368158Y-14064484D02*
X14501491Y-14064484D01*
X14501491Y-14064484D02*
X14415777Y-14264484D01*
X14568158Y-14083531D02*
X14577682Y-14074008D01*
X14577682Y-14074008D02*
X14596729Y-14064484D01*
X14596729Y-14064484D02*
X14644348Y-14064484D01*
X14644348Y-14064484D02*
X14663396Y-14074008D01*
X14663396Y-14074008D02*
X14672920Y-14083531D01*
X14672920Y-14083531D02*
X14682444Y-14102579D01*
X14682444Y-14102579D02*
X14682444Y-14121627D01*
X14682444Y-14121627D02*
X14672920Y-14150198D01*
X14672920Y-14150198D02*
X14558634Y-14264484D01*
X14558634Y-14264484D02*
X14682444Y-14264484D01*
X14758634Y-14064484D02*
X14758634Y-14102579D01*
X14834825Y-14064484D02*
X14834825Y-14102579D01*
X15130063Y-14340674D02*
X15120539Y-14331150D01*
X15120539Y-14331150D02*
X15101491Y-14302579D01*
X15101491Y-14302579D02*
X15091968Y-14283531D01*
X15091968Y-14283531D02*
X15082444Y-14254960D01*
X15082444Y-14254960D02*
X15072920Y-14207341D01*
X15072920Y-14207341D02*
X15072920Y-14169246D01*
X15072920Y-14169246D02*
X15082444Y-14121627D01*
X15082444Y-14121627D02*
X15091968Y-14093055D01*
X15091968Y-14093055D02*
X15101491Y-14074008D01*
X15101491Y-14074008D02*
X15120539Y-14045436D01*
X15120539Y-14045436D02*
X15130063Y-14035912D01*
X15311015Y-14264484D02*
X15196729Y-14264484D01*
X15253872Y-14264484D02*
X15253872Y-14064484D01*
X15253872Y-14064484D02*
X15234825Y-14093055D01*
X15234825Y-14093055D02*
X15215777Y-14112103D01*
X15215777Y-14112103D02*
X15196729Y-14121627D01*
X15387206Y-14083531D02*
X15396729Y-14074008D01*
X15396729Y-14074008D02*
X15415777Y-14064484D01*
X15415777Y-14064484D02*
X15463396Y-14064484D01*
X15463396Y-14064484D02*
X15482444Y-14074008D01*
X15482444Y-14074008D02*
X15491968Y-14083531D01*
X15491968Y-14083531D02*
X15501491Y-14102579D01*
X15501491Y-14102579D02*
X15501491Y-14121627D01*
X15501491Y-14121627D02*
X15491968Y-14150198D01*
X15491968Y-14150198D02*
X15377682Y-14264484D01*
X15377682Y-14264484D02*
X15501491Y-14264484D01*
X15739587Y-14264484D02*
X15739587Y-14064484D01*
X15825301Y-14264484D02*
X15825301Y-14159722D01*
X15825301Y-14159722D02*
X15815777Y-14140674D01*
X15815777Y-14140674D02*
X15796730Y-14131150D01*
X15796730Y-14131150D02*
X15768158Y-14131150D01*
X15768158Y-14131150D02*
X15749110Y-14140674D01*
X15749110Y-14140674D02*
X15739587Y-14150198D01*
X15949110Y-14264484D02*
X15930063Y-14254960D01*
X15930063Y-14254960D02*
X15920539Y-14245436D01*
X15920539Y-14245436D02*
X15911015Y-14226388D01*
X15911015Y-14226388D02*
X15911015Y-14169246D01*
X15911015Y-14169246D02*
X15920539Y-14150198D01*
X15920539Y-14150198D02*
X15930063Y-14140674D01*
X15930063Y-14140674D02*
X15949110Y-14131150D01*
X15949110Y-14131150D02*
X15977682Y-14131150D01*
X15977682Y-14131150D02*
X15996730Y-14140674D01*
X15996730Y-14140674D02*
X16006253Y-14150198D01*
X16006253Y-14150198D02*
X16015777Y-14169246D01*
X16015777Y-14169246D02*
X16015777Y-14226388D01*
X16015777Y-14226388D02*
X16006253Y-14245436D01*
X16006253Y-14245436D02*
X15996730Y-14254960D01*
X15996730Y-14254960D02*
X15977682Y-14264484D01*
X15977682Y-14264484D02*
X15949110Y-14264484D01*
X16130063Y-14264484D02*
X16111015Y-14254960D01*
X16111015Y-14254960D02*
X16101491Y-14235912D01*
X16101491Y-14235912D02*
X16101491Y-14064484D01*
X16282444Y-14254960D02*
X16263396Y-14264484D01*
X16263396Y-14264484D02*
X16225301Y-14264484D01*
X16225301Y-14264484D02*
X16206253Y-14254960D01*
X16206253Y-14254960D02*
X16196730Y-14235912D01*
X16196730Y-14235912D02*
X16196730Y-14159722D01*
X16196730Y-14159722D02*
X16206253Y-14140674D01*
X16206253Y-14140674D02*
X16225301Y-14131150D01*
X16225301Y-14131150D02*
X16263396Y-14131150D01*
X16263396Y-14131150D02*
X16282444Y-14140674D01*
X16282444Y-14140674D02*
X16291968Y-14159722D01*
X16291968Y-14159722D02*
X16291968Y-14178769D01*
X16291968Y-14178769D02*
X16196730Y-14197817D01*
X16368158Y-14254960D02*
X16387206Y-14264484D01*
X16387206Y-14264484D02*
X16425301Y-14264484D01*
X16425301Y-14264484D02*
X16444349Y-14254960D01*
X16444349Y-14254960D02*
X16453872Y-14235912D01*
X16453872Y-14235912D02*
X16453872Y-14226388D01*
X16453872Y-14226388D02*
X16444349Y-14207341D01*
X16444349Y-14207341D02*
X16425301Y-14197817D01*
X16425301Y-14197817D02*
X16396730Y-14197817D01*
X16396730Y-14197817D02*
X16377682Y-14188293D01*
X16377682Y-14188293D02*
X16368158Y-14169246D01*
X16368158Y-14169246D02*
X16368158Y-14159722D01*
X16368158Y-14159722D02*
X16377682Y-14140674D01*
X16377682Y-14140674D02*
X16396730Y-14131150D01*
X16396730Y-14131150D02*
X16425301Y-14131150D01*
X16425301Y-14131150D02*
X16444349Y-14140674D01*
X16520539Y-14340674D02*
X16530063Y-14331150D01*
X16530063Y-14331150D02*
X16549111Y-14302579D01*
X16549111Y-14302579D02*
X16558634Y-14283531D01*
X16558634Y-14283531D02*
X16568158Y-14254960D01*
X16568158Y-14254960D02*
X16577682Y-14207341D01*
X16577682Y-14207341D02*
X16577682Y-14169246D01*
X16577682Y-14169246D02*
X16568158Y-14121627D01*
X16568158Y-14121627D02*
X16558634Y-14093055D01*
X16558634Y-14093055D02*
X16549111Y-14074008D01*
X16549111Y-14074008D02*
X16530063Y-14045436D01*
X16530063Y-14045436D02*
X16520539Y-14035912D01*
D15*
X11425000Y-14372000D02*
X11555000Y-14502000D01*
X11555000Y-14372000D02*
X11425000Y-14502000D01*
X11490000Y-14502000D02*
X11555000Y-14437000D01*
X11490000Y-14372000D01*
X11425000Y-14437000D01*
X11490000Y-14502000D01*
D11*
X11920539Y-14528484D02*
X11806253Y-14528484D01*
X11863396Y-14528484D02*
X11863396Y-14328484D01*
X11863396Y-14328484D02*
X11844348Y-14357055D01*
X11844348Y-14357055D02*
X11825301Y-14376103D01*
X11825301Y-14376103D02*
X11806253Y-14385627D01*
X12006253Y-14509436D02*
X12015777Y-14518960D01*
X12015777Y-14518960D02*
X12006253Y-14528484D01*
X12006253Y-14528484D02*
X11996729Y-14518960D01*
X11996729Y-14518960D02*
X12006253Y-14509436D01*
X12006253Y-14509436D02*
X12006253Y-14528484D01*
X12082443Y-14328484D02*
X12206253Y-14328484D01*
X12206253Y-14328484D02*
X12139586Y-14404674D01*
X12139586Y-14404674D02*
X12168158Y-14404674D01*
X12168158Y-14404674D02*
X12187205Y-14414198D01*
X12187205Y-14414198D02*
X12196729Y-14423722D01*
X12196729Y-14423722D02*
X12206253Y-14442769D01*
X12206253Y-14442769D02*
X12206253Y-14490388D01*
X12206253Y-14490388D02*
X12196729Y-14509436D01*
X12196729Y-14509436D02*
X12187205Y-14518960D01*
X12187205Y-14518960D02*
X12168158Y-14528484D01*
X12168158Y-14528484D02*
X12111015Y-14528484D01*
X12111015Y-14528484D02*
X12091967Y-14518960D01*
X12091967Y-14518960D02*
X12082443Y-14509436D01*
X12330062Y-14328484D02*
X12349110Y-14328484D01*
X12349110Y-14328484D02*
X12368158Y-14338008D01*
X12368158Y-14338008D02*
X12377682Y-14347531D01*
X12377682Y-14347531D02*
X12387205Y-14366579D01*
X12387205Y-14366579D02*
X12396729Y-14404674D01*
X12396729Y-14404674D02*
X12396729Y-14452293D01*
X12396729Y-14452293D02*
X12387205Y-14490388D01*
X12387205Y-14490388D02*
X12377682Y-14509436D01*
X12377682Y-14509436D02*
X12368158Y-14518960D01*
X12368158Y-14518960D02*
X12349110Y-14528484D01*
X12349110Y-14528484D02*
X12330062Y-14528484D01*
X12330062Y-14528484D02*
X12311015Y-14518960D01*
X12311015Y-14518960D02*
X12301491Y-14509436D01*
X12301491Y-14509436D02*
X12291967Y-14490388D01*
X12291967Y-14490388D02*
X12282443Y-14452293D01*
X12282443Y-14452293D02*
X12282443Y-14404674D01*
X12282443Y-14404674D02*
X12291967Y-14366579D01*
X12291967Y-14366579D02*
X12301491Y-14347531D01*
X12301491Y-14347531D02*
X12311015Y-14338008D01*
X12311015Y-14338008D02*
X12330062Y-14328484D01*
X12520539Y-14328484D02*
X12539586Y-14328484D01*
X12539586Y-14328484D02*
X12558634Y-14338008D01*
X12558634Y-14338008D02*
X12568158Y-14347531D01*
X12568158Y-14347531D02*
X12577682Y-14366579D01*
X12577682Y-14366579D02*
X12587205Y-14404674D01*
X12587205Y-14404674D02*
X12587205Y-14452293D01*
X12587205Y-14452293D02*
X12577682Y-14490388D01*
X12577682Y-14490388D02*
X12568158Y-14509436D01*
X12568158Y-14509436D02*
X12558634Y-14518960D01*
X12558634Y-14518960D02*
X12539586Y-14528484D01*
X12539586Y-14528484D02*
X12520539Y-14528484D01*
X12520539Y-14528484D02*
X12501491Y-14518960D01*
X12501491Y-14518960D02*
X12491967Y-14509436D01*
X12491967Y-14509436D02*
X12482443Y-14490388D01*
X12482443Y-14490388D02*
X12472920Y-14452293D01*
X12472920Y-14452293D02*
X12472920Y-14404674D01*
X12472920Y-14404674D02*
X12482443Y-14366579D01*
X12482443Y-14366579D02*
X12491967Y-14347531D01*
X12491967Y-14347531D02*
X12501491Y-14338008D01*
X12501491Y-14338008D02*
X12520539Y-14328484D01*
X12672920Y-14528484D02*
X12672920Y-14395150D01*
X12672920Y-14414198D02*
X12682443Y-14404674D01*
X12682443Y-14404674D02*
X12701491Y-14395150D01*
X12701491Y-14395150D02*
X12730063Y-14395150D01*
X12730063Y-14395150D02*
X12749110Y-14404674D01*
X12749110Y-14404674D02*
X12758634Y-14423722D01*
X12758634Y-14423722D02*
X12758634Y-14528484D01*
X12758634Y-14423722D02*
X12768158Y-14404674D01*
X12768158Y-14404674D02*
X12787205Y-14395150D01*
X12787205Y-14395150D02*
X12815777Y-14395150D01*
X12815777Y-14395150D02*
X12834824Y-14404674D01*
X12834824Y-14404674D02*
X12844348Y-14423722D01*
X12844348Y-14423722D02*
X12844348Y-14528484D01*
X12939586Y-14528484D02*
X12939586Y-14395150D01*
X12939586Y-14414198D02*
X12949110Y-14404674D01*
X12949110Y-14404674D02*
X12968158Y-14395150D01*
X12968158Y-14395150D02*
X12996729Y-14395150D01*
X12996729Y-14395150D02*
X13015777Y-14404674D01*
X13015777Y-14404674D02*
X13025301Y-14423722D01*
X13025301Y-14423722D02*
X13025301Y-14528484D01*
X13025301Y-14423722D02*
X13034824Y-14404674D01*
X13034824Y-14404674D02*
X13053872Y-14395150D01*
X13053872Y-14395150D02*
X13082443Y-14395150D01*
X13082443Y-14395150D02*
X13101491Y-14404674D01*
X13101491Y-14404674D02*
X13111015Y-14423722D01*
X13111015Y-14423722D02*
X13111015Y-14528484D01*
X13501491Y-14318960D02*
X13330063Y-14576103D01*
X13758634Y-14328484D02*
X13777682Y-14328484D01*
X13777682Y-14328484D02*
X13796729Y-14338008D01*
X13796729Y-14338008D02*
X13806253Y-14347531D01*
X13806253Y-14347531D02*
X13815777Y-14366579D01*
X13815777Y-14366579D02*
X13825301Y-14404674D01*
X13825301Y-14404674D02*
X13825301Y-14452293D01*
X13825301Y-14452293D02*
X13815777Y-14490388D01*
X13815777Y-14490388D02*
X13806253Y-14509436D01*
X13806253Y-14509436D02*
X13796729Y-14518960D01*
X13796729Y-14518960D02*
X13777682Y-14528484D01*
X13777682Y-14528484D02*
X13758634Y-14528484D01*
X13758634Y-14528484D02*
X13739586Y-14518960D01*
X13739586Y-14518960D02*
X13730063Y-14509436D01*
X13730063Y-14509436D02*
X13720539Y-14490388D01*
X13720539Y-14490388D02*
X13711015Y-14452293D01*
X13711015Y-14452293D02*
X13711015Y-14404674D01*
X13711015Y-14404674D02*
X13720539Y-14366579D01*
X13720539Y-14366579D02*
X13730063Y-14347531D01*
X13730063Y-14347531D02*
X13739586Y-14338008D01*
X13739586Y-14338008D02*
X13758634Y-14328484D01*
X13911015Y-14509436D02*
X13920539Y-14518960D01*
X13920539Y-14518960D02*
X13911015Y-14528484D01*
X13911015Y-14528484D02*
X13901491Y-14518960D01*
X13901491Y-14518960D02*
X13911015Y-14509436D01*
X13911015Y-14509436D02*
X13911015Y-14528484D01*
X14044348Y-14328484D02*
X14063396Y-14328484D01*
X14063396Y-14328484D02*
X14082444Y-14338008D01*
X14082444Y-14338008D02*
X14091967Y-14347531D01*
X14091967Y-14347531D02*
X14101491Y-14366579D01*
X14101491Y-14366579D02*
X14111015Y-14404674D01*
X14111015Y-14404674D02*
X14111015Y-14452293D01*
X14111015Y-14452293D02*
X14101491Y-14490388D01*
X14101491Y-14490388D02*
X14091967Y-14509436D01*
X14091967Y-14509436D02*
X14082444Y-14518960D01*
X14082444Y-14518960D02*
X14063396Y-14528484D01*
X14063396Y-14528484D02*
X14044348Y-14528484D01*
X14044348Y-14528484D02*
X14025301Y-14518960D01*
X14025301Y-14518960D02*
X14015777Y-14509436D01*
X14015777Y-14509436D02*
X14006253Y-14490388D01*
X14006253Y-14490388D02*
X13996729Y-14452293D01*
X13996729Y-14452293D02*
X13996729Y-14404674D01*
X13996729Y-14404674D02*
X14006253Y-14366579D01*
X14006253Y-14366579D02*
X14015777Y-14347531D01*
X14015777Y-14347531D02*
X14025301Y-14338008D01*
X14025301Y-14338008D02*
X14044348Y-14328484D01*
X14291967Y-14328484D02*
X14196729Y-14328484D01*
X14196729Y-14328484D02*
X14187206Y-14423722D01*
X14187206Y-14423722D02*
X14196729Y-14414198D01*
X14196729Y-14414198D02*
X14215777Y-14404674D01*
X14215777Y-14404674D02*
X14263396Y-14404674D01*
X14263396Y-14404674D02*
X14282444Y-14414198D01*
X14282444Y-14414198D02*
X14291967Y-14423722D01*
X14291967Y-14423722D02*
X14301491Y-14442769D01*
X14301491Y-14442769D02*
X14301491Y-14490388D01*
X14301491Y-14490388D02*
X14291967Y-14509436D01*
X14291967Y-14509436D02*
X14282444Y-14518960D01*
X14282444Y-14518960D02*
X14263396Y-14528484D01*
X14263396Y-14528484D02*
X14215777Y-14528484D01*
X14215777Y-14528484D02*
X14196729Y-14518960D01*
X14196729Y-14518960D02*
X14187206Y-14509436D01*
X14491967Y-14528484D02*
X14377682Y-14528484D01*
X14434825Y-14528484D02*
X14434825Y-14328484D01*
X14434825Y-14328484D02*
X14415777Y-14357055D01*
X14415777Y-14357055D02*
X14396729Y-14376103D01*
X14396729Y-14376103D02*
X14377682Y-14385627D01*
X14568158Y-14347531D02*
X14577682Y-14338008D01*
X14577682Y-14338008D02*
X14596729Y-14328484D01*
X14596729Y-14328484D02*
X14644348Y-14328484D01*
X14644348Y-14328484D02*
X14663396Y-14338008D01*
X14663396Y-14338008D02*
X14672920Y-14347531D01*
X14672920Y-14347531D02*
X14682444Y-14366579D01*
X14682444Y-14366579D02*
X14682444Y-14385627D01*
X14682444Y-14385627D02*
X14672920Y-14414198D01*
X14672920Y-14414198D02*
X14558634Y-14528484D01*
X14558634Y-14528484D02*
X14682444Y-14528484D01*
X14758634Y-14328484D02*
X14758634Y-14366579D01*
X14834825Y-14328484D02*
X14834825Y-14366579D01*
X15130063Y-14604674D02*
X15120539Y-14595150D01*
X15120539Y-14595150D02*
X15101491Y-14566579D01*
X15101491Y-14566579D02*
X15091968Y-14547531D01*
X15091968Y-14547531D02*
X15082444Y-14518960D01*
X15082444Y-14518960D02*
X15072920Y-14471341D01*
X15072920Y-14471341D02*
X15072920Y-14433246D01*
X15072920Y-14433246D02*
X15082444Y-14385627D01*
X15082444Y-14385627D02*
X15091968Y-14357055D01*
X15091968Y-14357055D02*
X15101491Y-14338008D01*
X15101491Y-14338008D02*
X15120539Y-14309436D01*
X15120539Y-14309436D02*
X15130063Y-14299912D01*
X15311015Y-14528484D02*
X15196729Y-14528484D01*
X15253872Y-14528484D02*
X15253872Y-14328484D01*
X15253872Y-14328484D02*
X15234825Y-14357055D01*
X15234825Y-14357055D02*
X15215777Y-14376103D01*
X15215777Y-14376103D02*
X15196729Y-14385627D01*
X15482444Y-14395150D02*
X15482444Y-14528484D01*
X15434825Y-14318960D02*
X15387206Y-14461817D01*
X15387206Y-14461817D02*
X15511015Y-14461817D01*
X15739587Y-14528484D02*
X15739587Y-14328484D01*
X15825301Y-14528484D02*
X15825301Y-14423722D01*
X15825301Y-14423722D02*
X15815777Y-14404674D01*
X15815777Y-14404674D02*
X15796730Y-14395150D01*
X15796730Y-14395150D02*
X15768158Y-14395150D01*
X15768158Y-14395150D02*
X15749110Y-14404674D01*
X15749110Y-14404674D02*
X15739587Y-14414198D01*
X15949110Y-14528484D02*
X15930063Y-14518960D01*
X15930063Y-14518960D02*
X15920539Y-14509436D01*
X15920539Y-14509436D02*
X15911015Y-14490388D01*
X15911015Y-14490388D02*
X15911015Y-14433246D01*
X15911015Y-14433246D02*
X15920539Y-14414198D01*
X15920539Y-14414198D02*
X15930063Y-14404674D01*
X15930063Y-14404674D02*
X15949110Y-14395150D01*
X15949110Y-14395150D02*
X15977682Y-14395150D01*
X15977682Y-14395150D02*
X15996730Y-14404674D01*
X15996730Y-14404674D02*
X16006253Y-14414198D01*
X16006253Y-14414198D02*
X16015777Y-14433246D01*
X16015777Y-14433246D02*
X16015777Y-14490388D01*
X16015777Y-14490388D02*
X16006253Y-14509436D01*
X16006253Y-14509436D02*
X15996730Y-14518960D01*
X15996730Y-14518960D02*
X15977682Y-14528484D01*
X15977682Y-14528484D02*
X15949110Y-14528484D01*
X16130063Y-14528484D02*
X16111015Y-14518960D01*
X16111015Y-14518960D02*
X16101491Y-14499912D01*
X16101491Y-14499912D02*
X16101491Y-14328484D01*
X16282444Y-14518960D02*
X16263396Y-14528484D01*
X16263396Y-14528484D02*
X16225301Y-14528484D01*
X16225301Y-14528484D02*
X16206253Y-14518960D01*
X16206253Y-14518960D02*
X16196730Y-14499912D01*
X16196730Y-14499912D02*
X16196730Y-14423722D01*
X16196730Y-14423722D02*
X16206253Y-14404674D01*
X16206253Y-14404674D02*
X16225301Y-14395150D01*
X16225301Y-14395150D02*
X16263396Y-14395150D01*
X16263396Y-14395150D02*
X16282444Y-14404674D01*
X16282444Y-14404674D02*
X16291968Y-14423722D01*
X16291968Y-14423722D02*
X16291968Y-14442769D01*
X16291968Y-14442769D02*
X16196730Y-14461817D01*
X16368158Y-14518960D02*
X16387206Y-14528484D01*
X16387206Y-14528484D02*
X16425301Y-14528484D01*
X16425301Y-14528484D02*
X16444349Y-14518960D01*
X16444349Y-14518960D02*
X16453872Y-14499912D01*
X16453872Y-14499912D02*
X16453872Y-14490388D01*
X16453872Y-14490388D02*
X16444349Y-14471341D01*
X16444349Y-14471341D02*
X16425301Y-14461817D01*
X16425301Y-14461817D02*
X16396730Y-14461817D01*
X16396730Y-14461817D02*
X16377682Y-14452293D01*
X16377682Y-14452293D02*
X16368158Y-14433246D01*
X16368158Y-14433246D02*
X16368158Y-14423722D01*
X16368158Y-14423722D02*
X16377682Y-14404674D01*
X16377682Y-14404674D02*
X16396730Y-14395150D01*
X16396730Y-14395150D02*
X16425301Y-14395150D01*
X16425301Y-14395150D02*
X16444349Y-14404674D01*
X16520539Y-14604674D02*
X16530063Y-14595150D01*
X16530063Y-14595150D02*
X16549111Y-14566579D01*
X16549111Y-14566579D02*
X16558634Y-14547531D01*
X16558634Y-14547531D02*
X16568158Y-14518960D01*
X16568158Y-14518960D02*
X16577682Y-14471341D01*
X16577682Y-14471341D02*
X16577682Y-14433246D01*
X16577682Y-14433246D02*
X16568158Y-14385627D01*
X16568158Y-14385627D02*
X16558634Y-14357055D01*
X16558634Y-14357055D02*
X16549111Y-14338008D01*
X16549111Y-14338008D02*
X16530063Y-14309436D01*
X16530063Y-14309436D02*
X16520539Y-14299912D01*
X11455000Y-14601000D02*
X11455000Y-14801000D01*
X11355000Y-14701000D02*
X11555000Y-14701000D01*
X11555000Y-14701000D02*
G75*
G02*
X11355000Y-14701000I-100000J0D01*
G01*
X11355000Y-14701000D02*
G75*
G02*
X11555000Y-14701000I100000J0D01*
G01*
X11806253Y-14611531D02*
X11815777Y-14602008D01*
X11815777Y-14602008D02*
X11834824Y-14592484D01*
X11834824Y-14592484D02*
X11882443Y-14592484D01*
X11882443Y-14592484D02*
X11901491Y-14602008D01*
X11901491Y-14602008D02*
X11911015Y-14611531D01*
X11911015Y-14611531D02*
X11920539Y-14630579D01*
X11920539Y-14630579D02*
X11920539Y-14649627D01*
X11920539Y-14649627D02*
X11911015Y-14678198D01*
X11911015Y-14678198D02*
X11796729Y-14792484D01*
X11796729Y-14792484D02*
X11920539Y-14792484D01*
X12006253Y-14773436D02*
X12015777Y-14782960D01*
X12015777Y-14782960D02*
X12006253Y-14792484D01*
X12006253Y-14792484D02*
X11996729Y-14782960D01*
X11996729Y-14782960D02*
X12006253Y-14773436D01*
X12006253Y-14773436D02*
X12006253Y-14792484D01*
X12091967Y-14611531D02*
X12101491Y-14602008D01*
X12101491Y-14602008D02*
X12120539Y-14592484D01*
X12120539Y-14592484D02*
X12168158Y-14592484D01*
X12168158Y-14592484D02*
X12187205Y-14602008D01*
X12187205Y-14602008D02*
X12196729Y-14611531D01*
X12196729Y-14611531D02*
X12206253Y-14630579D01*
X12206253Y-14630579D02*
X12206253Y-14649627D01*
X12206253Y-14649627D02*
X12196729Y-14678198D01*
X12196729Y-14678198D02*
X12082443Y-14792484D01*
X12082443Y-14792484D02*
X12206253Y-14792484D01*
X12330062Y-14592484D02*
X12349110Y-14592484D01*
X12349110Y-14592484D02*
X12368158Y-14602008D01*
X12368158Y-14602008D02*
X12377682Y-14611531D01*
X12377682Y-14611531D02*
X12387205Y-14630579D01*
X12387205Y-14630579D02*
X12396729Y-14668674D01*
X12396729Y-14668674D02*
X12396729Y-14716293D01*
X12396729Y-14716293D02*
X12387205Y-14754388D01*
X12387205Y-14754388D02*
X12377682Y-14773436D01*
X12377682Y-14773436D02*
X12368158Y-14782960D01*
X12368158Y-14782960D02*
X12349110Y-14792484D01*
X12349110Y-14792484D02*
X12330062Y-14792484D01*
X12330062Y-14792484D02*
X12311015Y-14782960D01*
X12311015Y-14782960D02*
X12301491Y-14773436D01*
X12301491Y-14773436D02*
X12291967Y-14754388D01*
X12291967Y-14754388D02*
X12282443Y-14716293D01*
X12282443Y-14716293D02*
X12282443Y-14668674D01*
X12282443Y-14668674D02*
X12291967Y-14630579D01*
X12291967Y-14630579D02*
X12301491Y-14611531D01*
X12301491Y-14611531D02*
X12311015Y-14602008D01*
X12311015Y-14602008D02*
X12330062Y-14592484D01*
X12520539Y-14592484D02*
X12539586Y-14592484D01*
X12539586Y-14592484D02*
X12558634Y-14602008D01*
X12558634Y-14602008D02*
X12568158Y-14611531D01*
X12568158Y-14611531D02*
X12577682Y-14630579D01*
X12577682Y-14630579D02*
X12587205Y-14668674D01*
X12587205Y-14668674D02*
X12587205Y-14716293D01*
X12587205Y-14716293D02*
X12577682Y-14754388D01*
X12577682Y-14754388D02*
X12568158Y-14773436D01*
X12568158Y-14773436D02*
X12558634Y-14782960D01*
X12558634Y-14782960D02*
X12539586Y-14792484D01*
X12539586Y-14792484D02*
X12520539Y-14792484D01*
X12520539Y-14792484D02*
X12501491Y-14782960D01*
X12501491Y-14782960D02*
X12491967Y-14773436D01*
X12491967Y-14773436D02*
X12482443Y-14754388D01*
X12482443Y-14754388D02*
X12472920Y-14716293D01*
X12472920Y-14716293D02*
X12472920Y-14668674D01*
X12472920Y-14668674D02*
X12482443Y-14630579D01*
X12482443Y-14630579D02*
X12491967Y-14611531D01*
X12491967Y-14611531D02*
X12501491Y-14602008D01*
X12501491Y-14602008D02*
X12520539Y-14592484D01*
X12672920Y-14792484D02*
X12672920Y-14659150D01*
X12672920Y-14678198D02*
X12682443Y-14668674D01*
X12682443Y-14668674D02*
X12701491Y-14659150D01*
X12701491Y-14659150D02*
X12730063Y-14659150D01*
X12730063Y-14659150D02*
X12749110Y-14668674D01*
X12749110Y-14668674D02*
X12758634Y-14687722D01*
X12758634Y-14687722D02*
X12758634Y-14792484D01*
X12758634Y-14687722D02*
X12768158Y-14668674D01*
X12768158Y-14668674D02*
X12787205Y-14659150D01*
X12787205Y-14659150D02*
X12815777Y-14659150D01*
X12815777Y-14659150D02*
X12834824Y-14668674D01*
X12834824Y-14668674D02*
X12844348Y-14687722D01*
X12844348Y-14687722D02*
X12844348Y-14792484D01*
X12939586Y-14792484D02*
X12939586Y-14659150D01*
X12939586Y-14678198D02*
X12949110Y-14668674D01*
X12949110Y-14668674D02*
X12968158Y-14659150D01*
X12968158Y-14659150D02*
X12996729Y-14659150D01*
X12996729Y-14659150D02*
X13015777Y-14668674D01*
X13015777Y-14668674D02*
X13025301Y-14687722D01*
X13025301Y-14687722D02*
X13025301Y-14792484D01*
X13025301Y-14687722D02*
X13034824Y-14668674D01*
X13034824Y-14668674D02*
X13053872Y-14659150D01*
X13053872Y-14659150D02*
X13082443Y-14659150D01*
X13082443Y-14659150D02*
X13101491Y-14668674D01*
X13101491Y-14668674D02*
X13111015Y-14687722D01*
X13111015Y-14687722D02*
X13111015Y-14792484D01*
X13501491Y-14582960D02*
X13330063Y-14840103D01*
X13758634Y-14592484D02*
X13777682Y-14592484D01*
X13777682Y-14592484D02*
X13796729Y-14602008D01*
X13796729Y-14602008D02*
X13806253Y-14611531D01*
X13806253Y-14611531D02*
X13815777Y-14630579D01*
X13815777Y-14630579D02*
X13825301Y-14668674D01*
X13825301Y-14668674D02*
X13825301Y-14716293D01*
X13825301Y-14716293D02*
X13815777Y-14754388D01*
X13815777Y-14754388D02*
X13806253Y-14773436D01*
X13806253Y-14773436D02*
X13796729Y-14782960D01*
X13796729Y-14782960D02*
X13777682Y-14792484D01*
X13777682Y-14792484D02*
X13758634Y-14792484D01*
X13758634Y-14792484D02*
X13739586Y-14782960D01*
X13739586Y-14782960D02*
X13730063Y-14773436D01*
X13730063Y-14773436D02*
X13720539Y-14754388D01*
X13720539Y-14754388D02*
X13711015Y-14716293D01*
X13711015Y-14716293D02*
X13711015Y-14668674D01*
X13711015Y-14668674D02*
X13720539Y-14630579D01*
X13720539Y-14630579D02*
X13730063Y-14611531D01*
X13730063Y-14611531D02*
X13739586Y-14602008D01*
X13739586Y-14602008D02*
X13758634Y-14592484D01*
X13911015Y-14773436D02*
X13920539Y-14782960D01*
X13920539Y-14782960D02*
X13911015Y-14792484D01*
X13911015Y-14792484D02*
X13901491Y-14782960D01*
X13901491Y-14782960D02*
X13911015Y-14773436D01*
X13911015Y-14773436D02*
X13911015Y-14792484D01*
X14044348Y-14592484D02*
X14063396Y-14592484D01*
X14063396Y-14592484D02*
X14082444Y-14602008D01*
X14082444Y-14602008D02*
X14091967Y-14611531D01*
X14091967Y-14611531D02*
X14101491Y-14630579D01*
X14101491Y-14630579D02*
X14111015Y-14668674D01*
X14111015Y-14668674D02*
X14111015Y-14716293D01*
X14111015Y-14716293D02*
X14101491Y-14754388D01*
X14101491Y-14754388D02*
X14091967Y-14773436D01*
X14091967Y-14773436D02*
X14082444Y-14782960D01*
X14082444Y-14782960D02*
X14063396Y-14792484D01*
X14063396Y-14792484D02*
X14044348Y-14792484D01*
X14044348Y-14792484D02*
X14025301Y-14782960D01*
X14025301Y-14782960D02*
X14015777Y-14773436D01*
X14015777Y-14773436D02*
X14006253Y-14754388D01*
X14006253Y-14754388D02*
X13996729Y-14716293D01*
X13996729Y-14716293D02*
X13996729Y-14668674D01*
X13996729Y-14668674D02*
X14006253Y-14630579D01*
X14006253Y-14630579D02*
X14015777Y-14611531D01*
X14015777Y-14611531D02*
X14025301Y-14602008D01*
X14025301Y-14602008D02*
X14044348Y-14592484D01*
X14225301Y-14678198D02*
X14206253Y-14668674D01*
X14206253Y-14668674D02*
X14196729Y-14659150D01*
X14196729Y-14659150D02*
X14187206Y-14640103D01*
X14187206Y-14640103D02*
X14187206Y-14630579D01*
X14187206Y-14630579D02*
X14196729Y-14611531D01*
X14196729Y-14611531D02*
X14206253Y-14602008D01*
X14206253Y-14602008D02*
X14225301Y-14592484D01*
X14225301Y-14592484D02*
X14263396Y-14592484D01*
X14263396Y-14592484D02*
X14282444Y-14602008D01*
X14282444Y-14602008D02*
X14291967Y-14611531D01*
X14291967Y-14611531D02*
X14301491Y-14630579D01*
X14301491Y-14630579D02*
X14301491Y-14640103D01*
X14301491Y-14640103D02*
X14291967Y-14659150D01*
X14291967Y-14659150D02*
X14282444Y-14668674D01*
X14282444Y-14668674D02*
X14263396Y-14678198D01*
X14263396Y-14678198D02*
X14225301Y-14678198D01*
X14225301Y-14678198D02*
X14206253Y-14687722D01*
X14206253Y-14687722D02*
X14196729Y-14697246D01*
X14196729Y-14697246D02*
X14187206Y-14716293D01*
X14187206Y-14716293D02*
X14187206Y-14754388D01*
X14187206Y-14754388D02*
X14196729Y-14773436D01*
X14196729Y-14773436D02*
X14206253Y-14782960D01*
X14206253Y-14782960D02*
X14225301Y-14792484D01*
X14225301Y-14792484D02*
X14263396Y-14792484D01*
X14263396Y-14792484D02*
X14282444Y-14782960D01*
X14282444Y-14782960D02*
X14291967Y-14773436D01*
X14291967Y-14773436D02*
X14301491Y-14754388D01*
X14301491Y-14754388D02*
X14301491Y-14716293D01*
X14301491Y-14716293D02*
X14291967Y-14697246D01*
X14291967Y-14697246D02*
X14282444Y-14687722D01*
X14282444Y-14687722D02*
X14263396Y-14678198D01*
X14472920Y-14592484D02*
X14434825Y-14592484D01*
X14434825Y-14592484D02*
X14415777Y-14602008D01*
X14415777Y-14602008D02*
X14406253Y-14611531D01*
X14406253Y-14611531D02*
X14387206Y-14640103D01*
X14387206Y-14640103D02*
X14377682Y-14678198D01*
X14377682Y-14678198D02*
X14377682Y-14754388D01*
X14377682Y-14754388D02*
X14387206Y-14773436D01*
X14387206Y-14773436D02*
X14396729Y-14782960D01*
X14396729Y-14782960D02*
X14415777Y-14792484D01*
X14415777Y-14792484D02*
X14453872Y-14792484D01*
X14453872Y-14792484D02*
X14472920Y-14782960D01*
X14472920Y-14782960D02*
X14482444Y-14773436D01*
X14482444Y-14773436D02*
X14491967Y-14754388D01*
X14491967Y-14754388D02*
X14491967Y-14706769D01*
X14491967Y-14706769D02*
X14482444Y-14687722D01*
X14482444Y-14687722D02*
X14472920Y-14678198D01*
X14472920Y-14678198D02*
X14453872Y-14668674D01*
X14453872Y-14668674D02*
X14415777Y-14668674D01*
X14415777Y-14668674D02*
X14396729Y-14678198D01*
X14396729Y-14678198D02*
X14387206Y-14687722D01*
X14387206Y-14687722D02*
X14377682Y-14706769D01*
X14663396Y-14592484D02*
X14625301Y-14592484D01*
X14625301Y-14592484D02*
X14606253Y-14602008D01*
X14606253Y-14602008D02*
X14596729Y-14611531D01*
X14596729Y-14611531D02*
X14577682Y-14640103D01*
X14577682Y-14640103D02*
X14568158Y-14678198D01*
X14568158Y-14678198D02*
X14568158Y-14754388D01*
X14568158Y-14754388D02*
X14577682Y-14773436D01*
X14577682Y-14773436D02*
X14587206Y-14782960D01*
X14587206Y-14782960D02*
X14606253Y-14792484D01*
X14606253Y-14792484D02*
X14644348Y-14792484D01*
X14644348Y-14792484D02*
X14663396Y-14782960D01*
X14663396Y-14782960D02*
X14672920Y-14773436D01*
X14672920Y-14773436D02*
X14682444Y-14754388D01*
X14682444Y-14754388D02*
X14682444Y-14706769D01*
X14682444Y-14706769D02*
X14672920Y-14687722D01*
X14672920Y-14687722D02*
X14663396Y-14678198D01*
X14663396Y-14678198D02*
X14644348Y-14668674D01*
X14644348Y-14668674D02*
X14606253Y-14668674D01*
X14606253Y-14668674D02*
X14587206Y-14678198D01*
X14587206Y-14678198D02*
X14577682Y-14687722D01*
X14577682Y-14687722D02*
X14568158Y-14706769D01*
X14758634Y-14592484D02*
X14758634Y-14630579D01*
X14834825Y-14592484D02*
X14834825Y-14630579D01*
X15130063Y-14868674D02*
X15120539Y-14859150D01*
X15120539Y-14859150D02*
X15101491Y-14830579D01*
X15101491Y-14830579D02*
X15091968Y-14811531D01*
X15091968Y-14811531D02*
X15082444Y-14782960D01*
X15082444Y-14782960D02*
X15072920Y-14735341D01*
X15072920Y-14735341D02*
X15072920Y-14697246D01*
X15072920Y-14697246D02*
X15082444Y-14649627D01*
X15082444Y-14649627D02*
X15091968Y-14621055D01*
X15091968Y-14621055D02*
X15101491Y-14602008D01*
X15101491Y-14602008D02*
X15120539Y-14573436D01*
X15120539Y-14573436D02*
X15130063Y-14563912D01*
X15291968Y-14659150D02*
X15291968Y-14792484D01*
X15244348Y-14582960D02*
X15196729Y-14725817D01*
X15196729Y-14725817D02*
X15320539Y-14725817D01*
X15549110Y-14792484D02*
X15549110Y-14592484D01*
X15634825Y-14792484D02*
X15634825Y-14687722D01*
X15634825Y-14687722D02*
X15625301Y-14668674D01*
X15625301Y-14668674D02*
X15606253Y-14659150D01*
X15606253Y-14659150D02*
X15577682Y-14659150D01*
X15577682Y-14659150D02*
X15558634Y-14668674D01*
X15558634Y-14668674D02*
X15549110Y-14678198D01*
X15758634Y-14792484D02*
X15739587Y-14782960D01*
X15739587Y-14782960D02*
X15730063Y-14773436D01*
X15730063Y-14773436D02*
X15720539Y-14754388D01*
X15720539Y-14754388D02*
X15720539Y-14697246D01*
X15720539Y-14697246D02*
X15730063Y-14678198D01*
X15730063Y-14678198D02*
X15739587Y-14668674D01*
X15739587Y-14668674D02*
X15758634Y-14659150D01*
X15758634Y-14659150D02*
X15787206Y-14659150D01*
X15787206Y-14659150D02*
X15806253Y-14668674D01*
X15806253Y-14668674D02*
X15815777Y-14678198D01*
X15815777Y-14678198D02*
X15825301Y-14697246D01*
X15825301Y-14697246D02*
X15825301Y-14754388D01*
X15825301Y-14754388D02*
X15815777Y-14773436D01*
X15815777Y-14773436D02*
X15806253Y-14782960D01*
X15806253Y-14782960D02*
X15787206Y-14792484D01*
X15787206Y-14792484D02*
X15758634Y-14792484D01*
X15939587Y-14792484D02*
X15920539Y-14782960D01*
X15920539Y-14782960D02*
X15911015Y-14763912D01*
X15911015Y-14763912D02*
X15911015Y-14592484D01*
X16091968Y-14782960D02*
X16072920Y-14792484D01*
X16072920Y-14792484D02*
X16034825Y-14792484D01*
X16034825Y-14792484D02*
X16015777Y-14782960D01*
X16015777Y-14782960D02*
X16006253Y-14763912D01*
X16006253Y-14763912D02*
X16006253Y-14687722D01*
X16006253Y-14687722D02*
X16015777Y-14668674D01*
X16015777Y-14668674D02*
X16034825Y-14659150D01*
X16034825Y-14659150D02*
X16072920Y-14659150D01*
X16072920Y-14659150D02*
X16091968Y-14668674D01*
X16091968Y-14668674D02*
X16101491Y-14687722D01*
X16101491Y-14687722D02*
X16101491Y-14706769D01*
X16101491Y-14706769D02*
X16006253Y-14725817D01*
X16177682Y-14782960D02*
X16196730Y-14792484D01*
X16196730Y-14792484D02*
X16234825Y-14792484D01*
X16234825Y-14792484D02*
X16253872Y-14782960D01*
X16253872Y-14782960D02*
X16263396Y-14763912D01*
X16263396Y-14763912D02*
X16263396Y-14754388D01*
X16263396Y-14754388D02*
X16253872Y-14735341D01*
X16253872Y-14735341D02*
X16234825Y-14725817D01*
X16234825Y-14725817D02*
X16206253Y-14725817D01*
X16206253Y-14725817D02*
X16187206Y-14716293D01*
X16187206Y-14716293D02*
X16177682Y-14697246D01*
X16177682Y-14697246D02*
X16177682Y-14687722D01*
X16177682Y-14687722D02*
X16187206Y-14668674D01*
X16187206Y-14668674D02*
X16206253Y-14659150D01*
X16206253Y-14659150D02*
X16234825Y-14659150D01*
X16234825Y-14659150D02*
X16253872Y-14668674D01*
X16330063Y-14868674D02*
X16339587Y-14859150D01*
X16339587Y-14859150D02*
X16358634Y-14830579D01*
X16358634Y-14830579D02*
X16368158Y-14811531D01*
X16368158Y-14811531D02*
X16377682Y-14782960D01*
X16377682Y-14782960D02*
X16387206Y-14735341D01*
X16387206Y-14735341D02*
X16387206Y-14697246D01*
X16387206Y-14697246D02*
X16377682Y-14649627D01*
X16377682Y-14649627D02*
X16368158Y-14621055D01*
X16368158Y-14621055D02*
X16358634Y-14602008D01*
X16358634Y-14602008D02*
X16339587Y-14573436D01*
X16339587Y-14573436D02*
X16330063Y-14563912D01*
M02*
