G04 #@! TF.GenerationSoftware,KiCad,Pcbnew,8.0.1*
G04 #@! TF.CreationDate,2024-04-14T14:54:01-03:00*
G04 #@! TF.ProjectId,Shield STM32 Bluepill,53686965-6c64-4205-9354-4d333220426c,0.0*
G04 #@! TF.SameCoordinates,Original*
G04 #@! TF.FileFunction,Soldermask,Bot*
G04 #@! TF.FilePolarity,Negative*
%FSLAX46Y46*%
G04 Gerber Fmt 4.6, Leading zero omitted, Abs format (unit mm)*
G04 Created by KiCad (PCBNEW 8.0.1) date 2024-04-14 14:54:01*
%MOMM*%
%LPD*%
G01*
G04 APERTURE LIST*
G04 Aperture macros list*
%AMRoundRect*
0 Rectangle with rounded corners*
0 $1 Rounding radius*
0 $2 $3 $4 $5 $6 $7 $8 $9 X,Y pos of 4 corners*
0 Add a 4 corners polygon primitive as box body*
4,1,4,$2,$3,$4,$5,$6,$7,$8,$9,$2,$3,0*
0 Add four circle primitives for the rounded corners*
1,1,$1+$1,$2,$3*
1,1,$1+$1,$4,$5*
1,1,$1+$1,$6,$7*
1,1,$1+$1,$8,$9*
0 Add four rect primitives between the rounded corners*
20,1,$1+$1,$2,$3,$4,$5,0*
20,1,$1+$1,$4,$5,$6,$7,0*
20,1,$1+$1,$6,$7,$8,$9,0*
20,1,$1+$1,$8,$9,$2,$3,0*%
G04 Aperture macros list end*
%ADD10C,2.600000*%
%ADD11R,2.600000X2.600000*%
%ADD12RoundRect,0.250000X0.620000X0.845000X-0.620000X0.845000X-0.620000X-0.845000X0.620000X-0.845000X0*%
%ADD13O,1.740000X2.190000*%
%ADD14C,0.700000*%
%ADD15C,4.400000*%
%ADD16R,1.500000X1.500000*%
%ADD17C,1.500000*%
%ADD18R,1.700000X1.700000*%
%ADD19O,1.700000X1.700000*%
%ADD20C,2.000000*%
%ADD21R,2.000000X2.000000*%
%ADD22R,1.905000X2.000000*%
%ADD23O,1.905000X2.000000*%
%ADD24RoundRect,0.102000X-0.654000X-0.654000X0.654000X-0.654000X0.654000X0.654000X-0.654000X0.654000X0*%
%ADD25C,1.512000*%
%ADD26R,2.600000X1.800000*%
%ADD27O,2.600000X1.800000*%
%ADD28RoundRect,0.250000X0.845000X-0.620000X0.845000X0.620000X-0.845000X0.620000X-0.845000X-0.620000X0*%
%ADD29O,2.190000X1.740000*%
%ADD30C,1.700000*%
%ADD31C,1.800000*%
%ADD32C,1.260000*%
%ADD33R,4.000000X4.000000*%
%ADD34C,0.800000*%
G04 APERTURE END LIST*
D10*
X157475000Y-111557000D03*
D11*
X162555000Y-111557000D03*
D12*
X165862000Y-43688000D03*
D13*
X163322000Y-43688000D03*
X160782000Y-43688000D03*
X158242000Y-43688000D03*
X155702000Y-43688000D03*
X153162000Y-43688000D03*
D14*
X209250000Y-30900000D03*
X209733274Y-29733274D03*
X209733274Y-32066726D03*
X210900000Y-29250000D03*
D15*
X210900000Y-30900000D03*
D14*
X210900000Y-32550000D03*
X212066726Y-29733274D03*
X212066726Y-32066726D03*
X212550000Y-30900000D03*
D16*
X145186400Y-66471800D03*
D17*
X147726400Y-66471800D03*
X150266400Y-66471800D03*
X152806400Y-66471800D03*
X155346400Y-66471800D03*
X155346400Y-53971800D03*
X152806400Y-53971800D03*
X150266400Y-53971800D03*
X147726400Y-53971800D03*
X145186400Y-53971800D03*
D11*
X209093000Y-41661000D03*
D10*
X209093000Y-36581000D03*
D18*
X136652000Y-43180000D03*
D19*
X139192000Y-43180000D03*
X141732000Y-43180000D03*
X144272000Y-43180000D03*
D18*
X208788000Y-89281000D03*
D19*
X208788000Y-86741000D03*
D20*
X198628000Y-65226000D03*
X198628000Y-58726000D03*
X203128000Y-65226000D03*
X203128000Y-58726000D03*
D21*
X189083000Y-43053000D03*
D20*
X181483000Y-43053000D03*
D11*
X198628000Y-111506000D03*
D10*
X203708000Y-111506000D03*
D22*
X176911000Y-31242000D03*
D23*
X179451000Y-31242000D03*
X181991000Y-31242000D03*
D18*
X149322000Y-113538000D03*
D19*
X146782000Y-113538000D03*
X144242000Y-113538000D03*
X141702000Y-113538000D03*
D16*
X190350000Y-64750000D03*
D17*
X190350000Y-62210000D03*
X190350000Y-59670000D03*
X190350000Y-57130000D03*
D18*
X152400000Y-97028000D03*
D19*
X154940000Y-97028000D03*
X157480000Y-97028000D03*
D14*
X118183274Y-30933274D03*
X118666548Y-29766548D03*
X118666548Y-32100000D03*
X119833274Y-29283274D03*
D15*
X119833274Y-30933274D03*
D14*
X119833274Y-32583274D03*
X121000000Y-29766548D03*
X121000000Y-32100000D03*
X121483274Y-30933274D03*
D18*
X208788000Y-67056000D03*
D19*
X208788000Y-69596000D03*
X208788000Y-72136000D03*
X208788000Y-74676000D03*
D14*
X209250000Y-113000000D03*
X209733274Y-111833274D03*
X209733274Y-114166726D03*
X210900000Y-111350000D03*
D15*
X210900000Y-113000000D03*
D14*
X210900000Y-114650000D03*
X212066726Y-111833274D03*
X212066726Y-114166726D03*
X212550000Y-113000000D03*
X117960274Y-113514274D03*
X118443548Y-112347548D03*
X118443548Y-114681000D03*
X119610274Y-111864274D03*
D15*
X119610274Y-113514274D03*
D14*
X119610274Y-115164274D03*
X120777000Y-112347548D03*
X120777000Y-114681000D03*
X121260274Y-113514274D03*
D24*
X197702000Y-89060000D03*
D25*
X200202000Y-89060000D03*
X202702000Y-89060000D03*
X197702000Y-83660000D03*
X200202000Y-83660000D03*
X202702000Y-83660000D03*
D26*
X119786400Y-61722000D03*
D27*
X119786400Y-64262000D03*
X119786400Y-66802000D03*
X119786400Y-69342000D03*
X119786400Y-71882000D03*
X119786400Y-74422000D03*
X119786400Y-87122000D03*
X119786400Y-89662000D03*
X119786400Y-92202000D03*
X119786400Y-94742000D03*
X119786400Y-97282000D03*
X119786400Y-99822000D03*
D18*
X208788000Y-95040000D03*
D19*
X208788000Y-97580000D03*
X208788000Y-100120000D03*
D18*
X157338000Y-92456000D03*
D19*
X154798000Y-92456000D03*
X152258000Y-92456000D03*
D12*
X143256000Y-97262000D03*
D13*
X140716000Y-97262000D03*
X138176000Y-97262000D03*
X135636000Y-97262000D03*
D20*
X198628000Y-78434000D03*
X198628000Y-71934000D03*
X203128000Y-78434000D03*
X203128000Y-71934000D03*
D28*
X198100000Y-51770000D03*
D29*
X198100000Y-49230000D03*
X198100000Y-46690000D03*
X198100000Y-44150000D03*
D30*
X181975000Y-102605000D03*
X181975000Y-100065000D03*
X181975000Y-97525000D03*
X181975000Y-94985000D03*
X181975000Y-92445000D03*
X181975000Y-89905000D03*
X181975000Y-87365000D03*
X181975000Y-84825000D03*
X181975000Y-82285000D03*
X181975000Y-79745000D03*
X181975000Y-77205000D03*
X181975000Y-74665000D03*
X181975000Y-72125000D03*
X181975000Y-69585000D03*
X181975000Y-67045000D03*
X181975000Y-64505000D03*
X181975000Y-61965000D03*
X181975000Y-59425000D03*
X181975000Y-56885000D03*
X181975000Y-54345000D03*
D18*
X166735000Y-54345000D03*
D30*
X166735000Y-56885000D03*
X166735000Y-59425000D03*
X166735000Y-61965000D03*
X166735000Y-64505000D03*
X166735000Y-67045000D03*
X166735000Y-69585000D03*
X166735000Y-72125000D03*
X166735000Y-74665000D03*
X166735000Y-77205000D03*
X166735000Y-79745000D03*
X166735000Y-82285000D03*
X166735000Y-84825000D03*
X166735000Y-87365000D03*
X166735000Y-89905000D03*
X166735000Y-92445000D03*
X166735000Y-94985000D03*
X166735000Y-97525000D03*
X166735000Y-100065000D03*
X166735000Y-102605000D03*
D11*
X167132000Y-32258000D03*
D10*
X162052000Y-32258000D03*
X156972000Y-32258000D03*
X151892000Y-32258000D03*
D18*
X188468000Y-75184000D03*
D19*
X188468000Y-77724000D03*
X188468000Y-80264000D03*
X188468000Y-82804000D03*
X188468000Y-85344000D03*
X188468000Y-87884000D03*
D31*
X125860000Y-45220000D03*
X128400000Y-37600000D03*
X125860000Y-32520000D03*
D11*
X186436000Y-111570000D03*
D10*
X191516000Y-111570000D03*
D32*
X197358000Y-99314000D03*
X199898000Y-96774000D03*
X202438000Y-99314000D03*
D18*
X135128000Y-29718000D03*
D19*
X135128000Y-32258000D03*
X137668000Y-29718000D03*
X137668000Y-32258000D03*
X140208000Y-29718000D03*
X140208000Y-32258000D03*
X142748000Y-29718000D03*
X142748000Y-32258000D03*
D18*
X126170000Y-70110000D03*
D19*
X126170000Y-72650000D03*
X126170000Y-75190000D03*
X126170000Y-77730000D03*
X126170000Y-80270000D03*
X126170000Y-82810000D03*
X126170000Y-85350000D03*
X126170000Y-87890000D03*
D11*
X209042000Y-53340000D03*
D10*
X209042000Y-48260000D03*
D33*
X204500000Y-93400000D03*
X202400000Y-102700000D03*
X208800000Y-106400000D03*
D34*
X188341000Y-31115000D03*
X186436000Y-29972000D03*
X204500000Y-93300000D03*
X164973000Y-111379000D03*
X190500000Y-75311000D03*
X186182000Y-35941000D03*
X147075000Y-94400000D03*
X204470000Y-83820000D03*
X125730000Y-110617000D03*
X181991000Y-52451000D03*
X156800000Y-61725000D03*
X162687000Y-108966000D03*
X127889000Y-88011000D03*
X129310000Y-53030000D03*
X167767000Y-43815000D03*
X204597000Y-89027000D03*
X209042000Y-45720000D03*
X188990000Y-67920000D03*
X132950000Y-86200000D03*
X138100000Y-107350000D03*
X125857000Y-30734000D03*
X125857000Y-108712000D03*
X206883000Y-74930000D03*
X165481000Y-41910000D03*
X170942000Y-66548000D03*
X130683000Y-109474000D03*
X151892000Y-29718000D03*
X121031000Y-101854000D03*
X167894000Y-101346000D03*
X147701000Y-111633000D03*
X206883000Y-36703000D03*
X189600000Y-100750000D03*
X203200000Y-74295000D03*
X140600000Y-86200000D03*
X211582000Y-48260000D03*
X202819000Y-87249000D03*
X209169000Y-34290000D03*
X179451000Y-33401000D03*
X123825000Y-32639000D03*
X141732000Y-44958000D03*
X150175000Y-43250000D03*
X205359000Y-72644000D03*
X206502000Y-48260000D03*
X183769000Y-57150000D03*
X213125000Y-78250000D03*
X171800000Y-35575000D03*
X208788000Y-76708000D03*
X119634000Y-59690000D03*
X177927000Y-33909000D03*
X193040000Y-89154000D03*
X188214000Y-34417000D03*
X133223000Y-107442000D03*
X135580000Y-67270000D03*
X151765000Y-34798000D03*
X183896000Y-54356000D03*
X167800000Y-106450000D03*
X133604000Y-97282000D03*
X119253000Y-101981000D03*
X120100000Y-51300000D03*
X134874000Y-111125000D03*
X194800000Y-72350000D03*
X178525000Y-94925000D03*
X202946000Y-76581000D03*
X134874000Y-107442000D03*
X202946000Y-69850000D03*
X177927000Y-114554000D03*
X173482000Y-56896000D03*
X205232000Y-58801000D03*
X185725000Y-89175000D03*
X201041000Y-58801000D03*
X145350000Y-37550000D03*
X127762000Y-32639000D03*
X165608000Y-112776000D03*
X213200000Y-107850000D03*
X202692000Y-81788000D03*
X208915000Y-84836000D03*
X165227000Y-98806000D03*
X125730000Y-106934000D03*
X178600000Y-83350000D03*
X149479000Y-32004000D03*
X145796000Y-111760000D03*
X203327000Y-67564000D03*
X154305000Y-32258000D03*
X211455000Y-36703000D03*
X205740000Y-82804000D03*
X124079000Y-110490000D03*
X203073000Y-56642000D03*
X180594000Y-55880000D03*
X208915000Y-93091000D03*
X196100000Y-56100000D03*
X200660000Y-46736000D03*
X188595000Y-57277000D03*
X212650000Y-60775000D03*
X124079000Y-106934000D03*
X120120000Y-106020000D03*
X186563000Y-75184000D03*
X125857000Y-34544000D03*
X123340000Y-67270000D03*
X176325000Y-78100000D03*
X201041000Y-65278000D03*
X204216000Y-99314000D03*
X191897000Y-35687000D03*
X162560000Y-114046000D03*
X192405000Y-30607000D03*
X190373000Y-55372000D03*
X121920000Y-72771000D03*
X201041000Y-78613000D03*
X185050000Y-44100000D03*
X201168000Y-72009000D03*
X207010000Y-86995000D03*
X175768000Y-28702000D03*
X195961000Y-46863000D03*
X209042000Y-50673000D03*
X135001000Y-109220000D03*
X176300000Y-114959500D03*
X164846000Y-100838000D03*
X202438000Y-97790000D03*
X167350000Y-114300000D03*
X203327000Y-63246000D03*
X130429000Y-110871000D03*
X127635000Y-107950000D03*
X172339000Y-57277000D03*
X149100000Y-61750000D03*
X135636000Y-99822000D03*
X195453000Y-32893000D03*
X147050000Y-107300000D03*
X123210000Y-57610000D03*
X202692000Y-85471000D03*
X117221000Y-100076000D03*
X141732000Y-41021000D03*
X203200000Y-60833000D03*
X135509000Y-94869000D03*
X203000000Y-28750000D03*
X180721000Y-58166000D03*
X124079000Y-108712000D03*
X211582000Y-48260000D03*
X167894000Y-98679000D03*
X205232000Y-78486000D03*
X132461000Y-37592000D03*
X133223000Y-29718000D03*
X174498000Y-113411000D03*
X184325500Y-34465500D03*
X121793000Y-70866000D03*
X133350000Y-77390000D03*
X133350000Y-80800000D03*
X157800000Y-74200000D03*
X154062500Y-74162500D03*
X150175000Y-74300000D03*
X146550000Y-74200000D03*
X142600000Y-74200000D03*
X138825000Y-74200000D03*
X152171400Y-81846400D03*
X157125000Y-102625000D03*
X158750000Y-105100000D03*
X151384000Y-87122000D03*
X131860000Y-77400000D03*
X131850000Y-80875000D03*
X131630000Y-47150000D03*
X131580000Y-51750000D03*
X134610000Y-47140000D03*
X134620000Y-56510000D03*
X179800000Y-108590500D03*
X179800000Y-102825000D03*
X175514000Y-60706000D03*
X169418000Y-109350000D03*
X169418000Y-106426000D03*
M02*
