G04 #@! TF.GenerationSoftware,KiCad,Pcbnew,8.0.1*
G04 #@! TF.CreationDate,2024-03-31T20:51:03-03:00*
G04 #@! TF.ProjectId,Shield STM32 Bluepill,53686965-6c64-4205-9354-4d333220426c,2.0*
G04 #@! TF.SameCoordinates,Original*
G04 #@! TF.FileFunction,Legend,Bot*
G04 #@! TF.FilePolarity,Positive*
%FSLAX46Y46*%
G04 Gerber Fmt 4.6, Leading zero omitted, Abs format (unit mm)*
G04 Created by KiCad (PCBNEW 8.0.1) date 2024-03-31 20:51:03*
%MOMM*%
%LPD*%
G01*
G04 APERTURE LIST*
G04 Aperture macros list*
%AMRoundRect*
0 Rectangle with rounded corners*
0 $1 Rounding radius*
0 $2 $3 $4 $5 $6 $7 $8 $9 X,Y pos of 4 corners*
0 Add a 4 corners polygon primitive as box body*
4,1,4,$2,$3,$4,$5,$6,$7,$8,$9,$2,$3,0*
0 Add four circle primitives for the rounded corners*
1,1,$1+$1,$2,$3*
1,1,$1+$1,$4,$5*
1,1,$1+$1,$6,$7*
1,1,$1+$1,$8,$9*
0 Add four rect primitives between the rounded corners*
20,1,$1+$1,$2,$3,$4,$5,0*
20,1,$1+$1,$4,$5,$6,$7,0*
20,1,$1+$1,$6,$7,$8,$9,0*
20,1,$1+$1,$8,$9,$2,$3,0*%
G04 Aperture macros list end*
%ADD10C,0.375000*%
%ADD11C,0.150000*%
%ADD12C,0.000000*%
%ADD13C,0.120000*%
%ADD14C,2.600000*%
%ADD15R,2.600000X2.600000*%
%ADD16RoundRect,0.250000X0.620000X0.845000X-0.620000X0.845000X-0.620000X-0.845000X0.620000X-0.845000X0*%
%ADD17O,1.740000X2.190000*%
%ADD18C,0.700000*%
%ADD19C,4.400000*%
%ADD20R,1.500000X1.500000*%
%ADD21C,1.500000*%
%ADD22R,1.700000X1.700000*%
%ADD23O,1.700000X1.700000*%
%ADD24C,2.000000*%
%ADD25R,2.000000X2.000000*%
%ADD26R,1.905000X2.000000*%
%ADD27O,1.905000X2.000000*%
%ADD28RoundRect,0.102000X-0.654000X-0.654000X0.654000X-0.654000X0.654000X0.654000X-0.654000X0.654000X0*%
%ADD29C,1.512000*%
%ADD30R,2.600000X1.800000*%
%ADD31O,2.600000X1.800000*%
%ADD32RoundRect,0.250000X0.845000X-0.620000X0.845000X0.620000X-0.845000X0.620000X-0.845000X-0.620000X0*%
%ADD33O,2.190000X1.740000*%
%ADD34C,1.700000*%
%ADD35C,1.800000*%
%ADD36C,1.260000*%
%ADD37R,4.000000X4.000000*%
G04 APERTURE END LIST*
D10*
X211655571Y-62327141D02*
X212369857Y-62827141D01*
X211655571Y-63184284D02*
X213155571Y-63184284D01*
X213155571Y-63184284D02*
X213155571Y-62612855D01*
X213155571Y-62612855D02*
X213084142Y-62469998D01*
X213084142Y-62469998D02*
X213012714Y-62398569D01*
X213012714Y-62398569D02*
X212869857Y-62327141D01*
X212869857Y-62327141D02*
X212655571Y-62327141D01*
X212655571Y-62327141D02*
X212512714Y-62398569D01*
X212512714Y-62398569D02*
X212441285Y-62469998D01*
X212441285Y-62469998D02*
X212369857Y-62612855D01*
X212369857Y-62612855D02*
X212369857Y-63184284D01*
X211727000Y-61112855D02*
X211655571Y-61255712D01*
X211655571Y-61255712D02*
X211655571Y-61541427D01*
X211655571Y-61541427D02*
X211727000Y-61684284D01*
X211727000Y-61684284D02*
X211869857Y-61755712D01*
X211869857Y-61755712D02*
X212441285Y-61755712D01*
X212441285Y-61755712D02*
X212584142Y-61684284D01*
X212584142Y-61684284D02*
X212655571Y-61541427D01*
X212655571Y-61541427D02*
X212655571Y-61255712D01*
X212655571Y-61255712D02*
X212584142Y-61112855D01*
X212584142Y-61112855D02*
X212441285Y-61041427D01*
X212441285Y-61041427D02*
X212298428Y-61041427D01*
X212298428Y-61041427D02*
X212155571Y-61755712D01*
X212655571Y-60541427D02*
X211655571Y-60184284D01*
X211655571Y-60184284D02*
X212655571Y-59827141D01*
X211798428Y-59255713D02*
X211727000Y-59184284D01*
X211727000Y-59184284D02*
X211655571Y-59255713D01*
X211655571Y-59255713D02*
X211727000Y-59327141D01*
X211727000Y-59327141D02*
X211798428Y-59255713D01*
X211798428Y-59255713D02*
X211655571Y-59255713D01*
X213012714Y-57469998D02*
X213084142Y-57398570D01*
X213084142Y-57398570D02*
X213155571Y-57255713D01*
X213155571Y-57255713D02*
X213155571Y-56898570D01*
X213155571Y-56898570D02*
X213084142Y-56755713D01*
X213084142Y-56755713D02*
X213012714Y-56684284D01*
X213012714Y-56684284D02*
X212869857Y-56612855D01*
X212869857Y-56612855D02*
X212727000Y-56612855D01*
X212727000Y-56612855D02*
X212512714Y-56684284D01*
X212512714Y-56684284D02*
X211655571Y-57541427D01*
X211655571Y-57541427D02*
X211655571Y-56612855D01*
X211798428Y-55969999D02*
X211727000Y-55898570D01*
X211727000Y-55898570D02*
X211655571Y-55969999D01*
X211655571Y-55969999D02*
X211727000Y-56041427D01*
X211727000Y-56041427D02*
X211798428Y-55969999D01*
X211798428Y-55969999D02*
X211655571Y-55969999D01*
X213155571Y-54969998D02*
X213155571Y-54827141D01*
X213155571Y-54827141D02*
X213084142Y-54684284D01*
X213084142Y-54684284D02*
X213012714Y-54612856D01*
X213012714Y-54612856D02*
X212869857Y-54541427D01*
X212869857Y-54541427D02*
X212584142Y-54469998D01*
X212584142Y-54469998D02*
X212227000Y-54469998D01*
X212227000Y-54469998D02*
X211941285Y-54541427D01*
X211941285Y-54541427D02*
X211798428Y-54612856D01*
X211798428Y-54612856D02*
X211727000Y-54684284D01*
X211727000Y-54684284D02*
X211655571Y-54827141D01*
X211655571Y-54827141D02*
X211655571Y-54969998D01*
X211655571Y-54969998D02*
X211727000Y-55112856D01*
X211727000Y-55112856D02*
X211798428Y-55184284D01*
X211798428Y-55184284D02*
X211941285Y-55255713D01*
X211941285Y-55255713D02*
X212227000Y-55327141D01*
X212227000Y-55327141D02*
X212584142Y-55327141D01*
X212584142Y-55327141D02*
X212869857Y-55255713D01*
X212869857Y-55255713D02*
X213012714Y-55184284D01*
X213012714Y-55184284D02*
X213084142Y-55112856D01*
X213084142Y-55112856D02*
X213155571Y-54969998D01*
X212227000Y-52684285D02*
X212227000Y-51541428D01*
X213155571Y-49398570D02*
X213155571Y-49255713D01*
X213155571Y-49255713D02*
X213084142Y-49112856D01*
X213084142Y-49112856D02*
X213012714Y-49041428D01*
X213012714Y-49041428D02*
X212869857Y-48969999D01*
X212869857Y-48969999D02*
X212584142Y-48898570D01*
X212584142Y-48898570D02*
X212227000Y-48898570D01*
X212227000Y-48898570D02*
X211941285Y-48969999D01*
X211941285Y-48969999D02*
X211798428Y-49041428D01*
X211798428Y-49041428D02*
X211727000Y-49112856D01*
X211727000Y-49112856D02*
X211655571Y-49255713D01*
X211655571Y-49255713D02*
X211655571Y-49398570D01*
X211655571Y-49398570D02*
X211727000Y-49541428D01*
X211727000Y-49541428D02*
X211798428Y-49612856D01*
X211798428Y-49612856D02*
X211941285Y-49684285D01*
X211941285Y-49684285D02*
X212227000Y-49755713D01*
X212227000Y-49755713D02*
X212584142Y-49755713D01*
X212584142Y-49755713D02*
X212869857Y-49684285D01*
X212869857Y-49684285D02*
X213012714Y-49612856D01*
X213012714Y-49612856D02*
X213084142Y-49541428D01*
X213084142Y-49541428D02*
X213155571Y-49398570D01*
X212655571Y-47612857D02*
X211655571Y-47612857D01*
X213227000Y-47969999D02*
X212155571Y-48327142D01*
X212155571Y-48327142D02*
X212155571Y-47398571D01*
X213227000Y-45755714D02*
X211298428Y-47041428D01*
X213012714Y-45327142D02*
X213084142Y-45255714D01*
X213084142Y-45255714D02*
X213155571Y-45112857D01*
X213155571Y-45112857D02*
X213155571Y-44755714D01*
X213155571Y-44755714D02*
X213084142Y-44612857D01*
X213084142Y-44612857D02*
X213012714Y-44541428D01*
X213012714Y-44541428D02*
X212869857Y-44469999D01*
X212869857Y-44469999D02*
X212727000Y-44469999D01*
X212727000Y-44469999D02*
X212512714Y-44541428D01*
X212512714Y-44541428D02*
X211655571Y-45398571D01*
X211655571Y-45398571D02*
X211655571Y-44469999D01*
X213155571Y-43541428D02*
X213155571Y-43398571D01*
X213155571Y-43398571D02*
X213084142Y-43255714D01*
X213084142Y-43255714D02*
X213012714Y-43184286D01*
X213012714Y-43184286D02*
X212869857Y-43112857D01*
X212869857Y-43112857D02*
X212584142Y-43041428D01*
X212584142Y-43041428D02*
X212227000Y-43041428D01*
X212227000Y-43041428D02*
X211941285Y-43112857D01*
X211941285Y-43112857D02*
X211798428Y-43184286D01*
X211798428Y-43184286D02*
X211727000Y-43255714D01*
X211727000Y-43255714D02*
X211655571Y-43398571D01*
X211655571Y-43398571D02*
X211655571Y-43541428D01*
X211655571Y-43541428D02*
X211727000Y-43684286D01*
X211727000Y-43684286D02*
X211798428Y-43755714D01*
X211798428Y-43755714D02*
X211941285Y-43827143D01*
X211941285Y-43827143D02*
X212227000Y-43898571D01*
X212227000Y-43898571D02*
X212584142Y-43898571D01*
X212584142Y-43898571D02*
X212869857Y-43827143D01*
X212869857Y-43827143D02*
X213012714Y-43755714D01*
X213012714Y-43755714D02*
X213084142Y-43684286D01*
X213084142Y-43684286D02*
X213155571Y-43541428D01*
X213012714Y-42470000D02*
X213084142Y-42398572D01*
X213084142Y-42398572D02*
X213155571Y-42255715D01*
X213155571Y-42255715D02*
X213155571Y-41898572D01*
X213155571Y-41898572D02*
X213084142Y-41755715D01*
X213084142Y-41755715D02*
X213012714Y-41684286D01*
X213012714Y-41684286D02*
X212869857Y-41612857D01*
X212869857Y-41612857D02*
X212727000Y-41612857D01*
X212727000Y-41612857D02*
X212512714Y-41684286D01*
X212512714Y-41684286D02*
X211655571Y-42541429D01*
X211655571Y-42541429D02*
X211655571Y-41612857D01*
X212655571Y-40327144D02*
X211655571Y-40327144D01*
X213227000Y-40684286D02*
X212155571Y-41041429D01*
X212155571Y-41041429D02*
X212155571Y-40112858D01*
D11*
X205761904Y-89956819D02*
X205190476Y-89956819D01*
X205476190Y-90956819D02*
X205476190Y-89956819D01*
X204857142Y-90956819D02*
X204857142Y-89956819D01*
X204857142Y-89956819D02*
X204476190Y-89956819D01*
X204476190Y-89956819D02*
X204380952Y-90004438D01*
X204380952Y-90004438D02*
X204333333Y-90052057D01*
X204333333Y-90052057D02*
X204285714Y-90147295D01*
X204285714Y-90147295D02*
X204285714Y-90290152D01*
X204285714Y-90290152D02*
X204333333Y-90385390D01*
X204333333Y-90385390D02*
X204380952Y-90433009D01*
X204380952Y-90433009D02*
X204476190Y-90480628D01*
X204476190Y-90480628D02*
X204857142Y-90480628D01*
X203333333Y-90956819D02*
X203904761Y-90956819D01*
X203619047Y-90956819D02*
X203619047Y-89956819D01*
X203619047Y-89956819D02*
X203714285Y-90099676D01*
X203714285Y-90099676D02*
X203809523Y-90194914D01*
X203809523Y-90194914D02*
X203904761Y-90242533D01*
X199635904Y-101308819D02*
X199064476Y-101308819D01*
X199350190Y-102308819D02*
X199350190Y-101308819D01*
X198731142Y-102308819D02*
X198731142Y-101308819D01*
X198731142Y-101308819D02*
X198350190Y-101308819D01*
X198350190Y-101308819D02*
X198254952Y-101356438D01*
X198254952Y-101356438D02*
X198207333Y-101404057D01*
X198207333Y-101404057D02*
X198159714Y-101499295D01*
X198159714Y-101499295D02*
X198159714Y-101642152D01*
X198159714Y-101642152D02*
X198207333Y-101737390D01*
X198207333Y-101737390D02*
X198254952Y-101785009D01*
X198254952Y-101785009D02*
X198350190Y-101832628D01*
X198350190Y-101832628D02*
X198731142Y-101832628D01*
X197778761Y-101404057D02*
X197731142Y-101356438D01*
X197731142Y-101356438D02*
X197635904Y-101308819D01*
X197635904Y-101308819D02*
X197397809Y-101308819D01*
X197397809Y-101308819D02*
X197302571Y-101356438D01*
X197302571Y-101356438D02*
X197254952Y-101404057D01*
X197254952Y-101404057D02*
X197207333Y-101499295D01*
X197207333Y-101499295D02*
X197207333Y-101594533D01*
X197207333Y-101594533D02*
X197254952Y-101737390D01*
X197254952Y-101737390D02*
X197826380Y-102308819D01*
X197826380Y-102308819D02*
X197207333Y-102308819D01*
X210061904Y-102956819D02*
X209490476Y-102956819D01*
X209776190Y-103956819D02*
X209776190Y-102956819D01*
X209157142Y-103956819D02*
X209157142Y-102956819D01*
X209157142Y-102956819D02*
X208776190Y-102956819D01*
X208776190Y-102956819D02*
X208680952Y-103004438D01*
X208680952Y-103004438D02*
X208633333Y-103052057D01*
X208633333Y-103052057D02*
X208585714Y-103147295D01*
X208585714Y-103147295D02*
X208585714Y-103290152D01*
X208585714Y-103290152D02*
X208633333Y-103385390D01*
X208633333Y-103385390D02*
X208680952Y-103433009D01*
X208680952Y-103433009D02*
X208776190Y-103480628D01*
X208776190Y-103480628D02*
X209157142Y-103480628D01*
X208252380Y-102956819D02*
X207633333Y-102956819D01*
X207633333Y-102956819D02*
X207966666Y-103337771D01*
X207966666Y-103337771D02*
X207823809Y-103337771D01*
X207823809Y-103337771D02*
X207728571Y-103385390D01*
X207728571Y-103385390D02*
X207680952Y-103433009D01*
X207680952Y-103433009D02*
X207633333Y-103528247D01*
X207633333Y-103528247D02*
X207633333Y-103766342D01*
X207633333Y-103766342D02*
X207680952Y-103861580D01*
X207680952Y-103861580D02*
X207728571Y-103909200D01*
X207728571Y-103909200D02*
X207823809Y-103956819D01*
X207823809Y-103956819D02*
X208109523Y-103956819D01*
X208109523Y-103956819D02*
X208204761Y-103909200D01*
X208204761Y-103909200D02*
X208252380Y-103861580D01*
D12*
G36*
X192258536Y-34287715D02*
G01*
X192258536Y-34489250D01*
X192057000Y-34489250D01*
X191855464Y-34489250D01*
X191855464Y-34287715D01*
X191855464Y-34086179D01*
X192057000Y-34086179D01*
X192258536Y-34086179D01*
X192258536Y-34287715D01*
G37*
G36*
X192661607Y-33481572D02*
G01*
X192661607Y-33683108D01*
X192460071Y-33683108D01*
X192258536Y-33683108D01*
X192258536Y-33481572D01*
X192258536Y-33280036D01*
X192460071Y-33280036D01*
X192661607Y-33280036D01*
X192661607Y-33481572D01*
G37*
G36*
X193870821Y-31466215D02*
G01*
X193870821Y-32070822D01*
X193266214Y-32070822D01*
X192661607Y-32070822D01*
X192661607Y-31466215D01*
X192661607Y-30861608D01*
X193266214Y-30861608D01*
X193870821Y-30861608D01*
X193870821Y-31466215D01*
G37*
G36*
X194676964Y-39124572D02*
G01*
X194676964Y-39326107D01*
X194475428Y-39326107D01*
X194273893Y-39326107D01*
X194273893Y-39124572D01*
X194273893Y-38923036D01*
X194475428Y-38923036D01*
X194676964Y-38923036D01*
X194676964Y-39124572D01*
G37*
G36*
X195080036Y-34287715D02*
G01*
X195080036Y-34489250D01*
X194878500Y-34489250D01*
X194676964Y-34489250D01*
X194676964Y-34287715D01*
X194676964Y-34086179D01*
X194878500Y-34086179D01*
X195080036Y-34086179D01*
X195080036Y-34287715D01*
G37*
G36*
X195483107Y-32876965D02*
G01*
X195483107Y-33280036D01*
X195281571Y-33280036D01*
X195080036Y-33280036D01*
X195080036Y-32876965D01*
X195080036Y-32473893D01*
X195281571Y-32473893D01*
X195483107Y-32473893D01*
X195483107Y-32876965D01*
G37*
G36*
X195886178Y-32272358D02*
G01*
X195886178Y-32473893D01*
X195684643Y-32473893D01*
X195483107Y-32473893D01*
X195483107Y-32272358D01*
X195483107Y-32070822D01*
X195684643Y-32070822D01*
X195886178Y-32070822D01*
X195886178Y-32272358D01*
G37*
G36*
X195886178Y-33481572D02*
G01*
X195886178Y-33683108D01*
X195684643Y-33683108D01*
X195483107Y-33683108D01*
X195483107Y-33481572D01*
X195483107Y-33280036D01*
X195684643Y-33280036D01*
X195886178Y-33280036D01*
X195886178Y-33481572D01*
G37*
G36*
X196289250Y-32675429D02*
G01*
X196289250Y-32876965D01*
X196087714Y-32876965D01*
X195886178Y-32876965D01*
X195886178Y-32675429D01*
X195886178Y-32473893D01*
X196087714Y-32473893D01*
X196289250Y-32473893D01*
X196289250Y-32675429D01*
G37*
G36*
X196692321Y-35093857D02*
G01*
X196692321Y-35295393D01*
X196490785Y-35295393D01*
X196289250Y-35295393D01*
X196289250Y-35093857D01*
X196289250Y-34892322D01*
X196490785Y-34892322D01*
X196692321Y-34892322D01*
X196692321Y-35093857D01*
G37*
G36*
X197095393Y-41543000D02*
G01*
X197095393Y-41744536D01*
X196893857Y-41744536D01*
X196692321Y-41744536D01*
X196692321Y-41543000D01*
X196692321Y-41341464D01*
X196893857Y-41341464D01*
X197095393Y-41341464D01*
X197095393Y-41543000D01*
G37*
G36*
X197901535Y-36303072D02*
G01*
X197901535Y-36504607D01*
X197700000Y-36504607D01*
X197498464Y-36504607D01*
X197498464Y-36303072D01*
X197498464Y-36101536D01*
X197700000Y-36101536D01*
X197901535Y-36101536D01*
X197901535Y-36303072D01*
G37*
G36*
X198304607Y-41543000D02*
G01*
X198304607Y-41744536D01*
X197901535Y-41744536D01*
X197498464Y-41744536D01*
X197498464Y-41543000D01*
X197498464Y-41341464D01*
X197901535Y-41341464D01*
X198304607Y-41341464D01*
X198304607Y-41543000D01*
G37*
G36*
X198304607Y-39930714D02*
G01*
X198304607Y-40132250D01*
X198103071Y-40132250D01*
X197901535Y-40132250D01*
X197901535Y-39930714D01*
X197901535Y-39729179D01*
X198103071Y-39729179D01*
X198304607Y-39729179D01*
X198304607Y-39930714D01*
G37*
G36*
X199110750Y-34287715D02*
G01*
X199110750Y-34489250D01*
X198909214Y-34489250D01*
X198707678Y-34489250D01*
X198707678Y-34287715D01*
X198707678Y-34086179D01*
X198909214Y-34086179D01*
X199110750Y-34086179D01*
X199110750Y-34287715D01*
G37*
G36*
X200319964Y-36101536D02*
G01*
X200319964Y-36504607D01*
X200118428Y-36504607D01*
X199916892Y-36504607D01*
X199916892Y-36101536D01*
X199916892Y-35698465D01*
X200118428Y-35698465D01*
X200319964Y-35698465D01*
X200319964Y-36101536D01*
G37*
G36*
X201126107Y-36706143D02*
G01*
X201126107Y-36907679D01*
X200924571Y-36907679D01*
X200723035Y-36907679D01*
X200723035Y-36706143D01*
X200723035Y-36504607D01*
X200924571Y-36504607D01*
X201126107Y-36504607D01*
X201126107Y-36706143D01*
G37*
G36*
X201529178Y-38318429D02*
G01*
X201529178Y-38519964D01*
X201126107Y-38519964D01*
X200723035Y-38519964D01*
X200723035Y-38318429D01*
X200723035Y-38116893D01*
X201126107Y-38116893D01*
X201529178Y-38116893D01*
X201529178Y-38318429D01*
G37*
G36*
X202738392Y-31466215D02*
G01*
X202738392Y-32070822D01*
X202133785Y-32070822D01*
X201529178Y-32070822D01*
X201529178Y-31466215D01*
X201529178Y-30861608D01*
X202133785Y-30861608D01*
X202738392Y-30861608D01*
X202738392Y-31466215D01*
G37*
G36*
X202738392Y-40333786D02*
G01*
X202738392Y-40938393D01*
X202133785Y-40938393D01*
X201529178Y-40938393D01*
X201529178Y-40333786D01*
X201529178Y-39729179D01*
X202133785Y-39729179D01*
X202738392Y-39729179D01*
X202738392Y-40333786D01*
G37*
G36*
X198909214Y-36907679D02*
G01*
X199110750Y-36907679D01*
X199110750Y-37310750D01*
X199110750Y-37713822D01*
X198909214Y-37713822D01*
X198707678Y-37713822D01*
X198707678Y-37310750D01*
X198707678Y-36907679D01*
X198909214Y-36907679D01*
G37*
G36*
X198707678Y-36504607D02*
G01*
X198707678Y-36907679D01*
X198506143Y-36907679D01*
X198304607Y-36907679D01*
X198304607Y-36504607D01*
X198304607Y-36101536D01*
X198506143Y-36101536D01*
X198707678Y-36101536D01*
X198707678Y-36504607D01*
G37*
G36*
X194676964Y-31466215D02*
G01*
X194676964Y-32876965D01*
X193266214Y-32876965D01*
X191855464Y-32876965D01*
X191855464Y-32473893D01*
X192258536Y-32473893D01*
X193266214Y-32473893D01*
X194273893Y-32473893D01*
X194273893Y-31466215D01*
X194273893Y-30458536D01*
X193266214Y-30458536D01*
X192258536Y-30458536D01*
X192258536Y-31466215D01*
X192258536Y-32473893D01*
X191855464Y-32473893D01*
X191855464Y-31466215D01*
X191855464Y-30055465D01*
X193266214Y-30055465D01*
X194676964Y-30055465D01*
X194676964Y-30458536D01*
X194676964Y-31466215D01*
G37*
G36*
X203544535Y-31466215D02*
G01*
X203544535Y-32876965D01*
X202133785Y-32876965D01*
X200723035Y-32876965D01*
X200723035Y-32473893D01*
X201126107Y-32473893D01*
X202133785Y-32473893D01*
X203141464Y-32473893D01*
X203141464Y-31466215D01*
X203141464Y-30458536D01*
X202133785Y-30458536D01*
X201126107Y-30458536D01*
X201126107Y-31466215D01*
X201126107Y-32473893D01*
X200723035Y-32473893D01*
X200723035Y-31466215D01*
X200723035Y-30055465D01*
X202133785Y-30055465D01*
X203544535Y-30055465D01*
X203544535Y-30458536D01*
X203544535Y-31466215D01*
G37*
G36*
X203544535Y-40333786D02*
G01*
X203544535Y-41744536D01*
X202133785Y-41744536D01*
X200723035Y-41744536D01*
X200723035Y-41341464D01*
X201126107Y-41341464D01*
X202133785Y-41341464D01*
X203141464Y-41341464D01*
X203141464Y-40333786D01*
X203141464Y-39326107D01*
X202133785Y-39326107D01*
X201126107Y-39326107D01*
X201126107Y-40333786D01*
X201126107Y-41341464D01*
X200723035Y-41341464D01*
X200723035Y-40333786D01*
X200723035Y-38923036D01*
X202133785Y-38923036D01*
X203544535Y-38923036D01*
X203544535Y-39326107D01*
X203544535Y-40333786D01*
G37*
G36*
X193064679Y-35295393D02*
G01*
X193064679Y-35698465D01*
X192863143Y-35698465D01*
X192661607Y-35698465D01*
X192661607Y-35900000D01*
X192661607Y-36101536D01*
X192863143Y-36101536D01*
X193064679Y-36101536D01*
X193064679Y-36303072D01*
X193064679Y-36504607D01*
X192460071Y-36504607D01*
X191855464Y-36504607D01*
X191855464Y-36303072D01*
X191855464Y-36101536D01*
X192057000Y-36101536D01*
X192258536Y-36101536D01*
X192258536Y-35496929D01*
X192258536Y-34892322D01*
X192661607Y-34892322D01*
X193064679Y-34892322D01*
X193064679Y-35295393D01*
G37*
G36*
X194273893Y-33481572D02*
G01*
X194273893Y-33683108D01*
X194475428Y-33683108D01*
X194676964Y-33683108D01*
X194676964Y-33481572D01*
X194676964Y-33280036D01*
X194878500Y-33280036D01*
X195080036Y-33280036D01*
X195080036Y-33481572D01*
X195080036Y-33683108D01*
X194878500Y-33683108D01*
X194676964Y-33683108D01*
X194676964Y-33884643D01*
X194676964Y-34086179D01*
X194475428Y-34086179D01*
X194273893Y-34086179D01*
X194273893Y-33884643D01*
X194273893Y-33683108D01*
X193870821Y-33683108D01*
X193467750Y-33683108D01*
X193467750Y-33884643D01*
X193467750Y-34086179D01*
X193266214Y-34086179D01*
X193064679Y-34086179D01*
X193064679Y-33683108D01*
X193064679Y-33280036D01*
X193669286Y-33280036D01*
X194273893Y-33280036D01*
X194273893Y-33481572D01*
G37*
G36*
X202335321Y-33481572D02*
G01*
X202335321Y-33683108D01*
X202536857Y-33683108D01*
X202738392Y-33683108D01*
X202738392Y-33481572D01*
X202738392Y-33280036D01*
X202939928Y-33280036D01*
X203141464Y-33280036D01*
X203141464Y-33481572D01*
X203141464Y-33683108D01*
X202939928Y-33683108D01*
X202738392Y-33683108D01*
X202738392Y-33884643D01*
X202738392Y-34086179D01*
X202939928Y-34086179D01*
X203141464Y-34086179D01*
X203141464Y-33884643D01*
X203141464Y-33683108D01*
X203342999Y-33683108D01*
X203544535Y-33683108D01*
X203544535Y-33884643D01*
X203544535Y-34086179D01*
X203342999Y-34086179D01*
X203141464Y-34086179D01*
X203141464Y-34287715D01*
X203141464Y-34489250D01*
X203342999Y-34489250D01*
X203544535Y-34489250D01*
X203544535Y-34690786D01*
X203544535Y-34892322D01*
X203141464Y-34892322D01*
X202738392Y-34892322D01*
X202738392Y-34690786D01*
X202738392Y-34489250D01*
X202536857Y-34489250D01*
X202335321Y-34489250D01*
X202335321Y-34690786D01*
X202335321Y-34892322D01*
X202133785Y-34892322D01*
X201932250Y-34892322D01*
X201932250Y-34489250D01*
X201932250Y-34086179D01*
X201730714Y-34086179D01*
X201529178Y-34086179D01*
X201529178Y-33683108D01*
X201529178Y-33280036D01*
X201932250Y-33280036D01*
X202335321Y-33280036D01*
X202335321Y-33481572D01*
G37*
G36*
X196692321Y-33280036D02*
G01*
X196692321Y-33683108D01*
X196893857Y-33683108D01*
X197095393Y-33683108D01*
X197095393Y-34086179D01*
X197095393Y-34489250D01*
X197296928Y-34489250D01*
X197498464Y-34489250D01*
X197498464Y-34287715D01*
X197498464Y-34086179D01*
X197700000Y-34086179D01*
X197901535Y-34086179D01*
X197901535Y-34489250D01*
X197901535Y-34892322D01*
X198103071Y-34892322D01*
X198304607Y-34892322D01*
X198304607Y-34690786D01*
X198304607Y-34489250D01*
X198506143Y-34489250D01*
X198707678Y-34489250D01*
X198707678Y-34690786D01*
X198707678Y-34892322D01*
X198909214Y-34892322D01*
X199110750Y-34892322D01*
X199110750Y-35295393D01*
X199110750Y-35698465D01*
X199312285Y-35698465D01*
X199513821Y-35698465D01*
X199513821Y-35900000D01*
X199513821Y-36101536D01*
X199110750Y-36101536D01*
X198707678Y-36101536D01*
X198707678Y-35698465D01*
X198707678Y-35295393D01*
X198506143Y-35295393D01*
X198304607Y-35295393D01*
X198304607Y-35698465D01*
X198304607Y-36101536D01*
X198103071Y-36101536D01*
X197901535Y-36101536D01*
X197901535Y-35900000D01*
X197901535Y-35698465D01*
X197700000Y-35698465D01*
X197498464Y-35698465D01*
X197498464Y-35900000D01*
X197498464Y-36101536D01*
X197296928Y-36101536D01*
X197095393Y-36101536D01*
X197095393Y-36303072D01*
X197095393Y-36504607D01*
X196893857Y-36504607D01*
X196692321Y-36504607D01*
X196692321Y-35900000D01*
X196692321Y-35295393D01*
X196893857Y-35295393D01*
X197095393Y-35295393D01*
X197095393Y-35093857D01*
X197095393Y-34892322D01*
X196893857Y-34892322D01*
X196692321Y-34892322D01*
X196692321Y-34690786D01*
X196692321Y-34489250D01*
X196490785Y-34489250D01*
X196289250Y-34489250D01*
X196289250Y-34287715D01*
X196289250Y-34086179D01*
X196087714Y-34086179D01*
X195886178Y-34086179D01*
X195886178Y-33884643D01*
X195886178Y-33683108D01*
X196087714Y-33683108D01*
X196289250Y-33683108D01*
X196289250Y-33280036D01*
X196289250Y-32876965D01*
X196490785Y-32876965D01*
X196692321Y-32876965D01*
X196692321Y-33280036D01*
G37*
G36*
X200521500Y-33280036D02*
G01*
X201126107Y-33280036D01*
X201126107Y-33481572D01*
X201126107Y-33683108D01*
X200924571Y-33683108D01*
X200723035Y-33683108D01*
X200723035Y-33884643D01*
X200723035Y-34086179D01*
X200924571Y-34086179D01*
X201126107Y-34086179D01*
X201126107Y-34287715D01*
X201126107Y-34489250D01*
X200924571Y-34489250D01*
X200723035Y-34489250D01*
X200723035Y-34690786D01*
X200723035Y-34892322D01*
X200521500Y-34892322D01*
X200319964Y-34892322D01*
X200319964Y-35093857D01*
X200319964Y-35295393D01*
X199916892Y-35295393D01*
X199513821Y-35295393D01*
X199513821Y-34489250D01*
X199513821Y-33683108D01*
X199715357Y-33683108D01*
X199916892Y-33683108D01*
X199916892Y-34287715D01*
X199916892Y-34892322D01*
X200118428Y-34892322D01*
X200319964Y-34892322D01*
X200319964Y-34287715D01*
X200319964Y-33683108D01*
X200118428Y-33683108D01*
X199916892Y-33683108D01*
X199916892Y-33481572D01*
X199916892Y-33280036D01*
X200521500Y-33280036D01*
G37*
G36*
X200924571Y-34892322D02*
G01*
X201126107Y-34892322D01*
X201126107Y-35093857D01*
X201126107Y-35295393D01*
X200924571Y-35295393D01*
X200723035Y-35295393D01*
X200723035Y-35093857D01*
X200723035Y-34892322D01*
X200924571Y-34892322D01*
G37*
G36*
X198103071Y-33683108D02*
G01*
X198304607Y-33683108D01*
X198304607Y-33884643D01*
X198304607Y-34086179D01*
X198103071Y-34086179D01*
X197901535Y-34086179D01*
X197901535Y-33884643D01*
X197901535Y-33683108D01*
X198103071Y-33683108D01*
G37*
G36*
X199916892Y-33078500D02*
G01*
X199916892Y-33280036D01*
X199715357Y-33280036D01*
X199513821Y-33280036D01*
X199513821Y-33481572D01*
X199513821Y-33683108D01*
X199312285Y-33683108D01*
X199110750Y-33683108D01*
X199110750Y-33481572D01*
X199110750Y-33280036D01*
X199312285Y-33280036D01*
X199513821Y-33280036D01*
X199513821Y-33078500D01*
X199513821Y-32876965D01*
X199715357Y-32876965D01*
X199916892Y-32876965D01*
X199916892Y-33078500D01*
G37*
G36*
X200118428Y-31264679D02*
G01*
X200319964Y-31264679D01*
X200319964Y-31667750D01*
X200319964Y-32070822D01*
X200319964Y-32876965D01*
X200118428Y-32876965D01*
X199916892Y-32876965D01*
X199916892Y-32675429D01*
X199916892Y-32473893D01*
X199715357Y-32473893D01*
X199513821Y-32473893D01*
X199513821Y-32675429D01*
X199513821Y-32876965D01*
X199312285Y-32876965D01*
X199110750Y-32876965D01*
X199110750Y-32675429D01*
X199110750Y-32473893D01*
X198909214Y-32473893D01*
X198707678Y-32473893D01*
X198707678Y-32675429D01*
X198707678Y-32876965D01*
X198909214Y-32876965D01*
X199110750Y-32876965D01*
X199110750Y-33078500D01*
X199110750Y-33280036D01*
X198707678Y-33280036D01*
X198304607Y-33280036D01*
X198304607Y-32876965D01*
X198304607Y-32473893D01*
X198103071Y-32473893D01*
X197901535Y-32473893D01*
X197901535Y-33078500D01*
X197901535Y-33683108D01*
X197498464Y-33683108D01*
X197095393Y-33683108D01*
X197095393Y-33481572D01*
X197095393Y-33280036D01*
X197296928Y-33280036D01*
X197498464Y-33280036D01*
X197498464Y-32876965D01*
X197498464Y-32473893D01*
X197700000Y-32473893D01*
X197901535Y-32473893D01*
X197901535Y-32272358D01*
X197901535Y-32070822D01*
X198506143Y-32070822D01*
X199110750Y-32070822D01*
X199513821Y-32070822D01*
X199715357Y-32070822D01*
X199916892Y-32070822D01*
X199916892Y-31869286D01*
X199916892Y-31667750D01*
X199715357Y-31667750D01*
X199513821Y-31667750D01*
X199513821Y-31869286D01*
X199513821Y-32070822D01*
X199110750Y-32070822D01*
X199110750Y-31667750D01*
X199110750Y-31264679D01*
X198707678Y-31264679D01*
X198304607Y-31264679D01*
X198304607Y-31466215D01*
X198304607Y-31667750D01*
X197901535Y-31667750D01*
X197498464Y-31667750D01*
X197498464Y-32070822D01*
X197498464Y-32473893D01*
X197296928Y-32473893D01*
X197095393Y-32473893D01*
X197095393Y-32675429D01*
X197095393Y-32876965D01*
X196893857Y-32876965D01*
X196692321Y-32876965D01*
X196692321Y-32473893D01*
X196692321Y-32070822D01*
X196289250Y-32070822D01*
X195886178Y-32070822D01*
X195886178Y-31667750D01*
X195886178Y-31264679D01*
X196087714Y-31264679D01*
X196289250Y-31264679D01*
X196289250Y-31466215D01*
X196289250Y-31667750D01*
X196692321Y-31667750D01*
X197095393Y-31667750D01*
X197095393Y-31466215D01*
X197095393Y-31264679D01*
X196893857Y-31264679D01*
X196692321Y-31264679D01*
X196692321Y-31063143D01*
X196692321Y-30861608D01*
X197095393Y-30861608D01*
X197498464Y-30861608D01*
X197498464Y-31063143D01*
X197498464Y-31264679D01*
X197700000Y-31264679D01*
X197901535Y-31264679D01*
X197901535Y-31063143D01*
X197901535Y-30861608D01*
X198506143Y-30861608D01*
X199110750Y-30861608D01*
X199110750Y-30660072D01*
X199110750Y-30458536D01*
X198506143Y-30458536D01*
X197901535Y-30458536D01*
X197901535Y-30660072D01*
X197901535Y-30861608D01*
X197700000Y-30861608D01*
X197498464Y-30861608D01*
X197498464Y-30660072D01*
X197498464Y-30458536D01*
X197095393Y-30458536D01*
X196692321Y-30458536D01*
X196692321Y-30660072D01*
X196692321Y-30861608D01*
X196289250Y-30861608D01*
X195886178Y-30861608D01*
X195886178Y-31063143D01*
X195886178Y-31264679D01*
X195483107Y-31264679D01*
X195080036Y-31264679D01*
X195080036Y-30660072D01*
X195080036Y-30055465D01*
X196289250Y-30055465D01*
X197498464Y-30055465D01*
X197498464Y-30257001D01*
X197498464Y-30458536D01*
X197700000Y-30458536D01*
X197901535Y-30458536D01*
X197901535Y-30257001D01*
X197901535Y-30055465D01*
X198707678Y-30055465D01*
X199513821Y-30055465D01*
X199513821Y-30257001D01*
X199513821Y-30458536D01*
X199916892Y-30458536D01*
X200319964Y-30458536D01*
X200319964Y-30660072D01*
X200319964Y-30861608D01*
X200118428Y-30861608D01*
X199916892Y-30861608D01*
X199916892Y-31063143D01*
X199916892Y-31264679D01*
X200118428Y-31264679D01*
G37*
G36*
X196692321Y-38116893D02*
G01*
X196893857Y-38116893D01*
X197095393Y-38116893D01*
X197095393Y-37713822D01*
X197095393Y-37310750D01*
X197296928Y-37310750D01*
X197498464Y-37310750D01*
X197498464Y-37109215D01*
X197498464Y-36907679D01*
X197700000Y-36907679D01*
X197901535Y-36907679D01*
X197901535Y-37915357D01*
X197901535Y-38923036D01*
X198103071Y-38923036D01*
X198304607Y-38923036D01*
X198304607Y-38721500D01*
X198304607Y-38519964D01*
X198506143Y-38519964D01*
X198707678Y-38519964D01*
X198707678Y-38923036D01*
X198707678Y-39326107D01*
X198304607Y-39326107D01*
X197901535Y-39326107D01*
X197901535Y-39124572D01*
X197901535Y-38923036D01*
X197700000Y-38923036D01*
X197498464Y-38923036D01*
X197498464Y-38519964D01*
X197498464Y-38116893D01*
X197296928Y-38116893D01*
X197095393Y-38116893D01*
X197095393Y-38318429D01*
X197095393Y-38519964D01*
X196490785Y-38519964D01*
X195886178Y-38519964D01*
X195886178Y-39124572D01*
X195886178Y-39729179D01*
X195684643Y-39729179D01*
X195483107Y-39729179D01*
X195483107Y-40132250D01*
X195483107Y-40535321D01*
X195684643Y-40535321D01*
X195886178Y-40535321D01*
X195886178Y-40938393D01*
X195886178Y-41341464D01*
X196087714Y-41341464D01*
X196289250Y-41341464D01*
X196289250Y-41543000D01*
X196289250Y-41744536D01*
X195886178Y-41744536D01*
X195483107Y-41744536D01*
X195483107Y-41341464D01*
X195483107Y-40938393D01*
X195080036Y-40938393D01*
X194676964Y-40938393D01*
X194676964Y-41139929D01*
X194676964Y-41341464D01*
X194475428Y-41341464D01*
X194273893Y-41341464D01*
X194273893Y-41543000D01*
X194273893Y-41744536D01*
X194072357Y-41744536D01*
X193870821Y-41744536D01*
X193870821Y-41543000D01*
X193870821Y-41341464D01*
X193467750Y-41341464D01*
X193064679Y-41341464D01*
X193064679Y-41543000D01*
X193064679Y-41744536D01*
X192661607Y-41744536D01*
X192258536Y-41744536D01*
X192258536Y-41543000D01*
X192258536Y-41341464D01*
X192460071Y-41341464D01*
X192661607Y-41341464D01*
X192661607Y-41139929D01*
X192661607Y-40938393D01*
X192460071Y-40938393D01*
X192258536Y-40938393D01*
X192258536Y-40736857D01*
X192258536Y-40535321D01*
X192460071Y-40535321D01*
X192661607Y-40535321D01*
X192661607Y-40736857D01*
X192661607Y-40938393D01*
X193467750Y-40938393D01*
X194273893Y-40938393D01*
X194273893Y-40736857D01*
X194273893Y-40535321D01*
X194475428Y-40535321D01*
X194676964Y-40535321D01*
X194676964Y-40333786D01*
X194676964Y-40132250D01*
X194475428Y-40132250D01*
X194273893Y-40132250D01*
X194273893Y-40333786D01*
X194273893Y-40535321D01*
X194072357Y-40535321D01*
X193870821Y-40535321D01*
X193870821Y-40333786D01*
X193870821Y-40132250D01*
X193669286Y-40132250D01*
X193467750Y-40132250D01*
X193467750Y-39930714D01*
X193467750Y-39729179D01*
X193870821Y-39729179D01*
X194475428Y-39729179D01*
X195080036Y-39729179D01*
X195080036Y-39124572D01*
X195080036Y-38519964D01*
X194475428Y-38519964D01*
X193870821Y-38519964D01*
X193870821Y-39124572D01*
X193870821Y-39729179D01*
X193467750Y-39729179D01*
X193266214Y-39729179D01*
X193064679Y-39729179D01*
X193064679Y-39930714D01*
X193064679Y-40132250D01*
X192460071Y-40132250D01*
X191855464Y-40132250D01*
X191855464Y-39729179D01*
X192258536Y-39729179D01*
X192460071Y-39729179D01*
X192661607Y-39729179D01*
X192661607Y-39527643D01*
X192661607Y-39326107D01*
X193064679Y-39326107D01*
X193467750Y-39326107D01*
X193467750Y-38519964D01*
X193467750Y-37713822D01*
X193870821Y-37713822D01*
X194273893Y-37713822D01*
X194273893Y-37512286D01*
X194273893Y-37310750D01*
X194676964Y-37310750D01*
X194676964Y-37512286D01*
X194676964Y-37713822D01*
X194878500Y-37713822D01*
X195080036Y-37713822D01*
X195080036Y-37915357D01*
X195080036Y-38116893D01*
X195281571Y-38116893D01*
X195483107Y-38116893D01*
X195483107Y-37915357D01*
X195483107Y-37713822D01*
X195684643Y-37713822D01*
X195886178Y-37713822D01*
X195886178Y-37310750D01*
X195886178Y-36907679D01*
X195684643Y-36907679D01*
X195483107Y-36907679D01*
X195483107Y-37109215D01*
X195483107Y-37310750D01*
X195080036Y-37310750D01*
X194676964Y-37310750D01*
X194273893Y-37310750D01*
X193870821Y-37310750D01*
X193467750Y-37310750D01*
X193467750Y-37512286D01*
X193467750Y-37713822D01*
X193064679Y-37713822D01*
X192661607Y-37713822D01*
X192661607Y-37915357D01*
X192661607Y-38116893D01*
X192863143Y-38116893D01*
X193064679Y-38116893D01*
X193064679Y-38519964D01*
X193064679Y-38923036D01*
X192863143Y-38923036D01*
X192661607Y-38923036D01*
X192661607Y-38721500D01*
X192661607Y-38519964D01*
X192460071Y-38519964D01*
X192258536Y-38519964D01*
X192258536Y-38721500D01*
X192258536Y-38923036D01*
X192460071Y-38923036D01*
X192661607Y-38923036D01*
X192661607Y-39124572D01*
X192661607Y-39326107D01*
X192460071Y-39326107D01*
X192258536Y-39326107D01*
X192258536Y-39527643D01*
X192258536Y-39729179D01*
X191855464Y-39729179D01*
X191855464Y-38923036D01*
X191855464Y-37713822D01*
X192057000Y-37713822D01*
X192258536Y-37713822D01*
X192258536Y-37512286D01*
X192258536Y-37310750D01*
X192460071Y-37310750D01*
X192661607Y-37310750D01*
X192661607Y-37109215D01*
X192661607Y-36907679D01*
X192863143Y-36907679D01*
X193064679Y-36907679D01*
X193064679Y-37109215D01*
X193064679Y-37310750D01*
X193266214Y-37310750D01*
X193467750Y-37310750D01*
X193467750Y-36907679D01*
X193870821Y-36907679D01*
X194676964Y-36907679D01*
X195483107Y-36907679D01*
X195483107Y-36504607D01*
X195483107Y-36101536D01*
X195281571Y-36101536D01*
X195080036Y-36101536D01*
X195080036Y-36303072D01*
X195080036Y-36504607D01*
X194475428Y-36504607D01*
X193870821Y-36504607D01*
X193870821Y-36706143D01*
X193870821Y-36907679D01*
X193467750Y-36907679D01*
X193467750Y-36706143D01*
X193467750Y-36101536D01*
X193669286Y-36101536D01*
X193870821Y-36101536D01*
X193870821Y-35900000D01*
X193870821Y-35698465D01*
X194273893Y-35698465D01*
X194273893Y-35900000D01*
X194273893Y-36101536D01*
X194676964Y-36101536D01*
X195080036Y-36101536D01*
X195080036Y-35900000D01*
X195080036Y-35698465D01*
X194676964Y-35698465D01*
X194273893Y-35698465D01*
X193870821Y-35698465D01*
X193669286Y-35698465D01*
X193467750Y-35698465D01*
X193467750Y-35496929D01*
X193467750Y-35295393D01*
X193669286Y-35295393D01*
X193870821Y-35295393D01*
X193870821Y-35093857D01*
X193870821Y-34892322D01*
X194676964Y-34892322D01*
X195483107Y-34892322D01*
X195483107Y-35093857D01*
X195483107Y-35295393D01*
X195684643Y-35295393D01*
X195886178Y-35295393D01*
X195886178Y-35496929D01*
X195886178Y-35698465D01*
X196087714Y-35698465D01*
X196289250Y-35698465D01*
X196289250Y-35900000D01*
X196289250Y-36101536D01*
X196087714Y-36101536D01*
X195886178Y-36101536D01*
X195886178Y-36303072D01*
X195886178Y-36504607D01*
X196087714Y-36504607D01*
X196289250Y-36504607D01*
X196289250Y-36706143D01*
X196289250Y-36907679D01*
X196490785Y-36907679D01*
X196692321Y-36907679D01*
X196692321Y-37512286D01*
X196692321Y-37713822D01*
X196692321Y-38116893D01*
G37*
G36*
X198909214Y-41341464D02*
G01*
X199110750Y-41341464D01*
X199110750Y-41543000D01*
X199110750Y-41744536D01*
X198909214Y-41744536D01*
X198707678Y-41744536D01*
X198707678Y-41543000D01*
X198707678Y-41341464D01*
X198909214Y-41341464D01*
G37*
G36*
X198506143Y-40938393D02*
G01*
X198707678Y-40938393D01*
X198707678Y-41139929D01*
X198707678Y-41341464D01*
X198506143Y-41341464D01*
X198304607Y-41341464D01*
X198304607Y-41139929D01*
X198304607Y-40938393D01*
X198506143Y-40938393D01*
G37*
G36*
X200319964Y-38519964D02*
G01*
X200319964Y-39326107D01*
X200118428Y-39326107D01*
X199916892Y-39326107D01*
X199916892Y-39527643D01*
X199916892Y-39729179D01*
X200118428Y-39729179D01*
X200319964Y-39729179D01*
X200319964Y-40132250D01*
X200319964Y-40535321D01*
X200118428Y-40535321D01*
X199916892Y-40535321D01*
X199916892Y-40736857D01*
X199916892Y-40938393D01*
X200118428Y-40938393D01*
X200319964Y-40938393D01*
X200319964Y-41139929D01*
X200319964Y-41341464D01*
X199916892Y-41341464D01*
X199513821Y-41341464D01*
X199513821Y-40938393D01*
X199513821Y-40535321D01*
X199715357Y-40535321D01*
X199916892Y-40535321D01*
X199916892Y-40333786D01*
X199916892Y-40132250D01*
X199715357Y-40132250D01*
X199513821Y-40132250D01*
X199513821Y-40333786D01*
X199513821Y-40535321D01*
X198909214Y-40535321D01*
X198304607Y-40535321D01*
X198304607Y-40736857D01*
X198304607Y-40938393D01*
X198103071Y-40938393D01*
X197901535Y-40938393D01*
X197901535Y-40736857D01*
X197901535Y-40535321D01*
X197700000Y-40535321D01*
X197498464Y-40535321D01*
X197498464Y-40736857D01*
X197498464Y-40938393D01*
X197296928Y-40938393D01*
X197095393Y-40938393D01*
X197095393Y-40736857D01*
X197095393Y-40535321D01*
X196893857Y-40535321D01*
X196692321Y-40535321D01*
X196692321Y-40736857D01*
X196692321Y-40938393D01*
X196490785Y-40938393D01*
X196289250Y-40938393D01*
X196289250Y-40333786D01*
X196289250Y-39729179D01*
X196490785Y-39729179D01*
X196692321Y-39729179D01*
X196692321Y-39527643D01*
X196692321Y-39326107D01*
X196893857Y-39326107D01*
X197095393Y-39326107D01*
X197095393Y-39527643D01*
X197095393Y-39729179D01*
X197296928Y-39729179D01*
X197498464Y-39729179D01*
X197498464Y-39527643D01*
X197498464Y-39326107D01*
X197700000Y-39326107D01*
X197901535Y-39326107D01*
X197901535Y-39527643D01*
X197901535Y-39729179D01*
X197700000Y-39729179D01*
X197498464Y-39729179D01*
X197498464Y-39930714D01*
X197498464Y-40132250D01*
X197700000Y-40132250D01*
X197901535Y-40132250D01*
X197901535Y-40333786D01*
X197901535Y-40535321D01*
X198103071Y-40535321D01*
X198304607Y-40535321D01*
X198304607Y-40333786D01*
X198304607Y-40132250D01*
X198506143Y-40132250D01*
X198707678Y-40132250D01*
X198707678Y-39729179D01*
X198707678Y-39326107D01*
X198909214Y-39326107D01*
X199110750Y-39326107D01*
X199110750Y-39527643D01*
X199110750Y-39729179D01*
X199312285Y-39729179D01*
X199513821Y-39729179D01*
X199513821Y-39527643D01*
X199513821Y-39326107D01*
X199312285Y-39326107D01*
X199110750Y-39326107D01*
X199110750Y-38923036D01*
X199513821Y-38923036D01*
X199715357Y-38923036D01*
X199916892Y-38923036D01*
X199916892Y-38519964D01*
X199916892Y-38116893D01*
X199715357Y-38116893D01*
X199513821Y-38116893D01*
X199513821Y-38519964D01*
X199513821Y-38923036D01*
X199110750Y-38923036D01*
X199110750Y-38519964D01*
X198909214Y-38519964D01*
X198707678Y-38519964D01*
X198707678Y-38318429D01*
X198707678Y-38116893D01*
X198506143Y-38116893D01*
X198304607Y-38116893D01*
X198304607Y-37915357D01*
X198304607Y-37713822D01*
X198506143Y-37713822D01*
X198707678Y-37713822D01*
X198707678Y-37915357D01*
X198707678Y-38116893D01*
X199110750Y-38116893D01*
X199513821Y-38116893D01*
X199513821Y-37310750D01*
X199513821Y-36504607D01*
X199715357Y-36504607D01*
X199916892Y-36504607D01*
X199916892Y-36706143D01*
X199916892Y-36907679D01*
X200118428Y-36907679D01*
X200319964Y-36907679D01*
X200319964Y-37109215D01*
X200319964Y-37310750D01*
X200118428Y-37310750D01*
X199916892Y-37310750D01*
X199916892Y-37512286D01*
X199916892Y-37713822D01*
X200118428Y-37713822D01*
X200319964Y-37713822D01*
X200319964Y-37512286D01*
X200319964Y-37310750D01*
X200924571Y-37310750D01*
X201529178Y-37310750D01*
X201529178Y-36907679D01*
X201529178Y-36504607D01*
X201327642Y-36504607D01*
X201126107Y-36504607D01*
X201126107Y-36303072D01*
X201126107Y-36101536D01*
X200924571Y-36101536D01*
X200723035Y-36101536D01*
X200723035Y-35900000D01*
X200723035Y-35698465D01*
X201126107Y-35698465D01*
X201529178Y-35698465D01*
X201529178Y-35900000D01*
X201529178Y-36101536D01*
X201730714Y-36101536D01*
X201932250Y-36101536D01*
X201932250Y-35698465D01*
X201932250Y-35295393D01*
X202133785Y-35295393D01*
X202335321Y-35295393D01*
X202335321Y-35496929D01*
X202335321Y-35698465D01*
X202536857Y-35698465D01*
X202738392Y-35698465D01*
X202738392Y-35496929D01*
X202738392Y-35295393D01*
X203141464Y-35295393D01*
X203544535Y-35295393D01*
X203544535Y-35496929D01*
X203544535Y-35698465D01*
X203342999Y-35698465D01*
X203141464Y-35698465D01*
X203141464Y-35900000D01*
X203141464Y-36101536D01*
X203342999Y-36101536D01*
X203544535Y-36101536D01*
X203544535Y-36706143D01*
X203544535Y-37310750D01*
X203141464Y-37310750D01*
X202738392Y-37310750D01*
X202738392Y-36907679D01*
X202738392Y-36504607D01*
X202335321Y-36504607D01*
X201932250Y-36504607D01*
X201932250Y-36706143D01*
X201932250Y-36907679D01*
X202133785Y-36907679D01*
X202335321Y-36907679D01*
X202335321Y-37310750D01*
X202335321Y-37713822D01*
X202939928Y-37713822D01*
X203544535Y-37713822D01*
X203544535Y-37915357D01*
X203544535Y-38116893D01*
X202536857Y-38116893D01*
X201529178Y-38116893D01*
X201529178Y-37915357D01*
X201529178Y-37713822D01*
X200924571Y-37713822D01*
X200319964Y-37713822D01*
X200319964Y-38116893D01*
X200319964Y-38519964D01*
G37*
G36*
X201932250Y-35093857D02*
G01*
X201932250Y-35295393D01*
X201730714Y-35295393D01*
X201529178Y-35295393D01*
X201529178Y-35093857D01*
X201529178Y-34892322D01*
X201730714Y-34892322D01*
X201932250Y-34892322D01*
X201932250Y-35093857D01*
G37*
G36*
X193467750Y-34489250D02*
G01*
X193870821Y-34489250D01*
X193870821Y-34690786D01*
X193870821Y-34892322D01*
X193467750Y-34892322D01*
X193064679Y-34892322D01*
X193064679Y-34690786D01*
X193064679Y-34489250D01*
X193467750Y-34489250D01*
G37*
G36*
X193064679Y-34287715D02*
G01*
X193064679Y-34489250D01*
X192863143Y-34489250D01*
X192661607Y-34489250D01*
X192661607Y-34287715D01*
X192661607Y-34086179D01*
X192863143Y-34086179D01*
X193064679Y-34086179D01*
X193064679Y-34287715D01*
G37*
D13*
X202300000Y-91200000D02*
X206700000Y-91200000D01*
X202300000Y-95600000D02*
X202300000Y-91200000D01*
X206700000Y-91200000D02*
X206700000Y-95600000D01*
X206700000Y-95600000D02*
X202300000Y-95600000D01*
D12*
G36*
X125709990Y-66985606D02*
G01*
X125840325Y-67047655D01*
X125881695Y-67077776D01*
X125926618Y-67103237D01*
X125948811Y-67093279D01*
X125963755Y-67047938D01*
X125977405Y-67016001D01*
X126015358Y-66995878D01*
X126092275Y-66996432D01*
X126204901Y-67005701D01*
X126205976Y-67675284D01*
X126207052Y-68344867D01*
X126088248Y-68344864D01*
X125969444Y-68344860D01*
X125967305Y-67881306D01*
X125964984Y-67706514D01*
X125957682Y-67531563D01*
X125945436Y-67412860D01*
X125928145Y-67349038D01*
X125910367Y-67321679D01*
X125824709Y-67252519D01*
X125711173Y-67219775D01*
X125588053Y-67229859D01*
X125566193Y-67235678D01*
X125501852Y-67249687D01*
X125473694Y-67250515D01*
X125469368Y-67244519D01*
X125436533Y-67205829D01*
X125383198Y-67145927D01*
X125297299Y-67050990D01*
X125411577Y-67003242D01*
X125413760Y-67002337D01*
X125561027Y-66969799D01*
X125709990Y-66985606D01*
G37*
G36*
X131381980Y-66993215D02*
G01*
X131497913Y-67051342D01*
X131518730Y-67067437D01*
X131573878Y-67102518D01*
X131599460Y-67096702D01*
X131605713Y-67049849D01*
X131612378Y-67015873D01*
X131646419Y-66995921D01*
X131723441Y-66990985D01*
X131841170Y-66990985D01*
X131841170Y-67667926D01*
X131841170Y-68344867D01*
X131723441Y-68344867D01*
X131605713Y-68344867D01*
X131605713Y-67890052D01*
X131605117Y-67756837D01*
X131600780Y-67589080D01*
X131590370Y-67465854D01*
X131571705Y-67378414D01*
X131542603Y-67318018D01*
X131500882Y-67275921D01*
X131444360Y-67243380D01*
X131415950Y-67230658D01*
X131350210Y-67212385D01*
X131278580Y-67216235D01*
X131176683Y-67242092D01*
X131145860Y-67245781D01*
X131095806Y-67222307D01*
X131034875Y-67154298D01*
X130954195Y-67048521D01*
X131064402Y-67002473D01*
X131103123Y-66988880D01*
X131242221Y-66971474D01*
X131381980Y-66993215D01*
G37*
G36*
X125386933Y-64790445D02*
G01*
X125480155Y-64835075D01*
X125519038Y-64862613D01*
X125583259Y-64895824D01*
X125619347Y-64886868D01*
X125636284Y-64835787D01*
X125645506Y-64799536D01*
X125670084Y-64779790D01*
X125724170Y-64774821D01*
X125822283Y-64780299D01*
X125822659Y-64780330D01*
X125836902Y-64788715D01*
X125847751Y-64815438D01*
X125855645Y-64867254D01*
X125861021Y-64950916D01*
X125864319Y-65073177D01*
X125865976Y-65240790D01*
X125866431Y-65460510D01*
X125866431Y-66137451D01*
X125748702Y-66137451D01*
X125630973Y-66137451D01*
X125630973Y-65709738D01*
X125630938Y-65684561D01*
X125626095Y-65463248D01*
X125610991Y-65294054D01*
X125582635Y-65171221D01*
X125538036Y-65088993D01*
X125474200Y-65041613D01*
X125388135Y-65023323D01*
X125276851Y-65028367D01*
X125244941Y-65031866D01*
X125167334Y-65032839D01*
X125112837Y-65011000D01*
X125054899Y-64957922D01*
X125034213Y-64936104D01*
X124995647Y-64888006D01*
X124993321Y-64855686D01*
X125022766Y-64819950D01*
X125060336Y-64794547D01*
X125155998Y-64769485D01*
X125271873Y-64768350D01*
X125386933Y-64790445D01*
G37*
G36*
X124595117Y-64809699D02*
G01*
X124743111Y-64910060D01*
X124819058Y-64999130D01*
X124894960Y-65151480D01*
X124935133Y-65324195D01*
X124940652Y-65505369D01*
X124912594Y-65683096D01*
X124852033Y-65845472D01*
X124760046Y-65980590D01*
X124637708Y-66076545D01*
X124520976Y-66116559D01*
X124371176Y-66135161D01*
X124219347Y-66129008D01*
X124092195Y-66097095D01*
X124007716Y-66048769D01*
X123931304Y-65984871D01*
X123865122Y-65913002D01*
X123952403Y-65848473D01*
X124039684Y-65783943D01*
X124136313Y-65842858D01*
X124255079Y-65890434D01*
X124397795Y-65894349D01*
X124532745Y-65844593D01*
X124581050Y-65811337D01*
X124650412Y-65734700D01*
X124689961Y-65631649D01*
X124707139Y-65486922D01*
X124702674Y-65369910D01*
X124668361Y-65230603D01*
X124607157Y-65120224D01*
X124524927Y-65052749D01*
X124467616Y-65032901D01*
X124340744Y-65018629D01*
X124215566Y-65035436D01*
X124117252Y-65081547D01*
X124037770Y-65144067D01*
X123952452Y-65062327D01*
X123934178Y-65043833D01*
X123892070Y-64989363D01*
X123882919Y-64955045D01*
X123905113Y-64935134D01*
X123966856Y-64893009D01*
X124051108Y-64842096D01*
X124078995Y-64826952D01*
X124253085Y-64767165D01*
X124428451Y-64761741D01*
X124595117Y-64809699D01*
G37*
G36*
X135984556Y-65567578D02*
G01*
X135946801Y-65748548D01*
X135878989Y-65905307D01*
X135784510Y-66027458D01*
X135666753Y-66104603D01*
X135657746Y-66107938D01*
X135556956Y-66128099D01*
X135429689Y-66134564D01*
X135303444Y-66127246D01*
X135205717Y-66106058D01*
X135132563Y-66068520D01*
X135053843Y-66010403D01*
X134990420Y-65943272D01*
X134940985Y-65863236D01*
X134910444Y-65765057D01*
X134894792Y-65635294D01*
X134890669Y-65484074D01*
X135110982Y-65484074D01*
X135132632Y-65651160D01*
X135189751Y-65776257D01*
X135280959Y-65855890D01*
X135398463Y-65896570D01*
X135522030Y-65892413D01*
X135625613Y-65837814D01*
X135701502Y-65737140D01*
X135741986Y-65594759D01*
X135743834Y-65579148D01*
X135748112Y-65392566D01*
X135718032Y-65237614D01*
X135656456Y-65119942D01*
X135566247Y-65045197D01*
X135450265Y-65019027D01*
X135380243Y-65023113D01*
X135262942Y-65059326D01*
X135181297Y-65136337D01*
X135131941Y-65258225D01*
X135111506Y-65429065D01*
X135110982Y-65484074D01*
X134890669Y-65484074D01*
X134890027Y-65460510D01*
X134890044Y-65432669D01*
X134898772Y-65243495D01*
X134926133Y-65099479D01*
X134976891Y-64989804D01*
X135055810Y-64903652D01*
X135167656Y-64830206D01*
X135170339Y-64828754D01*
X135338085Y-64767897D01*
X135503248Y-64761426D01*
X135657038Y-64805272D01*
X135790663Y-64895365D01*
X135895332Y-65027636D01*
X135962255Y-65198017D01*
X135988866Y-65372794D01*
X135988429Y-65392566D01*
X135984556Y-65567578D01*
G37*
G36*
X126300556Y-64773743D02*
G01*
X126345530Y-64776163D01*
X126410927Y-64780299D01*
X126424142Y-64785698D01*
X126437249Y-64810061D01*
X126446156Y-64861371D01*
X126451604Y-64947605D01*
X126454331Y-65076739D01*
X126455075Y-65256748D01*
X126455075Y-65729928D01*
X126541108Y-65815960D01*
X126597034Y-65860434D01*
X126709999Y-65900930D01*
X126826000Y-65891849D01*
X126930970Y-65835626D01*
X127010843Y-65734693D01*
X127011660Y-65732996D01*
X127024875Y-65673146D01*
X127034984Y-65563296D01*
X127041445Y-65411795D01*
X127043719Y-65226987D01*
X127043763Y-65197668D01*
X127046221Y-65024459D01*
X127052181Y-64893474D01*
X127061280Y-64810244D01*
X127073152Y-64780299D01*
X127097871Y-64778560D01*
X127161448Y-64777028D01*
X127197280Y-64777532D01*
X127249745Y-64780299D01*
X127260014Y-64805550D01*
X127268580Y-64879121D01*
X127274619Y-64989846D01*
X127278148Y-65126511D01*
X127279190Y-65277902D01*
X127277763Y-65432806D01*
X127273889Y-65580010D01*
X127267588Y-65708301D01*
X127258879Y-65806464D01*
X127247784Y-65863287D01*
X127200318Y-65952266D01*
X127118447Y-66048316D01*
X127029003Y-66110961D01*
X127002970Y-66120057D01*
X126894670Y-66132977D01*
X126766252Y-66124105D01*
X126642652Y-66096451D01*
X126548805Y-66053023D01*
X126455075Y-65986281D01*
X126455075Y-66061866D01*
X126455003Y-66070674D01*
X126446671Y-66114838D01*
X126412800Y-66133564D01*
X126336804Y-66137451D01*
X126218533Y-66137451D01*
X126226433Y-65453954D01*
X126234334Y-64770457D01*
X126300556Y-64773743D01*
G37*
G36*
X131408749Y-64775265D02*
G01*
X131496649Y-64825019D01*
X131561960Y-64867317D01*
X131624281Y-64896168D01*
X131655831Y-64887598D01*
X131664577Y-64842433D01*
X131664642Y-64835176D01*
X131672850Y-64796708D01*
X131706524Y-64780407D01*
X131782306Y-64777028D01*
X131818138Y-64777532D01*
X131870602Y-64780299D01*
X131870765Y-64780323D01*
X131880941Y-64811292D01*
X131889091Y-64897922D01*
X131895081Y-65037087D01*
X131898774Y-65225659D01*
X131900035Y-65460510D01*
X131900035Y-66137451D01*
X131782306Y-66137451D01*
X131664577Y-66137451D01*
X131664577Y-65694506D01*
X131664573Y-65685737D01*
X131661060Y-65468793D01*
X131648820Y-65303544D01*
X131624712Y-65183313D01*
X131585595Y-65101422D01*
X131528326Y-65051196D01*
X131449765Y-65025956D01*
X131346771Y-65019027D01*
X131286733Y-65024940D01*
X131177624Y-65073245D01*
X131102640Y-65161827D01*
X131072390Y-65280572D01*
X131070822Y-65334936D01*
X131068134Y-65442550D01*
X131065014Y-65578377D01*
X131061863Y-65725400D01*
X131059081Y-65849154D01*
X131055869Y-65969576D01*
X131052939Y-66057865D01*
X131050690Y-66100660D01*
X131050383Y-66102474D01*
X131017918Y-66127625D01*
X130946637Y-66137451D01*
X130937848Y-66137310D01*
X130869116Y-66125550D01*
X130833970Y-66100660D01*
X130826442Y-66047771D01*
X130822448Y-65947934D01*
X130821861Y-65814837D01*
X130824278Y-65661389D01*
X130829292Y-65500502D01*
X130836499Y-65345086D01*
X130845494Y-65208053D01*
X130855871Y-65102312D01*
X130867226Y-65040776D01*
X130885863Y-64995711D01*
X130972304Y-64881906D01*
X131096791Y-64800739D01*
X131246409Y-64761715D01*
X131324357Y-64758412D01*
X131408749Y-64775265D01*
G37*
G36*
X128657760Y-65565013D02*
G01*
X128650097Y-65686315D01*
X128636723Y-65770796D01*
X128604967Y-65848454D01*
X128533032Y-65956948D01*
X128443524Y-66050985D01*
X128353887Y-66109662D01*
X128325285Y-66119287D01*
X128206691Y-66136691D01*
X128069154Y-66133870D01*
X127937959Y-66112551D01*
X127838389Y-66074461D01*
X127752241Y-66012866D01*
X127669796Y-65919742D01*
X127615863Y-65801589D01*
X127585993Y-65647789D01*
X127577180Y-65475856D01*
X127809783Y-65475856D01*
X127813676Y-65619098D01*
X127834177Y-65721328D01*
X127873946Y-65792964D01*
X127935641Y-65844422D01*
X127943304Y-65848974D01*
X128069234Y-65894081D01*
X128194579Y-65890909D01*
X128304951Y-65842424D01*
X128385961Y-65751592D01*
X128397251Y-65725048D01*
X128417103Y-65627617D01*
X128425440Y-65501959D01*
X128422385Y-65369071D01*
X128408058Y-65249952D01*
X128382581Y-65165598D01*
X128320607Y-65080547D01*
X128232959Y-65033118D01*
X128106855Y-65019027D01*
X128012138Y-65031189D01*
X127907416Y-65089059D01*
X127865690Y-65130650D01*
X127838410Y-65180743D01*
X127823217Y-65254082D01*
X127814167Y-65368477D01*
X127809783Y-65475856D01*
X127577180Y-65475856D01*
X127575738Y-65447728D01*
X127576351Y-65341431D01*
X127584300Y-65226096D01*
X127603191Y-65137194D01*
X127635929Y-65055809D01*
X127637563Y-65052466D01*
X127733068Y-64918376D01*
X127860062Y-64824733D01*
X128007021Y-64772338D01*
X128162423Y-64761992D01*
X128314748Y-64794496D01*
X128452472Y-64870652D01*
X128564075Y-64991261D01*
X128577960Y-65012777D01*
X128613595Y-65079383D01*
X128635839Y-65151404D01*
X128648922Y-65246653D01*
X128657074Y-65382947D01*
X128658565Y-65428755D01*
X128658133Y-65501959D01*
X128657760Y-65565013D01*
G37*
G36*
X130896628Y-67778873D02*
G01*
X130881672Y-67961512D01*
X130846491Y-68100077D01*
X130787447Y-68202589D01*
X130700903Y-68277066D01*
X130583222Y-68331530D01*
X130549606Y-68342208D01*
X130449312Y-68356107D01*
X130344905Y-68336891D01*
X130216213Y-68281826D01*
X130142453Y-68246074D01*
X130096484Y-68231333D01*
X130078392Y-68244514D01*
X130075237Y-68286002D01*
X130068572Y-68319979D01*
X130034531Y-68339930D01*
X129957509Y-68344867D01*
X129839780Y-68344867D01*
X129839780Y-67673779D01*
X130075237Y-67673779D01*
X130075561Y-67703816D01*
X130094706Y-67878966D01*
X130143201Y-68004320D01*
X130220768Y-68079104D01*
X130243272Y-68089620D01*
X130355268Y-68110676D01*
X130469427Y-68092841D01*
X130560256Y-68039117D01*
X130595491Y-67996126D01*
X130640722Y-67892641D01*
X130661131Y-67751273D01*
X130658469Y-67563528D01*
X130639010Y-67429412D01*
X130588263Y-67312690D01*
X130505822Y-67243026D01*
X130389687Y-67217850D01*
X130272384Y-67228463D01*
X130180978Y-67274219D01*
X130119943Y-67360369D01*
X130085841Y-67491895D01*
X130075237Y-67673779D01*
X129839780Y-67673779D01*
X129839780Y-67371827D01*
X129839780Y-66398787D01*
X129950151Y-66407922D01*
X130060521Y-66417057D01*
X130068813Y-66762885D01*
X130072771Y-66895582D01*
X130077587Y-67006326D01*
X130082594Y-67081201D01*
X130087181Y-67108714D01*
X130102346Y-67102452D01*
X130156955Y-67074390D01*
X130235540Y-67031425D01*
X130327576Y-66986204D01*
X130410195Y-66966946D01*
X130504360Y-66972028D01*
X130613456Y-66995301D01*
X130722634Y-67048029D01*
X130801901Y-67132469D01*
X130854964Y-67254919D01*
X130885536Y-67421676D01*
X130897325Y-67639037D01*
X130896766Y-67751273D01*
X130896628Y-67778873D01*
G37*
G36*
X123728861Y-65416238D02*
G01*
X123725148Y-65601175D01*
X123693787Y-65772801D01*
X123645789Y-65875956D01*
X123567628Y-65979702D01*
X123476125Y-66064642D01*
X123387798Y-66112443D01*
X123379283Y-66114797D01*
X123209721Y-66138295D01*
X123031934Y-66125814D01*
X122866255Y-66080655D01*
X122733018Y-66006120D01*
X122719653Y-65995303D01*
X122693679Y-65965790D01*
X122703538Y-65934954D01*
X122752355Y-65882876D01*
X122829437Y-65805794D01*
X122965588Y-65871704D01*
X123005632Y-65889992D01*
X123110067Y-65921230D01*
X123205085Y-65918225D01*
X123255426Y-65904180D01*
X123366525Y-65841186D01*
X123454240Y-65749158D01*
X123500890Y-65644461D01*
X123519212Y-65548806D01*
X123074050Y-65548806D01*
X122628887Y-65548806D01*
X122628887Y-65405346D01*
X122630427Y-65358810D01*
X122635466Y-65328065D01*
X122879061Y-65328065D01*
X123195458Y-65336419D01*
X123235731Y-65337449D01*
X123362456Y-65339552D01*
X123443185Y-65337312D01*
X123488165Y-65329202D01*
X123507639Y-65313695D01*
X123511854Y-65289265D01*
X123496549Y-65223110D01*
X123442687Y-65132928D01*
X123365960Y-65054443D01*
X123283221Y-65008359D01*
X123242488Y-64999380D01*
X123116728Y-65004350D01*
X123006757Y-65053980D01*
X122925753Y-65140086D01*
X122886894Y-65254484D01*
X122879061Y-65328065D01*
X122635466Y-65328065D01*
X122656936Y-65197072D01*
X122710710Y-65048412D01*
X122784401Y-64935043D01*
X122808981Y-64910917D01*
X122923764Y-64832886D01*
X123059522Y-64776881D01*
X123188100Y-64755429D01*
X123249284Y-64761228D01*
X123372766Y-64796180D01*
X123490909Y-64852983D01*
X123576954Y-64920292D01*
X123596461Y-64944623D01*
X123662283Y-65071657D01*
X123707161Y-65234297D01*
X123713717Y-65289265D01*
X123728861Y-65416238D01*
G37*
G36*
X129566821Y-64769950D02*
G01*
X129710639Y-64826181D01*
X129825063Y-64916319D01*
X129900544Y-65032332D01*
X129927532Y-65166188D01*
X129920671Y-65247335D01*
X129872517Y-65372647D01*
X129777027Y-65466511D01*
X129632667Y-65530177D01*
X129437902Y-65564895D01*
X129422235Y-65566443D01*
X129266028Y-65593669D01*
X129161704Y-65636448D01*
X129110839Y-65693117D01*
X129115010Y-65762012D01*
X129175792Y-65841472D01*
X129180227Y-65845518D01*
X129282085Y-65899426D01*
X129414395Y-65916195D01*
X129562797Y-65895901D01*
X129712931Y-65838620D01*
X129863659Y-65760531D01*
X129943828Y-65844209D01*
X130023996Y-65927887D01*
X129883917Y-66016723D01*
X129830792Y-66046683D01*
X129714074Y-66096230D01*
X129607858Y-66123819D01*
X129567191Y-66129426D01*
X129487833Y-66141286D01*
X129443318Y-66149285D01*
X129402825Y-66151544D01*
X129313729Y-66140002D01*
X129209043Y-66115998D01*
X129111819Y-66085109D01*
X129045110Y-66052915D01*
X128947315Y-65950963D01*
X128890451Y-65820618D01*
X128883351Y-65681251D01*
X128910822Y-65567616D01*
X128966517Y-65471302D01*
X129056093Y-65403221D01*
X129187544Y-65357566D01*
X129368864Y-65328529D01*
X129490946Y-65310084D01*
X129606109Y-65273499D01*
X129671772Y-65220766D01*
X129692619Y-65149291D01*
X129690818Y-65124929D01*
X129662978Y-65073502D01*
X129590551Y-65032241D01*
X129547202Y-65015632D01*
X129440292Y-64992963D01*
X129329448Y-65002716D01*
X129192579Y-65045634D01*
X129045095Y-65101673D01*
X128982994Y-65014460D01*
X128972330Y-64999416D01*
X128940192Y-64947223D01*
X128941703Y-64916826D01*
X128975643Y-64887051D01*
X129065588Y-64839556D01*
X129189444Y-64796876D01*
X129322082Y-64766234D01*
X129438467Y-64754783D01*
X129566821Y-64769950D01*
G37*
G36*
X125248354Y-67667234D02*
G01*
X125235429Y-67854865D01*
X125185269Y-68038139D01*
X125095763Y-68179588D01*
X124965272Y-68281654D01*
X124792155Y-68346778D01*
X124721820Y-68362585D01*
X124672410Y-68371286D01*
X124627627Y-68367529D01*
X124536853Y-68344283D01*
X124431594Y-68307289D01*
X124333557Y-68264411D01*
X124264450Y-68223511D01*
X124184849Y-68160897D01*
X124263620Y-68078678D01*
X124342391Y-67996459D01*
X124434828Y-68052824D01*
X124528530Y-68091162D01*
X124683443Y-68109299D01*
X124725267Y-68108856D01*
X124808085Y-68099839D01*
X124866715Y-68071670D01*
X124926259Y-68014553D01*
X124927754Y-68012908D01*
X124989632Y-67922402D01*
X125012897Y-67837960D01*
X125012897Y-67756222D01*
X124586130Y-67756222D01*
X124159363Y-67756222D01*
X124160009Y-67572271D01*
X124161183Y-67529480D01*
X124167408Y-67488516D01*
X124394820Y-67488516D01*
X124395062Y-67498924D01*
X124401762Y-67522941D01*
X124425548Y-67537992D01*
X124476863Y-67546162D01*
X124566152Y-67549536D01*
X124703859Y-67550197D01*
X124735196Y-67550177D01*
X124862854Y-67548993D01*
X124944071Y-67544586D01*
X124989229Y-67535025D01*
X125008710Y-67518379D01*
X125012897Y-67492717D01*
X125012640Y-67480776D01*
X124981764Y-67366306D01*
X124908442Y-67276317D01*
X124805588Y-67218381D01*
X124686118Y-67200069D01*
X124562947Y-67228950D01*
X124551124Y-67234982D01*
X124475978Y-67301454D01*
X124418032Y-67394988D01*
X124394820Y-67488516D01*
X124167408Y-67488516D01*
X124187390Y-67357032D01*
X124243957Y-67209621D01*
X124325518Y-67102478D01*
X124419868Y-67036899D01*
X124576407Y-66979638D01*
X124742417Y-66967342D01*
X124898932Y-67003290D01*
X124929884Y-67017482D01*
X125066937Y-67117504D01*
X125166712Y-67261060D01*
X125227691Y-67445265D01*
X125232108Y-67492717D01*
X125248354Y-67667234D01*
G37*
G36*
X133268633Y-65460510D02*
G01*
X133268333Y-65525718D01*
X133264199Y-65644992D01*
X133252707Y-65730441D01*
X133230708Y-65799587D01*
X133195052Y-65869953D01*
X133176850Y-65900837D01*
X133083052Y-66020396D01*
X132970951Y-66094167D01*
X132825270Y-66133016D01*
X132640488Y-66140731D01*
X132464192Y-66106252D01*
X132319335Y-66030738D01*
X132217899Y-65953369D01*
X132294427Y-65876841D01*
X132311762Y-65859626D01*
X132358974Y-65821423D01*
X132401143Y-65819978D01*
X132466607Y-65851046D01*
X132598791Y-65906340D01*
X132730263Y-65920999D01*
X132854471Y-65886306D01*
X132948925Y-65819639D01*
X133020960Y-65719527D01*
X133047891Y-65609132D01*
X133047594Y-65598682D01*
X133041446Y-65578349D01*
X133020523Y-65564454D01*
X132976007Y-65555775D01*
X132899080Y-65551089D01*
X132780924Y-65549173D01*
X132612723Y-65548806D01*
X132177555Y-65548806D01*
X132187661Y-65364855D01*
X132188827Y-65346283D01*
X132200324Y-65281100D01*
X132429814Y-65281100D01*
X132430056Y-65291508D01*
X132436756Y-65315525D01*
X132460542Y-65330576D01*
X132511858Y-65338746D01*
X132601147Y-65342120D01*
X132738853Y-65342781D01*
X132825480Y-65342689D01*
X132933515Y-65341090D01*
X132999286Y-65335589D01*
X133033281Y-65323763D01*
X133045986Y-65303193D01*
X133047891Y-65271459D01*
X133033263Y-65207862D01*
X132978356Y-65120139D01*
X132898773Y-65045739D01*
X132811740Y-65004158D01*
X132748329Y-64997269D01*
X132629636Y-65019814D01*
X132527805Y-65081292D01*
X132456607Y-65171716D01*
X132429814Y-65281100D01*
X132200324Y-65281100D01*
X132224669Y-65143079D01*
X132299467Y-64981982D01*
X132411595Y-64864744D01*
X132559424Y-64793118D01*
X132741329Y-64768853D01*
X132807763Y-64769880D01*
X132896369Y-64780013D01*
X132964788Y-64807220D01*
X133037801Y-64859040D01*
X133097879Y-64911176D01*
X133180318Y-65009945D01*
X133232819Y-65125467D01*
X133260539Y-65271177D01*
X133260551Y-65271459D01*
X133268633Y-65460510D01*
G37*
G36*
X133275097Y-68001391D02*
G01*
X133225952Y-68135963D01*
X133188308Y-68194445D01*
X133074994Y-68290804D01*
X132915446Y-68353891D01*
X132882445Y-68359700D01*
X132764411Y-68357125D01*
X132640107Y-68329815D01*
X132541377Y-68283740D01*
X132509773Y-68261749D01*
X132457554Y-68232469D01*
X132434800Y-68240474D01*
X132429814Y-68286002D01*
X132422450Y-68321087D01*
X132387417Y-68340172D01*
X132309279Y-68344867D01*
X132188743Y-68344867D01*
X132198908Y-67807729D01*
X132200087Y-67756222D01*
X132422159Y-67756222D01*
X132437715Y-67894236D01*
X132439777Y-67910469D01*
X132465638Y-68011272D01*
X132506033Y-68070829D01*
X132543877Y-68087034D01*
X132635195Y-68103353D01*
X132754633Y-68109409D01*
X132886764Y-68100923D01*
X132980866Y-68070236D01*
X133032282Y-68012975D01*
X133047891Y-67924809D01*
X133045271Y-67891485D01*
X133015344Y-67828092D01*
X132946963Y-67786290D01*
X132833821Y-67763271D01*
X132669612Y-67756222D01*
X132422159Y-67756222D01*
X132200087Y-67756222D01*
X132202446Y-67653113D01*
X132210439Y-67464989D01*
X132224126Y-67322348D01*
X132246291Y-67217168D01*
X132279717Y-67141425D01*
X132327185Y-67087097D01*
X132391479Y-67046160D01*
X132475382Y-67010590D01*
X132480720Y-67008620D01*
X132630475Y-66974522D01*
X132795677Y-66968985D01*
X132953463Y-66990926D01*
X133080969Y-67039263D01*
X133136758Y-67074915D01*
X133179038Y-67121263D01*
X133168486Y-67166462D01*
X133106696Y-67221833D01*
X133101709Y-67225510D01*
X133041420Y-67264477D01*
X132999910Y-67269022D01*
X132952498Y-67242444D01*
X132946678Y-67238640D01*
X132862183Y-67209585D01*
X132748609Y-67198276D01*
X132630777Y-67205360D01*
X132533506Y-67231488D01*
X132486825Y-67262682D01*
X132438672Y-67347507D01*
X132434733Y-67466265D01*
X132436018Y-67474660D01*
X132445437Y-67503560D01*
X132469349Y-67522537D01*
X132518835Y-67534669D01*
X132604976Y-67543031D01*
X132738853Y-67550699D01*
X132894596Y-67562982D01*
X133030998Y-67588005D01*
X133127811Y-67628831D01*
X133195171Y-67689990D01*
X133243216Y-67776009D01*
X133274424Y-67875032D01*
X133274689Y-67924809D01*
X133275097Y-68001391D01*
G37*
G36*
X127621951Y-68033016D02*
G01*
X127574964Y-68159037D01*
X127531665Y-68218587D01*
X127433153Y-68296620D01*
X127293893Y-68347598D01*
X127276450Y-68351457D01*
X127141250Y-68358077D01*
X127002492Y-68332789D01*
X126889200Y-68280409D01*
X126831569Y-68248478D01*
X126803766Y-68260892D01*
X126804776Y-68322792D01*
X126802462Y-68327827D01*
X126763308Y-68339998D01*
X126690533Y-68344867D01*
X126638242Y-68342926D01*
X126585947Y-68328004D01*
X126569750Y-68293360D01*
X126569125Y-68271792D01*
X126568277Y-68195617D01*
X126567701Y-68078714D01*
X126567444Y-67932376D01*
X126567550Y-67770938D01*
X126793546Y-67770938D01*
X126797225Y-67851877D01*
X126801134Y-67924008D01*
X126809293Y-67989327D01*
X126825317Y-68029187D01*
X126854512Y-68063158D01*
X126891026Y-68086037D01*
X126972926Y-68103883D01*
X127102550Y-68109409D01*
X127105287Y-68109408D01*
X127214308Y-68107097D01*
X127282346Y-68096839D01*
X127326866Y-68073478D01*
X127365338Y-68031859D01*
X127391984Y-67997167D01*
X127420529Y-67944410D01*
X127411395Y-67898170D01*
X127364471Y-67832670D01*
X127335089Y-67798264D01*
X127300733Y-67774022D01*
X127251123Y-67762123D01*
X127171742Y-67759349D01*
X127048074Y-67762478D01*
X126793546Y-67770938D01*
X126567550Y-67770938D01*
X126567552Y-67767895D01*
X126569400Y-67579005D01*
X126576584Y-67404545D01*
X126591257Y-67274036D01*
X126615607Y-67179471D01*
X126651817Y-67112843D01*
X126702072Y-67066148D01*
X126768558Y-67031379D01*
X126810963Y-67015332D01*
X126966573Y-66978637D01*
X127129109Y-66968283D01*
X127283182Y-66983164D01*
X127413403Y-67022176D01*
X127504382Y-67084213D01*
X127514267Y-67095290D01*
X127537143Y-67131274D01*
X127523979Y-67163011D01*
X127469262Y-67210298D01*
X127468615Y-67210814D01*
X127406847Y-67254092D01*
X127360660Y-67261707D01*
X127302910Y-67238211D01*
X127272239Y-67225905D01*
X127178547Y-67205196D01*
X127073275Y-67197010D01*
X126991175Y-67202917D01*
X126879584Y-67242638D01*
X126813394Y-67319329D01*
X126793209Y-67432483D01*
X126795577Y-67535481D01*
X127088883Y-67550989D01*
X127166068Y-67556211D01*
X127291846Y-67569669D01*
X127392027Y-67586542D01*
X127449987Y-67604374D01*
X127516715Y-67656066D01*
X127589024Y-67764656D01*
X127625370Y-67895930D01*
X127624161Y-67944410D01*
X127621951Y-68033016D01*
G37*
G36*
X128721708Y-66995020D02*
G01*
X128745102Y-67010473D01*
X128768201Y-67044757D01*
X128794744Y-67105289D01*
X128828469Y-67199486D01*
X128873114Y-67334765D01*
X128932417Y-67518543D01*
X128948876Y-67568821D01*
X128996385Y-67705721D01*
X129039166Y-67817645D01*
X129073066Y-67894150D01*
X129093935Y-67924795D01*
X129097689Y-67925442D01*
X129126024Y-67901140D01*
X129148675Y-67838720D01*
X129152473Y-67821644D01*
X129173693Y-67735040D01*
X129204089Y-67618173D01*
X129238420Y-67491332D01*
X129247446Y-67458582D01*
X129283646Y-67325827D01*
X129316326Y-67204034D01*
X129339334Y-67116072D01*
X129351039Y-67072067D01*
X129374954Y-67016434D01*
X129414237Y-66994700D01*
X129487728Y-66990985D01*
X129507924Y-66991412D01*
X129577662Y-67002384D01*
X129604322Y-67024863D01*
X129603714Y-67029792D01*
X129590866Y-67080731D01*
X129563759Y-67174696D01*
X129525600Y-67301430D01*
X129479599Y-67450676D01*
X129428965Y-67612179D01*
X129376906Y-67775683D01*
X129326632Y-67930930D01*
X129281352Y-68067665D01*
X129244273Y-68175631D01*
X129209205Y-68268378D01*
X129179342Y-68319613D01*
X129143248Y-68340739D01*
X129088885Y-68344867D01*
X129058902Y-68344630D01*
X129027279Y-68339761D01*
X129000884Y-68322900D01*
X128976051Y-68286641D01*
X128949116Y-68223578D01*
X128916415Y-68126305D01*
X128874283Y-67987416D01*
X128819057Y-67799504D01*
X128807888Y-67761801D01*
X128765187Y-67624722D01*
X128726805Y-67511876D01*
X128696575Y-67434084D01*
X128678330Y-67402169D01*
X128676026Y-67401322D01*
X128658354Y-67410585D01*
X128635527Y-67449781D01*
X128605558Y-67524303D01*
X128566458Y-67639545D01*
X128516241Y-67800897D01*
X128452918Y-68013754D01*
X128355766Y-68344867D01*
X128250224Y-68344867D01*
X128144682Y-68344867D01*
X128016405Y-67940174D01*
X128011355Y-67924251D01*
X127955845Y-67750276D01*
X127898598Y-67572461D01*
X127846079Y-67410806D01*
X127804749Y-67285307D01*
X127787466Y-67232957D01*
X127753531Y-67126825D01*
X127729946Y-67048270D01*
X127721015Y-67011367D01*
X127725117Y-67005538D01*
X127768480Y-66996123D01*
X127843981Y-66996651D01*
X127847008Y-66996864D01*
X127890597Y-66998738D01*
X127922957Y-67002700D01*
X127948024Y-67016532D01*
X127969739Y-67048015D01*
X127992039Y-67104927D01*
X128018863Y-67195050D01*
X128054148Y-67326164D01*
X128101834Y-67506049D01*
X128113787Y-67550684D01*
X128157109Y-67708180D01*
X128189891Y-67817668D01*
X128214745Y-67886621D01*
X128234288Y-67922512D01*
X128251133Y-67932816D01*
X128262585Y-67917410D01*
X128290532Y-67854440D01*
X128329870Y-67751404D01*
X128377130Y-67617493D01*
X128428845Y-67461900D01*
X128429820Y-67458882D01*
X128485542Y-67287391D01*
X128527323Y-67163937D01*
X128559146Y-67080628D01*
X128584994Y-67029570D01*
X128608850Y-67002872D01*
X128634699Y-66992641D01*
X128666524Y-66990985D01*
X128694282Y-66990981D01*
X128721708Y-66995020D01*
G37*
G36*
X134586681Y-65690132D02*
G01*
X134588482Y-65967272D01*
X134589794Y-66266945D01*
X134590555Y-66583940D01*
X134593082Y-68344868D01*
X134475353Y-68344850D01*
X134357624Y-68344832D01*
X134356340Y-67881292D01*
X134355546Y-67746032D01*
X134352681Y-67601082D01*
X134346850Y-67497726D01*
X134337038Y-67425921D01*
X134322232Y-67375617D01*
X134301420Y-67336770D01*
X134264939Y-67293948D01*
X134166738Y-67237033D01*
X134050177Y-67221100D01*
X133931990Y-67246910D01*
X133828913Y-67315227D01*
X133820805Y-67323715D01*
X133800475Y-67352463D01*
X133785799Y-67392876D01*
X133775578Y-67454394D01*
X133768612Y-67546456D01*
X133763700Y-67678503D01*
X133759641Y-67859974D01*
X133750303Y-68344867D01*
X133632217Y-68344867D01*
X133514131Y-68344867D01*
X133523827Y-67802444D01*
X133526341Y-67673776D01*
X133531850Y-67497730D01*
X133541186Y-67365645D01*
X133556946Y-67268159D01*
X133581727Y-67195910D01*
X133618126Y-67139534D01*
X133668740Y-67089668D01*
X133736167Y-67036952D01*
X133737093Y-67036264D01*
X133845805Y-66987821D01*
X133978832Y-66973400D01*
X134112973Y-66992616D01*
X134225027Y-67045083D01*
X134244759Y-67058923D01*
X134304229Y-67091014D01*
X134337864Y-67094135D01*
X134343656Y-67065625D01*
X134349449Y-66986659D01*
X134354183Y-66867388D01*
X134357480Y-66717590D01*
X134358964Y-66547047D01*
X134359127Y-66431669D01*
X134357856Y-66261740D01*
X134352883Y-66141520D01*
X134342246Y-66065081D01*
X134323981Y-66026496D01*
X134296124Y-66019838D01*
X134256711Y-66039177D01*
X134203778Y-66078586D01*
X134200846Y-66080842D01*
X134102586Y-66124159D01*
X133976760Y-66138460D01*
X133846171Y-66123685D01*
X133733619Y-66079778D01*
X133681794Y-66044511D01*
X133620211Y-65983191D01*
X133577971Y-65904399D01*
X133551768Y-65797867D01*
X133538296Y-65653327D01*
X133535798Y-65534298D01*
X133756560Y-65534298D01*
X133776659Y-65669638D01*
X133817594Y-65782169D01*
X133879686Y-65856977D01*
X133920530Y-65880595D01*
X134033656Y-65905927D01*
X134146607Y-65885234D01*
X134245670Y-65825545D01*
X134317134Y-65733889D01*
X134347287Y-65617293D01*
X134349748Y-65448964D01*
X134337700Y-65280390D01*
X134306185Y-65158803D01*
X134252593Y-65078603D01*
X134174310Y-65034190D01*
X134068725Y-65019963D01*
X134056795Y-65020036D01*
X133966075Y-65029735D01*
X133896999Y-65050828D01*
X133878120Y-65063139D01*
X133818077Y-65140570D01*
X133777590Y-65254850D01*
X133756977Y-65391064D01*
X133756560Y-65534298D01*
X133535798Y-65534298D01*
X133534250Y-65460510D01*
X133535762Y-65320355D01*
X133546028Y-65163447D01*
X133569304Y-65045950D01*
X133609458Y-64956656D01*
X133670353Y-64884355D01*
X133755855Y-64817836D01*
X133815776Y-64786215D01*
X133949839Y-64759433D01*
X134091360Y-64777530D01*
X134221218Y-64839613D01*
X134272256Y-64869114D01*
X134329488Y-64885563D01*
X134362767Y-64876769D01*
X134357624Y-64842433D01*
X134354068Y-64831535D01*
X134373542Y-64797542D01*
X134390592Y-64788836D01*
X134459368Y-64772159D01*
X134528191Y-64773158D01*
X134569197Y-64792544D01*
X134572521Y-64824877D01*
X134575833Y-64911160D01*
X134578968Y-65046040D01*
X134581862Y-65224303D01*
X134584454Y-65440738D01*
X134584527Y-65448964D01*
X134586681Y-65690132D01*
G37*
G36*
X130065118Y-54658887D02*
G01*
X130087862Y-54776259D01*
X130125875Y-54974352D01*
X130165084Y-55180488D01*
X130199879Y-55365261D01*
X130203189Y-55383162D01*
X130223927Y-55502176D01*
X130241323Y-55592754D01*
X130262470Y-55661550D01*
X130294459Y-55715214D01*
X130344381Y-55760400D01*
X130419328Y-55803761D01*
X130526392Y-55851949D01*
X130672665Y-55911616D01*
X130865239Y-55989415D01*
X131287471Y-56161886D01*
X131601111Y-55949782D01*
X131713219Y-55873753D01*
X131880136Y-55759997D01*
X132044774Y-55647265D01*
X132183850Y-55551469D01*
X132278214Y-55487297D01*
X132375127Y-55424082D01*
X132445805Y-55381112D01*
X132479335Y-55365261D01*
X132490406Y-55371989D01*
X132538683Y-55413474D01*
X132618519Y-55487749D01*
X132723770Y-55588950D01*
X132848291Y-55711214D01*
X132985938Y-55848677D01*
X133001514Y-55864372D01*
X133171588Y-56038229D01*
X133299448Y-56174287D01*
X133386447Y-56274089D01*
X133433933Y-56339179D01*
X133443260Y-56371099D01*
X133442308Y-56372689D01*
X133414980Y-56414695D01*
X133362149Y-56493567D01*
X133291016Y-56598613D01*
X133208785Y-56719142D01*
X133137858Y-56822807D01*
X133006262Y-57015777D01*
X132903239Y-57168186D01*
X132825398Y-57285396D01*
X132769346Y-57372770D01*
X132731693Y-57435671D01*
X132709046Y-57479462D01*
X132698014Y-57509505D01*
X132695204Y-57531162D01*
X132695248Y-57532175D01*
X132707719Y-57576890D01*
X132739114Y-57663510D01*
X132784748Y-57780748D01*
X132839937Y-57917315D01*
X132899994Y-58061923D01*
X132960236Y-58203283D01*
X133015978Y-58330108D01*
X133062534Y-58431109D01*
X133095219Y-58494999D01*
X133096709Y-58497383D01*
X133124744Y-58521114D01*
X133181103Y-58544720D01*
X133273272Y-58570311D01*
X133408739Y-58599997D01*
X133594993Y-58635890D01*
X133671063Y-58650061D01*
X133851759Y-58684203D01*
X134024008Y-58717350D01*
X134171321Y-58746310D01*
X134277214Y-58767894D01*
X134491125Y-58813079D01*
X134483239Y-59508114D01*
X134475353Y-60203149D01*
X134387057Y-60225660D01*
X134386928Y-60225693D01*
X134330433Y-60238090D01*
X134226885Y-60258942D01*
X134087093Y-60286145D01*
X133921865Y-60317596D01*
X133742009Y-60351192D01*
X133732418Y-60352972D01*
X133557562Y-60387061D01*
X133402055Y-60420349D01*
X133275563Y-60450536D01*
X133187750Y-60475324D01*
X133148282Y-60492414D01*
X133127680Y-60527826D01*
X133089927Y-60608722D01*
X133040134Y-60723439D01*
X132982702Y-60860996D01*
X132922032Y-61010409D01*
X132862525Y-61160697D01*
X132808581Y-61300876D01*
X132764601Y-61419963D01*
X132734986Y-61506977D01*
X132724137Y-61550934D01*
X132727450Y-61564351D01*
X132756141Y-61622859D01*
X132807930Y-61709845D01*
X132875078Y-61811929D01*
X132940817Y-61907582D01*
X133037695Y-62048452D01*
X133142925Y-62201397D01*
X133242980Y-62346751D01*
X133257503Y-62367884D01*
X133336648Y-62484603D01*
X133400957Y-62582012D01*
X133444149Y-62650454D01*
X133459942Y-62680275D01*
X133452465Y-62690924D01*
X133409915Y-62738136D01*
X133334791Y-62817040D01*
X133232908Y-62921634D01*
X133110081Y-63045914D01*
X132972125Y-63183877D01*
X132484308Y-63669051D01*
X132405555Y-63618901D01*
X132388853Y-63608015D01*
X132319877Y-63561691D01*
X132218009Y-63492284D01*
X132094074Y-63407191D01*
X131958899Y-63313805D01*
X131905282Y-63276743D01*
X131768709Y-63183145D01*
X131644819Y-63099306D01*
X131545465Y-63033216D01*
X131482505Y-62992859D01*
X131374013Y-62926861D01*
X131108709Y-63060105D01*
X131029858Y-63098445D01*
X130930662Y-63142488D01*
X130860239Y-63168469D01*
X130830250Y-63171715D01*
X130825322Y-63161492D01*
X130800860Y-63104913D01*
X130760559Y-63008766D01*
X130708621Y-62883116D01*
X130649247Y-62738030D01*
X130623695Y-62675400D01*
X130562885Y-62527105D01*
X130508931Y-62396536D01*
X130466919Y-62295971D01*
X130441935Y-62237682D01*
X130410660Y-62165734D01*
X130363573Y-62054508D01*
X130305657Y-61915904D01*
X130240629Y-61759001D01*
X130172208Y-61592880D01*
X130104112Y-61426620D01*
X130040059Y-61269301D01*
X129983767Y-61130001D01*
X129938956Y-61017802D01*
X129909342Y-60941782D01*
X129898644Y-60911021D01*
X129899925Y-60908991D01*
X129931631Y-60882086D01*
X129997222Y-60832279D01*
X130085109Y-60768432D01*
X130116333Y-60745766D01*
X130358214Y-60536926D01*
X130545023Y-60307921D01*
X130677347Y-60057670D01*
X130755774Y-59785094D01*
X130780891Y-59489111D01*
X130764550Y-59290309D01*
X130694957Y-59023076D01*
X130575148Y-58770887D01*
X130409924Y-58545947D01*
X130261574Y-58401693D01*
X130026482Y-58238541D01*
X129769077Y-58126123D01*
X129495698Y-58065653D01*
X129212689Y-58058344D01*
X128926390Y-58105408D01*
X128643143Y-58208057D01*
X128563270Y-58250538D01*
X128381345Y-58382434D01*
X128210125Y-58551499D01*
X128063285Y-58743143D01*
X127954500Y-58942774D01*
X127934152Y-58990707D01*
X127896964Y-59085913D01*
X127873530Y-59167964D01*
X127860696Y-59254860D01*
X127855309Y-59364606D01*
X127854214Y-59515203D01*
X127854335Y-59579650D01*
X127856756Y-59712511D01*
X127864686Y-59811365D01*
X127881227Y-59894116D01*
X127909479Y-59978671D01*
X127952545Y-60082936D01*
X127964421Y-60109871D01*
X128103175Y-60350915D01*
X128292068Y-60569714D01*
X128534630Y-60770439D01*
X128556753Y-60786287D01*
X128640482Y-60847535D01*
X128699208Y-60892535D01*
X128721356Y-60912483D01*
X128716754Y-60925310D01*
X128692819Y-60985806D01*
X128650820Y-61089926D01*
X128593435Y-61231131D01*
X128523342Y-61402880D01*
X128443218Y-61598635D01*
X128355742Y-61811855D01*
X128263591Y-62036001D01*
X128169443Y-62264534D01*
X128075977Y-62490912D01*
X127985870Y-62708598D01*
X127944247Y-62808356D01*
X127885440Y-62946948D01*
X127836295Y-63059954D01*
X127801022Y-63137742D01*
X127783832Y-63170682D01*
X127768363Y-63171200D01*
X127709129Y-63152236D01*
X127617849Y-63113366D01*
X127506631Y-63059449D01*
X127248453Y-62927615D01*
X127124012Y-63003043D01*
X127098039Y-63019249D01*
X127011796Y-63075473D01*
X126894855Y-63153683D01*
X126759235Y-63245805D01*
X126616952Y-63343763D01*
X126540622Y-63396564D01*
X126412771Y-63484426D01*
X126304464Y-63558134D01*
X126225282Y-63611185D01*
X126184808Y-63637076D01*
X126171260Y-63640513D01*
X126140520Y-63631277D01*
X126093742Y-63600541D01*
X126025997Y-63544095D01*
X125932356Y-63457732D01*
X125807890Y-63337243D01*
X125647670Y-63178418D01*
X125561738Y-63092452D01*
X125432572Y-62962426D01*
X125322031Y-62850147D01*
X125235906Y-62761545D01*
X125179985Y-62702548D01*
X125160058Y-62679085D01*
X125163350Y-62672604D01*
X125192739Y-62626338D01*
X125248671Y-62541948D01*
X125326370Y-62426547D01*
X125421059Y-62287251D01*
X125527960Y-62131174D01*
X125574483Y-62063113D01*
X125677255Y-61909908D01*
X125765626Y-61774226D01*
X125834749Y-61663736D01*
X125879777Y-61586109D01*
X125895863Y-61549012D01*
X125886920Y-61511312D01*
X125858868Y-61427937D01*
X125816022Y-61311457D01*
X125762801Y-61172894D01*
X125703627Y-61023272D01*
X125642919Y-60873613D01*
X125585100Y-60734941D01*
X125534590Y-60618278D01*
X125495809Y-60534647D01*
X125473178Y-60495070D01*
X125437091Y-60477561D01*
X125353992Y-60452381D01*
X125237715Y-60424081D01*
X125101193Y-60396102D01*
X125008416Y-60378546D01*
X124816392Y-60341471D01*
X124621323Y-60303040D01*
X124453685Y-60269224D01*
X124144646Y-60205771D01*
X124136761Y-59509451D01*
X124134951Y-59336274D01*
X124133831Y-59155614D01*
X124134541Y-59021322D01*
X124137519Y-58926315D01*
X124143206Y-58863504D01*
X124152041Y-58825806D01*
X124164462Y-58806132D01*
X124180909Y-58797399D01*
X124190139Y-58794971D01*
X124252936Y-58781446D01*
X124357741Y-58760764D01*
X124492459Y-58735271D01*
X124644994Y-58707315D01*
X124845507Y-58671026D01*
X125047521Y-58633922D01*
X125203192Y-58604242D01*
X125318962Y-58580428D01*
X125401276Y-58560927D01*
X125456574Y-58544183D01*
X125491302Y-58528641D01*
X125511900Y-58512745D01*
X125524813Y-58494941D01*
X125558558Y-58429222D01*
X125606096Y-58326190D01*
X125662478Y-58197647D01*
X125723032Y-58054922D01*
X125783084Y-57909348D01*
X125837960Y-57772256D01*
X125882986Y-57654977D01*
X125913490Y-57568842D01*
X125924796Y-57525183D01*
X125924389Y-57521393D01*
X125903380Y-57472010D01*
X125854230Y-57384379D01*
X125782066Y-57266894D01*
X125692020Y-57127951D01*
X125589219Y-56975947D01*
X125576401Y-56957369D01*
X125471003Y-56804397D01*
X125374853Y-56664491D01*
X125294006Y-56546491D01*
X125234520Y-56459233D01*
X125202452Y-56411557D01*
X125151761Y-56334193D01*
X125633020Y-55849727D01*
X125714272Y-55768283D01*
X125845003Y-55638802D01*
X125958924Y-55527907D01*
X126049927Y-55441450D01*
X126111902Y-55385283D01*
X126138740Y-55365261D01*
X126154050Y-55370628D01*
X126187714Y-55389479D01*
X126243718Y-55424710D01*
X126326384Y-55479207D01*
X126440030Y-55555858D01*
X126588977Y-55657551D01*
X126777545Y-55787172D01*
X127010053Y-55947609D01*
X127109402Y-56013417D01*
X127215938Y-56077436D01*
X127299791Y-56120606D01*
X127348524Y-56136007D01*
X127374374Y-56131509D01*
X127452256Y-56107426D01*
X127563243Y-56066706D01*
X127696325Y-56014058D01*
X127840491Y-55954188D01*
X127984729Y-55891803D01*
X128118027Y-55831610D01*
X128229376Y-55778316D01*
X128307764Y-55736628D01*
X128342179Y-55711252D01*
X128346463Y-55700639D01*
X128363377Y-55637769D01*
X128386743Y-55532992D01*
X128414060Y-55397920D01*
X128442825Y-55244165D01*
X128447092Y-55220512D01*
X128480049Y-55040902D01*
X128514186Y-54859410D01*
X128545710Y-54695989D01*
X128570830Y-54570591D01*
X128622638Y-54320417D01*
X129310892Y-54320417D01*
X129999145Y-54320417D01*
X130065118Y-54658887D01*
G37*
G36*
X131956319Y-104234478D02*
G01*
X131938873Y-104251923D01*
X131921428Y-104234478D01*
X131938873Y-104217033D01*
X131956319Y-104234478D01*
G37*
G36*
X126406037Y-105871405D02*
G01*
X126403570Y-105906793D01*
X126387712Y-105917199D01*
X126380798Y-105904855D01*
X126384957Y-105850326D01*
X126397516Y-105834176D01*
X126406037Y-105871405D01*
G37*
G36*
X131991209Y-104321703D02*
G01*
X131988691Y-104340174D01*
X131967949Y-104344963D01*
X131963773Y-104339849D01*
X131967949Y-104298443D01*
X131978443Y-104292984D01*
X131991209Y-104321703D01*
G37*
G36*
X123652472Y-111509066D02*
G01*
X123652472Y-112137088D01*
X123530357Y-112137088D01*
X123408242Y-112137088D01*
X123408242Y-111509066D01*
X123408242Y-110881044D01*
X123530357Y-110881044D01*
X123652472Y-110881044D01*
X123652472Y-111509066D01*
G37*
G36*
X130665384Y-111509066D02*
G01*
X130665384Y-112137088D01*
X130543269Y-112137088D01*
X130421154Y-112137088D01*
X130421154Y-111509066D01*
X130421154Y-110881044D01*
X130543269Y-110881044D01*
X130665384Y-110881044D01*
X130665384Y-111509066D01*
G37*
G36*
X123164011Y-111509066D02*
G01*
X123164011Y-112137088D01*
X122717541Y-112137088D01*
X122271071Y-112137088D01*
X122272692Y-112041140D01*
X122274313Y-111945192D01*
X122597047Y-111935160D01*
X122919780Y-111925128D01*
X122919780Y-111403086D01*
X122919780Y-110881044D01*
X123041895Y-110881044D01*
X123164011Y-110881044D01*
X123164011Y-111509066D01*
G37*
G36*
X124734066Y-110985714D02*
G01*
X124734066Y-111090384D01*
X124435348Y-111090384D01*
X124136630Y-111090384D01*
X124469796Y-111482898D01*
X124562131Y-111592484D01*
X124667132Y-111721678D01*
X124736894Y-111816882D01*
X124778284Y-111888866D01*
X124798166Y-111948399D01*
X124803404Y-112006250D01*
X124803846Y-112137088D01*
X124297939Y-112137088D01*
X123792033Y-112137088D01*
X123792033Y-112032417D01*
X123792033Y-111927747D01*
X124158942Y-111927747D01*
X124525852Y-111927747D01*
X124176387Y-111513124D01*
X124153199Y-111485559D01*
X124019441Y-111323190D01*
X123926047Y-111201580D01*
X123866903Y-111111576D01*
X123835899Y-111044025D01*
X123826923Y-110989773D01*
X123826923Y-110881044D01*
X124280494Y-110881044D01*
X124734066Y-110881044D01*
X124734066Y-110985714D01*
G37*
G36*
X132270330Y-111509066D02*
G01*
X132270330Y-112137088D01*
X131820827Y-112137088D01*
X131727657Y-112136919D01*
X131569549Y-112134845D01*
X131464643Y-112129210D01*
X131401574Y-112118523D01*
X131368978Y-112101294D01*
X131355489Y-112076030D01*
X131353670Y-112068844D01*
X131345625Y-112006000D01*
X131365568Y-111964987D01*
X131423921Y-111941286D01*
X131531108Y-111930379D01*
X131697550Y-111927747D01*
X132026099Y-111927747D01*
X132026099Y-111753296D01*
X132026099Y-111578846D01*
X131717476Y-111578846D01*
X131408853Y-111578846D01*
X131413896Y-111482898D01*
X131418938Y-111386950D01*
X131722519Y-111376869D01*
X132026099Y-111366788D01*
X132026099Y-111228586D01*
X132026099Y-111090384D01*
X131694643Y-111090384D01*
X131363187Y-111090384D01*
X131363187Y-110985714D01*
X131363187Y-110881044D01*
X131816758Y-110881044D01*
X132270330Y-110881044D01*
X132270330Y-111509066D01*
G37*
G36*
X133526373Y-111509159D02*
G01*
X133526373Y-112143626D01*
X133179929Y-112131634D01*
X133135399Y-112129980D01*
X132978316Y-112120736D01*
X132870407Y-112105839D01*
X132794914Y-112082071D01*
X132735080Y-112046215D01*
X132684938Y-112005280D01*
X132581088Y-111878321D01*
X132523356Y-111719552D01*
X132505382Y-111514244D01*
X132507474Y-111428505D01*
X132511947Y-111398865D01*
X132763858Y-111398865D01*
X132766678Y-111603699D01*
X132779650Y-111707800D01*
X132809852Y-111801747D01*
X132861955Y-111863763D01*
X132950093Y-111907890D01*
X133111557Y-111927747D01*
X133282143Y-111927747D01*
X133282143Y-111509066D01*
X133282143Y-111090384D01*
X133107692Y-111090384D01*
X132983968Y-111102127D01*
X132868921Y-111153471D01*
X132796745Y-111250586D01*
X132763858Y-111398865D01*
X132511947Y-111398865D01*
X132534141Y-111251804D01*
X132597671Y-111111062D01*
X132705863Y-110985714D01*
X132754099Y-110946009D01*
X132807901Y-110919657D01*
X132883218Y-110903297D01*
X132996138Y-110893438D01*
X133162750Y-110886590D01*
X133526373Y-110874692D01*
X133526373Y-111090384D01*
X133526373Y-111509159D01*
G37*
G36*
X129451846Y-111284949D02*
G01*
X129461676Y-111688854D01*
X129699219Y-111284949D01*
X129713375Y-111260888D01*
X129806030Y-111105147D01*
X129873279Y-110999076D01*
X129923553Y-110933153D01*
X129965284Y-110897855D01*
X130006904Y-110883659D01*
X130056843Y-110881044D01*
X130176923Y-110881044D01*
X130176923Y-111509066D01*
X130176923Y-112137088D01*
X130072253Y-112137088D01*
X130047170Y-112137391D01*
X130014374Y-112135129D01*
X129991250Y-112121039D01*
X129975915Y-112085466D01*
X129966482Y-112018755D01*
X129961068Y-111911249D01*
X129957786Y-111753294D01*
X129954752Y-111535233D01*
X129952931Y-111480469D01*
X129945112Y-111400896D01*
X129933833Y-111369703D01*
X129932829Y-111370054D01*
X129905405Y-111403992D01*
X129850577Y-111485336D01*
X129775784Y-111602719D01*
X129688461Y-111744772D01*
X129603147Y-111884661D01*
X129531547Y-111995811D01*
X129477873Y-112065875D01*
X129432768Y-112104946D01*
X129386875Y-112123114D01*
X129330838Y-112130471D01*
X129200000Y-112141300D01*
X129200000Y-111511172D01*
X129200000Y-110881044D01*
X129321008Y-110881044D01*
X129442016Y-110881044D01*
X129451846Y-111284949D01*
G37*
G36*
X134884142Y-112137088D02*
G01*
X134751639Y-112137088D01*
X134722657Y-112136822D01*
X134649556Y-112126246D01*
X134607815Y-112086161D01*
X134573077Y-111997527D01*
X134527018Y-111857967D01*
X134276449Y-111857967D01*
X134025880Y-111857967D01*
X133984067Y-111997527D01*
X133973316Y-112032381D01*
X133941627Y-112103358D01*
X133893710Y-112131857D01*
X133804902Y-112137088D01*
X133667551Y-112137088D01*
X133827106Y-111692239D01*
X133832679Y-111676699D01*
X133850150Y-111627875D01*
X134119505Y-111627875D01*
X134130295Y-111635111D01*
X134192125Y-111644821D01*
X134290541Y-111648626D01*
X134461577Y-111648626D01*
X134416644Y-111500343D01*
X134409276Y-111476528D01*
X134365322Y-111346076D01*
X134321493Y-111229945D01*
X134271276Y-111107829D01*
X134195391Y-111357476D01*
X134189466Y-111377031D01*
X134153996Y-111497037D01*
X134128977Y-111586705D01*
X134119505Y-111627875D01*
X133850150Y-111627875D01*
X133898064Y-111493976D01*
X133960187Y-111319735D01*
X134012262Y-111173036D01*
X134047508Y-111072939D01*
X134083716Y-110975905D01*
X134120208Y-110920585D01*
X134175564Y-110897107D01*
X134271071Y-110887849D01*
X134273524Y-110887684D01*
X134327638Y-110882353D01*
X134369201Y-110880119D01*
X134402834Y-110888765D01*
X134433159Y-110916075D01*
X134464799Y-110969833D01*
X134502375Y-111057822D01*
X134550509Y-111187826D01*
X134613825Y-111367629D01*
X134696944Y-111605013D01*
X134712288Y-111648626D01*
X134884142Y-112137088D01*
G37*
G36*
X126056945Y-112137088D02*
G01*
X125920202Y-112137088D01*
X125885267Y-112136776D01*
X125813168Y-112126264D01*
X125774776Y-112086309D01*
X125745879Y-111997527D01*
X125708299Y-111857967D01*
X125453491Y-111857967D01*
X125198683Y-111857967D01*
X125156869Y-111997527D01*
X125146343Y-112031669D01*
X125114635Y-112103045D01*
X125066963Y-112131779D01*
X124978812Y-112137088D01*
X124842569Y-112137088D01*
X125018168Y-111639903D01*
X125022412Y-111627875D01*
X125292308Y-111627875D01*
X125302916Y-111635065D01*
X125364486Y-111644807D01*
X125462684Y-111648626D01*
X125633061Y-111648626D01*
X125562743Y-111413118D01*
X125561418Y-111408690D01*
X125522888Y-111287977D01*
X125488794Y-111194689D01*
X125466379Y-111148696D01*
X125462259Y-111148502D01*
X125438650Y-111185255D01*
X125404092Y-111264212D01*
X125365382Y-111366663D01*
X125329316Y-111473898D01*
X125302693Y-111567205D01*
X125292308Y-111627875D01*
X125022412Y-111627875D01*
X125044033Y-111566592D01*
X125107826Y-111385139D01*
X125164374Y-111223428D01*
X125208322Y-111096802D01*
X125234315Y-111020604D01*
X125249343Y-110978326D01*
X125282439Y-110923707D01*
X125338417Y-110898575D01*
X125440725Y-110887849D01*
X125443763Y-110887647D01*
X125498757Y-110882287D01*
X125540976Y-110880040D01*
X125575074Y-110888687D01*
X125605705Y-110916007D01*
X125637522Y-110969781D01*
X125675181Y-111057789D01*
X125723335Y-111187810D01*
X125786639Y-111367625D01*
X125869746Y-111605013D01*
X125885090Y-111648626D01*
X126056945Y-112137088D01*
G37*
G36*
X128432417Y-111509066D02*
G01*
X128432417Y-111578846D01*
X128432417Y-112137088D01*
X128057349Y-112136957D01*
X127842901Y-112130503D01*
X127675718Y-112107731D01*
X127557813Y-112064972D01*
X127479302Y-111998570D01*
X127430301Y-111904864D01*
X127409446Y-111785942D01*
X127411423Y-111772006D01*
X127664835Y-111772006D01*
X127678229Y-111829718D01*
X127732322Y-111891629D01*
X127771891Y-111905176D01*
X127872650Y-111921413D01*
X127993997Y-111927747D01*
X128188187Y-111927747D01*
X128188187Y-111753296D01*
X128188187Y-111578846D01*
X127981338Y-111578846D01*
X127876869Y-111583584D01*
X127754421Y-111613613D01*
X127686068Y-111675001D01*
X127664835Y-111772006D01*
X127411423Y-111772006D01*
X127427969Y-111655368D01*
X127484581Y-111549118D01*
X127572273Y-111487777D01*
X127592003Y-111481132D01*
X127621719Y-111459161D01*
X127589831Y-111426142D01*
X127555328Y-111396766D01*
X127484001Y-111285658D01*
X127475044Y-111209820D01*
X127696679Y-111209820D01*
X127720976Y-111291002D01*
X127757074Y-111324313D01*
X127838037Y-111349531D01*
X127973751Y-111362447D01*
X128188187Y-111372835D01*
X128188187Y-111229945D01*
X128188187Y-111087055D01*
X127973751Y-111097442D01*
X127844816Y-111111691D01*
X127738234Y-111149838D01*
X127696679Y-111209820D01*
X127475044Y-111209820D01*
X127469312Y-111161291D01*
X127510575Y-111042573D01*
X127607107Y-110948417D01*
X127619814Y-110940949D01*
X127687984Y-110911225D01*
X127775318Y-110892967D01*
X127898644Y-110883757D01*
X128074794Y-110881174D01*
X128432417Y-110881044D01*
X128432417Y-111087055D01*
X128432417Y-111509066D01*
G37*
G36*
X127176373Y-111509066D02*
G01*
X127176373Y-112137088D01*
X127054258Y-112137088D01*
X126932143Y-112137088D01*
X126932143Y-111875412D01*
X126931999Y-111820457D01*
X126928835Y-111708230D01*
X126918459Y-111646050D01*
X126896870Y-111619394D01*
X126860069Y-111613736D01*
X126849804Y-111613879D01*
X126769279Y-111629057D01*
X126694533Y-111676451D01*
X126613577Y-111766294D01*
X126514427Y-111908819D01*
X126468742Y-111978169D01*
X126404982Y-112066154D01*
X126354192Y-112113765D01*
X126301052Y-112133308D01*
X126230242Y-112137088D01*
X126202711Y-112136815D01*
X126125713Y-112132314D01*
X126094780Y-112124037D01*
X126096834Y-112113137D01*
X126126473Y-112049131D01*
X126181607Y-111955113D01*
X126249708Y-111850592D01*
X126318250Y-111755078D01*
X126374705Y-111688080D01*
X126473455Y-111589330D01*
X126355729Y-111533190D01*
X126264682Y-111465356D01*
X126199761Y-111353681D01*
X126183287Y-111247390D01*
X126443681Y-111247390D01*
X126450594Y-111294506D01*
X126485549Y-111362527D01*
X126521264Y-111379896D01*
X126612423Y-111397554D01*
X126729780Y-111404395D01*
X126932143Y-111404395D01*
X126932143Y-111247390D01*
X126932143Y-111090384D01*
X126729780Y-111090384D01*
X126635278Y-111093688D01*
X126522442Y-111116710D01*
X126461773Y-111166190D01*
X126443681Y-111247390D01*
X126183287Y-111247390D01*
X126179803Y-111224912D01*
X126204030Y-111097281D01*
X126271664Y-110989021D01*
X126381930Y-110918363D01*
X126416858Y-110909569D01*
X126525946Y-110894921D01*
X126671795Y-110884813D01*
X126832679Y-110881044D01*
X127176373Y-110881044D01*
X127176373Y-111090384D01*
X127176373Y-111509066D01*
G37*
G36*
X132018911Y-104444537D02*
G01*
X132057853Y-104518552D01*
X132090722Y-104643652D01*
X132115783Y-104811866D01*
X132131302Y-105015222D01*
X132135545Y-105245748D01*
X132135331Y-105265748D01*
X132098747Y-105730476D01*
X132000969Y-106162773D01*
X131840670Y-106566006D01*
X131616525Y-106943541D01*
X131327208Y-107298748D01*
X131078927Y-107535657D01*
X130712730Y-107802825D01*
X130311164Y-108012947D01*
X129882921Y-108160834D01*
X129848979Y-108169236D01*
X129607512Y-108208953D01*
X129328508Y-108227920D01*
X129036990Y-108226143D01*
X128757980Y-108203631D01*
X128516501Y-108160392D01*
X128486637Y-108152741D01*
X128089707Y-108015305D01*
X127716553Y-107820831D01*
X127374551Y-107576246D01*
X127071080Y-107288474D01*
X126813517Y-106964441D01*
X126609239Y-106611071D01*
X126465623Y-106235289D01*
X126449073Y-106177216D01*
X126420082Y-106067037D01*
X126412152Y-106013813D01*
X126425016Y-106010691D01*
X126458404Y-106050817D01*
X126468691Y-106064712D01*
X126502045Y-106097334D01*
X126539799Y-106089475D01*
X126606687Y-106039199D01*
X127050069Y-105701652D01*
X127550437Y-105370354D01*
X128051818Y-105094543D01*
X128566214Y-104868375D01*
X129105627Y-104686003D01*
X129682059Y-104541585D01*
X129766855Y-104524180D01*
X129933001Y-104494868D01*
X130101213Y-104473145D01*
X130288416Y-104457418D01*
X130511536Y-104446095D01*
X130787500Y-104437583D01*
X131010405Y-104433900D01*
X131234635Y-104433875D01*
X131433211Y-104437539D01*
X131591443Y-104444613D01*
X131694643Y-104454819D01*
X131728772Y-104460268D01*
X131842468Y-104472854D01*
X131913001Y-104466289D01*
X131960164Y-104439424D01*
X131975628Y-104429580D01*
X132018911Y-104444537D01*
G37*
G36*
X135497495Y-111299020D02*
G01*
X135501021Y-111313656D01*
X135539776Y-111469842D01*
X135573000Y-111595603D01*
X135597261Y-111678427D01*
X135609123Y-111705803D01*
X135611580Y-111701073D01*
X135629116Y-111647223D01*
X135657431Y-111547510D01*
X135691715Y-111418664D01*
X135697048Y-111398055D01*
X135736026Y-111247714D01*
X135771886Y-111109800D01*
X135797461Y-111011881D01*
X135831810Y-110881044D01*
X136022361Y-110881044D01*
X136212912Y-110881044D01*
X136212912Y-111509066D01*
X136212912Y-112137088D01*
X136090797Y-112137088D01*
X135968681Y-112137088D01*
X135967620Y-111674794D01*
X135966978Y-111572419D01*
X135962680Y-111406856D01*
X135953550Y-111310005D01*
X135938569Y-111281194D01*
X135916716Y-111319753D01*
X135886969Y-111425009D01*
X135848309Y-111596291D01*
X135846029Y-111606998D01*
X135803195Y-111806895D01*
X135770546Y-111948940D01*
X135743618Y-112043011D01*
X135717943Y-112098985D01*
X135689057Y-112126737D01*
X135652494Y-112136146D01*
X135603787Y-112137088D01*
X135585705Y-112137423D01*
X135549428Y-112138168D01*
X135521458Y-112131818D01*
X135498371Y-112109674D01*
X135476743Y-112063034D01*
X135453151Y-111983198D01*
X135424168Y-111861464D01*
X135386373Y-111689132D01*
X135336339Y-111457501D01*
X135318176Y-111377567D01*
X135297888Y-111309735D01*
X135282259Y-111298178D01*
X135267025Y-111335386D01*
X135260355Y-111372347D01*
X135250622Y-111476690D01*
X135243252Y-111618956D01*
X135239467Y-111779464D01*
X135235989Y-112137088D01*
X135121966Y-112137088D01*
X135007944Y-112137088D01*
X135002030Y-111509066D01*
X134996116Y-110881044D01*
X135196589Y-110881044D01*
X135397062Y-110881044D01*
X135497495Y-111299020D01*
G37*
G36*
X129312768Y-102352146D02*
G01*
X129568566Y-102357355D01*
X129777718Y-102372961D01*
X129957533Y-102402445D01*
X130125320Y-102449293D01*
X130298390Y-102516986D01*
X130494050Y-102609009D01*
X130517672Y-102620888D01*
X130743497Y-102750863D01*
X130970401Y-102907793D01*
X131185435Y-103080573D01*
X131375649Y-103258100D01*
X131528096Y-103429269D01*
X131629826Y-103582978D01*
X131640950Y-103604215D01*
X131695963Y-103697407D01*
X131743102Y-103761545D01*
X131747704Y-103766825D01*
X131787284Y-103827872D01*
X131833018Y-103914365D01*
X131870805Y-103997928D01*
X131886543Y-104050184D01*
X131886394Y-104050359D01*
X131848752Y-104052951D01*
X131750862Y-104055322D01*
X131601672Y-104057374D01*
X131410131Y-104059008D01*
X131185187Y-104060126D01*
X130935787Y-104060629D01*
X130801755Y-104060766D01*
X130541324Y-104061703D01*
X130333833Y-104064165D01*
X130167579Y-104068950D01*
X130030858Y-104076859D01*
X129911967Y-104088693D01*
X129799203Y-104105254D01*
X129680865Y-104127340D01*
X129545247Y-104155753D01*
X129200817Y-104236986D01*
X128633842Y-104407723D01*
X128102396Y-104620025D01*
X127593010Y-104880331D01*
X127092218Y-105195084D01*
X126586553Y-105570722D01*
X126576231Y-105578906D01*
X126468312Y-105657450D01*
X126399160Y-105690371D01*
X126359898Y-105682028D01*
X126348685Y-105657167D01*
X126334915Y-105563572D01*
X126327450Y-105409497D01*
X126326681Y-105200592D01*
X126328637Y-105086007D01*
X126336822Y-104899445D01*
X126353267Y-104747071D01*
X126381001Y-104605299D01*
X126423057Y-104450536D01*
X126463319Y-104324343D01*
X126642966Y-103901848D01*
X126878048Y-103520271D01*
X127165663Y-103182660D01*
X127502909Y-102892064D01*
X127886884Y-102651529D01*
X128314686Y-102464103D01*
X128416579Y-102428485D01*
X128515244Y-102397873D01*
X128607523Y-102376934D01*
X128708650Y-102363778D01*
X128833857Y-102356514D01*
X128998378Y-102353255D01*
X129217445Y-102352108D01*
X129312768Y-102352146D01*
G37*
G36*
X136701373Y-105333516D02*
G01*
X136701373Y-110287912D01*
X129200000Y-110287912D01*
X121698626Y-110287912D01*
X121698626Y-105333516D01*
X121698626Y-105276161D01*
X122473402Y-105276161D01*
X122474110Y-105316943D01*
X122501562Y-105336052D01*
X122581334Y-105389399D01*
X122705768Y-105471809D01*
X122867533Y-105578478D01*
X123059301Y-105704605D01*
X123273742Y-105845389D01*
X123503526Y-105996028D01*
X123741325Y-106151722D01*
X123979808Y-106307667D01*
X124211646Y-106459064D01*
X124429510Y-106601110D01*
X124626070Y-106729005D01*
X124793997Y-106837945D01*
X124925961Y-106923131D01*
X124976883Y-106955914D01*
X125044782Y-106999787D01*
X125120056Y-107048640D01*
X125206945Y-107105261D01*
X125309688Y-107172435D01*
X125432525Y-107252949D01*
X125579696Y-107349589D01*
X125755441Y-107465142D01*
X125964000Y-107602394D01*
X126209612Y-107764132D01*
X126496517Y-107953142D01*
X126828955Y-108172210D01*
X127211166Y-108424123D01*
X127647390Y-108711667D01*
X127665746Y-108723767D01*
X127906364Y-108882277D01*
X128145443Y-109039612D01*
X128371642Y-109188319D01*
X128573620Y-109320947D01*
X128740038Y-109430044D01*
X128859554Y-109508159D01*
X128987941Y-109591372D01*
X129100047Y-109663114D01*
X129177502Y-109711621D01*
X129208455Y-109729378D01*
X129223449Y-109720545D01*
X129288933Y-109678642D01*
X129398933Y-109607040D01*
X129545371Y-109511024D01*
X129720168Y-109395880D01*
X129915247Y-109266895D01*
X130407274Y-108941868D01*
X131132078Y-108466647D01*
X131811876Y-108025565D01*
X132453467Y-107614196D01*
X132488849Y-107591652D01*
X132694972Y-107460136D01*
X132895312Y-107332033D01*
X133076594Y-107215848D01*
X133225541Y-107120088D01*
X133328878Y-107053261D01*
X133415965Y-106996971D01*
X133562255Y-106903131D01*
X133740191Y-106789505D01*
X133934860Y-106665612D01*
X134131351Y-106540974D01*
X134378027Y-106384711D01*
X134727634Y-106162850D01*
X135024703Y-105973674D01*
X135273290Y-105814488D01*
X135477451Y-105682599D01*
X135641241Y-105575312D01*
X135768715Y-105489932D01*
X135863930Y-105423767D01*
X135930941Y-105374120D01*
X135973803Y-105338298D01*
X135996572Y-105313606D01*
X136003303Y-105297351D01*
X135996438Y-105280882D01*
X135944314Y-105226166D01*
X135852109Y-105152437D01*
X135733173Y-105070886D01*
X135689186Y-105042556D01*
X135566484Y-104962633D01*
X135400089Y-104853515D01*
X135199414Y-104721404D01*
X134973873Y-104572502D01*
X134732881Y-104413011D01*
X134485852Y-104249134D01*
X134309104Y-104131823D01*
X134007261Y-103932022D01*
X133726013Y-103746721D01*
X133453989Y-103568529D01*
X133179817Y-103390053D01*
X132892125Y-103203901D01*
X132579540Y-103002680D01*
X132230690Y-102778999D01*
X131834203Y-102525464D01*
X131721221Y-102453269D01*
X131249131Y-102151122D01*
X130825764Y-101879288D01*
X130442601Y-101632278D01*
X130091123Y-101404602D01*
X129762811Y-101190771D01*
X129729517Y-101169097D01*
X129523548Y-101039117D01*
X129365791Y-100947522D01*
X129258660Y-100895634D01*
X129204569Y-100884776D01*
X129161094Y-100908680D01*
X129068905Y-100965444D01*
X128938955Y-101048274D01*
X128781518Y-101150617D01*
X128606868Y-101265922D01*
X128399699Y-101403397D01*
X128073928Y-101618612D01*
X127717647Y-101853030D01*
X127337684Y-102102217D01*
X126940867Y-102361743D01*
X126534024Y-102627173D01*
X126123982Y-102894075D01*
X125717568Y-103158017D01*
X125321611Y-103414566D01*
X124942938Y-103659289D01*
X124588377Y-103887754D01*
X124264755Y-104095527D01*
X123978900Y-104278177D01*
X123737640Y-104431271D01*
X123547802Y-104550375D01*
X123445178Y-104614554D01*
X123291704Y-104711743D01*
X123156177Y-104798895D01*
X123059341Y-104862744D01*
X122978158Y-104916319D01*
X122838600Y-105005021D01*
X122702895Y-105088150D01*
X122629493Y-105134681D01*
X122527783Y-105212821D01*
X122473402Y-105276161D01*
X121698626Y-105276161D01*
X121698626Y-100379121D01*
X129200000Y-100379121D01*
X136701373Y-100379121D01*
X136701373Y-105297351D01*
X136701373Y-105333516D01*
G37*
D13*
X200200000Y-100500000D02*
X204600000Y-100500000D01*
X200200000Y-104900000D02*
X200200000Y-100500000D01*
X204600000Y-100500000D02*
X204600000Y-104900000D01*
X204600000Y-104900000D02*
X200200000Y-104900000D01*
X206600000Y-104200000D02*
X211000000Y-104200000D01*
X206600000Y-108600000D02*
X206600000Y-104200000D01*
X211000000Y-104200000D02*
X211000000Y-108600000D01*
X211000000Y-108600000D02*
X206600000Y-108600000D01*
%LPC*%
D14*
X157475000Y-111557000D03*
D15*
X162555000Y-111557000D03*
D16*
X165862000Y-43688000D03*
D17*
X163322000Y-43688000D03*
X160782000Y-43688000D03*
X158242000Y-43688000D03*
X155702000Y-43688000D03*
X153162000Y-43688000D03*
D18*
X209250000Y-30900000D03*
X209733274Y-29733274D03*
X209733274Y-32066726D03*
X210900000Y-29250000D03*
D19*
X210900000Y-30900000D03*
D18*
X210900000Y-32550000D03*
X212066726Y-29733274D03*
X212066726Y-32066726D03*
X212550000Y-30900000D03*
D20*
X145186400Y-66471800D03*
D21*
X147726400Y-66471800D03*
X150266400Y-66471800D03*
X152806400Y-66471800D03*
X155346400Y-66471800D03*
X155346400Y-53971800D03*
X152806400Y-53971800D03*
X150266400Y-53971800D03*
X147726400Y-53971800D03*
X145186400Y-53971800D03*
D15*
X209093000Y-41661000D03*
D14*
X209093000Y-36581000D03*
D22*
X136652000Y-43180000D03*
D23*
X139192000Y-43180000D03*
X141732000Y-43180000D03*
X144272000Y-43180000D03*
D22*
X208788000Y-89281000D03*
D23*
X208788000Y-86741000D03*
D24*
X198628000Y-65226000D03*
X198628000Y-58726000D03*
X203128000Y-65226000D03*
X203128000Y-58726000D03*
D25*
X189083000Y-43053000D03*
D24*
X181483000Y-43053000D03*
D15*
X198628000Y-111506000D03*
D14*
X203708000Y-111506000D03*
D26*
X176911000Y-31242000D03*
D27*
X179451000Y-31242000D03*
X181991000Y-31242000D03*
D22*
X149322000Y-113538000D03*
D23*
X146782000Y-113538000D03*
X144242000Y-113538000D03*
X141702000Y-113538000D03*
D20*
X190350000Y-64750000D03*
D21*
X190350000Y-62210000D03*
X190350000Y-59670000D03*
X190350000Y-57130000D03*
D22*
X152400000Y-97028000D03*
D23*
X154940000Y-97028000D03*
X157480000Y-97028000D03*
D18*
X118183274Y-30933274D03*
X118666548Y-29766548D03*
X118666548Y-32100000D03*
X119833274Y-29283274D03*
D19*
X119833274Y-30933274D03*
D18*
X119833274Y-32583274D03*
X121000000Y-29766548D03*
X121000000Y-32100000D03*
X121483274Y-30933274D03*
D22*
X208788000Y-67056000D03*
D23*
X208788000Y-69596000D03*
X208788000Y-72136000D03*
X208788000Y-74676000D03*
D18*
X209250000Y-113000000D03*
X209733274Y-111833274D03*
X209733274Y-114166726D03*
X210900000Y-111350000D03*
D19*
X210900000Y-113000000D03*
D18*
X210900000Y-114650000D03*
X212066726Y-111833274D03*
X212066726Y-114166726D03*
X212550000Y-113000000D03*
X117960274Y-113514274D03*
X118443548Y-112347548D03*
X118443548Y-114681000D03*
X119610274Y-111864274D03*
D19*
X119610274Y-113514274D03*
D18*
X119610274Y-115164274D03*
X120777000Y-112347548D03*
X120777000Y-114681000D03*
X121260274Y-113514274D03*
D28*
X197702000Y-89060000D03*
D29*
X200202000Y-89060000D03*
X202702000Y-89060000D03*
X197702000Y-83660000D03*
X200202000Y-83660000D03*
X202702000Y-83660000D03*
D30*
X119786400Y-61722000D03*
D31*
X119786400Y-64262000D03*
X119786400Y-66802000D03*
X119786400Y-69342000D03*
X119786400Y-71882000D03*
X119786400Y-74422000D03*
X119786400Y-87122000D03*
X119786400Y-89662000D03*
X119786400Y-92202000D03*
X119786400Y-94742000D03*
X119786400Y-97282000D03*
X119786400Y-99822000D03*
D22*
X208788000Y-95040000D03*
D23*
X208788000Y-97580000D03*
X208788000Y-100120000D03*
D22*
X157338000Y-92456000D03*
D23*
X154798000Y-92456000D03*
X152258000Y-92456000D03*
D16*
X143256000Y-97262000D03*
D17*
X140716000Y-97262000D03*
X138176000Y-97262000D03*
X135636000Y-97262000D03*
D24*
X198628000Y-78434000D03*
X198628000Y-71934000D03*
X203128000Y-78434000D03*
X203128000Y-71934000D03*
D32*
X198100000Y-51770000D03*
D33*
X198100000Y-49230000D03*
X198100000Y-46690000D03*
X198100000Y-44150000D03*
D34*
X181975000Y-102605000D03*
X181975000Y-100065000D03*
X181975000Y-97525000D03*
X181975000Y-94985000D03*
X181975000Y-92445000D03*
X181975000Y-89905000D03*
X181975000Y-87365000D03*
X181975000Y-84825000D03*
X181975000Y-82285000D03*
X181975000Y-79745000D03*
X181975000Y-77205000D03*
X181975000Y-74665000D03*
X181975000Y-72125000D03*
X181975000Y-69585000D03*
X181975000Y-67045000D03*
X181975000Y-64505000D03*
X181975000Y-61965000D03*
X181975000Y-59425000D03*
X181975000Y-56885000D03*
X181975000Y-54345000D03*
D22*
X166735000Y-54345000D03*
D34*
X166735000Y-56885000D03*
X166735000Y-59425000D03*
X166735000Y-61965000D03*
X166735000Y-64505000D03*
X166735000Y-67045000D03*
X166735000Y-69585000D03*
X166735000Y-72125000D03*
X166735000Y-74665000D03*
X166735000Y-77205000D03*
X166735000Y-79745000D03*
X166735000Y-82285000D03*
X166735000Y-84825000D03*
X166735000Y-87365000D03*
X166735000Y-89905000D03*
X166735000Y-92445000D03*
X166735000Y-94985000D03*
X166735000Y-97525000D03*
X166735000Y-100065000D03*
X166735000Y-102605000D03*
D15*
X167132000Y-32258000D03*
D14*
X162052000Y-32258000D03*
X156972000Y-32258000D03*
X151892000Y-32258000D03*
D22*
X188468000Y-75184000D03*
D23*
X188468000Y-77724000D03*
X188468000Y-80264000D03*
X188468000Y-82804000D03*
X188468000Y-85344000D03*
X188468000Y-87884000D03*
D35*
X125860000Y-45220000D03*
X128400000Y-37600000D03*
X125860000Y-32520000D03*
D15*
X186436000Y-111570000D03*
D14*
X191516000Y-111570000D03*
D36*
X197358000Y-99314000D03*
X199898000Y-96774000D03*
X202438000Y-99314000D03*
D22*
X135128000Y-29718000D03*
D23*
X135128000Y-32258000D03*
X137668000Y-29718000D03*
X137668000Y-32258000D03*
X140208000Y-29718000D03*
X140208000Y-32258000D03*
X142748000Y-29718000D03*
X142748000Y-32258000D03*
D22*
X126170000Y-70110000D03*
D23*
X126170000Y-72650000D03*
X126170000Y-75190000D03*
X126170000Y-77730000D03*
X126170000Y-80270000D03*
X126170000Y-82810000D03*
X126170000Y-85350000D03*
X126170000Y-87890000D03*
D15*
X209042000Y-53340000D03*
D14*
X209042000Y-48260000D03*
D37*
X204500000Y-93400000D03*
X202400000Y-102700000D03*
X208800000Y-106400000D03*
%LPD*%
M02*
