G04 #@! TF.GenerationSoftware,KiCad,Pcbnew,8.0.1*
G04 #@! TF.CreationDate,2024-03-31T20:51:03-03:00*
G04 #@! TF.ProjectId,Shield STM32 Bluepill,53686965-6c64-4205-9354-4d333220426c,2.0*
G04 #@! TF.SameCoordinates,Original*
G04 #@! TF.FileFunction,Soldermask,Top*
G04 #@! TF.FilePolarity,Negative*
%FSLAX46Y46*%
G04 Gerber Fmt 4.6, Leading zero omitted, Abs format (unit mm)*
G04 Created by KiCad (PCBNEW 8.0.1) date 2024-03-31 20:51:03*
%MOMM*%
%LPD*%
G01*
G04 APERTURE LIST*
G04 Aperture macros list*
%AMRoundRect*
0 Rectangle with rounded corners*
0 $1 Rounding radius*
0 $2 $3 $4 $5 $6 $7 $8 $9 X,Y pos of 4 corners*
0 Add a 4 corners polygon primitive as box body*
4,1,4,$2,$3,$4,$5,$6,$7,$8,$9,$2,$3,0*
0 Add four circle primitives for the rounded corners*
1,1,$1+$1,$2,$3*
1,1,$1+$1,$4,$5*
1,1,$1+$1,$6,$7*
1,1,$1+$1,$8,$9*
0 Add four rect primitives between the rounded corners*
20,1,$1+$1,$2,$3,$4,$5,0*
20,1,$1+$1,$4,$5,$6,$7,0*
20,1,$1+$1,$6,$7,$8,$9,0*
20,1,$1+$1,$8,$9,$2,$3,0*%
G04 Aperture macros list end*
%ADD10C,2.600000*%
%ADD11R,2.600000X2.600000*%
%ADD12RoundRect,0.250000X0.625000X-0.312500X0.625000X0.312500X-0.625000X0.312500X-0.625000X-0.312500X0*%
%ADD13RoundRect,0.150000X-0.587500X-0.150000X0.587500X-0.150000X0.587500X0.150000X-0.587500X0.150000X0*%
%ADD14RoundRect,0.250000X0.620000X0.845000X-0.620000X0.845000X-0.620000X-0.845000X0.620000X-0.845000X0*%
%ADD15O,1.740000X2.190000*%
%ADD16C,0.700000*%
%ADD17C,4.400000*%
%ADD18R,1.500000X1.500000*%
%ADD19C,1.500000*%
%ADD20R,1.700000X1.700000*%
%ADD21O,1.700000X1.700000*%
%ADD22RoundRect,0.250000X0.625000X-0.375000X0.625000X0.375000X-0.625000X0.375000X-0.625000X-0.375000X0*%
%ADD23C,2.000000*%
%ADD24R,2.000000X2.000000*%
%ADD25R,1.905000X2.000000*%
%ADD26O,1.905000X2.000000*%
%ADD27RoundRect,0.250000X-0.625000X0.312500X-0.625000X-0.312500X0.625000X-0.312500X0.625000X0.312500X0*%
%ADD28RoundRect,0.150000X-0.150000X0.587500X-0.150000X-0.587500X0.150000X-0.587500X0.150000X0.587500X0*%
%ADD29RoundRect,0.250000X-0.650000X0.325000X-0.650000X-0.325000X0.650000X-0.325000X0.650000X0.325000X0*%
%ADD30RoundRect,0.102000X-0.654000X-0.654000X0.654000X-0.654000X0.654000X0.654000X-0.654000X0.654000X0*%
%ADD31C,1.512000*%
%ADD32R,2.600000X1.800000*%
%ADD33O,2.600000X1.800000*%
%ADD34RoundRect,0.250000X0.312500X0.625000X-0.312500X0.625000X-0.312500X-0.625000X0.312500X-0.625000X0*%
%ADD35RoundRect,0.250000X0.845000X-0.620000X0.845000X0.620000X-0.845000X0.620000X-0.845000X-0.620000X0*%
%ADD36O,2.190000X1.740000*%
%ADD37C,1.700000*%
%ADD38C,1.800000*%
%ADD39R,1.500000X0.900000*%
%ADD40RoundRect,0.250000X1.750000X1.000000X-1.750000X1.000000X-1.750000X-1.000000X1.750000X-1.000000X0*%
%ADD41RoundRect,0.150000X0.587500X0.150000X-0.587500X0.150000X-0.587500X-0.150000X0.587500X-0.150000X0*%
%ADD42C,1.260000*%
G04 APERTURE END LIST*
D10*
X157475000Y-111557000D03*
D11*
X162555000Y-111557000D03*
D12*
X146900000Y-105475000D03*
X146900000Y-102550000D03*
D13*
X172417500Y-53980000D03*
X172417500Y-55880000D03*
X174292500Y-54930000D03*
D12*
X155981400Y-79806800D03*
X155981400Y-76881800D03*
D14*
X165862000Y-43688000D03*
D15*
X163322000Y-43688000D03*
X160782000Y-43688000D03*
X158242000Y-43688000D03*
X155702000Y-43688000D03*
X153162000Y-43688000D03*
D16*
X209250000Y-30900000D03*
X209733274Y-29733274D03*
X209733274Y-32066726D03*
X210900000Y-29250000D03*
D17*
X210900000Y-30900000D03*
D16*
X210900000Y-32550000D03*
X212066726Y-29733274D03*
X212066726Y-32066726D03*
X212550000Y-30900000D03*
D13*
X135257300Y-58290700D03*
X135257300Y-60190700D03*
X137132300Y-59240700D03*
D18*
X145186400Y-66471800D03*
D19*
X147726400Y-66471800D03*
X150266400Y-66471800D03*
X152806400Y-66471800D03*
X155346400Y-66471800D03*
X155346400Y-53971800D03*
X152806400Y-53971800D03*
X150266400Y-53971800D03*
X147726400Y-53971800D03*
X145186400Y-53971800D03*
D11*
X209093000Y-41661000D03*
D10*
X209093000Y-36581000D03*
D20*
X136652000Y-43180000D03*
D21*
X139192000Y-43180000D03*
X141732000Y-43180000D03*
X144272000Y-43180000D03*
D22*
X171704000Y-89154000D03*
X171704000Y-86354000D03*
D20*
X208788000Y-89281000D03*
D21*
X208788000Y-86741000D03*
D23*
X198628000Y-65226000D03*
X198628000Y-58726000D03*
X203128000Y-65226000D03*
X203128000Y-58726000D03*
D24*
X189083000Y-43053000D03*
D23*
X181483000Y-43053000D03*
D11*
X198628000Y-111506000D03*
D10*
X203708000Y-111506000D03*
D22*
X148312500Y-74221800D03*
X148312500Y-71421800D03*
D25*
X176911000Y-31242000D03*
D26*
X179451000Y-31242000D03*
X181991000Y-31242000D03*
D22*
X136875000Y-74221800D03*
X136875000Y-71421800D03*
D20*
X149322000Y-113538000D03*
D21*
X146782000Y-113538000D03*
X144242000Y-113538000D03*
X141702000Y-113538000D03*
D18*
X190350000Y-64750000D03*
D19*
X190350000Y-62210000D03*
X190350000Y-59670000D03*
X190350000Y-57130000D03*
D22*
X159750000Y-74221800D03*
X159750000Y-71421800D03*
D27*
X159791400Y-76881800D03*
X159791400Y-79806800D03*
D22*
X144500000Y-74221800D03*
X144500000Y-71421800D03*
D20*
X152400000Y-97028000D03*
D21*
X154940000Y-97028000D03*
X157480000Y-97028000D03*
D16*
X118183274Y-30933274D03*
X118666548Y-29766548D03*
X118666548Y-32100000D03*
X119833274Y-29283274D03*
D17*
X119833274Y-30933274D03*
D16*
X119833274Y-32583274D03*
X121000000Y-29766548D03*
X121000000Y-32100000D03*
X121483274Y-30933274D03*
D20*
X208788000Y-67056000D03*
D21*
X208788000Y-69596000D03*
X208788000Y-72136000D03*
X208788000Y-74676000D03*
D22*
X152125000Y-74221800D03*
X152125000Y-71421800D03*
D16*
X209250000Y-113000000D03*
X209733274Y-111833274D03*
X209733274Y-114166726D03*
X210900000Y-111350000D03*
D17*
X210900000Y-113000000D03*
D16*
X210900000Y-114650000D03*
X212066726Y-111833274D03*
X212066726Y-114166726D03*
X212550000Y-113000000D03*
X117960274Y-113514274D03*
X118443548Y-112347548D03*
X118443548Y-114681000D03*
X119610274Y-111864274D03*
D17*
X119610274Y-113514274D03*
D16*
X119610274Y-115164274D03*
X120777000Y-112347548D03*
X120777000Y-114681000D03*
X121260274Y-113514274D03*
D12*
X136931400Y-79806800D03*
X136931400Y-76881800D03*
D28*
X174764500Y-66692500D03*
X172864500Y-66692500D03*
X173814500Y-68567500D03*
D22*
X140687500Y-74221800D03*
X140687500Y-71421800D03*
D29*
X186182000Y-31418000D03*
X186182000Y-34368000D03*
D30*
X197702000Y-89060000D03*
D31*
X200202000Y-89060000D03*
X202702000Y-89060000D03*
X197702000Y-83660000D03*
X200202000Y-83660000D03*
X202702000Y-83660000D03*
D13*
X135290000Y-53050000D03*
X135290000Y-54950000D03*
X137165000Y-54000000D03*
D12*
X140741400Y-79806800D03*
X140741400Y-76881800D03*
D32*
X119786400Y-61722000D03*
D33*
X119786400Y-64262000D03*
X119786400Y-66802000D03*
X119786400Y-69342000D03*
X119786400Y-71882000D03*
X119786400Y-74422000D03*
X119786400Y-87122000D03*
X119786400Y-89662000D03*
X119786400Y-92202000D03*
X119786400Y-94742000D03*
X119786400Y-97282000D03*
X119786400Y-99822000D03*
D20*
X208788000Y-95040000D03*
D21*
X208788000Y-97580000D03*
X208788000Y-100120000D03*
D20*
X157338000Y-92456000D03*
D21*
X154798000Y-92456000D03*
X152258000Y-92456000D03*
D14*
X143256000Y-97262000D03*
D15*
X140716000Y-97262000D03*
X138176000Y-97262000D03*
X135636000Y-97262000D03*
D34*
X179070000Y-64135000D03*
X176145000Y-64135000D03*
D23*
X198628000Y-78434000D03*
X198628000Y-71934000D03*
X203128000Y-78434000D03*
X203128000Y-71934000D03*
D35*
X198100000Y-51770000D03*
D36*
X198100000Y-49230000D03*
X198100000Y-46690000D03*
X198100000Y-44150000D03*
D37*
X181975000Y-102605000D03*
X181975000Y-100065000D03*
X181975000Y-97525000D03*
X181975000Y-94985000D03*
X181975000Y-92445000D03*
X181975000Y-89905000D03*
X181975000Y-87365000D03*
X181975000Y-84825000D03*
X181975000Y-82285000D03*
X181975000Y-79745000D03*
X181975000Y-77205000D03*
X181975000Y-74665000D03*
X181975000Y-72125000D03*
X181975000Y-69585000D03*
X181975000Y-67045000D03*
X181975000Y-64505000D03*
X181975000Y-61965000D03*
X181975000Y-59425000D03*
X181975000Y-56885000D03*
X181975000Y-54345000D03*
D20*
X166735000Y-54345000D03*
D37*
X166735000Y-56885000D03*
X166735000Y-59425000D03*
X166735000Y-61965000D03*
X166735000Y-64505000D03*
X166735000Y-67045000D03*
X166735000Y-69585000D03*
X166735000Y-72125000D03*
X166735000Y-74665000D03*
X166735000Y-77205000D03*
X166735000Y-79745000D03*
X166735000Y-82285000D03*
X166735000Y-84825000D03*
X166735000Y-87365000D03*
X166735000Y-89905000D03*
X166735000Y-92445000D03*
X166735000Y-94985000D03*
X166735000Y-97525000D03*
X166735000Y-100065000D03*
X166735000Y-102605000D03*
D11*
X167132000Y-32258000D03*
D10*
X162052000Y-32258000D03*
X156972000Y-32258000D03*
X151892000Y-32258000D03*
D27*
X188976000Y-49784000D03*
X188976000Y-52709000D03*
D12*
X171450000Y-62230000D03*
X171450000Y-59305000D03*
D20*
X188468000Y-75184000D03*
D21*
X188468000Y-77724000D03*
X188468000Y-80264000D03*
X188468000Y-82804000D03*
X188468000Y-85344000D03*
X188468000Y-87884000D03*
D38*
X125860000Y-45220000D03*
X128400000Y-37600000D03*
X125860000Y-32520000D03*
D12*
X131025000Y-102475000D03*
X131025000Y-99550000D03*
D39*
X171392000Y-110050000D03*
X171392000Y-113350000D03*
X176292000Y-113350000D03*
X176292000Y-110050000D03*
D12*
X148361400Y-79806800D03*
X148361400Y-76881800D03*
X152171400Y-79806800D03*
X152171400Y-76881800D03*
X177800000Y-60837000D03*
X177800000Y-57912000D03*
D40*
X199834000Y-33020000D03*
X191834000Y-33020000D03*
D41*
X175562500Y-81595000D03*
X175562500Y-79695000D03*
X173687500Y-80645000D03*
D22*
X155937500Y-74221800D03*
X155937500Y-71421800D03*
D11*
X186436000Y-111570000D03*
D10*
X191516000Y-111570000D03*
D42*
X197358000Y-99314000D03*
X199898000Y-96774000D03*
X202438000Y-99314000D03*
D27*
X179450000Y-110050000D03*
X179450000Y-112975000D03*
D29*
X167350000Y-110000000D03*
X167350000Y-112950000D03*
D20*
X135128000Y-29718000D03*
D21*
X135128000Y-32258000D03*
X137668000Y-29718000D03*
X137668000Y-32258000D03*
X140208000Y-29718000D03*
X140208000Y-32258000D03*
X142748000Y-29718000D03*
X142748000Y-32258000D03*
D20*
X126170000Y-70110000D03*
D21*
X126170000Y-72650000D03*
X126170000Y-75190000D03*
X126170000Y-77730000D03*
X126170000Y-80270000D03*
X126170000Y-82810000D03*
X126170000Y-85350000D03*
X126170000Y-87890000D03*
D12*
X144551400Y-79806800D03*
X144551400Y-76881800D03*
D11*
X209042000Y-53340000D03*
D10*
X209042000Y-48260000D03*
D12*
X178308000Y-76454000D03*
X178308000Y-73529000D03*
D34*
X171196000Y-50292000D03*
X168271000Y-50292000D03*
D22*
X175514000Y-89154000D03*
X175514000Y-86354000D03*
M02*
